%TF.GenerationSoftware,KiCad,Pcbnew,8.0.2*%
%TF.CreationDate,2024-10-15T08:36:28-06:00*%
%TF.ProjectId,32u4_breakout,33327534-5f62-4726-9561-6b6f75742e6b,rev?*%
%TF.SameCoordinates,Original*%
%TF.FileFunction,Soldermask,Top*%
%TF.FilePolarity,Negative*%
%FSLAX46Y46*%
G04 Gerber Fmt 4.6, Leading zero omitted, Abs format (unit mm)*
G04 Created by KiCad (PCBNEW 8.0.2) date 2024-10-15 08:36:28*
%MOMM*%
%LPD*%
G01*
G04 APERTURE LIST*
G04 Aperture macros list*
%AMRoundRect*
0 Rectangle with rounded corners*
0 $1 Rounding radius*
0 $2 $3 $4 $5 $6 $7 $8 $9 X,Y pos of 4 corners*
0 Add a 4 corners polygon primitive as box body*
4,1,4,$2,$3,$4,$5,$6,$7,$8,$9,$2,$3,0*
0 Add four circle primitives for the rounded corners*
1,1,$1+$1,$2,$3*
1,1,$1+$1,$4,$5*
1,1,$1+$1,$6,$7*
1,1,$1+$1,$8,$9*
0 Add four rect primitives between the rounded corners*
20,1,$1+$1,$2,$3,$4,$5,0*
20,1,$1+$1,$4,$5,$6,$7,0*
20,1,$1+$1,$6,$7,$8,$9,0*
20,1,$1+$1,$8,$9,$2,$3,0*%
G04 Aperture macros list end*
%ADD10R,4.500000X2.000000*%
%ADD11R,1.700000X1.700000*%
%ADD12O,1.700000X1.700000*%
%ADD13RoundRect,0.250000X-0.312500X-0.625000X0.312500X-0.625000X0.312500X0.625000X-0.312500X0.625000X0*%
%ADD14RoundRect,0.250000X-0.650000X0.325000X-0.650000X-0.325000X0.650000X-0.325000X0.650000X0.325000X0*%
%ADD15RoundRect,0.250000X-0.375000X-0.625000X0.375000X-0.625000X0.375000X0.625000X-0.375000X0.625000X0*%
%ADD16R,1.500000X0.550000*%
%ADD17R,0.550000X1.500000*%
%ADD18RoundRect,0.250000X0.325000X0.650000X-0.325000X0.650000X-0.325000X-0.650000X0.325000X-0.650000X0*%
%ADD19RoundRect,0.250000X-0.325000X-0.650000X0.325000X-0.650000X0.325000X0.650000X-0.325000X0.650000X0*%
%ADD20RoundRect,0.250000X0.650000X-0.325000X0.650000X0.325000X-0.650000X0.325000X-0.650000X-0.325000X0*%
G04 APERTURE END LIST*
D10*
%TO.C,Y1*%
X144625000Y-73950000D03*
X136125000Y-73950000D03*
%TD*%
D11*
%TO.C,J4*%
X121900000Y-96390000D03*
D12*
X121900000Y-98930000D03*
X121900000Y-101470000D03*
X121900000Y-104010000D03*
X121900000Y-106550000D03*
X121900000Y-109090000D03*
%TD*%
D13*
%TO.C,R1*%
X136037500Y-98475000D03*
X138962500Y-98475000D03*
%TD*%
D14*
%TO.C,C3*%
X136525000Y-103675000D03*
X136525000Y-106625000D03*
%TD*%
D11*
%TO.C,J9*%
X149225000Y-115650000D03*
D12*
X149225000Y-118190000D03*
X146685000Y-115650000D03*
X146685000Y-118190000D03*
X144145000Y-115650000D03*
X144145000Y-118190000D03*
X141605000Y-115650000D03*
X141605000Y-118190000D03*
X139065000Y-115650000D03*
X139065000Y-118190000D03*
X136525000Y-115650000D03*
X136525000Y-118190000D03*
X133985000Y-115650000D03*
X133985000Y-118190000D03*
X131445000Y-115650000D03*
X131445000Y-118190000D03*
%TD*%
D15*
%TO.C,D1*%
X136100000Y-94875000D03*
X138900000Y-94875000D03*
%TD*%
D11*
%TO.C,J7*%
X158200000Y-64600000D03*
D12*
X158200000Y-62060000D03*
X158200000Y-59520000D03*
X158200000Y-56980000D03*
X158200000Y-54440000D03*
X158200000Y-51900000D03*
%TD*%
D16*
%TO.C,U1*%
X134675000Y-57275000D03*
X134675000Y-58075000D03*
X134675000Y-58875000D03*
X134675000Y-59675000D03*
X134675000Y-60475000D03*
X134675000Y-61275000D03*
X134675000Y-62075000D03*
X134675000Y-62875000D03*
X134675000Y-63675000D03*
X134675000Y-64475000D03*
X134675000Y-65275000D03*
D17*
X136375000Y-66975000D03*
X137175000Y-66975000D03*
X137975000Y-66975000D03*
X138775000Y-66975000D03*
X139575000Y-66975000D03*
X140375000Y-66975000D03*
X141175000Y-66975000D03*
X141975000Y-66975000D03*
X142775000Y-66975000D03*
X143575000Y-66975000D03*
X144375000Y-66975000D03*
D16*
X146075000Y-65275000D03*
X146075000Y-64475000D03*
X146075000Y-63675000D03*
X146075000Y-62875000D03*
X146075000Y-62075000D03*
X146075000Y-61275000D03*
X146075000Y-60475000D03*
X146075000Y-59675000D03*
X146075000Y-58875000D03*
X146075000Y-58075000D03*
X146075000Y-57275000D03*
D17*
X144375000Y-55575000D03*
X143575000Y-55575000D03*
X142775000Y-55575000D03*
X141975000Y-55575000D03*
X141175000Y-55575000D03*
X140375000Y-55575000D03*
X139575000Y-55575000D03*
X138775000Y-55575000D03*
X137975000Y-55575000D03*
X137175000Y-55575000D03*
X136375000Y-55575000D03*
%TD*%
D11*
%TO.C,J6*%
X158250000Y-86890000D03*
D12*
X158250000Y-84350000D03*
X158250000Y-81810000D03*
X158250000Y-79270000D03*
X158250000Y-76730000D03*
X158250000Y-74190000D03*
X158250000Y-71650000D03*
X158250000Y-69110000D03*
%TD*%
D18*
%TO.C,C1*%
X146525000Y-80050000D03*
X143575000Y-80050000D03*
%TD*%
D11*
%TO.C,J8*%
X131475000Y-44350000D03*
D12*
X131475000Y-41810000D03*
X134015000Y-44350000D03*
X134015000Y-41810000D03*
X136555000Y-44350000D03*
X136555000Y-41810000D03*
X139095000Y-44350000D03*
X139095000Y-41810000D03*
X141635000Y-44350000D03*
X141635000Y-41810000D03*
X144175000Y-44350000D03*
X144175000Y-41810000D03*
X146715000Y-44350000D03*
X146715000Y-41810000D03*
X149255000Y-44350000D03*
X149255000Y-41810000D03*
%TD*%
D11*
%TO.C,J1*%
X137850000Y-89150000D03*
D12*
X137850000Y-86610000D03*
X140390000Y-89150000D03*
X140390000Y-86610000D03*
X142930000Y-89150000D03*
X142930000Y-86610000D03*
%TD*%
D11*
%TO.C,J2*%
X121800000Y-51875000D03*
D12*
X121800000Y-54415000D03*
X121800000Y-56955000D03*
X121800000Y-59495000D03*
X121800000Y-62035000D03*
X121800000Y-64575000D03*
X121800000Y-67115000D03*
X121800000Y-69655000D03*
%TD*%
D19*
%TO.C,C2*%
X134425000Y-79950000D03*
X137375000Y-79950000D03*
%TD*%
D15*
%TO.C,D2*%
X142525000Y-94850000D03*
X145325000Y-94850000D03*
%TD*%
D11*
%TO.C,J5*%
X158225000Y-109065000D03*
D12*
X158225000Y-106525000D03*
X158225000Y-103985000D03*
X158225000Y-101445000D03*
X158225000Y-98905000D03*
X158225000Y-96365000D03*
X158225000Y-93825000D03*
X158225000Y-91285000D03*
%TD*%
D20*
%TO.C,C4*%
X132900000Y-106625000D03*
X132900000Y-103675000D03*
%TD*%
D13*
%TO.C,R2*%
X142450000Y-98450000D03*
X145375000Y-98450000D03*
%TD*%
D11*
%TO.C,J3*%
X121875000Y-74150000D03*
D12*
X121875000Y-76690000D03*
X121875000Y-79230000D03*
X121875000Y-81770000D03*
X121875000Y-84310000D03*
X121875000Y-86850000D03*
X121875000Y-89390000D03*
X121875000Y-91930000D03*
%TD*%
M02*
