%TF.GenerationSoftware,KiCad,Pcbnew,8.0.2*%
%TF.CreationDate,2024-07-23T13:49:49-06:00*%
%TF.ProjectId,32u4_breakout,33327534-5f62-4726-9561-6b6f75742e6b,rev?*%
%TF.SameCoordinates,Original*%
%TF.FileFunction,Paste,Top*%
%TF.FilePolarity,Positive*%
%FSLAX46Y46*%
G04 Gerber Fmt 4.6, Leading zero omitted, Abs format (unit mm)*
G04 Created by KiCad (PCBNEW 8.0.2) date 2024-07-23 13:49:49*
%MOMM*%
%LPD*%
G01*
G04 APERTURE LIST*
G04 Aperture macros list*
%AMRoundRect*
0 Rectangle with rounded corners*
0 $1 Rounding radius*
0 $2 $3 $4 $5 $6 $7 $8 $9 X,Y pos of 4 corners*
0 Add a 4 corners polygon primitive as box body*
4,1,4,$2,$3,$4,$5,$6,$7,$8,$9,$2,$3,0*
0 Add four circle primitives for the rounded corners*
1,1,$1+$1,$2,$3*
1,1,$1+$1,$4,$5*
1,1,$1+$1,$6,$7*
1,1,$1+$1,$8,$9*
0 Add four rect primitives between the rounded corners*
20,1,$1+$1,$2,$3,$4,$5,0*
20,1,$1+$1,$4,$5,$6,$7,0*
20,1,$1+$1,$6,$7,$8,$9,0*
20,1,$1+$1,$8,$9,$2,$3,0*%
G04 Aperture macros list end*
%ADD10RoundRect,0.250000X-0.312500X-0.625000X0.312500X-0.625000X0.312500X0.625000X-0.312500X0.625000X0*%
%ADD11RoundRect,0.250000X-0.375000X-0.625000X0.375000X-0.625000X0.375000X0.625000X-0.375000X0.625000X0*%
%ADD12R,4.500000X2.000000*%
%ADD13RoundRect,0.250000X-0.650000X0.325000X-0.650000X-0.325000X0.650000X-0.325000X0.650000X0.325000X0*%
%ADD14R,1.500000X0.550000*%
%ADD15R,0.550000X1.500000*%
%ADD16RoundRect,0.250000X0.325000X0.650000X-0.325000X0.650000X-0.325000X-0.650000X0.325000X-0.650000X0*%
%ADD17RoundRect,0.250000X-0.325000X-0.650000X0.325000X-0.650000X0.325000X0.650000X-0.325000X0.650000X0*%
%ADD18RoundRect,0.250000X0.650000X-0.325000X0.650000X0.325000X-0.650000X0.325000X-0.650000X-0.325000X0*%
G04 APERTURE END LIST*
D10*
%TO.C,R2*%
X142450000Y-98450000D03*
X145375000Y-98450000D03*
%TD*%
D11*
%TO.C,D2*%
X142525000Y-94850000D03*
X145325000Y-94850000D03*
%TD*%
D12*
%TO.C,Y1*%
X144625000Y-73950000D03*
X136125000Y-73950000D03*
%TD*%
D10*
%TO.C,R1*%
X136037500Y-98475000D03*
X138962500Y-98475000D03*
%TD*%
D13*
%TO.C,C3*%
X136525000Y-103675000D03*
X136525000Y-106625000D03*
%TD*%
D11*
%TO.C,D1*%
X136100000Y-94875000D03*
X138900000Y-94875000D03*
%TD*%
D14*
%TO.C,U1*%
X134675000Y-57275000D03*
X134675000Y-58075000D03*
X134675000Y-58875000D03*
X134675000Y-59675000D03*
X134675000Y-60475000D03*
X134675000Y-61275000D03*
X134675000Y-62075000D03*
X134675000Y-62875000D03*
X134675000Y-63675000D03*
X134675000Y-64475000D03*
X134675000Y-65275000D03*
D15*
X136375000Y-66975000D03*
X137175000Y-66975000D03*
X137975000Y-66975000D03*
X138775000Y-66975000D03*
X139575000Y-66975000D03*
X140375000Y-66975000D03*
X141175000Y-66975000D03*
X141975000Y-66975000D03*
X142775000Y-66975000D03*
X143575000Y-66975000D03*
X144375000Y-66975000D03*
D14*
X146075000Y-65275000D03*
X146075000Y-64475000D03*
X146075000Y-63675000D03*
X146075000Y-62875000D03*
X146075000Y-62075000D03*
X146075000Y-61275000D03*
X146075000Y-60475000D03*
X146075000Y-59675000D03*
X146075000Y-58875000D03*
X146075000Y-58075000D03*
X146075000Y-57275000D03*
D15*
X144375000Y-55575000D03*
X143575000Y-55575000D03*
X142775000Y-55575000D03*
X141975000Y-55575000D03*
X141175000Y-55575000D03*
X140375000Y-55575000D03*
X139575000Y-55575000D03*
X138775000Y-55575000D03*
X137975000Y-55575000D03*
X137175000Y-55575000D03*
X136375000Y-55575000D03*
%TD*%
D16*
%TO.C,C1*%
X146525000Y-80050000D03*
X143575000Y-80050000D03*
%TD*%
D17*
%TO.C,C2*%
X134425000Y-79950000D03*
X137375000Y-79950000D03*
%TD*%
D18*
%TO.C,C4*%
X132900000Y-106625000D03*
X132900000Y-103675000D03*
%TD*%
M02*
