M48
; DRILL file {KiCad 8.0.2} date 2024-10-15T08:36:33-0600
; FORMAT={-:-/ absolute / inch / decimal}
; #@! TF.CreationDate,2024-10-15T08:36:33-06:00
; #@! TF.GenerationSoftware,Kicad,Pcbnew,8.0.2
; #@! TF.FileFunction,Plated,1,2,PTH
FMAT,2
INCH
; #@! TA.AperFunction,Plated,PTH,ViaDrill
T1C0.0118
; #@! TA.AperFunction,Plated,PTH,ComponentDrill
T2C0.0394
%
G90
G05
T1
X5.1855Y-3.3155
X5.1998Y-3.3555
X5.2011Y-3.2092
X5.2262Y-2.2165
X5.2356Y-2.4155
X5.2518Y-2.3485
X5.2524Y-2.3117
X5.2529Y-2.3871
X5.3176Y-2.7275
X5.3212Y-3.5681
X5.3449Y-3.5938
X5.3835Y-2.3069
X5.4137Y-2.1387
X5.4321Y-2.2381
X5.469Y-2.2376
X5.4784Y-3.6125
X5.4993Y-2.8234
X5.5037Y-2.2434
X5.5385Y-2.259
X5.5701Y-2.2748
X5.5801Y-3.596
X5.6017Y-2.2906
X5.6341Y-2.3512
X5.6604Y-2.4528
X5.683Y-2.7001
X5.6841Y-2.1055
X5.6946Y-3.3817
X5.7195Y-3.5085
X5.7326Y-3.6778
T2
X4.7953Y-2.0423
X4.7953Y-2.1423
X4.7953Y-2.2423
X4.7953Y-2.3423
X4.7953Y-2.4423
X4.7953Y-2.5423
X4.7953Y-2.6423
X4.7953Y-2.7423
X4.7982Y-2.9193
X4.7982Y-3.0193
X4.7982Y-3.1193
X4.7982Y-3.2193
X4.7982Y-3.3193
X4.7982Y-3.4193
X4.7982Y-3.5193
X4.7982Y-3.6193
X4.7992Y-3.7949
X4.7992Y-3.8949
X4.7992Y-3.9949
X4.7992Y-4.0949
X4.7992Y-4.1949
X4.7992Y-4.2949
X5.175Y-4.5531
X5.175Y-4.6531
X5.1762Y-1.6461
X5.1762Y-1.7461
X5.275Y-4.5531
X5.275Y-4.6531
X5.2762Y-1.6461
X5.2762Y-1.7461
X5.375Y-4.5531
X5.375Y-4.6531
X5.3762Y-1.6461
X5.3762Y-1.7461
X5.4272Y-3.4098
X5.4272Y-3.5098
X5.475Y-4.5531
X5.475Y-4.6531
X5.4762Y-1.6461
X5.4762Y-1.7461
X5.5272Y-3.4098
X5.5272Y-3.5098
X5.575Y-4.5531
X5.575Y-4.6531
X5.5762Y-1.6461
X5.5762Y-1.7461
X5.6272Y-3.4098
X5.6272Y-3.5098
X5.675Y-4.5531
X5.675Y-4.6531
X5.6762Y-1.6461
X5.6762Y-1.7461
X5.775Y-4.5531
X5.775Y-4.6531
X5.7762Y-1.6461
X5.7762Y-1.7461
X5.875Y-4.5531
X5.875Y-4.6531
X5.8762Y-1.6461
X5.8762Y-1.7461
X6.2283Y-2.0433
X6.2283Y-2.1433
X6.2283Y-2.2433
X6.2283Y-2.3433
X6.2283Y-2.4433
X6.2283Y-2.5433
X6.2293Y-3.5939
X6.2293Y-3.6939
X6.2293Y-3.7939
X6.2293Y-3.8939
X6.2293Y-3.9939
X6.2293Y-4.0939
X6.2293Y-4.1939
X6.2293Y-4.2939
X6.2303Y-2.7209
X6.2303Y-2.8209
X6.2303Y-2.9209
X6.2303Y-3.0209
X6.2303Y-3.1209
X6.2303Y-3.2209
X6.2303Y-3.3209
X6.2303Y-3.4209
M30
