%TF.GenerationSoftware,KiCad,Pcbnew,8.0.2*%
%TF.CreationDate,2024-07-19T13:16:10-06:00*%
%TF.ProjectId,32u4_breakout,33327534-5f62-4726-9561-6b6f75742e6b,rev?*%
%TF.SameCoordinates,Original*%
%TF.FileFunction,Legend,Top*%
%TF.FilePolarity,Positive*%
%FSLAX46Y46*%
G04 Gerber Fmt 4.6, Leading zero omitted, Abs format (unit mm)*
G04 Created by KiCad (PCBNEW 8.0.2) date 2024-07-19 13:16:10*
%MOMM*%
%LPD*%
G01*
G04 APERTURE LIST*
%ADD10C,0.150000*%
%ADD11C,0.100000*%
%ADD12C,0.125000*%
%ADD13C,0.120000*%
G04 APERTURE END LIST*
D10*
X158040350Y-49153152D02*
X158040350Y-49819819D01*
X157802255Y-48772200D02*
X157564160Y-49486485D01*
X157564160Y-49486485D02*
X158183207Y-49486485D01*
X158992731Y-49153152D02*
X158992731Y-49819819D01*
X158754636Y-48772200D02*
X158516541Y-49486485D01*
X158516541Y-49486485D02*
X159135588Y-49486485D01*
X157489160Y-111190057D02*
X157536779Y-111142438D01*
X157536779Y-111142438D02*
X157632017Y-111094819D01*
X157632017Y-111094819D02*
X157870112Y-111094819D01*
X157870112Y-111094819D02*
X157965350Y-111142438D01*
X157965350Y-111142438D02*
X158012969Y-111190057D01*
X158012969Y-111190057D02*
X158060588Y-111285295D01*
X158060588Y-111285295D02*
X158060588Y-111380533D01*
X158060588Y-111380533D02*
X158012969Y-111523390D01*
X158012969Y-111523390D02*
X157441541Y-112094819D01*
X157441541Y-112094819D02*
X158060588Y-112094819D01*
X158393922Y-111094819D02*
X159012969Y-111094819D01*
X159012969Y-111094819D02*
X158679636Y-111475771D01*
X158679636Y-111475771D02*
X158822493Y-111475771D01*
X158822493Y-111475771D02*
X158917731Y-111523390D01*
X158917731Y-111523390D02*
X158965350Y-111571009D01*
X158965350Y-111571009D02*
X159012969Y-111666247D01*
X159012969Y-111666247D02*
X159012969Y-111904342D01*
X159012969Y-111904342D02*
X158965350Y-111999580D01*
X158965350Y-111999580D02*
X158917731Y-112047200D01*
X158917731Y-112047200D02*
X158822493Y-112094819D01*
X158822493Y-112094819D02*
X158536779Y-112094819D01*
X158536779Y-112094819D02*
X158441541Y-112047200D01*
X158441541Y-112047200D02*
X158393922Y-111999580D01*
X121289160Y-111265057D02*
X121336779Y-111217438D01*
X121336779Y-111217438D02*
X121432017Y-111169819D01*
X121432017Y-111169819D02*
X121670112Y-111169819D01*
X121670112Y-111169819D02*
X121765350Y-111217438D01*
X121765350Y-111217438D02*
X121812969Y-111265057D01*
X121812969Y-111265057D02*
X121860588Y-111360295D01*
X121860588Y-111360295D02*
X121860588Y-111455533D01*
X121860588Y-111455533D02*
X121812969Y-111598390D01*
X121812969Y-111598390D02*
X121241541Y-112169819D01*
X121241541Y-112169819D02*
X121860588Y-112169819D01*
X122241541Y-111265057D02*
X122289160Y-111217438D01*
X122289160Y-111217438D02*
X122384398Y-111169819D01*
X122384398Y-111169819D02*
X122622493Y-111169819D01*
X122622493Y-111169819D02*
X122717731Y-111217438D01*
X122717731Y-111217438D02*
X122765350Y-111265057D01*
X122765350Y-111265057D02*
X122812969Y-111360295D01*
X122812969Y-111360295D02*
X122812969Y-111455533D01*
X122812969Y-111455533D02*
X122765350Y-111598390D01*
X122765350Y-111598390D02*
X122193922Y-112169819D01*
X122193922Y-112169819D02*
X122812969Y-112169819D01*
X122110588Y-49744819D02*
X121539160Y-49744819D01*
X121824874Y-49744819D02*
X121824874Y-48744819D01*
X121824874Y-48744819D02*
X121729636Y-48887676D01*
X121729636Y-48887676D02*
X121634398Y-48982914D01*
X121634398Y-48982914D02*
X121539160Y-49030533D01*
D11*
X132900000Y-109050000D02*
X132900000Y-111425000D01*
X133975000Y-112500000D02*
X133975000Y-114300000D01*
X136525000Y-109100000D02*
X136525000Y-114300000D01*
X132900000Y-111425000D02*
X133975000Y-112500000D01*
D10*
X143567438Y-112864411D02*
X143519819Y-112959649D01*
X143519819Y-112959649D02*
X143519819Y-113102506D01*
X143519819Y-113102506D02*
X143567438Y-113245363D01*
X143567438Y-113245363D02*
X143662676Y-113340601D01*
X143662676Y-113340601D02*
X143757914Y-113388220D01*
X143757914Y-113388220D02*
X143948390Y-113435839D01*
X143948390Y-113435839D02*
X144091247Y-113435839D01*
X144091247Y-113435839D02*
X144281723Y-113388220D01*
X144281723Y-113388220D02*
X144376961Y-113340601D01*
X144376961Y-113340601D02*
X144472200Y-113245363D01*
X144472200Y-113245363D02*
X144519819Y-113102506D01*
X144519819Y-113102506D02*
X144519819Y-113007268D01*
X144519819Y-113007268D02*
X144472200Y-112864411D01*
X144472200Y-112864411D02*
X144424580Y-112816792D01*
X144424580Y-112816792D02*
X144091247Y-112816792D01*
X144091247Y-112816792D02*
X144091247Y-113007268D01*
X144519819Y-112388220D02*
X143519819Y-112388220D01*
X143519819Y-112388220D02*
X144519819Y-111816792D01*
X144519819Y-111816792D02*
X143519819Y-111816792D01*
X144519819Y-111340601D02*
X143519819Y-111340601D01*
X143519819Y-111340601D02*
X143519819Y-111102506D01*
X143519819Y-111102506D02*
X143567438Y-110959649D01*
X143567438Y-110959649D02*
X143662676Y-110864411D01*
X143662676Y-110864411D02*
X143757914Y-110816792D01*
X143757914Y-110816792D02*
X143948390Y-110769173D01*
X143948390Y-110769173D02*
X144091247Y-110769173D01*
X144091247Y-110769173D02*
X144281723Y-110816792D01*
X144281723Y-110816792D02*
X144376961Y-110864411D01*
X144376961Y-110864411D02*
X144472200Y-110959649D01*
X144472200Y-110959649D02*
X144519819Y-111102506D01*
X144519819Y-111102506D02*
X144519819Y-111340601D01*
X143615057Y-110388220D02*
X143567438Y-110340601D01*
X143567438Y-110340601D02*
X143519819Y-110245363D01*
X143519819Y-110245363D02*
X143519819Y-110007268D01*
X143519819Y-110007268D02*
X143567438Y-109912030D01*
X143567438Y-109912030D02*
X143615057Y-109864411D01*
X143615057Y-109864411D02*
X143710295Y-109816792D01*
X143710295Y-109816792D02*
X143805533Y-109816792D01*
X143805533Y-109816792D02*
X143948390Y-109864411D01*
X143948390Y-109864411D02*
X144519819Y-110435839D01*
X144519819Y-110435839D02*
X144519819Y-109816792D01*
X143519819Y-109483458D02*
X143519819Y-108864411D01*
X143519819Y-108864411D02*
X143900771Y-109197744D01*
X143900771Y-109197744D02*
X143900771Y-109054887D01*
X143900771Y-109054887D02*
X143948390Y-108959649D01*
X143948390Y-108959649D02*
X143996009Y-108912030D01*
X143996009Y-108912030D02*
X144091247Y-108864411D01*
X144091247Y-108864411D02*
X144329342Y-108864411D01*
X144329342Y-108864411D02*
X144424580Y-108912030D01*
X144424580Y-108912030D02*
X144472200Y-108959649D01*
X144472200Y-108959649D02*
X144519819Y-109054887D01*
X144519819Y-109054887D02*
X144519819Y-109340601D01*
X144519819Y-109340601D02*
X144472200Y-109435839D01*
X144472200Y-109435839D02*
X144424580Y-109483458D01*
X153336779Y-104344819D02*
X153336779Y-103344819D01*
X153336779Y-103344819D02*
X153717731Y-103344819D01*
X153717731Y-103344819D02*
X153812969Y-103392438D01*
X153812969Y-103392438D02*
X153860588Y-103440057D01*
X153860588Y-103440057D02*
X153908207Y-103535295D01*
X153908207Y-103535295D02*
X153908207Y-103678152D01*
X153908207Y-103678152D02*
X153860588Y-103773390D01*
X153860588Y-103773390D02*
X153812969Y-103821009D01*
X153812969Y-103821009D02*
X153717731Y-103868628D01*
X153717731Y-103868628D02*
X153336779Y-103868628D01*
X154336779Y-104344819D02*
X154336779Y-103344819D01*
X154336779Y-103344819D02*
X154574874Y-103344819D01*
X154574874Y-103344819D02*
X154717731Y-103392438D01*
X154717731Y-103392438D02*
X154812969Y-103487676D01*
X154812969Y-103487676D02*
X154860588Y-103582914D01*
X154860588Y-103582914D02*
X154908207Y-103773390D01*
X154908207Y-103773390D02*
X154908207Y-103916247D01*
X154908207Y-103916247D02*
X154860588Y-104106723D01*
X154860588Y-104106723D02*
X154812969Y-104201961D01*
X154812969Y-104201961D02*
X154717731Y-104297200D01*
X154717731Y-104297200D02*
X154574874Y-104344819D01*
X154574874Y-104344819D02*
X154336779Y-104344819D01*
X155765350Y-103678152D02*
X155765350Y-104344819D01*
X155527255Y-103297200D02*
X155289160Y-104011485D01*
X155289160Y-104011485D02*
X155908207Y-104011485D01*
X153636779Y-62444819D02*
X153636779Y-61444819D01*
X153636779Y-61444819D02*
X154017731Y-61444819D01*
X154017731Y-61444819D02*
X154112969Y-61492438D01*
X154112969Y-61492438D02*
X154160588Y-61540057D01*
X154160588Y-61540057D02*
X154208207Y-61635295D01*
X154208207Y-61635295D02*
X154208207Y-61778152D01*
X154208207Y-61778152D02*
X154160588Y-61873390D01*
X154160588Y-61873390D02*
X154112969Y-61921009D01*
X154112969Y-61921009D02*
X154017731Y-61968628D01*
X154017731Y-61968628D02*
X153636779Y-61968628D01*
X154970112Y-61921009D02*
X154636779Y-61921009D01*
X154636779Y-62444819D02*
X154636779Y-61444819D01*
X154636779Y-61444819D02*
X155112969Y-61444819D01*
X156017731Y-62444819D02*
X155446303Y-62444819D01*
X155732017Y-62444819D02*
X155732017Y-61444819D01*
X155732017Y-61444819D02*
X155636779Y-61587676D01*
X155636779Y-61587676D02*
X155541541Y-61682914D01*
X155541541Y-61682914D02*
X155446303Y-61730533D01*
X146117438Y-112889411D02*
X146069819Y-112984649D01*
X146069819Y-112984649D02*
X146069819Y-113127506D01*
X146069819Y-113127506D02*
X146117438Y-113270363D01*
X146117438Y-113270363D02*
X146212676Y-113365601D01*
X146212676Y-113365601D02*
X146307914Y-113413220D01*
X146307914Y-113413220D02*
X146498390Y-113460839D01*
X146498390Y-113460839D02*
X146641247Y-113460839D01*
X146641247Y-113460839D02*
X146831723Y-113413220D01*
X146831723Y-113413220D02*
X146926961Y-113365601D01*
X146926961Y-113365601D02*
X147022200Y-113270363D01*
X147022200Y-113270363D02*
X147069819Y-113127506D01*
X147069819Y-113127506D02*
X147069819Y-113032268D01*
X147069819Y-113032268D02*
X147022200Y-112889411D01*
X147022200Y-112889411D02*
X146974580Y-112841792D01*
X146974580Y-112841792D02*
X146641247Y-112841792D01*
X146641247Y-112841792D02*
X146641247Y-113032268D01*
X147069819Y-112413220D02*
X146069819Y-112413220D01*
X146069819Y-112413220D02*
X147069819Y-111841792D01*
X147069819Y-111841792D02*
X146069819Y-111841792D01*
X147069819Y-111365601D02*
X146069819Y-111365601D01*
X146069819Y-111365601D02*
X146069819Y-111127506D01*
X146069819Y-111127506D02*
X146117438Y-110984649D01*
X146117438Y-110984649D02*
X146212676Y-110889411D01*
X146212676Y-110889411D02*
X146307914Y-110841792D01*
X146307914Y-110841792D02*
X146498390Y-110794173D01*
X146498390Y-110794173D02*
X146641247Y-110794173D01*
X146641247Y-110794173D02*
X146831723Y-110841792D01*
X146831723Y-110841792D02*
X146926961Y-110889411D01*
X146926961Y-110889411D02*
X147022200Y-110984649D01*
X147022200Y-110984649D02*
X147069819Y-111127506D01*
X147069819Y-111127506D02*
X147069819Y-111365601D01*
X147069819Y-109841792D02*
X147069819Y-110413220D01*
X147069819Y-110127506D02*
X146069819Y-110127506D01*
X146069819Y-110127506D02*
X146212676Y-110222744D01*
X146212676Y-110222744D02*
X146307914Y-110317982D01*
X146307914Y-110317982D02*
X146355533Y-110413220D01*
X146069819Y-108937030D02*
X146069819Y-109413220D01*
X146069819Y-109413220D02*
X146546009Y-109460839D01*
X146546009Y-109460839D02*
X146498390Y-109413220D01*
X146498390Y-109413220D02*
X146450771Y-109317982D01*
X146450771Y-109317982D02*
X146450771Y-109079887D01*
X146450771Y-109079887D02*
X146498390Y-108984649D01*
X146498390Y-108984649D02*
X146546009Y-108937030D01*
X146546009Y-108937030D02*
X146641247Y-108889411D01*
X146641247Y-108889411D02*
X146879342Y-108889411D01*
X146879342Y-108889411D02*
X146974580Y-108937030D01*
X146974580Y-108937030D02*
X147022200Y-108984649D01*
X147022200Y-108984649D02*
X147069819Y-109079887D01*
X147069819Y-109079887D02*
X147069819Y-109317982D01*
X147069819Y-109317982D02*
X147022200Y-109413220D01*
X147022200Y-109413220D02*
X146974580Y-109460839D01*
X124136779Y-101849819D02*
X124136779Y-100849819D01*
X124136779Y-100849819D02*
X124517731Y-100849819D01*
X124517731Y-100849819D02*
X124612969Y-100897438D01*
X124612969Y-100897438D02*
X124660588Y-100945057D01*
X124660588Y-100945057D02*
X124708207Y-101040295D01*
X124708207Y-101040295D02*
X124708207Y-101183152D01*
X124708207Y-101183152D02*
X124660588Y-101278390D01*
X124660588Y-101278390D02*
X124612969Y-101326009D01*
X124612969Y-101326009D02*
X124517731Y-101373628D01*
X124517731Y-101373628D02*
X124136779Y-101373628D01*
X125136779Y-101849819D02*
X125136779Y-100849819D01*
X125136779Y-100849819D02*
X125374874Y-100849819D01*
X125374874Y-100849819D02*
X125517731Y-100897438D01*
X125517731Y-100897438D02*
X125612969Y-100992676D01*
X125612969Y-100992676D02*
X125660588Y-101087914D01*
X125660588Y-101087914D02*
X125708207Y-101278390D01*
X125708207Y-101278390D02*
X125708207Y-101421247D01*
X125708207Y-101421247D02*
X125660588Y-101611723D01*
X125660588Y-101611723D02*
X125612969Y-101706961D01*
X125612969Y-101706961D02*
X125517731Y-101802200D01*
X125517731Y-101802200D02*
X125374874Y-101849819D01*
X125374874Y-101849819D02*
X125136779Y-101849819D01*
X126660588Y-101849819D02*
X126089160Y-101849819D01*
X126374874Y-101849819D02*
X126374874Y-100849819D01*
X126374874Y-100849819D02*
X126279636Y-100992676D01*
X126279636Y-100992676D02*
X126184398Y-101087914D01*
X126184398Y-101087914D02*
X126089160Y-101135533D01*
X124136779Y-53799819D02*
X124136779Y-54609342D01*
X124136779Y-54609342D02*
X124184398Y-54704580D01*
X124184398Y-54704580D02*
X124232017Y-54752200D01*
X124232017Y-54752200D02*
X124327255Y-54799819D01*
X124327255Y-54799819D02*
X124517731Y-54799819D01*
X124517731Y-54799819D02*
X124612969Y-54752200D01*
X124612969Y-54752200D02*
X124660588Y-54704580D01*
X124660588Y-54704580D02*
X124708207Y-54609342D01*
X124708207Y-54609342D02*
X124708207Y-53799819D01*
X125041541Y-53799819D02*
X125374874Y-54799819D01*
X125374874Y-54799819D02*
X125708207Y-53799819D01*
X126612969Y-54704580D02*
X126565350Y-54752200D01*
X126565350Y-54752200D02*
X126422493Y-54799819D01*
X126422493Y-54799819D02*
X126327255Y-54799819D01*
X126327255Y-54799819D02*
X126184398Y-54752200D01*
X126184398Y-54752200D02*
X126089160Y-54656961D01*
X126089160Y-54656961D02*
X126041541Y-54561723D01*
X126041541Y-54561723D02*
X125993922Y-54371247D01*
X125993922Y-54371247D02*
X125993922Y-54228390D01*
X125993922Y-54228390D02*
X126041541Y-54037914D01*
X126041541Y-54037914D02*
X126089160Y-53942676D01*
X126089160Y-53942676D02*
X126184398Y-53847438D01*
X126184398Y-53847438D02*
X126327255Y-53799819D01*
X126327255Y-53799819D02*
X126422493Y-53799819D01*
X126422493Y-53799819D02*
X126565350Y-53847438D01*
X126565350Y-53847438D02*
X126612969Y-53895057D01*
X127612969Y-54704580D02*
X127565350Y-54752200D01*
X127565350Y-54752200D02*
X127422493Y-54799819D01*
X127422493Y-54799819D02*
X127327255Y-54799819D01*
X127327255Y-54799819D02*
X127184398Y-54752200D01*
X127184398Y-54752200D02*
X127089160Y-54656961D01*
X127089160Y-54656961D02*
X127041541Y-54561723D01*
X127041541Y-54561723D02*
X126993922Y-54371247D01*
X126993922Y-54371247D02*
X126993922Y-54228390D01*
X126993922Y-54228390D02*
X127041541Y-54037914D01*
X127041541Y-54037914D02*
X127089160Y-53942676D01*
X127089160Y-53942676D02*
X127184398Y-53847438D01*
X127184398Y-53847438D02*
X127327255Y-53799819D01*
X127327255Y-53799819D02*
X127422493Y-53799819D01*
X127422493Y-53799819D02*
X127565350Y-53847438D01*
X127565350Y-53847438D02*
X127612969Y-53895057D01*
X143544819Y-50131077D02*
X144544819Y-49797744D01*
X144544819Y-49797744D02*
X143544819Y-49464411D01*
X144021009Y-48797744D02*
X144068628Y-48654887D01*
X144068628Y-48654887D02*
X144116247Y-48607268D01*
X144116247Y-48607268D02*
X144211485Y-48559649D01*
X144211485Y-48559649D02*
X144354342Y-48559649D01*
X144354342Y-48559649D02*
X144449580Y-48607268D01*
X144449580Y-48607268D02*
X144497200Y-48654887D01*
X144497200Y-48654887D02*
X144544819Y-48750125D01*
X144544819Y-48750125D02*
X144544819Y-49131077D01*
X144544819Y-49131077D02*
X143544819Y-49131077D01*
X143544819Y-49131077D02*
X143544819Y-48797744D01*
X143544819Y-48797744D02*
X143592438Y-48702506D01*
X143592438Y-48702506D02*
X143640057Y-48654887D01*
X143640057Y-48654887D02*
X143735295Y-48607268D01*
X143735295Y-48607268D02*
X143830533Y-48607268D01*
X143830533Y-48607268D02*
X143925771Y-48654887D01*
X143925771Y-48654887D02*
X143973390Y-48702506D01*
X143973390Y-48702506D02*
X144021009Y-48797744D01*
X144021009Y-48797744D02*
X144021009Y-49131077D01*
X143544819Y-48131077D02*
X144354342Y-48131077D01*
X144354342Y-48131077D02*
X144449580Y-48083458D01*
X144449580Y-48083458D02*
X144497200Y-48035839D01*
X144497200Y-48035839D02*
X144544819Y-47940601D01*
X144544819Y-47940601D02*
X144544819Y-47750125D01*
X144544819Y-47750125D02*
X144497200Y-47654887D01*
X144497200Y-47654887D02*
X144449580Y-47607268D01*
X144449580Y-47607268D02*
X144354342Y-47559649D01*
X144354342Y-47559649D02*
X143544819Y-47559649D01*
X144497200Y-47131077D02*
X144544819Y-46988220D01*
X144544819Y-46988220D02*
X144544819Y-46750125D01*
X144544819Y-46750125D02*
X144497200Y-46654887D01*
X144497200Y-46654887D02*
X144449580Y-46607268D01*
X144449580Y-46607268D02*
X144354342Y-46559649D01*
X144354342Y-46559649D02*
X144259104Y-46559649D01*
X144259104Y-46559649D02*
X144163866Y-46607268D01*
X144163866Y-46607268D02*
X144116247Y-46654887D01*
X144116247Y-46654887D02*
X144068628Y-46750125D01*
X144068628Y-46750125D02*
X144021009Y-46940601D01*
X144021009Y-46940601D02*
X143973390Y-47035839D01*
X143973390Y-47035839D02*
X143925771Y-47083458D01*
X143925771Y-47083458D02*
X143830533Y-47131077D01*
X143830533Y-47131077D02*
X143735295Y-47131077D01*
X143735295Y-47131077D02*
X143640057Y-47083458D01*
X143640057Y-47083458D02*
X143592438Y-47035839D01*
X143592438Y-47035839D02*
X143544819Y-46940601D01*
X143544819Y-46940601D02*
X143544819Y-46702506D01*
X143544819Y-46702506D02*
X143592438Y-46559649D01*
D12*
X124120331Y-104401119D02*
X124120331Y-103401119D01*
X124120331Y-103401119D02*
X124501283Y-103401119D01*
X124501283Y-103401119D02*
X124596521Y-103448738D01*
X124596521Y-103448738D02*
X124644140Y-103496357D01*
X124644140Y-103496357D02*
X124691759Y-103591595D01*
X124691759Y-103591595D02*
X124691759Y-103734452D01*
X124691759Y-103734452D02*
X124644140Y-103829690D01*
X124644140Y-103829690D02*
X124596521Y-103877309D01*
X124596521Y-103877309D02*
X124501283Y-103924928D01*
X124501283Y-103924928D02*
X124120331Y-103924928D01*
X125120331Y-104401119D02*
X125120331Y-103401119D01*
X125120331Y-103401119D02*
X125358426Y-103401119D01*
X125358426Y-103401119D02*
X125501283Y-103448738D01*
X125501283Y-103448738D02*
X125596521Y-103543976D01*
X125596521Y-103543976D02*
X125644140Y-103639214D01*
X125644140Y-103639214D02*
X125691759Y-103829690D01*
X125691759Y-103829690D02*
X125691759Y-103972547D01*
X125691759Y-103972547D02*
X125644140Y-104163023D01*
X125644140Y-104163023D02*
X125596521Y-104258261D01*
X125596521Y-104258261D02*
X125501283Y-104353500D01*
X125501283Y-104353500D02*
X125358426Y-104401119D01*
X125358426Y-104401119D02*
X125120331Y-104401119D01*
X126072712Y-103496357D02*
X126120331Y-103448738D01*
X126120331Y-103448738D02*
X126215569Y-103401119D01*
X126215569Y-103401119D02*
X126453664Y-103401119D01*
X126453664Y-103401119D02*
X126548902Y-103448738D01*
X126548902Y-103448738D02*
X126596521Y-103496357D01*
X126596521Y-103496357D02*
X126644140Y-103591595D01*
X126644140Y-103591595D02*
X126644140Y-103686833D01*
X126644140Y-103686833D02*
X126596521Y-103829690D01*
X126596521Y-103829690D02*
X126025093Y-104401119D01*
X126025093Y-104401119D02*
X126644140Y-104401119D01*
X124120331Y-59876119D02*
X124120331Y-58876119D01*
X124120331Y-58876119D02*
X124358426Y-58876119D01*
X124358426Y-58876119D02*
X124501283Y-58923738D01*
X124501283Y-58923738D02*
X124596521Y-59018976D01*
X124596521Y-59018976D02*
X124644140Y-59114214D01*
X124644140Y-59114214D02*
X124691759Y-59304690D01*
X124691759Y-59304690D02*
X124691759Y-59447547D01*
X124691759Y-59447547D02*
X124644140Y-59638023D01*
X124644140Y-59638023D02*
X124596521Y-59733261D01*
X124596521Y-59733261D02*
X124501283Y-59828500D01*
X124501283Y-59828500D02*
X124358426Y-59876119D01*
X124358426Y-59876119D02*
X124120331Y-59876119D01*
X125120331Y-59495166D02*
X125882236Y-59495166D01*
X125501283Y-59876119D02*
X125501283Y-59114214D01*
D10*
X133394819Y-50956077D02*
X134394819Y-50622744D01*
X134394819Y-50622744D02*
X133394819Y-50289411D01*
X134299580Y-49384649D02*
X134347200Y-49432268D01*
X134347200Y-49432268D02*
X134394819Y-49575125D01*
X134394819Y-49575125D02*
X134394819Y-49670363D01*
X134394819Y-49670363D02*
X134347200Y-49813220D01*
X134347200Y-49813220D02*
X134251961Y-49908458D01*
X134251961Y-49908458D02*
X134156723Y-49956077D01*
X134156723Y-49956077D02*
X133966247Y-50003696D01*
X133966247Y-50003696D02*
X133823390Y-50003696D01*
X133823390Y-50003696D02*
X133632914Y-49956077D01*
X133632914Y-49956077D02*
X133537676Y-49908458D01*
X133537676Y-49908458D02*
X133442438Y-49813220D01*
X133442438Y-49813220D02*
X133394819Y-49670363D01*
X133394819Y-49670363D02*
X133394819Y-49575125D01*
X133394819Y-49575125D02*
X133442438Y-49432268D01*
X133442438Y-49432268D02*
X133490057Y-49384649D01*
X134299580Y-48384649D02*
X134347200Y-48432268D01*
X134347200Y-48432268D02*
X134394819Y-48575125D01*
X134394819Y-48575125D02*
X134394819Y-48670363D01*
X134394819Y-48670363D02*
X134347200Y-48813220D01*
X134347200Y-48813220D02*
X134251961Y-48908458D01*
X134251961Y-48908458D02*
X134156723Y-48956077D01*
X134156723Y-48956077D02*
X133966247Y-49003696D01*
X133966247Y-49003696D02*
X133823390Y-49003696D01*
X133823390Y-49003696D02*
X133632914Y-48956077D01*
X133632914Y-48956077D02*
X133537676Y-48908458D01*
X133537676Y-48908458D02*
X133442438Y-48813220D01*
X133442438Y-48813220D02*
X133394819Y-48670363D01*
X133394819Y-48670363D02*
X133394819Y-48575125D01*
X133394819Y-48575125D02*
X133442438Y-48432268D01*
X133442438Y-48432268D02*
X133490057Y-48384649D01*
X134394819Y-47432268D02*
X134394819Y-48003696D01*
X134394819Y-47717982D02*
X133394819Y-47717982D01*
X133394819Y-47717982D02*
X133537676Y-47813220D01*
X133537676Y-47813220D02*
X133632914Y-47908458D01*
X133632914Y-47908458D02*
X133680533Y-48003696D01*
X133728152Y-46575125D02*
X134394819Y-46575125D01*
X133347200Y-46813220D02*
X134061485Y-47051315D01*
X134061485Y-47051315D02*
X134061485Y-46432268D01*
X153511779Y-74569819D02*
X153511779Y-73569819D01*
X153511779Y-73569819D02*
X153892731Y-73569819D01*
X153892731Y-73569819D02*
X153987969Y-73617438D01*
X153987969Y-73617438D02*
X154035588Y-73665057D01*
X154035588Y-73665057D02*
X154083207Y-73760295D01*
X154083207Y-73760295D02*
X154083207Y-73903152D01*
X154083207Y-73903152D02*
X154035588Y-73998390D01*
X154035588Y-73998390D02*
X153987969Y-74046009D01*
X153987969Y-74046009D02*
X153892731Y-74093628D01*
X153892731Y-74093628D02*
X153511779Y-74093628D01*
X154845112Y-74046009D02*
X154511779Y-74046009D01*
X154511779Y-74569819D02*
X154511779Y-73569819D01*
X154511779Y-73569819D02*
X154987969Y-73569819D01*
X155273684Y-73569819D02*
X155940350Y-73569819D01*
X155940350Y-73569819D02*
X155511779Y-74569819D01*
X153436779Y-84744819D02*
X153436779Y-83744819D01*
X153436779Y-83744819D02*
X153817731Y-83744819D01*
X153817731Y-83744819D02*
X153912969Y-83792438D01*
X153912969Y-83792438D02*
X153960588Y-83840057D01*
X153960588Y-83840057D02*
X154008207Y-83935295D01*
X154008207Y-83935295D02*
X154008207Y-84078152D01*
X154008207Y-84078152D02*
X153960588Y-84173390D01*
X153960588Y-84173390D02*
X153912969Y-84221009D01*
X153912969Y-84221009D02*
X153817731Y-84268628D01*
X153817731Y-84268628D02*
X153436779Y-84268628D01*
X155008207Y-84649580D02*
X154960588Y-84697200D01*
X154960588Y-84697200D02*
X154817731Y-84744819D01*
X154817731Y-84744819D02*
X154722493Y-84744819D01*
X154722493Y-84744819D02*
X154579636Y-84697200D01*
X154579636Y-84697200D02*
X154484398Y-84601961D01*
X154484398Y-84601961D02*
X154436779Y-84506723D01*
X154436779Y-84506723D02*
X154389160Y-84316247D01*
X154389160Y-84316247D02*
X154389160Y-84173390D01*
X154389160Y-84173390D02*
X154436779Y-83982914D01*
X154436779Y-83982914D02*
X154484398Y-83887676D01*
X154484398Y-83887676D02*
X154579636Y-83792438D01*
X154579636Y-83792438D02*
X154722493Y-83744819D01*
X154722493Y-83744819D02*
X154817731Y-83744819D01*
X154817731Y-83744819D02*
X154960588Y-83792438D01*
X154960588Y-83792438D02*
X155008207Y-83840057D01*
X155341541Y-83744819D02*
X156008207Y-83744819D01*
X156008207Y-83744819D02*
X155579636Y-84744819D01*
X124136779Y-57324819D02*
X124136779Y-56324819D01*
X124136779Y-56324819D02*
X124374874Y-56324819D01*
X124374874Y-56324819D02*
X124517731Y-56372438D01*
X124517731Y-56372438D02*
X124612969Y-56467676D01*
X124612969Y-56467676D02*
X124660588Y-56562914D01*
X124660588Y-56562914D02*
X124708207Y-56753390D01*
X124708207Y-56753390D02*
X124708207Y-56896247D01*
X124708207Y-56896247D02*
X124660588Y-57086723D01*
X124660588Y-57086723D02*
X124612969Y-57181961D01*
X124612969Y-57181961D02*
X124517731Y-57277200D01*
X124517731Y-57277200D02*
X124374874Y-57324819D01*
X124374874Y-57324819D02*
X124136779Y-57324819D01*
X125136779Y-56943866D02*
X125898684Y-56943866D01*
X138861779Y-91629819D02*
X138861779Y-90629819D01*
X138861779Y-90629819D02*
X139195112Y-91344104D01*
X139195112Y-91344104D02*
X139528445Y-90629819D01*
X139528445Y-90629819D02*
X139528445Y-91629819D01*
X140195112Y-90629819D02*
X140385588Y-90629819D01*
X140385588Y-90629819D02*
X140480826Y-90677438D01*
X140480826Y-90677438D02*
X140576064Y-90772676D01*
X140576064Y-90772676D02*
X140623683Y-90963152D01*
X140623683Y-90963152D02*
X140623683Y-91296485D01*
X140623683Y-91296485D02*
X140576064Y-91486961D01*
X140576064Y-91486961D02*
X140480826Y-91582200D01*
X140480826Y-91582200D02*
X140385588Y-91629819D01*
X140385588Y-91629819D02*
X140195112Y-91629819D01*
X140195112Y-91629819D02*
X140099874Y-91582200D01*
X140099874Y-91582200D02*
X140004636Y-91486961D01*
X140004636Y-91486961D02*
X139957017Y-91296485D01*
X139957017Y-91296485D02*
X139957017Y-90963152D01*
X139957017Y-90963152D02*
X140004636Y-90772676D01*
X140004636Y-90772676D02*
X140099874Y-90677438D01*
X140099874Y-90677438D02*
X140195112Y-90629819D01*
X141004636Y-91582200D02*
X141147493Y-91629819D01*
X141147493Y-91629819D02*
X141385588Y-91629819D01*
X141385588Y-91629819D02*
X141480826Y-91582200D01*
X141480826Y-91582200D02*
X141528445Y-91534580D01*
X141528445Y-91534580D02*
X141576064Y-91439342D01*
X141576064Y-91439342D02*
X141576064Y-91344104D01*
X141576064Y-91344104D02*
X141528445Y-91248866D01*
X141528445Y-91248866D02*
X141480826Y-91201247D01*
X141480826Y-91201247D02*
X141385588Y-91153628D01*
X141385588Y-91153628D02*
X141195112Y-91106009D01*
X141195112Y-91106009D02*
X141099874Y-91058390D01*
X141099874Y-91058390D02*
X141052255Y-91010771D01*
X141052255Y-91010771D02*
X141004636Y-90915533D01*
X141004636Y-90915533D02*
X141004636Y-90820295D01*
X141004636Y-90820295D02*
X141052255Y-90725057D01*
X141052255Y-90725057D02*
X141099874Y-90677438D01*
X141099874Y-90677438D02*
X141195112Y-90629819D01*
X141195112Y-90629819D02*
X141433207Y-90629819D01*
X141433207Y-90629819D02*
X141576064Y-90677438D01*
X142004636Y-91629819D02*
X142004636Y-90629819D01*
X150914160Y-51984104D02*
X151390350Y-51984104D01*
X150818922Y-52269819D02*
X151152255Y-51269819D01*
X151152255Y-51269819D02*
X151485588Y-52269819D01*
X151676065Y-51269819D02*
X152009398Y-52269819D01*
X152009398Y-52269819D02*
X152342731Y-51269819D01*
X153247493Y-52174580D02*
X153199874Y-52222200D01*
X153199874Y-52222200D02*
X153057017Y-52269819D01*
X153057017Y-52269819D02*
X152961779Y-52269819D01*
X152961779Y-52269819D02*
X152818922Y-52222200D01*
X152818922Y-52222200D02*
X152723684Y-52126961D01*
X152723684Y-52126961D02*
X152676065Y-52031723D01*
X152676065Y-52031723D02*
X152628446Y-51841247D01*
X152628446Y-51841247D02*
X152628446Y-51698390D01*
X152628446Y-51698390D02*
X152676065Y-51507914D01*
X152676065Y-51507914D02*
X152723684Y-51412676D01*
X152723684Y-51412676D02*
X152818922Y-51317438D01*
X152818922Y-51317438D02*
X152961779Y-51269819D01*
X152961779Y-51269819D02*
X153057017Y-51269819D01*
X153057017Y-51269819D02*
X153199874Y-51317438D01*
X153199874Y-51317438D02*
X153247493Y-51365057D01*
X154247493Y-52174580D02*
X154199874Y-52222200D01*
X154199874Y-52222200D02*
X154057017Y-52269819D01*
X154057017Y-52269819D02*
X153961779Y-52269819D01*
X153961779Y-52269819D02*
X153818922Y-52222200D01*
X153818922Y-52222200D02*
X153723684Y-52126961D01*
X153723684Y-52126961D02*
X153676065Y-52031723D01*
X153676065Y-52031723D02*
X153628446Y-51841247D01*
X153628446Y-51841247D02*
X153628446Y-51698390D01*
X153628446Y-51698390D02*
X153676065Y-51507914D01*
X153676065Y-51507914D02*
X153723684Y-51412676D01*
X153723684Y-51412676D02*
X153818922Y-51317438D01*
X153818922Y-51317438D02*
X153961779Y-51269819D01*
X153961779Y-51269819D02*
X154057017Y-51269819D01*
X154057017Y-51269819D02*
X154199874Y-51317438D01*
X154199874Y-51317438D02*
X154247493Y-51365057D01*
X155104636Y-51603152D02*
X155104636Y-52269819D01*
X154866541Y-51222200D02*
X154628446Y-51936485D01*
X154628446Y-51936485D02*
X155247493Y-51936485D01*
X156057017Y-51603152D02*
X156057017Y-52269819D01*
X155818922Y-51222200D02*
X155580827Y-51936485D01*
X155580827Y-51936485D02*
X156199874Y-51936485D01*
D12*
X153320331Y-99271119D02*
X153320331Y-98271119D01*
X153320331Y-98271119D02*
X153701283Y-98271119D01*
X153701283Y-98271119D02*
X153796521Y-98318738D01*
X153796521Y-98318738D02*
X153844140Y-98366357D01*
X153844140Y-98366357D02*
X153891759Y-98461595D01*
X153891759Y-98461595D02*
X153891759Y-98604452D01*
X153891759Y-98604452D02*
X153844140Y-98699690D01*
X153844140Y-98699690D02*
X153796521Y-98747309D01*
X153796521Y-98747309D02*
X153701283Y-98794928D01*
X153701283Y-98794928D02*
X153320331Y-98794928D01*
X154320331Y-99271119D02*
X154320331Y-98271119D01*
X154320331Y-98271119D02*
X154558426Y-98271119D01*
X154558426Y-98271119D02*
X154701283Y-98318738D01*
X154701283Y-98318738D02*
X154796521Y-98413976D01*
X154796521Y-98413976D02*
X154844140Y-98509214D01*
X154844140Y-98509214D02*
X154891759Y-98699690D01*
X154891759Y-98699690D02*
X154891759Y-98842547D01*
X154891759Y-98842547D02*
X154844140Y-99033023D01*
X154844140Y-99033023D02*
X154796521Y-99128261D01*
X154796521Y-99128261D02*
X154701283Y-99223500D01*
X154701283Y-99223500D02*
X154558426Y-99271119D01*
X154558426Y-99271119D02*
X154320331Y-99271119D01*
X155225093Y-98271119D02*
X155891759Y-98271119D01*
X155891759Y-98271119D02*
X155463188Y-99271119D01*
D10*
X151910588Y-108467438D02*
X151815350Y-108419819D01*
X151815350Y-108419819D02*
X151672493Y-108419819D01*
X151672493Y-108419819D02*
X151529636Y-108467438D01*
X151529636Y-108467438D02*
X151434398Y-108562676D01*
X151434398Y-108562676D02*
X151386779Y-108657914D01*
X151386779Y-108657914D02*
X151339160Y-108848390D01*
X151339160Y-108848390D02*
X151339160Y-108991247D01*
X151339160Y-108991247D02*
X151386779Y-109181723D01*
X151386779Y-109181723D02*
X151434398Y-109276961D01*
X151434398Y-109276961D02*
X151529636Y-109372200D01*
X151529636Y-109372200D02*
X151672493Y-109419819D01*
X151672493Y-109419819D02*
X151767731Y-109419819D01*
X151767731Y-109419819D02*
X151910588Y-109372200D01*
X151910588Y-109372200D02*
X151958207Y-109324580D01*
X151958207Y-109324580D02*
X151958207Y-108991247D01*
X151958207Y-108991247D02*
X151767731Y-108991247D01*
X152386779Y-109419819D02*
X152386779Y-108419819D01*
X152386779Y-108419819D02*
X152958207Y-109419819D01*
X152958207Y-109419819D02*
X152958207Y-108419819D01*
X153434398Y-109419819D02*
X153434398Y-108419819D01*
X153434398Y-108419819D02*
X153672493Y-108419819D01*
X153672493Y-108419819D02*
X153815350Y-108467438D01*
X153815350Y-108467438D02*
X153910588Y-108562676D01*
X153910588Y-108562676D02*
X153958207Y-108657914D01*
X153958207Y-108657914D02*
X154005826Y-108848390D01*
X154005826Y-108848390D02*
X154005826Y-108991247D01*
X154005826Y-108991247D02*
X153958207Y-109181723D01*
X153958207Y-109181723D02*
X153910588Y-109276961D01*
X153910588Y-109276961D02*
X153815350Y-109372200D01*
X153815350Y-109372200D02*
X153672493Y-109419819D01*
X153672493Y-109419819D02*
X153434398Y-109419819D01*
X154386779Y-108515057D02*
X154434398Y-108467438D01*
X154434398Y-108467438D02*
X154529636Y-108419819D01*
X154529636Y-108419819D02*
X154767731Y-108419819D01*
X154767731Y-108419819D02*
X154862969Y-108467438D01*
X154862969Y-108467438D02*
X154910588Y-108515057D01*
X154910588Y-108515057D02*
X154958207Y-108610295D01*
X154958207Y-108610295D02*
X154958207Y-108705533D01*
X154958207Y-108705533D02*
X154910588Y-108848390D01*
X154910588Y-108848390D02*
X154339160Y-109419819D01*
X154339160Y-109419819D02*
X154958207Y-109419819D01*
X155291541Y-108419819D02*
X155910588Y-108419819D01*
X155910588Y-108419819D02*
X155577255Y-108800771D01*
X155577255Y-108800771D02*
X155720112Y-108800771D01*
X155720112Y-108800771D02*
X155815350Y-108848390D01*
X155815350Y-108848390D02*
X155862969Y-108896009D01*
X155862969Y-108896009D02*
X155910588Y-108991247D01*
X155910588Y-108991247D02*
X155910588Y-109229342D01*
X155910588Y-109229342D02*
X155862969Y-109324580D01*
X155862969Y-109324580D02*
X155815350Y-109372200D01*
X155815350Y-109372200D02*
X155720112Y-109419819D01*
X155720112Y-109419819D02*
X155434398Y-109419819D01*
X155434398Y-109419819D02*
X155339160Y-109372200D01*
X155339160Y-109372200D02*
X155291541Y-109324580D01*
X153336779Y-101794819D02*
X153336779Y-100794819D01*
X153336779Y-100794819D02*
X153717731Y-100794819D01*
X153717731Y-100794819D02*
X153812969Y-100842438D01*
X153812969Y-100842438D02*
X153860588Y-100890057D01*
X153860588Y-100890057D02*
X153908207Y-100985295D01*
X153908207Y-100985295D02*
X153908207Y-101128152D01*
X153908207Y-101128152D02*
X153860588Y-101223390D01*
X153860588Y-101223390D02*
X153812969Y-101271009D01*
X153812969Y-101271009D02*
X153717731Y-101318628D01*
X153717731Y-101318628D02*
X153336779Y-101318628D01*
X154336779Y-101794819D02*
X154336779Y-100794819D01*
X154336779Y-100794819D02*
X154574874Y-100794819D01*
X154574874Y-100794819D02*
X154717731Y-100842438D01*
X154717731Y-100842438D02*
X154812969Y-100937676D01*
X154812969Y-100937676D02*
X154860588Y-101032914D01*
X154860588Y-101032914D02*
X154908207Y-101223390D01*
X154908207Y-101223390D02*
X154908207Y-101366247D01*
X154908207Y-101366247D02*
X154860588Y-101556723D01*
X154860588Y-101556723D02*
X154812969Y-101651961D01*
X154812969Y-101651961D02*
X154717731Y-101747200D01*
X154717731Y-101747200D02*
X154574874Y-101794819D01*
X154574874Y-101794819D02*
X154336779Y-101794819D01*
X155765350Y-100794819D02*
X155574874Y-100794819D01*
X155574874Y-100794819D02*
X155479636Y-100842438D01*
X155479636Y-100842438D02*
X155432017Y-100890057D01*
X155432017Y-100890057D02*
X155336779Y-101032914D01*
X155336779Y-101032914D02*
X155289160Y-101223390D01*
X155289160Y-101223390D02*
X155289160Y-101604342D01*
X155289160Y-101604342D02*
X155336779Y-101699580D01*
X155336779Y-101699580D02*
X155384398Y-101747200D01*
X155384398Y-101747200D02*
X155479636Y-101794819D01*
X155479636Y-101794819D02*
X155670112Y-101794819D01*
X155670112Y-101794819D02*
X155765350Y-101747200D01*
X155765350Y-101747200D02*
X155812969Y-101699580D01*
X155812969Y-101699580D02*
X155860588Y-101604342D01*
X155860588Y-101604342D02*
X155860588Y-101366247D01*
X155860588Y-101366247D02*
X155812969Y-101271009D01*
X155812969Y-101271009D02*
X155765350Y-101223390D01*
X155765350Y-101223390D02*
X155670112Y-101175771D01*
X155670112Y-101175771D02*
X155479636Y-101175771D01*
X155479636Y-101175771D02*
X155384398Y-101223390D01*
X155384398Y-101223390D02*
X155336779Y-101271009D01*
X155336779Y-101271009D02*
X155289160Y-101366247D01*
X130786779Y-101494819D02*
X130786779Y-102304342D01*
X130786779Y-102304342D02*
X130834398Y-102399580D01*
X130834398Y-102399580D02*
X130882017Y-102447200D01*
X130882017Y-102447200D02*
X130977255Y-102494819D01*
X130977255Y-102494819D02*
X131167731Y-102494819D01*
X131167731Y-102494819D02*
X131262969Y-102447200D01*
X131262969Y-102447200D02*
X131310588Y-102399580D01*
X131310588Y-102399580D02*
X131358207Y-102304342D01*
X131358207Y-102304342D02*
X131358207Y-101494819D01*
X132405826Y-102399580D02*
X132358207Y-102447200D01*
X132358207Y-102447200D02*
X132215350Y-102494819D01*
X132215350Y-102494819D02*
X132120112Y-102494819D01*
X132120112Y-102494819D02*
X131977255Y-102447200D01*
X131977255Y-102447200D02*
X131882017Y-102351961D01*
X131882017Y-102351961D02*
X131834398Y-102256723D01*
X131834398Y-102256723D02*
X131786779Y-102066247D01*
X131786779Y-102066247D02*
X131786779Y-101923390D01*
X131786779Y-101923390D02*
X131834398Y-101732914D01*
X131834398Y-101732914D02*
X131882017Y-101637676D01*
X131882017Y-101637676D02*
X131977255Y-101542438D01*
X131977255Y-101542438D02*
X132120112Y-101494819D01*
X132120112Y-101494819D02*
X132215350Y-101494819D01*
X132215350Y-101494819D02*
X132358207Y-101542438D01*
X132358207Y-101542438D02*
X132405826Y-101590057D01*
X132786779Y-102209104D02*
X133262969Y-102209104D01*
X132691541Y-102494819D02*
X133024874Y-101494819D01*
X133024874Y-101494819D02*
X133358207Y-102494819D01*
X133691541Y-102494819D02*
X133691541Y-101494819D01*
X133691541Y-101494819D02*
X134072493Y-101494819D01*
X134072493Y-101494819D02*
X134167731Y-101542438D01*
X134167731Y-101542438D02*
X134215350Y-101590057D01*
X134215350Y-101590057D02*
X134262969Y-101685295D01*
X134262969Y-101685295D02*
X134262969Y-101828152D01*
X134262969Y-101828152D02*
X134215350Y-101923390D01*
X134215350Y-101923390D02*
X134167731Y-101971009D01*
X134167731Y-101971009D02*
X134072493Y-102018628D01*
X134072493Y-102018628D02*
X133691541Y-102018628D01*
X135664160Y-102209104D02*
X136140350Y-102209104D01*
X135568922Y-102494819D02*
X135902255Y-101494819D01*
X135902255Y-101494819D02*
X136235588Y-102494819D01*
X137140350Y-102494819D02*
X136807017Y-102018628D01*
X136568922Y-102494819D02*
X136568922Y-101494819D01*
X136568922Y-101494819D02*
X136949874Y-101494819D01*
X136949874Y-101494819D02*
X137045112Y-101542438D01*
X137045112Y-101542438D02*
X137092731Y-101590057D01*
X137092731Y-101590057D02*
X137140350Y-101685295D01*
X137140350Y-101685295D02*
X137140350Y-101828152D01*
X137140350Y-101828152D02*
X137092731Y-101923390D01*
X137092731Y-101923390D02*
X137045112Y-101971009D01*
X137045112Y-101971009D02*
X136949874Y-102018628D01*
X136949874Y-102018628D02*
X136568922Y-102018628D01*
X137568922Y-101971009D02*
X137902255Y-101971009D01*
X138045112Y-102494819D02*
X137568922Y-102494819D01*
X137568922Y-102494819D02*
X137568922Y-101494819D01*
X137568922Y-101494819D02*
X138045112Y-101494819D01*
X138807017Y-101971009D02*
X138473684Y-101971009D01*
X138473684Y-102494819D02*
X138473684Y-101494819D01*
X138473684Y-101494819D02*
X138949874Y-101494819D01*
X141017438Y-112839411D02*
X140969819Y-112934649D01*
X140969819Y-112934649D02*
X140969819Y-113077506D01*
X140969819Y-113077506D02*
X141017438Y-113220363D01*
X141017438Y-113220363D02*
X141112676Y-113315601D01*
X141112676Y-113315601D02*
X141207914Y-113363220D01*
X141207914Y-113363220D02*
X141398390Y-113410839D01*
X141398390Y-113410839D02*
X141541247Y-113410839D01*
X141541247Y-113410839D02*
X141731723Y-113363220D01*
X141731723Y-113363220D02*
X141826961Y-113315601D01*
X141826961Y-113315601D02*
X141922200Y-113220363D01*
X141922200Y-113220363D02*
X141969819Y-113077506D01*
X141969819Y-113077506D02*
X141969819Y-112982268D01*
X141969819Y-112982268D02*
X141922200Y-112839411D01*
X141922200Y-112839411D02*
X141874580Y-112791792D01*
X141874580Y-112791792D02*
X141541247Y-112791792D01*
X141541247Y-112791792D02*
X141541247Y-112982268D01*
X141969819Y-112363220D02*
X140969819Y-112363220D01*
X140969819Y-112363220D02*
X141969819Y-111791792D01*
X141969819Y-111791792D02*
X140969819Y-111791792D01*
X141969819Y-111315601D02*
X140969819Y-111315601D01*
X140969819Y-111315601D02*
X140969819Y-111077506D01*
X140969819Y-111077506D02*
X141017438Y-110934649D01*
X141017438Y-110934649D02*
X141112676Y-110839411D01*
X141112676Y-110839411D02*
X141207914Y-110791792D01*
X141207914Y-110791792D02*
X141398390Y-110744173D01*
X141398390Y-110744173D02*
X141541247Y-110744173D01*
X141541247Y-110744173D02*
X141731723Y-110791792D01*
X141731723Y-110791792D02*
X141826961Y-110839411D01*
X141826961Y-110839411D02*
X141922200Y-110934649D01*
X141922200Y-110934649D02*
X141969819Y-111077506D01*
X141969819Y-111077506D02*
X141969819Y-111315601D01*
X140969819Y-110410839D02*
X140969819Y-109791792D01*
X140969819Y-109791792D02*
X141350771Y-110125125D01*
X141350771Y-110125125D02*
X141350771Y-109982268D01*
X141350771Y-109982268D02*
X141398390Y-109887030D01*
X141398390Y-109887030D02*
X141446009Y-109839411D01*
X141446009Y-109839411D02*
X141541247Y-109791792D01*
X141541247Y-109791792D02*
X141779342Y-109791792D01*
X141779342Y-109791792D02*
X141874580Y-109839411D01*
X141874580Y-109839411D02*
X141922200Y-109887030D01*
X141922200Y-109887030D02*
X141969819Y-109982268D01*
X141969819Y-109982268D02*
X141969819Y-110267982D01*
X141969819Y-110267982D02*
X141922200Y-110363220D01*
X141922200Y-110363220D02*
X141874580Y-110410839D01*
X140969819Y-108887030D02*
X140969819Y-109363220D01*
X140969819Y-109363220D02*
X141446009Y-109410839D01*
X141446009Y-109410839D02*
X141398390Y-109363220D01*
X141398390Y-109363220D02*
X141350771Y-109267982D01*
X141350771Y-109267982D02*
X141350771Y-109029887D01*
X141350771Y-109029887D02*
X141398390Y-108934649D01*
X141398390Y-108934649D02*
X141446009Y-108887030D01*
X141446009Y-108887030D02*
X141541247Y-108839411D01*
X141541247Y-108839411D02*
X141779342Y-108839411D01*
X141779342Y-108839411D02*
X141874580Y-108887030D01*
X141874580Y-108887030D02*
X141922200Y-108934649D01*
X141922200Y-108934649D02*
X141969819Y-109029887D01*
X141969819Y-109029887D02*
X141969819Y-109267982D01*
X141969819Y-109267982D02*
X141922200Y-109363220D01*
X141922200Y-109363220D02*
X141874580Y-109410839D01*
X124136779Y-70024819D02*
X124136779Y-69024819D01*
X124136779Y-69024819D02*
X124517731Y-69024819D01*
X124517731Y-69024819D02*
X124612969Y-69072438D01*
X124612969Y-69072438D02*
X124660588Y-69120057D01*
X124660588Y-69120057D02*
X124708207Y-69215295D01*
X124708207Y-69215295D02*
X124708207Y-69358152D01*
X124708207Y-69358152D02*
X124660588Y-69453390D01*
X124660588Y-69453390D02*
X124612969Y-69501009D01*
X124612969Y-69501009D02*
X124517731Y-69548628D01*
X124517731Y-69548628D02*
X124136779Y-69548628D01*
X125470112Y-69501009D02*
X125612969Y-69548628D01*
X125612969Y-69548628D02*
X125660588Y-69596247D01*
X125660588Y-69596247D02*
X125708207Y-69691485D01*
X125708207Y-69691485D02*
X125708207Y-69834342D01*
X125708207Y-69834342D02*
X125660588Y-69929580D01*
X125660588Y-69929580D02*
X125612969Y-69977200D01*
X125612969Y-69977200D02*
X125517731Y-70024819D01*
X125517731Y-70024819D02*
X125136779Y-70024819D01*
X125136779Y-70024819D02*
X125136779Y-69024819D01*
X125136779Y-69024819D02*
X125470112Y-69024819D01*
X125470112Y-69024819D02*
X125565350Y-69072438D01*
X125565350Y-69072438D02*
X125612969Y-69120057D01*
X125612969Y-69120057D02*
X125660588Y-69215295D01*
X125660588Y-69215295D02*
X125660588Y-69310533D01*
X125660588Y-69310533D02*
X125612969Y-69405771D01*
X125612969Y-69405771D02*
X125565350Y-69453390D01*
X125565350Y-69453390D02*
X125470112Y-69501009D01*
X125470112Y-69501009D02*
X125136779Y-69501009D01*
X126327255Y-69024819D02*
X126422493Y-69024819D01*
X126422493Y-69024819D02*
X126517731Y-69072438D01*
X126517731Y-69072438D02*
X126565350Y-69120057D01*
X126565350Y-69120057D02*
X126612969Y-69215295D01*
X126612969Y-69215295D02*
X126660588Y-69405771D01*
X126660588Y-69405771D02*
X126660588Y-69643866D01*
X126660588Y-69643866D02*
X126612969Y-69834342D01*
X126612969Y-69834342D02*
X126565350Y-69929580D01*
X126565350Y-69929580D02*
X126517731Y-69977200D01*
X126517731Y-69977200D02*
X126422493Y-70024819D01*
X126422493Y-70024819D02*
X126327255Y-70024819D01*
X126327255Y-70024819D02*
X126232017Y-69977200D01*
X126232017Y-69977200D02*
X126184398Y-69929580D01*
X126184398Y-69929580D02*
X126136779Y-69834342D01*
X126136779Y-69834342D02*
X126089160Y-69643866D01*
X126089160Y-69643866D02*
X126089160Y-69405771D01*
X126089160Y-69405771D02*
X126136779Y-69215295D01*
X126136779Y-69215295D02*
X126184398Y-69120057D01*
X126184398Y-69120057D02*
X126232017Y-69072438D01*
X126232017Y-69072438D02*
X126327255Y-69024819D01*
X153336779Y-96719819D02*
X153336779Y-95719819D01*
X153336779Y-95719819D02*
X153717731Y-95719819D01*
X153717731Y-95719819D02*
X153812969Y-95767438D01*
X153812969Y-95767438D02*
X153860588Y-95815057D01*
X153860588Y-95815057D02*
X153908207Y-95910295D01*
X153908207Y-95910295D02*
X153908207Y-96053152D01*
X153908207Y-96053152D02*
X153860588Y-96148390D01*
X153860588Y-96148390D02*
X153812969Y-96196009D01*
X153812969Y-96196009D02*
X153717731Y-96243628D01*
X153717731Y-96243628D02*
X153336779Y-96243628D01*
X154670112Y-96196009D02*
X154812969Y-96243628D01*
X154812969Y-96243628D02*
X154860588Y-96291247D01*
X154860588Y-96291247D02*
X154908207Y-96386485D01*
X154908207Y-96386485D02*
X154908207Y-96529342D01*
X154908207Y-96529342D02*
X154860588Y-96624580D01*
X154860588Y-96624580D02*
X154812969Y-96672200D01*
X154812969Y-96672200D02*
X154717731Y-96719819D01*
X154717731Y-96719819D02*
X154336779Y-96719819D01*
X154336779Y-96719819D02*
X154336779Y-95719819D01*
X154336779Y-95719819D02*
X154670112Y-95719819D01*
X154670112Y-95719819D02*
X154765350Y-95767438D01*
X154765350Y-95767438D02*
X154812969Y-95815057D01*
X154812969Y-95815057D02*
X154860588Y-95910295D01*
X154860588Y-95910295D02*
X154860588Y-96005533D01*
X154860588Y-96005533D02*
X154812969Y-96100771D01*
X154812969Y-96100771D02*
X154765350Y-96148390D01*
X154765350Y-96148390D02*
X154670112Y-96196009D01*
X154670112Y-96196009D02*
X154336779Y-96196009D01*
X155765350Y-96053152D02*
X155765350Y-96719819D01*
X155527255Y-95672200D02*
X155289160Y-96386485D01*
X155289160Y-96386485D02*
X155908207Y-96386485D01*
X153536779Y-64969819D02*
X153536779Y-63969819D01*
X153536779Y-63969819D02*
X153917731Y-63969819D01*
X153917731Y-63969819D02*
X154012969Y-64017438D01*
X154012969Y-64017438D02*
X154060588Y-64065057D01*
X154060588Y-64065057D02*
X154108207Y-64160295D01*
X154108207Y-64160295D02*
X154108207Y-64303152D01*
X154108207Y-64303152D02*
X154060588Y-64398390D01*
X154060588Y-64398390D02*
X154012969Y-64446009D01*
X154012969Y-64446009D02*
X153917731Y-64493628D01*
X153917731Y-64493628D02*
X153536779Y-64493628D01*
X154870112Y-64446009D02*
X154536779Y-64446009D01*
X154536779Y-64969819D02*
X154536779Y-63969819D01*
X154536779Y-63969819D02*
X155012969Y-63969819D01*
X155822493Y-64303152D02*
X155822493Y-64969819D01*
X155584398Y-63922200D02*
X155346303Y-64636485D01*
X155346303Y-64636485D02*
X155965350Y-64636485D01*
X124136779Y-74524819D02*
X124136779Y-73524819D01*
X124136779Y-73524819D02*
X124517731Y-73524819D01*
X124517731Y-73524819D02*
X124612969Y-73572438D01*
X124612969Y-73572438D02*
X124660588Y-73620057D01*
X124660588Y-73620057D02*
X124708207Y-73715295D01*
X124708207Y-73715295D02*
X124708207Y-73858152D01*
X124708207Y-73858152D02*
X124660588Y-73953390D01*
X124660588Y-73953390D02*
X124612969Y-74001009D01*
X124612969Y-74001009D02*
X124517731Y-74048628D01*
X124517731Y-74048628D02*
X124136779Y-74048628D01*
X125470112Y-74001009D02*
X125612969Y-74048628D01*
X125612969Y-74048628D02*
X125660588Y-74096247D01*
X125660588Y-74096247D02*
X125708207Y-74191485D01*
X125708207Y-74191485D02*
X125708207Y-74334342D01*
X125708207Y-74334342D02*
X125660588Y-74429580D01*
X125660588Y-74429580D02*
X125612969Y-74477200D01*
X125612969Y-74477200D02*
X125517731Y-74524819D01*
X125517731Y-74524819D02*
X125136779Y-74524819D01*
X125136779Y-74524819D02*
X125136779Y-73524819D01*
X125136779Y-73524819D02*
X125470112Y-73524819D01*
X125470112Y-73524819D02*
X125565350Y-73572438D01*
X125565350Y-73572438D02*
X125612969Y-73620057D01*
X125612969Y-73620057D02*
X125660588Y-73715295D01*
X125660588Y-73715295D02*
X125660588Y-73810533D01*
X125660588Y-73810533D02*
X125612969Y-73905771D01*
X125612969Y-73905771D02*
X125565350Y-73953390D01*
X125565350Y-73953390D02*
X125470112Y-74001009D01*
X125470112Y-74001009D02*
X125136779Y-74001009D01*
X126660588Y-74524819D02*
X126089160Y-74524819D01*
X126374874Y-74524819D02*
X126374874Y-73524819D01*
X126374874Y-73524819D02*
X126279636Y-73667676D01*
X126279636Y-73667676D02*
X126184398Y-73762914D01*
X126184398Y-73762914D02*
X126089160Y-73810533D01*
X127803445Y-73477200D02*
X126946303Y-74762914D01*
X128089160Y-74477200D02*
X128232017Y-74524819D01*
X128232017Y-74524819D02*
X128470112Y-74524819D01*
X128470112Y-74524819D02*
X128565350Y-74477200D01*
X128565350Y-74477200D02*
X128612969Y-74429580D01*
X128612969Y-74429580D02*
X128660588Y-74334342D01*
X128660588Y-74334342D02*
X128660588Y-74239104D01*
X128660588Y-74239104D02*
X128612969Y-74143866D01*
X128612969Y-74143866D02*
X128565350Y-74096247D01*
X128565350Y-74096247D02*
X128470112Y-74048628D01*
X128470112Y-74048628D02*
X128279636Y-74001009D01*
X128279636Y-74001009D02*
X128184398Y-73953390D01*
X128184398Y-73953390D02*
X128136779Y-73905771D01*
X128136779Y-73905771D02*
X128089160Y-73810533D01*
X128089160Y-73810533D02*
X128089160Y-73715295D01*
X128089160Y-73715295D02*
X128136779Y-73620057D01*
X128136779Y-73620057D02*
X128184398Y-73572438D01*
X128184398Y-73572438D02*
X128279636Y-73524819D01*
X128279636Y-73524819D02*
X128517731Y-73524819D01*
X128517731Y-73524819D02*
X128660588Y-73572438D01*
X129660588Y-74429580D02*
X129612969Y-74477200D01*
X129612969Y-74477200D02*
X129470112Y-74524819D01*
X129470112Y-74524819D02*
X129374874Y-74524819D01*
X129374874Y-74524819D02*
X129232017Y-74477200D01*
X129232017Y-74477200D02*
X129136779Y-74381961D01*
X129136779Y-74381961D02*
X129089160Y-74286723D01*
X129089160Y-74286723D02*
X129041541Y-74096247D01*
X129041541Y-74096247D02*
X129041541Y-73953390D01*
X129041541Y-73953390D02*
X129089160Y-73762914D01*
X129089160Y-73762914D02*
X129136779Y-73667676D01*
X129136779Y-73667676D02*
X129232017Y-73572438D01*
X129232017Y-73572438D02*
X129374874Y-73524819D01*
X129374874Y-73524819D02*
X129470112Y-73524819D01*
X129470112Y-73524819D02*
X129612969Y-73572438D01*
X129612969Y-73572438D02*
X129660588Y-73620057D01*
X130089160Y-74524819D02*
X130089160Y-73524819D01*
X130660588Y-74524819D02*
X130232017Y-73953390D01*
X130660588Y-73524819D02*
X130089160Y-74096247D01*
X124041541Y-95774819D02*
X124708207Y-96774819D01*
X124708207Y-95774819D02*
X124041541Y-96774819D01*
X124946303Y-95774819D02*
X125517731Y-95774819D01*
X125232017Y-96774819D02*
X125232017Y-95774819D01*
X125803446Y-96489104D02*
X126279636Y-96489104D01*
X125708208Y-96774819D02*
X126041541Y-95774819D01*
X126041541Y-95774819D02*
X126374874Y-96774819D01*
X127184398Y-96774819D02*
X126708208Y-96774819D01*
X126708208Y-96774819D02*
X126708208Y-95774819D01*
X128041541Y-96774819D02*
X127470113Y-96774819D01*
X127755827Y-96774819D02*
X127755827Y-95774819D01*
X127755827Y-95774819D02*
X127660589Y-95917676D01*
X127660589Y-95917676D02*
X127565351Y-96012914D01*
X127565351Y-96012914D02*
X127470113Y-96060533D01*
X124136779Y-109474819D02*
X124136779Y-108474819D01*
X124136779Y-108474819D02*
X124517731Y-108474819D01*
X124517731Y-108474819D02*
X124612969Y-108522438D01*
X124612969Y-108522438D02*
X124660588Y-108570057D01*
X124660588Y-108570057D02*
X124708207Y-108665295D01*
X124708207Y-108665295D02*
X124708207Y-108808152D01*
X124708207Y-108808152D02*
X124660588Y-108903390D01*
X124660588Y-108903390D02*
X124612969Y-108951009D01*
X124612969Y-108951009D02*
X124517731Y-108998628D01*
X124517731Y-108998628D02*
X124136779Y-108998628D01*
X125136779Y-109474819D02*
X125136779Y-108474819D01*
X125136779Y-108474819D02*
X125374874Y-108474819D01*
X125374874Y-108474819D02*
X125517731Y-108522438D01*
X125517731Y-108522438D02*
X125612969Y-108617676D01*
X125612969Y-108617676D02*
X125660588Y-108712914D01*
X125660588Y-108712914D02*
X125708207Y-108903390D01*
X125708207Y-108903390D02*
X125708207Y-109046247D01*
X125708207Y-109046247D02*
X125660588Y-109236723D01*
X125660588Y-109236723D02*
X125612969Y-109331961D01*
X125612969Y-109331961D02*
X125517731Y-109427200D01*
X125517731Y-109427200D02*
X125374874Y-109474819D01*
X125374874Y-109474819D02*
X125136779Y-109474819D01*
X126612969Y-108474819D02*
X126136779Y-108474819D01*
X126136779Y-108474819D02*
X126089160Y-108951009D01*
X126089160Y-108951009D02*
X126136779Y-108903390D01*
X126136779Y-108903390D02*
X126232017Y-108855771D01*
X126232017Y-108855771D02*
X126470112Y-108855771D01*
X126470112Y-108855771D02*
X126565350Y-108903390D01*
X126565350Y-108903390D02*
X126612969Y-108951009D01*
X126612969Y-108951009D02*
X126660588Y-109046247D01*
X126660588Y-109046247D02*
X126660588Y-109284342D01*
X126660588Y-109284342D02*
X126612969Y-109379580D01*
X126612969Y-109379580D02*
X126565350Y-109427200D01*
X126565350Y-109427200D02*
X126470112Y-109474819D01*
X126470112Y-109474819D02*
X126232017Y-109474819D01*
X126232017Y-109474819D02*
X126136779Y-109427200D01*
X126136779Y-109427200D02*
X126089160Y-109379580D01*
X138492438Y-112889411D02*
X138444819Y-112984649D01*
X138444819Y-112984649D02*
X138444819Y-113127506D01*
X138444819Y-113127506D02*
X138492438Y-113270363D01*
X138492438Y-113270363D02*
X138587676Y-113365601D01*
X138587676Y-113365601D02*
X138682914Y-113413220D01*
X138682914Y-113413220D02*
X138873390Y-113460839D01*
X138873390Y-113460839D02*
X139016247Y-113460839D01*
X139016247Y-113460839D02*
X139206723Y-113413220D01*
X139206723Y-113413220D02*
X139301961Y-113365601D01*
X139301961Y-113365601D02*
X139397200Y-113270363D01*
X139397200Y-113270363D02*
X139444819Y-113127506D01*
X139444819Y-113127506D02*
X139444819Y-113032268D01*
X139444819Y-113032268D02*
X139397200Y-112889411D01*
X139397200Y-112889411D02*
X139349580Y-112841792D01*
X139349580Y-112841792D02*
X139016247Y-112841792D01*
X139016247Y-112841792D02*
X139016247Y-113032268D01*
X139444819Y-112413220D02*
X138444819Y-112413220D01*
X138444819Y-112413220D02*
X139444819Y-111841792D01*
X139444819Y-111841792D02*
X138444819Y-111841792D01*
X139444819Y-111365601D02*
X138444819Y-111365601D01*
X138444819Y-111365601D02*
X138444819Y-111127506D01*
X138444819Y-111127506D02*
X138492438Y-110984649D01*
X138492438Y-110984649D02*
X138587676Y-110889411D01*
X138587676Y-110889411D02*
X138682914Y-110841792D01*
X138682914Y-110841792D02*
X138873390Y-110794173D01*
X138873390Y-110794173D02*
X139016247Y-110794173D01*
X139016247Y-110794173D02*
X139206723Y-110841792D01*
X139206723Y-110841792D02*
X139301961Y-110889411D01*
X139301961Y-110889411D02*
X139397200Y-110984649D01*
X139397200Y-110984649D02*
X139444819Y-111127506D01*
X139444819Y-111127506D02*
X139444819Y-111365601D01*
X138778152Y-109937030D02*
X139444819Y-109937030D01*
X138397200Y-110175125D02*
X139111485Y-110413220D01*
X139111485Y-110413220D02*
X139111485Y-109794173D01*
X138444819Y-109508458D02*
X138444819Y-108889411D01*
X138444819Y-108889411D02*
X138825771Y-109222744D01*
X138825771Y-109222744D02*
X138825771Y-109079887D01*
X138825771Y-109079887D02*
X138873390Y-108984649D01*
X138873390Y-108984649D02*
X138921009Y-108937030D01*
X138921009Y-108937030D02*
X139016247Y-108889411D01*
X139016247Y-108889411D02*
X139254342Y-108889411D01*
X139254342Y-108889411D02*
X139349580Y-108937030D01*
X139349580Y-108937030D02*
X139397200Y-108984649D01*
X139397200Y-108984649D02*
X139444819Y-109079887D01*
X139444819Y-109079887D02*
X139444819Y-109365601D01*
X139444819Y-109365601D02*
X139397200Y-109460839D01*
X139397200Y-109460839D02*
X139349580Y-109508458D01*
X130844819Y-50088220D02*
X131654342Y-50088220D01*
X131654342Y-50088220D02*
X131749580Y-50040601D01*
X131749580Y-50040601D02*
X131797200Y-49992982D01*
X131797200Y-49992982D02*
X131844819Y-49897744D01*
X131844819Y-49897744D02*
X131844819Y-49707268D01*
X131844819Y-49707268D02*
X131797200Y-49612030D01*
X131797200Y-49612030D02*
X131749580Y-49564411D01*
X131749580Y-49564411D02*
X131654342Y-49516792D01*
X131654342Y-49516792D02*
X130844819Y-49516792D01*
X130844819Y-49183458D02*
X131844819Y-48850125D01*
X131844819Y-48850125D02*
X130844819Y-48516792D01*
X131749580Y-47612030D02*
X131797200Y-47659649D01*
X131797200Y-47659649D02*
X131844819Y-47802506D01*
X131844819Y-47802506D02*
X131844819Y-47897744D01*
X131844819Y-47897744D02*
X131797200Y-48040601D01*
X131797200Y-48040601D02*
X131701961Y-48135839D01*
X131701961Y-48135839D02*
X131606723Y-48183458D01*
X131606723Y-48183458D02*
X131416247Y-48231077D01*
X131416247Y-48231077D02*
X131273390Y-48231077D01*
X131273390Y-48231077D02*
X131082914Y-48183458D01*
X131082914Y-48183458D02*
X130987676Y-48135839D01*
X130987676Y-48135839D02*
X130892438Y-48040601D01*
X130892438Y-48040601D02*
X130844819Y-47897744D01*
X130844819Y-47897744D02*
X130844819Y-47802506D01*
X130844819Y-47802506D02*
X130892438Y-47659649D01*
X130892438Y-47659649D02*
X130940057Y-47612030D01*
X131749580Y-46612030D02*
X131797200Y-46659649D01*
X131797200Y-46659649D02*
X131844819Y-46802506D01*
X131844819Y-46802506D02*
X131844819Y-46897744D01*
X131844819Y-46897744D02*
X131797200Y-47040601D01*
X131797200Y-47040601D02*
X131701961Y-47135839D01*
X131701961Y-47135839D02*
X131606723Y-47183458D01*
X131606723Y-47183458D02*
X131416247Y-47231077D01*
X131416247Y-47231077D02*
X131273390Y-47231077D01*
X131273390Y-47231077D02*
X131082914Y-47183458D01*
X131082914Y-47183458D02*
X130987676Y-47135839D01*
X130987676Y-47135839D02*
X130892438Y-47040601D01*
X130892438Y-47040601D02*
X130844819Y-46897744D01*
X130844819Y-46897744D02*
X130844819Y-46802506D01*
X130844819Y-46802506D02*
X130892438Y-46659649D01*
X130892438Y-46659649D02*
X130940057Y-46612030D01*
X152135588Y-53867438D02*
X152040350Y-53819819D01*
X152040350Y-53819819D02*
X151897493Y-53819819D01*
X151897493Y-53819819D02*
X151754636Y-53867438D01*
X151754636Y-53867438D02*
X151659398Y-53962676D01*
X151659398Y-53962676D02*
X151611779Y-54057914D01*
X151611779Y-54057914D02*
X151564160Y-54248390D01*
X151564160Y-54248390D02*
X151564160Y-54391247D01*
X151564160Y-54391247D02*
X151611779Y-54581723D01*
X151611779Y-54581723D02*
X151659398Y-54676961D01*
X151659398Y-54676961D02*
X151754636Y-54772200D01*
X151754636Y-54772200D02*
X151897493Y-54819819D01*
X151897493Y-54819819D02*
X151992731Y-54819819D01*
X151992731Y-54819819D02*
X152135588Y-54772200D01*
X152135588Y-54772200D02*
X152183207Y-54724580D01*
X152183207Y-54724580D02*
X152183207Y-54391247D01*
X152183207Y-54391247D02*
X151992731Y-54391247D01*
X152611779Y-54819819D02*
X152611779Y-53819819D01*
X152611779Y-53819819D02*
X153183207Y-54819819D01*
X153183207Y-54819819D02*
X153183207Y-53819819D01*
X153659398Y-54819819D02*
X153659398Y-53819819D01*
X153659398Y-53819819D02*
X153897493Y-53819819D01*
X153897493Y-53819819D02*
X154040350Y-53867438D01*
X154040350Y-53867438D02*
X154135588Y-53962676D01*
X154135588Y-53962676D02*
X154183207Y-54057914D01*
X154183207Y-54057914D02*
X154230826Y-54248390D01*
X154230826Y-54248390D02*
X154230826Y-54391247D01*
X154230826Y-54391247D02*
X154183207Y-54581723D01*
X154183207Y-54581723D02*
X154135588Y-54676961D01*
X154135588Y-54676961D02*
X154040350Y-54772200D01*
X154040350Y-54772200D02*
X153897493Y-54819819D01*
X153897493Y-54819819D02*
X153659398Y-54819819D01*
X155087969Y-54153152D02*
X155087969Y-54819819D01*
X154849874Y-53772200D02*
X154611779Y-54486485D01*
X154611779Y-54486485D02*
X155230826Y-54486485D01*
X155516541Y-53819819D02*
X156135588Y-53819819D01*
X156135588Y-53819819D02*
X155802255Y-54200771D01*
X155802255Y-54200771D02*
X155945112Y-54200771D01*
X155945112Y-54200771D02*
X156040350Y-54248390D01*
X156040350Y-54248390D02*
X156087969Y-54296009D01*
X156087969Y-54296009D02*
X156135588Y-54391247D01*
X156135588Y-54391247D02*
X156135588Y-54629342D01*
X156135588Y-54629342D02*
X156087969Y-54724580D01*
X156087969Y-54724580D02*
X156040350Y-54772200D01*
X156040350Y-54772200D02*
X155945112Y-54819819D01*
X155945112Y-54819819D02*
X155659398Y-54819819D01*
X155659398Y-54819819D02*
X155564160Y-54772200D01*
X155564160Y-54772200D02*
X155516541Y-54724580D01*
X124136779Y-52249819D02*
X124136779Y-51249819D01*
X124136779Y-51249819D02*
X124517731Y-51249819D01*
X124517731Y-51249819D02*
X124612969Y-51297438D01*
X124612969Y-51297438D02*
X124660588Y-51345057D01*
X124660588Y-51345057D02*
X124708207Y-51440295D01*
X124708207Y-51440295D02*
X124708207Y-51583152D01*
X124708207Y-51583152D02*
X124660588Y-51678390D01*
X124660588Y-51678390D02*
X124612969Y-51726009D01*
X124612969Y-51726009D02*
X124517731Y-51773628D01*
X124517731Y-51773628D02*
X124136779Y-51773628D01*
X125136779Y-51726009D02*
X125470112Y-51726009D01*
X125612969Y-52249819D02*
X125136779Y-52249819D01*
X125136779Y-52249819D02*
X125136779Y-51249819D01*
X125136779Y-51249819D02*
X125612969Y-51249819D01*
X126470112Y-51249819D02*
X126279636Y-51249819D01*
X126279636Y-51249819D02*
X126184398Y-51297438D01*
X126184398Y-51297438D02*
X126136779Y-51345057D01*
X126136779Y-51345057D02*
X126041541Y-51487914D01*
X126041541Y-51487914D02*
X125993922Y-51678390D01*
X125993922Y-51678390D02*
X125993922Y-52059342D01*
X125993922Y-52059342D02*
X126041541Y-52154580D01*
X126041541Y-52154580D02*
X126089160Y-52202200D01*
X126089160Y-52202200D02*
X126184398Y-52249819D01*
X126184398Y-52249819D02*
X126374874Y-52249819D01*
X126374874Y-52249819D02*
X126470112Y-52202200D01*
X126470112Y-52202200D02*
X126517731Y-52154580D01*
X126517731Y-52154580D02*
X126565350Y-52059342D01*
X126565350Y-52059342D02*
X126565350Y-51821247D01*
X126565350Y-51821247D02*
X126517731Y-51726009D01*
X126517731Y-51726009D02*
X126470112Y-51678390D01*
X126470112Y-51678390D02*
X126374874Y-51630771D01*
X126374874Y-51630771D02*
X126184398Y-51630771D01*
X126184398Y-51630771D02*
X126089160Y-51678390D01*
X126089160Y-51678390D02*
X126041541Y-51726009D01*
X126041541Y-51726009D02*
X125993922Y-51821247D01*
X138469819Y-50931077D02*
X139469819Y-50597744D01*
X139469819Y-50597744D02*
X138469819Y-50264411D01*
X139374580Y-49359649D02*
X139422200Y-49407268D01*
X139422200Y-49407268D02*
X139469819Y-49550125D01*
X139469819Y-49550125D02*
X139469819Y-49645363D01*
X139469819Y-49645363D02*
X139422200Y-49788220D01*
X139422200Y-49788220D02*
X139326961Y-49883458D01*
X139326961Y-49883458D02*
X139231723Y-49931077D01*
X139231723Y-49931077D02*
X139041247Y-49978696D01*
X139041247Y-49978696D02*
X138898390Y-49978696D01*
X138898390Y-49978696D02*
X138707914Y-49931077D01*
X138707914Y-49931077D02*
X138612676Y-49883458D01*
X138612676Y-49883458D02*
X138517438Y-49788220D01*
X138517438Y-49788220D02*
X138469819Y-49645363D01*
X138469819Y-49645363D02*
X138469819Y-49550125D01*
X138469819Y-49550125D02*
X138517438Y-49407268D01*
X138517438Y-49407268D02*
X138565057Y-49359649D01*
X139374580Y-48359649D02*
X139422200Y-48407268D01*
X139422200Y-48407268D02*
X139469819Y-48550125D01*
X139469819Y-48550125D02*
X139469819Y-48645363D01*
X139469819Y-48645363D02*
X139422200Y-48788220D01*
X139422200Y-48788220D02*
X139326961Y-48883458D01*
X139326961Y-48883458D02*
X139231723Y-48931077D01*
X139231723Y-48931077D02*
X139041247Y-48978696D01*
X139041247Y-48978696D02*
X138898390Y-48978696D01*
X138898390Y-48978696D02*
X138707914Y-48931077D01*
X138707914Y-48931077D02*
X138612676Y-48883458D01*
X138612676Y-48883458D02*
X138517438Y-48788220D01*
X138517438Y-48788220D02*
X138469819Y-48645363D01*
X138469819Y-48645363D02*
X138469819Y-48550125D01*
X138469819Y-48550125D02*
X138517438Y-48407268D01*
X138517438Y-48407268D02*
X138565057Y-48359649D01*
X138469819Y-48026315D02*
X138469819Y-47407268D01*
X138469819Y-47407268D02*
X138850771Y-47740601D01*
X138850771Y-47740601D02*
X138850771Y-47597744D01*
X138850771Y-47597744D02*
X138898390Y-47502506D01*
X138898390Y-47502506D02*
X138946009Y-47454887D01*
X138946009Y-47454887D02*
X139041247Y-47407268D01*
X139041247Y-47407268D02*
X139279342Y-47407268D01*
X139279342Y-47407268D02*
X139374580Y-47454887D01*
X139374580Y-47454887D02*
X139422200Y-47502506D01*
X139422200Y-47502506D02*
X139469819Y-47597744D01*
X139469819Y-47597744D02*
X139469819Y-47883458D01*
X139469819Y-47883458D02*
X139422200Y-47978696D01*
X139422200Y-47978696D02*
X139374580Y-48026315D01*
X138803152Y-46550125D02*
X139469819Y-46550125D01*
X138422200Y-46788220D02*
X139136485Y-47026315D01*
X139136485Y-47026315D02*
X139136485Y-46407268D01*
X143483207Y-99154819D02*
X143149874Y-98678628D01*
X142911779Y-99154819D02*
X142911779Y-98154819D01*
X142911779Y-98154819D02*
X143292731Y-98154819D01*
X143292731Y-98154819D02*
X143387969Y-98202438D01*
X143387969Y-98202438D02*
X143435588Y-98250057D01*
X143435588Y-98250057D02*
X143483207Y-98345295D01*
X143483207Y-98345295D02*
X143483207Y-98488152D01*
X143483207Y-98488152D02*
X143435588Y-98583390D01*
X143435588Y-98583390D02*
X143387969Y-98631009D01*
X143387969Y-98631009D02*
X143292731Y-98678628D01*
X143292731Y-98678628D02*
X142911779Y-98678628D01*
X143864160Y-99107200D02*
X144007017Y-99154819D01*
X144007017Y-99154819D02*
X144245112Y-99154819D01*
X144245112Y-99154819D02*
X144340350Y-99107200D01*
X144340350Y-99107200D02*
X144387969Y-99059580D01*
X144387969Y-99059580D02*
X144435588Y-98964342D01*
X144435588Y-98964342D02*
X144435588Y-98869104D01*
X144435588Y-98869104D02*
X144387969Y-98773866D01*
X144387969Y-98773866D02*
X144340350Y-98726247D01*
X144340350Y-98726247D02*
X144245112Y-98678628D01*
X144245112Y-98678628D02*
X144054636Y-98631009D01*
X144054636Y-98631009D02*
X143959398Y-98583390D01*
X143959398Y-98583390D02*
X143911779Y-98535771D01*
X143911779Y-98535771D02*
X143864160Y-98440533D01*
X143864160Y-98440533D02*
X143864160Y-98345295D01*
X143864160Y-98345295D02*
X143911779Y-98250057D01*
X143911779Y-98250057D02*
X143959398Y-98202438D01*
X143959398Y-98202438D02*
X144054636Y-98154819D01*
X144054636Y-98154819D02*
X144292731Y-98154819D01*
X144292731Y-98154819D02*
X144435588Y-98202438D01*
X144721303Y-98154819D02*
X145292731Y-98154819D01*
X145007017Y-99154819D02*
X145007017Y-98154819D01*
X124136779Y-99324819D02*
X124136779Y-98324819D01*
X124136779Y-98324819D02*
X124517731Y-98324819D01*
X124517731Y-98324819D02*
X124612969Y-98372438D01*
X124612969Y-98372438D02*
X124660588Y-98420057D01*
X124660588Y-98420057D02*
X124708207Y-98515295D01*
X124708207Y-98515295D02*
X124708207Y-98658152D01*
X124708207Y-98658152D02*
X124660588Y-98753390D01*
X124660588Y-98753390D02*
X124612969Y-98801009D01*
X124612969Y-98801009D02*
X124517731Y-98848628D01*
X124517731Y-98848628D02*
X124136779Y-98848628D01*
X125136779Y-99324819D02*
X125136779Y-98324819D01*
X125136779Y-98324819D02*
X125374874Y-98324819D01*
X125374874Y-98324819D02*
X125517731Y-98372438D01*
X125517731Y-98372438D02*
X125612969Y-98467676D01*
X125612969Y-98467676D02*
X125660588Y-98562914D01*
X125660588Y-98562914D02*
X125708207Y-98753390D01*
X125708207Y-98753390D02*
X125708207Y-98896247D01*
X125708207Y-98896247D02*
X125660588Y-99086723D01*
X125660588Y-99086723D02*
X125612969Y-99181961D01*
X125612969Y-99181961D02*
X125517731Y-99277200D01*
X125517731Y-99277200D02*
X125374874Y-99324819D01*
X125374874Y-99324819D02*
X125136779Y-99324819D01*
X126327255Y-98324819D02*
X126422493Y-98324819D01*
X126422493Y-98324819D02*
X126517731Y-98372438D01*
X126517731Y-98372438D02*
X126565350Y-98420057D01*
X126565350Y-98420057D02*
X126612969Y-98515295D01*
X126612969Y-98515295D02*
X126660588Y-98705771D01*
X126660588Y-98705771D02*
X126660588Y-98943866D01*
X126660588Y-98943866D02*
X126612969Y-99134342D01*
X126612969Y-99134342D02*
X126565350Y-99229580D01*
X126565350Y-99229580D02*
X126517731Y-99277200D01*
X126517731Y-99277200D02*
X126422493Y-99324819D01*
X126422493Y-99324819D02*
X126327255Y-99324819D01*
X126327255Y-99324819D02*
X126232017Y-99277200D01*
X126232017Y-99277200D02*
X126184398Y-99229580D01*
X126184398Y-99229580D02*
X126136779Y-99134342D01*
X126136779Y-99134342D02*
X126089160Y-98943866D01*
X126089160Y-98943866D02*
X126089160Y-98705771D01*
X126089160Y-98705771D02*
X126136779Y-98515295D01*
X126136779Y-98515295D02*
X126184398Y-98420057D01*
X126184398Y-98420057D02*
X126232017Y-98372438D01*
X126232017Y-98372438D02*
X126327255Y-98324819D01*
X123993922Y-66499819D02*
X124327255Y-67499819D01*
X124327255Y-67499819D02*
X124660588Y-66499819D01*
X125327255Y-66976009D02*
X125470112Y-67023628D01*
X125470112Y-67023628D02*
X125517731Y-67071247D01*
X125517731Y-67071247D02*
X125565350Y-67166485D01*
X125565350Y-67166485D02*
X125565350Y-67309342D01*
X125565350Y-67309342D02*
X125517731Y-67404580D01*
X125517731Y-67404580D02*
X125470112Y-67452200D01*
X125470112Y-67452200D02*
X125374874Y-67499819D01*
X125374874Y-67499819D02*
X124993922Y-67499819D01*
X124993922Y-67499819D02*
X124993922Y-66499819D01*
X124993922Y-66499819D02*
X125327255Y-66499819D01*
X125327255Y-66499819D02*
X125422493Y-66547438D01*
X125422493Y-66547438D02*
X125470112Y-66595057D01*
X125470112Y-66595057D02*
X125517731Y-66690295D01*
X125517731Y-66690295D02*
X125517731Y-66785533D01*
X125517731Y-66785533D02*
X125470112Y-66880771D01*
X125470112Y-66880771D02*
X125422493Y-66928390D01*
X125422493Y-66928390D02*
X125327255Y-66976009D01*
X125327255Y-66976009D02*
X124993922Y-66976009D01*
X125993922Y-66499819D02*
X125993922Y-67309342D01*
X125993922Y-67309342D02*
X126041541Y-67404580D01*
X126041541Y-67404580D02*
X126089160Y-67452200D01*
X126089160Y-67452200D02*
X126184398Y-67499819D01*
X126184398Y-67499819D02*
X126374874Y-67499819D01*
X126374874Y-67499819D02*
X126470112Y-67452200D01*
X126470112Y-67452200D02*
X126517731Y-67404580D01*
X126517731Y-67404580D02*
X126565350Y-67309342D01*
X126565350Y-67309342D02*
X126565350Y-66499819D01*
X126993922Y-67452200D02*
X127136779Y-67499819D01*
X127136779Y-67499819D02*
X127374874Y-67499819D01*
X127374874Y-67499819D02*
X127470112Y-67452200D01*
X127470112Y-67452200D02*
X127517731Y-67404580D01*
X127517731Y-67404580D02*
X127565350Y-67309342D01*
X127565350Y-67309342D02*
X127565350Y-67214104D01*
X127565350Y-67214104D02*
X127517731Y-67118866D01*
X127517731Y-67118866D02*
X127470112Y-67071247D01*
X127470112Y-67071247D02*
X127374874Y-67023628D01*
X127374874Y-67023628D02*
X127184398Y-66976009D01*
X127184398Y-66976009D02*
X127089160Y-66928390D01*
X127089160Y-66928390D02*
X127041541Y-66880771D01*
X127041541Y-66880771D02*
X126993922Y-66785533D01*
X126993922Y-66785533D02*
X126993922Y-66690295D01*
X126993922Y-66690295D02*
X127041541Y-66595057D01*
X127041541Y-66595057D02*
X127089160Y-66547438D01*
X127089160Y-66547438D02*
X127184398Y-66499819D01*
X127184398Y-66499819D02*
X127422493Y-66499819D01*
X127422493Y-66499819D02*
X127565350Y-66547438D01*
X141684104Y-51710839D02*
X141684104Y-51234649D01*
X141969819Y-51806077D02*
X140969819Y-51472744D01*
X140969819Y-51472744D02*
X141969819Y-51139411D01*
X140969819Y-50948934D02*
X141969819Y-50615601D01*
X141969819Y-50615601D02*
X140969819Y-50282268D01*
X141874580Y-49377506D02*
X141922200Y-49425125D01*
X141922200Y-49425125D02*
X141969819Y-49567982D01*
X141969819Y-49567982D02*
X141969819Y-49663220D01*
X141969819Y-49663220D02*
X141922200Y-49806077D01*
X141922200Y-49806077D02*
X141826961Y-49901315D01*
X141826961Y-49901315D02*
X141731723Y-49948934D01*
X141731723Y-49948934D02*
X141541247Y-49996553D01*
X141541247Y-49996553D02*
X141398390Y-49996553D01*
X141398390Y-49996553D02*
X141207914Y-49948934D01*
X141207914Y-49948934D02*
X141112676Y-49901315D01*
X141112676Y-49901315D02*
X141017438Y-49806077D01*
X141017438Y-49806077D02*
X140969819Y-49663220D01*
X140969819Y-49663220D02*
X140969819Y-49567982D01*
X140969819Y-49567982D02*
X141017438Y-49425125D01*
X141017438Y-49425125D02*
X141065057Y-49377506D01*
X141874580Y-48377506D02*
X141922200Y-48425125D01*
X141922200Y-48425125D02*
X141969819Y-48567982D01*
X141969819Y-48567982D02*
X141969819Y-48663220D01*
X141969819Y-48663220D02*
X141922200Y-48806077D01*
X141922200Y-48806077D02*
X141826961Y-48901315D01*
X141826961Y-48901315D02*
X141731723Y-48948934D01*
X141731723Y-48948934D02*
X141541247Y-48996553D01*
X141541247Y-48996553D02*
X141398390Y-48996553D01*
X141398390Y-48996553D02*
X141207914Y-48948934D01*
X141207914Y-48948934D02*
X141112676Y-48901315D01*
X141112676Y-48901315D02*
X141017438Y-48806077D01*
X141017438Y-48806077D02*
X140969819Y-48663220D01*
X140969819Y-48663220D02*
X140969819Y-48567982D01*
X140969819Y-48567982D02*
X141017438Y-48425125D01*
X141017438Y-48425125D02*
X141065057Y-48377506D01*
X141303152Y-47520363D02*
X141969819Y-47520363D01*
X140922200Y-47758458D02*
X141636485Y-47996553D01*
X141636485Y-47996553D02*
X141636485Y-47377506D01*
X141303152Y-46567982D02*
X141969819Y-46567982D01*
X140922200Y-46806077D02*
X141636485Y-47044172D01*
X141636485Y-47044172D02*
X141636485Y-46425125D01*
X150639160Y-106609104D02*
X151115350Y-106609104D01*
X150543922Y-106894819D02*
X150877255Y-105894819D01*
X150877255Y-105894819D02*
X151210588Y-106894819D01*
X151401065Y-105894819D02*
X151734398Y-106894819D01*
X151734398Y-106894819D02*
X152067731Y-105894819D01*
X152972493Y-106799580D02*
X152924874Y-106847200D01*
X152924874Y-106847200D02*
X152782017Y-106894819D01*
X152782017Y-106894819D02*
X152686779Y-106894819D01*
X152686779Y-106894819D02*
X152543922Y-106847200D01*
X152543922Y-106847200D02*
X152448684Y-106751961D01*
X152448684Y-106751961D02*
X152401065Y-106656723D01*
X152401065Y-106656723D02*
X152353446Y-106466247D01*
X152353446Y-106466247D02*
X152353446Y-106323390D01*
X152353446Y-106323390D02*
X152401065Y-106132914D01*
X152401065Y-106132914D02*
X152448684Y-106037676D01*
X152448684Y-106037676D02*
X152543922Y-105942438D01*
X152543922Y-105942438D02*
X152686779Y-105894819D01*
X152686779Y-105894819D02*
X152782017Y-105894819D01*
X152782017Y-105894819D02*
X152924874Y-105942438D01*
X152924874Y-105942438D02*
X152972493Y-105990057D01*
X153972493Y-106799580D02*
X153924874Y-106847200D01*
X153924874Y-106847200D02*
X153782017Y-106894819D01*
X153782017Y-106894819D02*
X153686779Y-106894819D01*
X153686779Y-106894819D02*
X153543922Y-106847200D01*
X153543922Y-106847200D02*
X153448684Y-106751961D01*
X153448684Y-106751961D02*
X153401065Y-106656723D01*
X153401065Y-106656723D02*
X153353446Y-106466247D01*
X153353446Y-106466247D02*
X153353446Y-106323390D01*
X153353446Y-106323390D02*
X153401065Y-106132914D01*
X153401065Y-106132914D02*
X153448684Y-106037676D01*
X153448684Y-106037676D02*
X153543922Y-105942438D01*
X153543922Y-105942438D02*
X153686779Y-105894819D01*
X153686779Y-105894819D02*
X153782017Y-105894819D01*
X153782017Y-105894819D02*
X153924874Y-105942438D01*
X153924874Y-105942438D02*
X153972493Y-105990057D01*
X154353446Y-105990057D02*
X154401065Y-105942438D01*
X154401065Y-105942438D02*
X154496303Y-105894819D01*
X154496303Y-105894819D02*
X154734398Y-105894819D01*
X154734398Y-105894819D02*
X154829636Y-105942438D01*
X154829636Y-105942438D02*
X154877255Y-105990057D01*
X154877255Y-105990057D02*
X154924874Y-106085295D01*
X154924874Y-106085295D02*
X154924874Y-106180533D01*
X154924874Y-106180533D02*
X154877255Y-106323390D01*
X154877255Y-106323390D02*
X154305827Y-106894819D01*
X154305827Y-106894819D02*
X154924874Y-106894819D01*
X155782017Y-106228152D02*
X155782017Y-106894819D01*
X155543922Y-105847200D02*
X155305827Y-106561485D01*
X155305827Y-106561485D02*
X155924874Y-106561485D01*
X123993922Y-86224819D02*
X124327255Y-87224819D01*
X124327255Y-87224819D02*
X124660588Y-86224819D01*
X125565350Y-87129580D02*
X125517731Y-87177200D01*
X125517731Y-87177200D02*
X125374874Y-87224819D01*
X125374874Y-87224819D02*
X125279636Y-87224819D01*
X125279636Y-87224819D02*
X125136779Y-87177200D01*
X125136779Y-87177200D02*
X125041541Y-87081961D01*
X125041541Y-87081961D02*
X124993922Y-86986723D01*
X124993922Y-86986723D02*
X124946303Y-86796247D01*
X124946303Y-86796247D02*
X124946303Y-86653390D01*
X124946303Y-86653390D02*
X124993922Y-86462914D01*
X124993922Y-86462914D02*
X125041541Y-86367676D01*
X125041541Y-86367676D02*
X125136779Y-86272438D01*
X125136779Y-86272438D02*
X125279636Y-86224819D01*
X125279636Y-86224819D02*
X125374874Y-86224819D01*
X125374874Y-86224819D02*
X125517731Y-86272438D01*
X125517731Y-86272438D02*
X125565350Y-86320057D01*
X126565350Y-87129580D02*
X126517731Y-87177200D01*
X126517731Y-87177200D02*
X126374874Y-87224819D01*
X126374874Y-87224819D02*
X126279636Y-87224819D01*
X126279636Y-87224819D02*
X126136779Y-87177200D01*
X126136779Y-87177200D02*
X126041541Y-87081961D01*
X126041541Y-87081961D02*
X125993922Y-86986723D01*
X125993922Y-86986723D02*
X125946303Y-86796247D01*
X125946303Y-86796247D02*
X125946303Y-86653390D01*
X125946303Y-86653390D02*
X125993922Y-86462914D01*
X125993922Y-86462914D02*
X126041541Y-86367676D01*
X126041541Y-86367676D02*
X126136779Y-86272438D01*
X126136779Y-86272438D02*
X126279636Y-86224819D01*
X126279636Y-86224819D02*
X126374874Y-86224819D01*
X126374874Y-86224819D02*
X126517731Y-86272438D01*
X126517731Y-86272438D02*
X126565350Y-86320057D01*
X127517731Y-87224819D02*
X126946303Y-87224819D01*
X127232017Y-87224819D02*
X127232017Y-86224819D01*
X127232017Y-86224819D02*
X127136779Y-86367676D01*
X127136779Y-86367676D02*
X127041541Y-86462914D01*
X127041541Y-86462914D02*
X126946303Y-86510533D01*
X128374874Y-86558152D02*
X128374874Y-87224819D01*
X128136779Y-86177200D02*
X127898684Y-86891485D01*
X127898684Y-86891485D02*
X128517731Y-86891485D01*
X136634104Y-51685839D02*
X136634104Y-51209649D01*
X136919819Y-51781077D02*
X135919819Y-51447744D01*
X135919819Y-51447744D02*
X136919819Y-51114411D01*
X135919819Y-50923934D02*
X136919819Y-50590601D01*
X136919819Y-50590601D02*
X135919819Y-50257268D01*
X136824580Y-49352506D02*
X136872200Y-49400125D01*
X136872200Y-49400125D02*
X136919819Y-49542982D01*
X136919819Y-49542982D02*
X136919819Y-49638220D01*
X136919819Y-49638220D02*
X136872200Y-49781077D01*
X136872200Y-49781077D02*
X136776961Y-49876315D01*
X136776961Y-49876315D02*
X136681723Y-49923934D01*
X136681723Y-49923934D02*
X136491247Y-49971553D01*
X136491247Y-49971553D02*
X136348390Y-49971553D01*
X136348390Y-49971553D02*
X136157914Y-49923934D01*
X136157914Y-49923934D02*
X136062676Y-49876315D01*
X136062676Y-49876315D02*
X135967438Y-49781077D01*
X135967438Y-49781077D02*
X135919819Y-49638220D01*
X135919819Y-49638220D02*
X135919819Y-49542982D01*
X135919819Y-49542982D02*
X135967438Y-49400125D01*
X135967438Y-49400125D02*
X136015057Y-49352506D01*
X136824580Y-48352506D02*
X136872200Y-48400125D01*
X136872200Y-48400125D02*
X136919819Y-48542982D01*
X136919819Y-48542982D02*
X136919819Y-48638220D01*
X136919819Y-48638220D02*
X136872200Y-48781077D01*
X136872200Y-48781077D02*
X136776961Y-48876315D01*
X136776961Y-48876315D02*
X136681723Y-48923934D01*
X136681723Y-48923934D02*
X136491247Y-48971553D01*
X136491247Y-48971553D02*
X136348390Y-48971553D01*
X136348390Y-48971553D02*
X136157914Y-48923934D01*
X136157914Y-48923934D02*
X136062676Y-48876315D01*
X136062676Y-48876315D02*
X135967438Y-48781077D01*
X135967438Y-48781077D02*
X135919819Y-48638220D01*
X135919819Y-48638220D02*
X135919819Y-48542982D01*
X135919819Y-48542982D02*
X135967438Y-48400125D01*
X135967438Y-48400125D02*
X136015057Y-48352506D01*
X136015057Y-47971553D02*
X135967438Y-47923934D01*
X135967438Y-47923934D02*
X135919819Y-47828696D01*
X135919819Y-47828696D02*
X135919819Y-47590601D01*
X135919819Y-47590601D02*
X135967438Y-47495363D01*
X135967438Y-47495363D02*
X136015057Y-47447744D01*
X136015057Y-47447744D02*
X136110295Y-47400125D01*
X136110295Y-47400125D02*
X136205533Y-47400125D01*
X136205533Y-47400125D02*
X136348390Y-47447744D01*
X136348390Y-47447744D02*
X136919819Y-48019172D01*
X136919819Y-48019172D02*
X136919819Y-47400125D01*
X136253152Y-46542982D02*
X136919819Y-46542982D01*
X135872200Y-46781077D02*
X136586485Y-47019172D01*
X136586485Y-47019172D02*
X136586485Y-46400125D01*
X124136779Y-63949819D02*
X124136779Y-64759342D01*
X124136779Y-64759342D02*
X124184398Y-64854580D01*
X124184398Y-64854580D02*
X124232017Y-64902200D01*
X124232017Y-64902200D02*
X124327255Y-64949819D01*
X124327255Y-64949819D02*
X124517731Y-64949819D01*
X124517731Y-64949819D02*
X124612969Y-64902200D01*
X124612969Y-64902200D02*
X124660588Y-64854580D01*
X124660588Y-64854580D02*
X124708207Y-64759342D01*
X124708207Y-64759342D02*
X124708207Y-63949819D01*
X125755826Y-64854580D02*
X125708207Y-64902200D01*
X125708207Y-64902200D02*
X125565350Y-64949819D01*
X125565350Y-64949819D02*
X125470112Y-64949819D01*
X125470112Y-64949819D02*
X125327255Y-64902200D01*
X125327255Y-64902200D02*
X125232017Y-64806961D01*
X125232017Y-64806961D02*
X125184398Y-64711723D01*
X125184398Y-64711723D02*
X125136779Y-64521247D01*
X125136779Y-64521247D02*
X125136779Y-64378390D01*
X125136779Y-64378390D02*
X125184398Y-64187914D01*
X125184398Y-64187914D02*
X125232017Y-64092676D01*
X125232017Y-64092676D02*
X125327255Y-63997438D01*
X125327255Y-63997438D02*
X125470112Y-63949819D01*
X125470112Y-63949819D02*
X125565350Y-63949819D01*
X125565350Y-63949819D02*
X125708207Y-63997438D01*
X125708207Y-63997438D02*
X125755826Y-64045057D01*
X126136779Y-64664104D02*
X126612969Y-64664104D01*
X126041541Y-64949819D02*
X126374874Y-63949819D01*
X126374874Y-63949819D02*
X126708207Y-64949819D01*
X127041541Y-64949819D02*
X127041541Y-63949819D01*
X127041541Y-63949819D02*
X127422493Y-63949819D01*
X127422493Y-63949819D02*
X127517731Y-63997438D01*
X127517731Y-63997438D02*
X127565350Y-64045057D01*
X127565350Y-64045057D02*
X127612969Y-64140295D01*
X127612969Y-64140295D02*
X127612969Y-64283152D01*
X127612969Y-64283152D02*
X127565350Y-64378390D01*
X127565350Y-64378390D02*
X127517731Y-64426009D01*
X127517731Y-64426009D02*
X127422493Y-64473628D01*
X127422493Y-64473628D02*
X127041541Y-64473628D01*
X143535588Y-90677438D02*
X143440350Y-90629819D01*
X143440350Y-90629819D02*
X143297493Y-90629819D01*
X143297493Y-90629819D02*
X143154636Y-90677438D01*
X143154636Y-90677438D02*
X143059398Y-90772676D01*
X143059398Y-90772676D02*
X143011779Y-90867914D01*
X143011779Y-90867914D02*
X142964160Y-91058390D01*
X142964160Y-91058390D02*
X142964160Y-91201247D01*
X142964160Y-91201247D02*
X143011779Y-91391723D01*
X143011779Y-91391723D02*
X143059398Y-91486961D01*
X143059398Y-91486961D02*
X143154636Y-91582200D01*
X143154636Y-91582200D02*
X143297493Y-91629819D01*
X143297493Y-91629819D02*
X143392731Y-91629819D01*
X143392731Y-91629819D02*
X143535588Y-91582200D01*
X143535588Y-91582200D02*
X143583207Y-91534580D01*
X143583207Y-91534580D02*
X143583207Y-91201247D01*
X143583207Y-91201247D02*
X143392731Y-91201247D01*
X144011779Y-91629819D02*
X144011779Y-90629819D01*
X144011779Y-90629819D02*
X144583207Y-91629819D01*
X144583207Y-91629819D02*
X144583207Y-90629819D01*
X145059398Y-91629819D02*
X145059398Y-90629819D01*
X145059398Y-90629819D02*
X145297493Y-90629819D01*
X145297493Y-90629819D02*
X145440350Y-90677438D01*
X145440350Y-90677438D02*
X145535588Y-90772676D01*
X145535588Y-90772676D02*
X145583207Y-90867914D01*
X145583207Y-90867914D02*
X145630826Y-91058390D01*
X145630826Y-91058390D02*
X145630826Y-91201247D01*
X145630826Y-91201247D02*
X145583207Y-91391723D01*
X145583207Y-91391723D02*
X145535588Y-91486961D01*
X145535588Y-91486961D02*
X145440350Y-91582200D01*
X145440350Y-91582200D02*
X145297493Y-91629819D01*
X145297493Y-91629819D02*
X145059398Y-91629819D01*
D12*
X153620331Y-59896119D02*
X153620331Y-58896119D01*
X153620331Y-58896119D02*
X154001283Y-58896119D01*
X154001283Y-58896119D02*
X154096521Y-58943738D01*
X154096521Y-58943738D02*
X154144140Y-58991357D01*
X154144140Y-58991357D02*
X154191759Y-59086595D01*
X154191759Y-59086595D02*
X154191759Y-59229452D01*
X154191759Y-59229452D02*
X154144140Y-59324690D01*
X154144140Y-59324690D02*
X154096521Y-59372309D01*
X154096521Y-59372309D02*
X154001283Y-59419928D01*
X154001283Y-59419928D02*
X153620331Y-59419928D01*
X154953664Y-59372309D02*
X154620331Y-59372309D01*
X154620331Y-59896119D02*
X154620331Y-58896119D01*
X154620331Y-58896119D02*
X155096521Y-58896119D01*
X155667950Y-58896119D02*
X155763188Y-58896119D01*
X155763188Y-58896119D02*
X155858426Y-58943738D01*
X155858426Y-58943738D02*
X155906045Y-58991357D01*
X155906045Y-58991357D02*
X155953664Y-59086595D01*
X155953664Y-59086595D02*
X156001283Y-59277071D01*
X156001283Y-59277071D02*
X156001283Y-59515166D01*
X156001283Y-59515166D02*
X155953664Y-59705642D01*
X155953664Y-59705642D02*
X155906045Y-59800880D01*
X155906045Y-59800880D02*
X155858426Y-59848500D01*
X155858426Y-59848500D02*
X155763188Y-59896119D01*
X155763188Y-59896119D02*
X155667950Y-59896119D01*
X155667950Y-59896119D02*
X155572712Y-59848500D01*
X155572712Y-59848500D02*
X155525093Y-59800880D01*
X155525093Y-59800880D02*
X155477474Y-59705642D01*
X155477474Y-59705642D02*
X155429855Y-59515166D01*
X155429855Y-59515166D02*
X155429855Y-59277071D01*
X155429855Y-59277071D02*
X155477474Y-59086595D01*
X155477474Y-59086595D02*
X155525093Y-58991357D01*
X155525093Y-58991357D02*
X155572712Y-58943738D01*
X155572712Y-58943738D02*
X155667950Y-58896119D01*
D10*
X124136779Y-77074819D02*
X124136779Y-76074819D01*
X124136779Y-76074819D02*
X124517731Y-76074819D01*
X124517731Y-76074819D02*
X124612969Y-76122438D01*
X124612969Y-76122438D02*
X124660588Y-76170057D01*
X124660588Y-76170057D02*
X124708207Y-76265295D01*
X124708207Y-76265295D02*
X124708207Y-76408152D01*
X124708207Y-76408152D02*
X124660588Y-76503390D01*
X124660588Y-76503390D02*
X124612969Y-76551009D01*
X124612969Y-76551009D02*
X124517731Y-76598628D01*
X124517731Y-76598628D02*
X124136779Y-76598628D01*
X125470112Y-76551009D02*
X125612969Y-76598628D01*
X125612969Y-76598628D02*
X125660588Y-76646247D01*
X125660588Y-76646247D02*
X125708207Y-76741485D01*
X125708207Y-76741485D02*
X125708207Y-76884342D01*
X125708207Y-76884342D02*
X125660588Y-76979580D01*
X125660588Y-76979580D02*
X125612969Y-77027200D01*
X125612969Y-77027200D02*
X125517731Y-77074819D01*
X125517731Y-77074819D02*
X125136779Y-77074819D01*
X125136779Y-77074819D02*
X125136779Y-76074819D01*
X125136779Y-76074819D02*
X125470112Y-76074819D01*
X125470112Y-76074819D02*
X125565350Y-76122438D01*
X125565350Y-76122438D02*
X125612969Y-76170057D01*
X125612969Y-76170057D02*
X125660588Y-76265295D01*
X125660588Y-76265295D02*
X125660588Y-76360533D01*
X125660588Y-76360533D02*
X125612969Y-76455771D01*
X125612969Y-76455771D02*
X125565350Y-76503390D01*
X125565350Y-76503390D02*
X125470112Y-76551009D01*
X125470112Y-76551009D02*
X125136779Y-76551009D01*
X126089160Y-76170057D02*
X126136779Y-76122438D01*
X126136779Y-76122438D02*
X126232017Y-76074819D01*
X126232017Y-76074819D02*
X126470112Y-76074819D01*
X126470112Y-76074819D02*
X126565350Y-76122438D01*
X126565350Y-76122438D02*
X126612969Y-76170057D01*
X126612969Y-76170057D02*
X126660588Y-76265295D01*
X126660588Y-76265295D02*
X126660588Y-76360533D01*
X126660588Y-76360533D02*
X126612969Y-76503390D01*
X126612969Y-76503390D02*
X126041541Y-77074819D01*
X126041541Y-77074819D02*
X126660588Y-77074819D01*
X127803445Y-76027200D02*
X126946303Y-77312914D01*
X128136779Y-77074819D02*
X128136779Y-76074819D01*
X128136779Y-76074819D02*
X128470112Y-76789104D01*
X128470112Y-76789104D02*
X128803445Y-76074819D01*
X128803445Y-76074819D02*
X128803445Y-77074819D01*
X129470112Y-76074819D02*
X129660588Y-76074819D01*
X129660588Y-76074819D02*
X129755826Y-76122438D01*
X129755826Y-76122438D02*
X129851064Y-76217676D01*
X129851064Y-76217676D02*
X129898683Y-76408152D01*
X129898683Y-76408152D02*
X129898683Y-76741485D01*
X129898683Y-76741485D02*
X129851064Y-76931961D01*
X129851064Y-76931961D02*
X129755826Y-77027200D01*
X129755826Y-77027200D02*
X129660588Y-77074819D01*
X129660588Y-77074819D02*
X129470112Y-77074819D01*
X129470112Y-77074819D02*
X129374874Y-77027200D01*
X129374874Y-77027200D02*
X129279636Y-76931961D01*
X129279636Y-76931961D02*
X129232017Y-76741485D01*
X129232017Y-76741485D02*
X129232017Y-76408152D01*
X129232017Y-76408152D02*
X129279636Y-76217676D01*
X129279636Y-76217676D02*
X129374874Y-76122438D01*
X129374874Y-76122438D02*
X129470112Y-76074819D01*
X130279636Y-77027200D02*
X130422493Y-77074819D01*
X130422493Y-77074819D02*
X130660588Y-77074819D01*
X130660588Y-77074819D02*
X130755826Y-77027200D01*
X130755826Y-77027200D02*
X130803445Y-76979580D01*
X130803445Y-76979580D02*
X130851064Y-76884342D01*
X130851064Y-76884342D02*
X130851064Y-76789104D01*
X130851064Y-76789104D02*
X130803445Y-76693866D01*
X130803445Y-76693866D02*
X130755826Y-76646247D01*
X130755826Y-76646247D02*
X130660588Y-76598628D01*
X130660588Y-76598628D02*
X130470112Y-76551009D01*
X130470112Y-76551009D02*
X130374874Y-76503390D01*
X130374874Y-76503390D02*
X130327255Y-76455771D01*
X130327255Y-76455771D02*
X130279636Y-76360533D01*
X130279636Y-76360533D02*
X130279636Y-76265295D01*
X130279636Y-76265295D02*
X130327255Y-76170057D01*
X130327255Y-76170057D02*
X130374874Y-76122438D01*
X130374874Y-76122438D02*
X130470112Y-76074819D01*
X130470112Y-76074819D02*
X130708207Y-76074819D01*
X130708207Y-76074819D02*
X130851064Y-76122438D01*
X131279636Y-77074819D02*
X131279636Y-76074819D01*
X153361779Y-87269819D02*
X153361779Y-86269819D01*
X153361779Y-86269819D02*
X153742731Y-86269819D01*
X153742731Y-86269819D02*
X153837969Y-86317438D01*
X153837969Y-86317438D02*
X153885588Y-86365057D01*
X153885588Y-86365057D02*
X153933207Y-86460295D01*
X153933207Y-86460295D02*
X153933207Y-86603152D01*
X153933207Y-86603152D02*
X153885588Y-86698390D01*
X153885588Y-86698390D02*
X153837969Y-86746009D01*
X153837969Y-86746009D02*
X153742731Y-86793628D01*
X153742731Y-86793628D02*
X153361779Y-86793628D01*
X154933207Y-87174580D02*
X154885588Y-87222200D01*
X154885588Y-87222200D02*
X154742731Y-87269819D01*
X154742731Y-87269819D02*
X154647493Y-87269819D01*
X154647493Y-87269819D02*
X154504636Y-87222200D01*
X154504636Y-87222200D02*
X154409398Y-87126961D01*
X154409398Y-87126961D02*
X154361779Y-87031723D01*
X154361779Y-87031723D02*
X154314160Y-86841247D01*
X154314160Y-86841247D02*
X154314160Y-86698390D01*
X154314160Y-86698390D02*
X154361779Y-86507914D01*
X154361779Y-86507914D02*
X154409398Y-86412676D01*
X154409398Y-86412676D02*
X154504636Y-86317438D01*
X154504636Y-86317438D02*
X154647493Y-86269819D01*
X154647493Y-86269819D02*
X154742731Y-86269819D01*
X154742731Y-86269819D02*
X154885588Y-86317438D01*
X154885588Y-86317438D02*
X154933207Y-86365057D01*
X155790350Y-86269819D02*
X155599874Y-86269819D01*
X155599874Y-86269819D02*
X155504636Y-86317438D01*
X155504636Y-86317438D02*
X155457017Y-86365057D01*
X155457017Y-86365057D02*
X155361779Y-86507914D01*
X155361779Y-86507914D02*
X155314160Y-86698390D01*
X155314160Y-86698390D02*
X155314160Y-87079342D01*
X155314160Y-87079342D02*
X155361779Y-87174580D01*
X155361779Y-87174580D02*
X155409398Y-87222200D01*
X155409398Y-87222200D02*
X155504636Y-87269819D01*
X155504636Y-87269819D02*
X155695112Y-87269819D01*
X155695112Y-87269819D02*
X155790350Y-87222200D01*
X155790350Y-87222200D02*
X155837969Y-87174580D01*
X155837969Y-87174580D02*
X155885588Y-87079342D01*
X155885588Y-87079342D02*
X155885588Y-86841247D01*
X155885588Y-86841247D02*
X155837969Y-86746009D01*
X155837969Y-86746009D02*
X155790350Y-86698390D01*
X155790350Y-86698390D02*
X155695112Y-86650771D01*
X155695112Y-86650771D02*
X155504636Y-86650771D01*
X155504636Y-86650771D02*
X155409398Y-86698390D01*
X155409398Y-86698390D02*
X155361779Y-86746009D01*
X155361779Y-86746009D02*
X155314160Y-86841247D01*
X153336779Y-94194819D02*
X153336779Y-93194819D01*
X153336779Y-93194819D02*
X153717731Y-93194819D01*
X153717731Y-93194819D02*
X153812969Y-93242438D01*
X153812969Y-93242438D02*
X153860588Y-93290057D01*
X153860588Y-93290057D02*
X153908207Y-93385295D01*
X153908207Y-93385295D02*
X153908207Y-93528152D01*
X153908207Y-93528152D02*
X153860588Y-93623390D01*
X153860588Y-93623390D02*
X153812969Y-93671009D01*
X153812969Y-93671009D02*
X153717731Y-93718628D01*
X153717731Y-93718628D02*
X153336779Y-93718628D01*
X154670112Y-93671009D02*
X154812969Y-93718628D01*
X154812969Y-93718628D02*
X154860588Y-93766247D01*
X154860588Y-93766247D02*
X154908207Y-93861485D01*
X154908207Y-93861485D02*
X154908207Y-94004342D01*
X154908207Y-94004342D02*
X154860588Y-94099580D01*
X154860588Y-94099580D02*
X154812969Y-94147200D01*
X154812969Y-94147200D02*
X154717731Y-94194819D01*
X154717731Y-94194819D02*
X154336779Y-94194819D01*
X154336779Y-94194819D02*
X154336779Y-93194819D01*
X154336779Y-93194819D02*
X154670112Y-93194819D01*
X154670112Y-93194819D02*
X154765350Y-93242438D01*
X154765350Y-93242438D02*
X154812969Y-93290057D01*
X154812969Y-93290057D02*
X154860588Y-93385295D01*
X154860588Y-93385295D02*
X154860588Y-93480533D01*
X154860588Y-93480533D02*
X154812969Y-93575771D01*
X154812969Y-93575771D02*
X154765350Y-93623390D01*
X154765350Y-93623390D02*
X154670112Y-93671009D01*
X154670112Y-93671009D02*
X154336779Y-93671009D01*
X155812969Y-93194819D02*
X155336779Y-93194819D01*
X155336779Y-93194819D02*
X155289160Y-93671009D01*
X155289160Y-93671009D02*
X155336779Y-93623390D01*
X155336779Y-93623390D02*
X155432017Y-93575771D01*
X155432017Y-93575771D02*
X155670112Y-93575771D01*
X155670112Y-93575771D02*
X155765350Y-93623390D01*
X155765350Y-93623390D02*
X155812969Y-93671009D01*
X155812969Y-93671009D02*
X155860588Y-93766247D01*
X155860588Y-93766247D02*
X155860588Y-94004342D01*
X155860588Y-94004342D02*
X155812969Y-94099580D01*
X155812969Y-94099580D02*
X155765350Y-94147200D01*
X155765350Y-94147200D02*
X155670112Y-94194819D01*
X155670112Y-94194819D02*
X155432017Y-94194819D01*
X155432017Y-94194819D02*
X155336779Y-94147200D01*
X155336779Y-94147200D02*
X155289160Y-94099580D01*
X136712969Y-90629819D02*
X136236779Y-90629819D01*
X136236779Y-90629819D02*
X136189160Y-91106009D01*
X136189160Y-91106009D02*
X136236779Y-91058390D01*
X136236779Y-91058390D02*
X136332017Y-91010771D01*
X136332017Y-91010771D02*
X136570112Y-91010771D01*
X136570112Y-91010771D02*
X136665350Y-91058390D01*
X136665350Y-91058390D02*
X136712969Y-91106009D01*
X136712969Y-91106009D02*
X136760588Y-91201247D01*
X136760588Y-91201247D02*
X136760588Y-91439342D01*
X136760588Y-91439342D02*
X136712969Y-91534580D01*
X136712969Y-91534580D02*
X136665350Y-91582200D01*
X136665350Y-91582200D02*
X136570112Y-91629819D01*
X136570112Y-91629819D02*
X136332017Y-91629819D01*
X136332017Y-91629819D02*
X136236779Y-91582200D01*
X136236779Y-91582200D02*
X136189160Y-91534580D01*
X137046303Y-90629819D02*
X137379636Y-91629819D01*
X137379636Y-91629819D02*
X137712969Y-90629819D01*
X149026064Y-81147200D02*
X148168922Y-82432914D01*
X149359398Y-82194819D02*
X149359398Y-81194819D01*
X149359398Y-81671009D02*
X149930826Y-81671009D01*
X149930826Y-82194819D02*
X149930826Y-81194819D01*
X150311779Y-81194819D02*
X150549874Y-82194819D01*
X150549874Y-82194819D02*
X150740350Y-81480533D01*
X150740350Y-81480533D02*
X150930826Y-82194819D01*
X150930826Y-82194819D02*
X151168922Y-81194819D01*
X151883207Y-81671009D02*
X152026064Y-81718628D01*
X152026064Y-81718628D02*
X152073683Y-81766247D01*
X152073683Y-81766247D02*
X152121302Y-81861485D01*
X152121302Y-81861485D02*
X152121302Y-82004342D01*
X152121302Y-82004342D02*
X152073683Y-82099580D01*
X152073683Y-82099580D02*
X152026064Y-82147200D01*
X152026064Y-82147200D02*
X151930826Y-82194819D01*
X151930826Y-82194819D02*
X151549874Y-82194819D01*
X151549874Y-82194819D02*
X151549874Y-81194819D01*
X151549874Y-81194819D02*
X151883207Y-81194819D01*
X151883207Y-81194819D02*
X151978445Y-81242438D01*
X151978445Y-81242438D02*
X152026064Y-81290057D01*
X152026064Y-81290057D02*
X152073683Y-81385295D01*
X152073683Y-81385295D02*
X152073683Y-81480533D01*
X152073683Y-81480533D02*
X152026064Y-81575771D01*
X152026064Y-81575771D02*
X151978445Y-81623390D01*
X151978445Y-81623390D02*
X151883207Y-81671009D01*
X151883207Y-81671009D02*
X151549874Y-81671009D01*
X153264159Y-81147200D02*
X152407017Y-82432914D01*
X153597493Y-82194819D02*
X153597493Y-81194819D01*
X153597493Y-81194819D02*
X153978445Y-81194819D01*
X153978445Y-81194819D02*
X154073683Y-81242438D01*
X154073683Y-81242438D02*
X154121302Y-81290057D01*
X154121302Y-81290057D02*
X154168921Y-81385295D01*
X154168921Y-81385295D02*
X154168921Y-81528152D01*
X154168921Y-81528152D02*
X154121302Y-81623390D01*
X154121302Y-81623390D02*
X154073683Y-81671009D01*
X154073683Y-81671009D02*
X153978445Y-81718628D01*
X153978445Y-81718628D02*
X153597493Y-81718628D01*
X154597493Y-81671009D02*
X154930826Y-81671009D01*
X155073683Y-82194819D02*
X154597493Y-82194819D01*
X154597493Y-82194819D02*
X154597493Y-81194819D01*
X154597493Y-81194819D02*
X155073683Y-81194819D01*
X155454636Y-81290057D02*
X155502255Y-81242438D01*
X155502255Y-81242438D02*
X155597493Y-81194819D01*
X155597493Y-81194819D02*
X155835588Y-81194819D01*
X155835588Y-81194819D02*
X155930826Y-81242438D01*
X155930826Y-81242438D02*
X155978445Y-81290057D01*
X155978445Y-81290057D02*
X156026064Y-81385295D01*
X156026064Y-81385295D02*
X156026064Y-81480533D01*
X156026064Y-81480533D02*
X155978445Y-81623390D01*
X155978445Y-81623390D02*
X155407017Y-82194819D01*
X155407017Y-82194819D02*
X156026064Y-82194819D01*
X153536779Y-72019819D02*
X153536779Y-71019819D01*
X153536779Y-71019819D02*
X153917731Y-71019819D01*
X153917731Y-71019819D02*
X154012969Y-71067438D01*
X154012969Y-71067438D02*
X154060588Y-71115057D01*
X154060588Y-71115057D02*
X154108207Y-71210295D01*
X154108207Y-71210295D02*
X154108207Y-71353152D01*
X154108207Y-71353152D02*
X154060588Y-71448390D01*
X154060588Y-71448390D02*
X154012969Y-71496009D01*
X154012969Y-71496009D02*
X153917731Y-71543628D01*
X153917731Y-71543628D02*
X153536779Y-71543628D01*
X154870112Y-71496009D02*
X154536779Y-71496009D01*
X154536779Y-72019819D02*
X154536779Y-71019819D01*
X154536779Y-71019819D02*
X155012969Y-71019819D01*
X155822493Y-71019819D02*
X155632017Y-71019819D01*
X155632017Y-71019819D02*
X155536779Y-71067438D01*
X155536779Y-71067438D02*
X155489160Y-71115057D01*
X155489160Y-71115057D02*
X155393922Y-71257914D01*
X155393922Y-71257914D02*
X155346303Y-71448390D01*
X155346303Y-71448390D02*
X155346303Y-71829342D01*
X155346303Y-71829342D02*
X155393922Y-71924580D01*
X155393922Y-71924580D02*
X155441541Y-71972200D01*
X155441541Y-71972200D02*
X155536779Y-72019819D01*
X155536779Y-72019819D02*
X155727255Y-72019819D01*
X155727255Y-72019819D02*
X155822493Y-71972200D01*
X155822493Y-71972200D02*
X155870112Y-71924580D01*
X155870112Y-71924580D02*
X155917731Y-71829342D01*
X155917731Y-71829342D02*
X155917731Y-71591247D01*
X155917731Y-71591247D02*
X155870112Y-71496009D01*
X155870112Y-71496009D02*
X155822493Y-71448390D01*
X155822493Y-71448390D02*
X155727255Y-71400771D01*
X155727255Y-71400771D02*
X155536779Y-71400771D01*
X155536779Y-71400771D02*
X155441541Y-71448390D01*
X155441541Y-71448390D02*
X155393922Y-71496009D01*
X155393922Y-71496009D02*
X155346303Y-71591247D01*
X153536779Y-69494819D02*
X153536779Y-68494819D01*
X153536779Y-68494819D02*
X153917731Y-68494819D01*
X153917731Y-68494819D02*
X154012969Y-68542438D01*
X154012969Y-68542438D02*
X154060588Y-68590057D01*
X154060588Y-68590057D02*
X154108207Y-68685295D01*
X154108207Y-68685295D02*
X154108207Y-68828152D01*
X154108207Y-68828152D02*
X154060588Y-68923390D01*
X154060588Y-68923390D02*
X154012969Y-68971009D01*
X154012969Y-68971009D02*
X153917731Y-69018628D01*
X153917731Y-69018628D02*
X153536779Y-69018628D01*
X154870112Y-68971009D02*
X154536779Y-68971009D01*
X154536779Y-69494819D02*
X154536779Y-68494819D01*
X154536779Y-68494819D02*
X155012969Y-68494819D01*
X155870112Y-68494819D02*
X155393922Y-68494819D01*
X155393922Y-68494819D02*
X155346303Y-68971009D01*
X155346303Y-68971009D02*
X155393922Y-68923390D01*
X155393922Y-68923390D02*
X155489160Y-68875771D01*
X155489160Y-68875771D02*
X155727255Y-68875771D01*
X155727255Y-68875771D02*
X155822493Y-68923390D01*
X155822493Y-68923390D02*
X155870112Y-68971009D01*
X155870112Y-68971009D02*
X155917731Y-69066247D01*
X155917731Y-69066247D02*
X155917731Y-69304342D01*
X155917731Y-69304342D02*
X155870112Y-69399580D01*
X155870112Y-69399580D02*
X155822493Y-69447200D01*
X155822493Y-69447200D02*
X155727255Y-69494819D01*
X155727255Y-69494819D02*
X155489160Y-69494819D01*
X155489160Y-69494819D02*
X155393922Y-69447200D01*
X155393922Y-69447200D02*
X155346303Y-69399580D01*
X151418922Y-78644819D02*
X151752255Y-79644819D01*
X151752255Y-79644819D02*
X152085588Y-78644819D01*
X152990350Y-79549580D02*
X152942731Y-79597200D01*
X152942731Y-79597200D02*
X152799874Y-79644819D01*
X152799874Y-79644819D02*
X152704636Y-79644819D01*
X152704636Y-79644819D02*
X152561779Y-79597200D01*
X152561779Y-79597200D02*
X152466541Y-79501961D01*
X152466541Y-79501961D02*
X152418922Y-79406723D01*
X152418922Y-79406723D02*
X152371303Y-79216247D01*
X152371303Y-79216247D02*
X152371303Y-79073390D01*
X152371303Y-79073390D02*
X152418922Y-78882914D01*
X152418922Y-78882914D02*
X152466541Y-78787676D01*
X152466541Y-78787676D02*
X152561779Y-78692438D01*
X152561779Y-78692438D02*
X152704636Y-78644819D01*
X152704636Y-78644819D02*
X152799874Y-78644819D01*
X152799874Y-78644819D02*
X152942731Y-78692438D01*
X152942731Y-78692438D02*
X152990350Y-78740057D01*
X153990350Y-79549580D02*
X153942731Y-79597200D01*
X153942731Y-79597200D02*
X153799874Y-79644819D01*
X153799874Y-79644819D02*
X153704636Y-79644819D01*
X153704636Y-79644819D02*
X153561779Y-79597200D01*
X153561779Y-79597200D02*
X153466541Y-79501961D01*
X153466541Y-79501961D02*
X153418922Y-79406723D01*
X153418922Y-79406723D02*
X153371303Y-79216247D01*
X153371303Y-79216247D02*
X153371303Y-79073390D01*
X153371303Y-79073390D02*
X153418922Y-78882914D01*
X153418922Y-78882914D02*
X153466541Y-78787676D01*
X153466541Y-78787676D02*
X153561779Y-78692438D01*
X153561779Y-78692438D02*
X153704636Y-78644819D01*
X153704636Y-78644819D02*
X153799874Y-78644819D01*
X153799874Y-78644819D02*
X153942731Y-78692438D01*
X153942731Y-78692438D02*
X153990350Y-78740057D01*
X154323684Y-78644819D02*
X154942731Y-78644819D01*
X154942731Y-78644819D02*
X154609398Y-79025771D01*
X154609398Y-79025771D02*
X154752255Y-79025771D01*
X154752255Y-79025771D02*
X154847493Y-79073390D01*
X154847493Y-79073390D02*
X154895112Y-79121009D01*
X154895112Y-79121009D02*
X154942731Y-79216247D01*
X154942731Y-79216247D02*
X154942731Y-79454342D01*
X154942731Y-79454342D02*
X154895112Y-79549580D01*
X154895112Y-79549580D02*
X154847493Y-79597200D01*
X154847493Y-79597200D02*
X154752255Y-79644819D01*
X154752255Y-79644819D02*
X154466541Y-79644819D01*
X154466541Y-79644819D02*
X154371303Y-79597200D01*
X154371303Y-79597200D02*
X154323684Y-79549580D01*
X155799874Y-78978152D02*
X155799874Y-79644819D01*
X155561779Y-78597200D02*
X155323684Y-79311485D01*
X155323684Y-79311485D02*
X155942731Y-79311485D01*
X139089160Y-99107200D02*
X139232017Y-99154819D01*
X139232017Y-99154819D02*
X139470112Y-99154819D01*
X139470112Y-99154819D02*
X139565350Y-99107200D01*
X139565350Y-99107200D02*
X139612969Y-99059580D01*
X139612969Y-99059580D02*
X139660588Y-98964342D01*
X139660588Y-98964342D02*
X139660588Y-98869104D01*
X139660588Y-98869104D02*
X139612969Y-98773866D01*
X139612969Y-98773866D02*
X139565350Y-98726247D01*
X139565350Y-98726247D02*
X139470112Y-98678628D01*
X139470112Y-98678628D02*
X139279636Y-98631009D01*
X139279636Y-98631009D02*
X139184398Y-98583390D01*
X139184398Y-98583390D02*
X139136779Y-98535771D01*
X139136779Y-98535771D02*
X139089160Y-98440533D01*
X139089160Y-98440533D02*
X139089160Y-98345295D01*
X139089160Y-98345295D02*
X139136779Y-98250057D01*
X139136779Y-98250057D02*
X139184398Y-98202438D01*
X139184398Y-98202438D02*
X139279636Y-98154819D01*
X139279636Y-98154819D02*
X139517731Y-98154819D01*
X139517731Y-98154819D02*
X139660588Y-98202438D01*
X140660588Y-99059580D02*
X140612969Y-99107200D01*
X140612969Y-99107200D02*
X140470112Y-99154819D01*
X140470112Y-99154819D02*
X140374874Y-99154819D01*
X140374874Y-99154819D02*
X140232017Y-99107200D01*
X140232017Y-99107200D02*
X140136779Y-99011961D01*
X140136779Y-99011961D02*
X140089160Y-98916723D01*
X140089160Y-98916723D02*
X140041541Y-98726247D01*
X140041541Y-98726247D02*
X140041541Y-98583390D01*
X140041541Y-98583390D02*
X140089160Y-98392914D01*
X140089160Y-98392914D02*
X140136779Y-98297676D01*
X140136779Y-98297676D02*
X140232017Y-98202438D01*
X140232017Y-98202438D02*
X140374874Y-98154819D01*
X140374874Y-98154819D02*
X140470112Y-98154819D01*
X140470112Y-98154819D02*
X140612969Y-98202438D01*
X140612969Y-98202438D02*
X140660588Y-98250057D01*
X141089160Y-99154819D02*
X141089160Y-98154819D01*
X141660588Y-99154819D02*
X141232017Y-98583390D01*
X141660588Y-98154819D02*
X141089160Y-98726247D01*
D12*
X124120331Y-82151119D02*
X124120331Y-81151119D01*
X124120331Y-81151119D02*
X124501283Y-81151119D01*
X124501283Y-81151119D02*
X124596521Y-81198738D01*
X124596521Y-81198738D02*
X124644140Y-81246357D01*
X124644140Y-81246357D02*
X124691759Y-81341595D01*
X124691759Y-81341595D02*
X124691759Y-81484452D01*
X124691759Y-81484452D02*
X124644140Y-81579690D01*
X124644140Y-81579690D02*
X124596521Y-81627309D01*
X124596521Y-81627309D02*
X124501283Y-81674928D01*
X124501283Y-81674928D02*
X124120331Y-81674928D01*
X125453664Y-81627309D02*
X125596521Y-81674928D01*
X125596521Y-81674928D02*
X125644140Y-81722547D01*
X125644140Y-81722547D02*
X125691759Y-81817785D01*
X125691759Y-81817785D02*
X125691759Y-81960642D01*
X125691759Y-81960642D02*
X125644140Y-82055880D01*
X125644140Y-82055880D02*
X125596521Y-82103500D01*
X125596521Y-82103500D02*
X125501283Y-82151119D01*
X125501283Y-82151119D02*
X125120331Y-82151119D01*
X125120331Y-82151119D02*
X125120331Y-81151119D01*
X125120331Y-81151119D02*
X125453664Y-81151119D01*
X125453664Y-81151119D02*
X125548902Y-81198738D01*
X125548902Y-81198738D02*
X125596521Y-81246357D01*
X125596521Y-81246357D02*
X125644140Y-81341595D01*
X125644140Y-81341595D02*
X125644140Y-81436833D01*
X125644140Y-81436833D02*
X125596521Y-81532071D01*
X125596521Y-81532071D02*
X125548902Y-81579690D01*
X125548902Y-81579690D02*
X125453664Y-81627309D01*
X125453664Y-81627309D02*
X125120331Y-81627309D01*
X126025093Y-81151119D02*
X126691759Y-81151119D01*
X126691759Y-81151119D02*
X126263188Y-82151119D01*
D10*
X124136779Y-79599819D02*
X124136779Y-78599819D01*
X124136779Y-78599819D02*
X124517731Y-78599819D01*
X124517731Y-78599819D02*
X124612969Y-78647438D01*
X124612969Y-78647438D02*
X124660588Y-78695057D01*
X124660588Y-78695057D02*
X124708207Y-78790295D01*
X124708207Y-78790295D02*
X124708207Y-78933152D01*
X124708207Y-78933152D02*
X124660588Y-79028390D01*
X124660588Y-79028390D02*
X124612969Y-79076009D01*
X124612969Y-79076009D02*
X124517731Y-79123628D01*
X124517731Y-79123628D02*
X124136779Y-79123628D01*
X125470112Y-79076009D02*
X125612969Y-79123628D01*
X125612969Y-79123628D02*
X125660588Y-79171247D01*
X125660588Y-79171247D02*
X125708207Y-79266485D01*
X125708207Y-79266485D02*
X125708207Y-79409342D01*
X125708207Y-79409342D02*
X125660588Y-79504580D01*
X125660588Y-79504580D02*
X125612969Y-79552200D01*
X125612969Y-79552200D02*
X125517731Y-79599819D01*
X125517731Y-79599819D02*
X125136779Y-79599819D01*
X125136779Y-79599819D02*
X125136779Y-78599819D01*
X125136779Y-78599819D02*
X125470112Y-78599819D01*
X125470112Y-78599819D02*
X125565350Y-78647438D01*
X125565350Y-78647438D02*
X125612969Y-78695057D01*
X125612969Y-78695057D02*
X125660588Y-78790295D01*
X125660588Y-78790295D02*
X125660588Y-78885533D01*
X125660588Y-78885533D02*
X125612969Y-78980771D01*
X125612969Y-78980771D02*
X125565350Y-79028390D01*
X125565350Y-79028390D02*
X125470112Y-79076009D01*
X125470112Y-79076009D02*
X125136779Y-79076009D01*
X126041541Y-78599819D02*
X126660588Y-78599819D01*
X126660588Y-78599819D02*
X126327255Y-78980771D01*
X126327255Y-78980771D02*
X126470112Y-78980771D01*
X126470112Y-78980771D02*
X126565350Y-79028390D01*
X126565350Y-79028390D02*
X126612969Y-79076009D01*
X126612969Y-79076009D02*
X126660588Y-79171247D01*
X126660588Y-79171247D02*
X126660588Y-79409342D01*
X126660588Y-79409342D02*
X126612969Y-79504580D01*
X126612969Y-79504580D02*
X126565350Y-79552200D01*
X126565350Y-79552200D02*
X126470112Y-79599819D01*
X126470112Y-79599819D02*
X126184398Y-79599819D01*
X126184398Y-79599819D02*
X126089160Y-79552200D01*
X126089160Y-79552200D02*
X126041541Y-79504580D01*
X127803445Y-78552200D02*
X126946303Y-79837914D01*
X128136779Y-79599819D02*
X128136779Y-78599819D01*
X128136779Y-78599819D02*
X128470112Y-79314104D01*
X128470112Y-79314104D02*
X128803445Y-78599819D01*
X128803445Y-78599819D02*
X128803445Y-79599819D01*
X129279636Y-79599819D02*
X129279636Y-78599819D01*
X129708207Y-79552200D02*
X129851064Y-79599819D01*
X129851064Y-79599819D02*
X130089159Y-79599819D01*
X130089159Y-79599819D02*
X130184397Y-79552200D01*
X130184397Y-79552200D02*
X130232016Y-79504580D01*
X130232016Y-79504580D02*
X130279635Y-79409342D01*
X130279635Y-79409342D02*
X130279635Y-79314104D01*
X130279635Y-79314104D02*
X130232016Y-79218866D01*
X130232016Y-79218866D02*
X130184397Y-79171247D01*
X130184397Y-79171247D02*
X130089159Y-79123628D01*
X130089159Y-79123628D02*
X129898683Y-79076009D01*
X129898683Y-79076009D02*
X129803445Y-79028390D01*
X129803445Y-79028390D02*
X129755826Y-78980771D01*
X129755826Y-78980771D02*
X129708207Y-78885533D01*
X129708207Y-78885533D02*
X129708207Y-78790295D01*
X129708207Y-78790295D02*
X129755826Y-78695057D01*
X129755826Y-78695057D02*
X129803445Y-78647438D01*
X129803445Y-78647438D02*
X129898683Y-78599819D01*
X129898683Y-78599819D02*
X130136778Y-78599819D01*
X130136778Y-78599819D02*
X130279635Y-78647438D01*
X130898683Y-78599819D02*
X131089159Y-78599819D01*
X131089159Y-78599819D02*
X131184397Y-78647438D01*
X131184397Y-78647438D02*
X131279635Y-78742676D01*
X131279635Y-78742676D02*
X131327254Y-78933152D01*
X131327254Y-78933152D02*
X131327254Y-79266485D01*
X131327254Y-79266485D02*
X131279635Y-79456961D01*
X131279635Y-79456961D02*
X131184397Y-79552200D01*
X131184397Y-79552200D02*
X131089159Y-79599819D01*
X131089159Y-79599819D02*
X130898683Y-79599819D01*
X130898683Y-79599819D02*
X130803445Y-79552200D01*
X130803445Y-79552200D02*
X130708207Y-79456961D01*
X130708207Y-79456961D02*
X130660588Y-79266485D01*
X130660588Y-79266485D02*
X130660588Y-78933152D01*
X130660588Y-78933152D02*
X130708207Y-78742676D01*
X130708207Y-78742676D02*
X130803445Y-78647438D01*
X130803445Y-78647438D02*
X130898683Y-78599819D01*
X124136779Y-61399819D02*
X124136779Y-62209342D01*
X124136779Y-62209342D02*
X124184398Y-62304580D01*
X124184398Y-62304580D02*
X124232017Y-62352200D01*
X124232017Y-62352200D02*
X124327255Y-62399819D01*
X124327255Y-62399819D02*
X124517731Y-62399819D01*
X124517731Y-62399819D02*
X124612969Y-62352200D01*
X124612969Y-62352200D02*
X124660588Y-62304580D01*
X124660588Y-62304580D02*
X124708207Y-62209342D01*
X124708207Y-62209342D02*
X124708207Y-61399819D01*
X125708207Y-61447438D02*
X125612969Y-61399819D01*
X125612969Y-61399819D02*
X125470112Y-61399819D01*
X125470112Y-61399819D02*
X125327255Y-61447438D01*
X125327255Y-61447438D02*
X125232017Y-61542676D01*
X125232017Y-61542676D02*
X125184398Y-61637914D01*
X125184398Y-61637914D02*
X125136779Y-61828390D01*
X125136779Y-61828390D02*
X125136779Y-61971247D01*
X125136779Y-61971247D02*
X125184398Y-62161723D01*
X125184398Y-62161723D02*
X125232017Y-62256961D01*
X125232017Y-62256961D02*
X125327255Y-62352200D01*
X125327255Y-62352200D02*
X125470112Y-62399819D01*
X125470112Y-62399819D02*
X125565350Y-62399819D01*
X125565350Y-62399819D02*
X125708207Y-62352200D01*
X125708207Y-62352200D02*
X125755826Y-62304580D01*
X125755826Y-62304580D02*
X125755826Y-61971247D01*
X125755826Y-61971247D02*
X125565350Y-61971247D01*
X126184398Y-62399819D02*
X126184398Y-61399819D01*
X126184398Y-61399819D02*
X126755826Y-62399819D01*
X126755826Y-62399819D02*
X126755826Y-61399819D01*
X127232017Y-62399819D02*
X127232017Y-61399819D01*
X127232017Y-61399819D02*
X127470112Y-61399819D01*
X127470112Y-61399819D02*
X127612969Y-61447438D01*
X127612969Y-61447438D02*
X127708207Y-61542676D01*
X127708207Y-61542676D02*
X127755826Y-61637914D01*
X127755826Y-61637914D02*
X127803445Y-61828390D01*
X127803445Y-61828390D02*
X127803445Y-61971247D01*
X127803445Y-61971247D02*
X127755826Y-62161723D01*
X127755826Y-62161723D02*
X127708207Y-62256961D01*
X127708207Y-62256961D02*
X127612969Y-62352200D01*
X127612969Y-62352200D02*
X127470112Y-62399819D01*
X127470112Y-62399819D02*
X127232017Y-62399819D01*
X135036779Y-99179819D02*
X135036779Y-98179819D01*
X135036779Y-98179819D02*
X135370112Y-98894104D01*
X135370112Y-98894104D02*
X135703445Y-98179819D01*
X135703445Y-98179819D02*
X135703445Y-99179819D01*
X136179636Y-99179819D02*
X136179636Y-98179819D01*
X136608207Y-99132200D02*
X136751064Y-99179819D01*
X136751064Y-99179819D02*
X136989159Y-99179819D01*
X136989159Y-99179819D02*
X137084397Y-99132200D01*
X137084397Y-99132200D02*
X137132016Y-99084580D01*
X137132016Y-99084580D02*
X137179635Y-98989342D01*
X137179635Y-98989342D02*
X137179635Y-98894104D01*
X137179635Y-98894104D02*
X137132016Y-98798866D01*
X137132016Y-98798866D02*
X137084397Y-98751247D01*
X137084397Y-98751247D02*
X136989159Y-98703628D01*
X136989159Y-98703628D02*
X136798683Y-98656009D01*
X136798683Y-98656009D02*
X136703445Y-98608390D01*
X136703445Y-98608390D02*
X136655826Y-98560771D01*
X136655826Y-98560771D02*
X136608207Y-98465533D01*
X136608207Y-98465533D02*
X136608207Y-98370295D01*
X136608207Y-98370295D02*
X136655826Y-98275057D01*
X136655826Y-98275057D02*
X136703445Y-98227438D01*
X136703445Y-98227438D02*
X136798683Y-98179819D01*
X136798683Y-98179819D02*
X137036778Y-98179819D01*
X137036778Y-98179819D02*
X137179635Y-98227438D01*
X137798683Y-98179819D02*
X137989159Y-98179819D01*
X137989159Y-98179819D02*
X138084397Y-98227438D01*
X138084397Y-98227438D02*
X138179635Y-98322676D01*
X138179635Y-98322676D02*
X138227254Y-98513152D01*
X138227254Y-98513152D02*
X138227254Y-98846485D01*
X138227254Y-98846485D02*
X138179635Y-99036961D01*
X138179635Y-99036961D02*
X138084397Y-99132200D01*
X138084397Y-99132200D02*
X137989159Y-99179819D01*
X137989159Y-99179819D02*
X137798683Y-99179819D01*
X137798683Y-99179819D02*
X137703445Y-99132200D01*
X137703445Y-99132200D02*
X137608207Y-99036961D01*
X137608207Y-99036961D02*
X137560588Y-98846485D01*
X137560588Y-98846485D02*
X137560588Y-98513152D01*
X137560588Y-98513152D02*
X137608207Y-98322676D01*
X137608207Y-98322676D02*
X137703445Y-98227438D01*
X137703445Y-98227438D02*
X137798683Y-98179819D01*
X153336779Y-91644819D02*
X153336779Y-90644819D01*
X153336779Y-90644819D02*
X153717731Y-90644819D01*
X153717731Y-90644819D02*
X153812969Y-90692438D01*
X153812969Y-90692438D02*
X153860588Y-90740057D01*
X153860588Y-90740057D02*
X153908207Y-90835295D01*
X153908207Y-90835295D02*
X153908207Y-90978152D01*
X153908207Y-90978152D02*
X153860588Y-91073390D01*
X153860588Y-91073390D02*
X153812969Y-91121009D01*
X153812969Y-91121009D02*
X153717731Y-91168628D01*
X153717731Y-91168628D02*
X153336779Y-91168628D01*
X154670112Y-91121009D02*
X154812969Y-91168628D01*
X154812969Y-91168628D02*
X154860588Y-91216247D01*
X154860588Y-91216247D02*
X154908207Y-91311485D01*
X154908207Y-91311485D02*
X154908207Y-91454342D01*
X154908207Y-91454342D02*
X154860588Y-91549580D01*
X154860588Y-91549580D02*
X154812969Y-91597200D01*
X154812969Y-91597200D02*
X154717731Y-91644819D01*
X154717731Y-91644819D02*
X154336779Y-91644819D01*
X154336779Y-91644819D02*
X154336779Y-90644819D01*
X154336779Y-90644819D02*
X154670112Y-90644819D01*
X154670112Y-90644819D02*
X154765350Y-90692438D01*
X154765350Y-90692438D02*
X154812969Y-90740057D01*
X154812969Y-90740057D02*
X154860588Y-90835295D01*
X154860588Y-90835295D02*
X154860588Y-90930533D01*
X154860588Y-90930533D02*
X154812969Y-91025771D01*
X154812969Y-91025771D02*
X154765350Y-91073390D01*
X154765350Y-91073390D02*
X154670112Y-91121009D01*
X154670112Y-91121009D02*
X154336779Y-91121009D01*
X155765350Y-90644819D02*
X155574874Y-90644819D01*
X155574874Y-90644819D02*
X155479636Y-90692438D01*
X155479636Y-90692438D02*
X155432017Y-90740057D01*
X155432017Y-90740057D02*
X155336779Y-90882914D01*
X155336779Y-90882914D02*
X155289160Y-91073390D01*
X155289160Y-91073390D02*
X155289160Y-91454342D01*
X155289160Y-91454342D02*
X155336779Y-91549580D01*
X155336779Y-91549580D02*
X155384398Y-91597200D01*
X155384398Y-91597200D02*
X155479636Y-91644819D01*
X155479636Y-91644819D02*
X155670112Y-91644819D01*
X155670112Y-91644819D02*
X155765350Y-91597200D01*
X155765350Y-91597200D02*
X155812969Y-91549580D01*
X155812969Y-91549580D02*
X155860588Y-91454342D01*
X155860588Y-91454342D02*
X155860588Y-91216247D01*
X155860588Y-91216247D02*
X155812969Y-91121009D01*
X155812969Y-91121009D02*
X155765350Y-91073390D01*
X155765350Y-91073390D02*
X155670112Y-91025771D01*
X155670112Y-91025771D02*
X155479636Y-91025771D01*
X155479636Y-91025771D02*
X155384398Y-91073390D01*
X155384398Y-91073390D02*
X155336779Y-91121009D01*
X155336779Y-91121009D02*
X155289160Y-91216247D01*
X124851064Y-83627200D02*
X123993922Y-84912914D01*
X125755826Y-84674819D02*
X125422493Y-84198628D01*
X125184398Y-84674819D02*
X125184398Y-83674819D01*
X125184398Y-83674819D02*
X125565350Y-83674819D01*
X125565350Y-83674819D02*
X125660588Y-83722438D01*
X125660588Y-83722438D02*
X125708207Y-83770057D01*
X125708207Y-83770057D02*
X125755826Y-83865295D01*
X125755826Y-83865295D02*
X125755826Y-84008152D01*
X125755826Y-84008152D02*
X125708207Y-84103390D01*
X125708207Y-84103390D02*
X125660588Y-84151009D01*
X125660588Y-84151009D02*
X125565350Y-84198628D01*
X125565350Y-84198628D02*
X125184398Y-84198628D01*
X126184398Y-84151009D02*
X126517731Y-84151009D01*
X126660588Y-84674819D02*
X126184398Y-84674819D01*
X126184398Y-84674819D02*
X126184398Y-83674819D01*
X126184398Y-83674819D02*
X126660588Y-83674819D01*
X127041541Y-84627200D02*
X127184398Y-84674819D01*
X127184398Y-84674819D02*
X127422493Y-84674819D01*
X127422493Y-84674819D02*
X127517731Y-84627200D01*
X127517731Y-84627200D02*
X127565350Y-84579580D01*
X127565350Y-84579580D02*
X127612969Y-84484342D01*
X127612969Y-84484342D02*
X127612969Y-84389104D01*
X127612969Y-84389104D02*
X127565350Y-84293866D01*
X127565350Y-84293866D02*
X127517731Y-84246247D01*
X127517731Y-84246247D02*
X127422493Y-84198628D01*
X127422493Y-84198628D02*
X127232017Y-84151009D01*
X127232017Y-84151009D02*
X127136779Y-84103390D01*
X127136779Y-84103390D02*
X127089160Y-84055771D01*
X127089160Y-84055771D02*
X127041541Y-83960533D01*
X127041541Y-83960533D02*
X127041541Y-83865295D01*
X127041541Y-83865295D02*
X127089160Y-83770057D01*
X127089160Y-83770057D02*
X127136779Y-83722438D01*
X127136779Y-83722438D02*
X127232017Y-83674819D01*
X127232017Y-83674819D02*
X127470112Y-83674819D01*
X127470112Y-83674819D02*
X127612969Y-83722438D01*
X128041541Y-84151009D02*
X128374874Y-84151009D01*
X128517731Y-84674819D02*
X128041541Y-84674819D01*
X128041541Y-84674819D02*
X128041541Y-83674819D01*
X128041541Y-83674819D02*
X128517731Y-83674819D01*
X128803446Y-83674819D02*
X129374874Y-83674819D01*
X129089160Y-84674819D02*
X129089160Y-83674819D01*
X148642438Y-112839411D02*
X148594819Y-112934649D01*
X148594819Y-112934649D02*
X148594819Y-113077506D01*
X148594819Y-113077506D02*
X148642438Y-113220363D01*
X148642438Y-113220363D02*
X148737676Y-113315601D01*
X148737676Y-113315601D02*
X148832914Y-113363220D01*
X148832914Y-113363220D02*
X149023390Y-113410839D01*
X149023390Y-113410839D02*
X149166247Y-113410839D01*
X149166247Y-113410839D02*
X149356723Y-113363220D01*
X149356723Y-113363220D02*
X149451961Y-113315601D01*
X149451961Y-113315601D02*
X149547200Y-113220363D01*
X149547200Y-113220363D02*
X149594819Y-113077506D01*
X149594819Y-113077506D02*
X149594819Y-112982268D01*
X149594819Y-112982268D02*
X149547200Y-112839411D01*
X149547200Y-112839411D02*
X149499580Y-112791792D01*
X149499580Y-112791792D02*
X149166247Y-112791792D01*
X149166247Y-112791792D02*
X149166247Y-112982268D01*
X149594819Y-112363220D02*
X148594819Y-112363220D01*
X148594819Y-112363220D02*
X149594819Y-111791792D01*
X149594819Y-111791792D02*
X148594819Y-111791792D01*
X149594819Y-111315601D02*
X148594819Y-111315601D01*
X148594819Y-111315601D02*
X148594819Y-111077506D01*
X148594819Y-111077506D02*
X148642438Y-110934649D01*
X148642438Y-110934649D02*
X148737676Y-110839411D01*
X148737676Y-110839411D02*
X148832914Y-110791792D01*
X148832914Y-110791792D02*
X149023390Y-110744173D01*
X149023390Y-110744173D02*
X149166247Y-110744173D01*
X149166247Y-110744173D02*
X149356723Y-110791792D01*
X149356723Y-110791792D02*
X149451961Y-110839411D01*
X149451961Y-110839411D02*
X149547200Y-110934649D01*
X149547200Y-110934649D02*
X149594819Y-111077506D01*
X149594819Y-111077506D02*
X149594819Y-111315601D01*
X148594819Y-109839411D02*
X148594819Y-110315601D01*
X148594819Y-110315601D02*
X149071009Y-110363220D01*
X149071009Y-110363220D02*
X149023390Y-110315601D01*
X149023390Y-110315601D02*
X148975771Y-110220363D01*
X148975771Y-110220363D02*
X148975771Y-109982268D01*
X148975771Y-109982268D02*
X149023390Y-109887030D01*
X149023390Y-109887030D02*
X149071009Y-109839411D01*
X149071009Y-109839411D02*
X149166247Y-109791792D01*
X149166247Y-109791792D02*
X149404342Y-109791792D01*
X149404342Y-109791792D02*
X149499580Y-109839411D01*
X149499580Y-109839411D02*
X149547200Y-109887030D01*
X149547200Y-109887030D02*
X149594819Y-109982268D01*
X149594819Y-109982268D02*
X149594819Y-110220363D01*
X149594819Y-110220363D02*
X149547200Y-110315601D01*
X149547200Y-110315601D02*
X149499580Y-110363220D01*
X124041541Y-91299819D02*
X124708207Y-92299819D01*
X124708207Y-91299819D02*
X124041541Y-92299819D01*
X124946303Y-91299819D02*
X125517731Y-91299819D01*
X125232017Y-92299819D02*
X125232017Y-91299819D01*
X125803446Y-92014104D02*
X126279636Y-92014104D01*
X125708208Y-92299819D02*
X126041541Y-91299819D01*
X126041541Y-91299819D02*
X126374874Y-92299819D01*
X127184398Y-92299819D02*
X126708208Y-92299819D01*
X126708208Y-92299819D02*
X126708208Y-91299819D01*
X127470113Y-91395057D02*
X127517732Y-91347438D01*
X127517732Y-91347438D02*
X127612970Y-91299819D01*
X127612970Y-91299819D02*
X127851065Y-91299819D01*
X127851065Y-91299819D02*
X127946303Y-91347438D01*
X127946303Y-91347438D02*
X127993922Y-91395057D01*
X127993922Y-91395057D02*
X128041541Y-91490295D01*
X128041541Y-91490295D02*
X128041541Y-91585533D01*
X128041541Y-91585533D02*
X127993922Y-91728390D01*
X127993922Y-91728390D02*
X127422494Y-92299819D01*
X127422494Y-92299819D02*
X128041541Y-92299819D01*
X124136779Y-106924819D02*
X124136779Y-105924819D01*
X124136779Y-105924819D02*
X124517731Y-105924819D01*
X124517731Y-105924819D02*
X124612969Y-105972438D01*
X124612969Y-105972438D02*
X124660588Y-106020057D01*
X124660588Y-106020057D02*
X124708207Y-106115295D01*
X124708207Y-106115295D02*
X124708207Y-106258152D01*
X124708207Y-106258152D02*
X124660588Y-106353390D01*
X124660588Y-106353390D02*
X124612969Y-106401009D01*
X124612969Y-106401009D02*
X124517731Y-106448628D01*
X124517731Y-106448628D02*
X124136779Y-106448628D01*
X125136779Y-106924819D02*
X125136779Y-105924819D01*
X125136779Y-105924819D02*
X125374874Y-105924819D01*
X125374874Y-105924819D02*
X125517731Y-105972438D01*
X125517731Y-105972438D02*
X125612969Y-106067676D01*
X125612969Y-106067676D02*
X125660588Y-106162914D01*
X125660588Y-106162914D02*
X125708207Y-106353390D01*
X125708207Y-106353390D02*
X125708207Y-106496247D01*
X125708207Y-106496247D02*
X125660588Y-106686723D01*
X125660588Y-106686723D02*
X125612969Y-106781961D01*
X125612969Y-106781961D02*
X125517731Y-106877200D01*
X125517731Y-106877200D02*
X125374874Y-106924819D01*
X125374874Y-106924819D02*
X125136779Y-106924819D01*
X126041541Y-105924819D02*
X126660588Y-105924819D01*
X126660588Y-105924819D02*
X126327255Y-106305771D01*
X126327255Y-106305771D02*
X126470112Y-106305771D01*
X126470112Y-106305771D02*
X126565350Y-106353390D01*
X126565350Y-106353390D02*
X126612969Y-106401009D01*
X126612969Y-106401009D02*
X126660588Y-106496247D01*
X126660588Y-106496247D02*
X126660588Y-106734342D01*
X126660588Y-106734342D02*
X126612969Y-106829580D01*
X126612969Y-106829580D02*
X126565350Y-106877200D01*
X126565350Y-106877200D02*
X126470112Y-106924819D01*
X126470112Y-106924819D02*
X126184398Y-106924819D01*
X126184398Y-106924819D02*
X126089160Y-106877200D01*
X126089160Y-106877200D02*
X126041541Y-106829580D01*
D12*
X151969140Y-76168738D02*
X151873902Y-76121119D01*
X151873902Y-76121119D02*
X151731045Y-76121119D01*
X151731045Y-76121119D02*
X151588188Y-76168738D01*
X151588188Y-76168738D02*
X151492950Y-76263976D01*
X151492950Y-76263976D02*
X151445331Y-76359214D01*
X151445331Y-76359214D02*
X151397712Y-76549690D01*
X151397712Y-76549690D02*
X151397712Y-76692547D01*
X151397712Y-76692547D02*
X151445331Y-76883023D01*
X151445331Y-76883023D02*
X151492950Y-76978261D01*
X151492950Y-76978261D02*
X151588188Y-77073500D01*
X151588188Y-77073500D02*
X151731045Y-77121119D01*
X151731045Y-77121119D02*
X151826283Y-77121119D01*
X151826283Y-77121119D02*
X151969140Y-77073500D01*
X151969140Y-77073500D02*
X152016759Y-77025880D01*
X152016759Y-77025880D02*
X152016759Y-76692547D01*
X152016759Y-76692547D02*
X151826283Y-76692547D01*
X152445331Y-77121119D02*
X152445331Y-76121119D01*
X152445331Y-76121119D02*
X153016759Y-77121119D01*
X153016759Y-77121119D02*
X153016759Y-76121119D01*
X153492950Y-77121119D02*
X153492950Y-76121119D01*
X153492950Y-76121119D02*
X153731045Y-76121119D01*
X153731045Y-76121119D02*
X153873902Y-76168738D01*
X153873902Y-76168738D02*
X153969140Y-76263976D01*
X153969140Y-76263976D02*
X154016759Y-76359214D01*
X154016759Y-76359214D02*
X154064378Y-76549690D01*
X154064378Y-76549690D02*
X154064378Y-76692547D01*
X154064378Y-76692547D02*
X154016759Y-76883023D01*
X154016759Y-76883023D02*
X153969140Y-76978261D01*
X153969140Y-76978261D02*
X153873902Y-77073500D01*
X153873902Y-77073500D02*
X153731045Y-77121119D01*
X153731045Y-77121119D02*
X153492950Y-77121119D01*
X154397712Y-76121119D02*
X155016759Y-76121119D01*
X155016759Y-76121119D02*
X154683426Y-76502071D01*
X154683426Y-76502071D02*
X154826283Y-76502071D01*
X154826283Y-76502071D02*
X154921521Y-76549690D01*
X154921521Y-76549690D02*
X154969140Y-76597309D01*
X154969140Y-76597309D02*
X155016759Y-76692547D01*
X155016759Y-76692547D02*
X155016759Y-76930642D01*
X155016759Y-76930642D02*
X154969140Y-77025880D01*
X154969140Y-77025880D02*
X154921521Y-77073500D01*
X154921521Y-77073500D02*
X154826283Y-77121119D01*
X154826283Y-77121119D02*
X154540569Y-77121119D01*
X154540569Y-77121119D02*
X154445331Y-77073500D01*
X154445331Y-77073500D02*
X154397712Y-77025880D01*
X155921521Y-76121119D02*
X155445331Y-76121119D01*
X155445331Y-76121119D02*
X155397712Y-76597309D01*
X155397712Y-76597309D02*
X155445331Y-76549690D01*
X155445331Y-76549690D02*
X155540569Y-76502071D01*
X155540569Y-76502071D02*
X155778664Y-76502071D01*
X155778664Y-76502071D02*
X155873902Y-76549690D01*
X155873902Y-76549690D02*
X155921521Y-76597309D01*
X155921521Y-76597309D02*
X155969140Y-76692547D01*
X155969140Y-76692547D02*
X155969140Y-76930642D01*
X155969140Y-76930642D02*
X155921521Y-77025880D01*
X155921521Y-77025880D02*
X155873902Y-77073500D01*
X155873902Y-77073500D02*
X155778664Y-77121119D01*
X155778664Y-77121119D02*
X155540569Y-77121119D01*
X155540569Y-77121119D02*
X155445331Y-77073500D01*
X155445331Y-77073500D02*
X155397712Y-77025880D01*
D10*
X152839160Y-57059104D02*
X153315350Y-57059104D01*
X152743922Y-57344819D02*
X153077255Y-56344819D01*
X153077255Y-56344819D02*
X153410588Y-57344819D01*
X154315350Y-57344819D02*
X153982017Y-56868628D01*
X153743922Y-57344819D02*
X153743922Y-56344819D01*
X153743922Y-56344819D02*
X154124874Y-56344819D01*
X154124874Y-56344819D02*
X154220112Y-56392438D01*
X154220112Y-56392438D02*
X154267731Y-56440057D01*
X154267731Y-56440057D02*
X154315350Y-56535295D01*
X154315350Y-56535295D02*
X154315350Y-56678152D01*
X154315350Y-56678152D02*
X154267731Y-56773390D01*
X154267731Y-56773390D02*
X154220112Y-56821009D01*
X154220112Y-56821009D02*
X154124874Y-56868628D01*
X154124874Y-56868628D02*
X153743922Y-56868628D01*
X154743922Y-56821009D02*
X155077255Y-56821009D01*
X155220112Y-57344819D02*
X154743922Y-57344819D01*
X154743922Y-57344819D02*
X154743922Y-56344819D01*
X154743922Y-56344819D02*
X155220112Y-56344819D01*
X155982017Y-56821009D02*
X155648684Y-56821009D01*
X155648684Y-57344819D02*
X155648684Y-56344819D01*
X155648684Y-56344819D02*
X156124874Y-56344819D01*
X124660588Y-88822438D02*
X124565350Y-88774819D01*
X124565350Y-88774819D02*
X124422493Y-88774819D01*
X124422493Y-88774819D02*
X124279636Y-88822438D01*
X124279636Y-88822438D02*
X124184398Y-88917676D01*
X124184398Y-88917676D02*
X124136779Y-89012914D01*
X124136779Y-89012914D02*
X124089160Y-89203390D01*
X124089160Y-89203390D02*
X124089160Y-89346247D01*
X124089160Y-89346247D02*
X124136779Y-89536723D01*
X124136779Y-89536723D02*
X124184398Y-89631961D01*
X124184398Y-89631961D02*
X124279636Y-89727200D01*
X124279636Y-89727200D02*
X124422493Y-89774819D01*
X124422493Y-89774819D02*
X124517731Y-89774819D01*
X124517731Y-89774819D02*
X124660588Y-89727200D01*
X124660588Y-89727200D02*
X124708207Y-89679580D01*
X124708207Y-89679580D02*
X124708207Y-89346247D01*
X124708207Y-89346247D02*
X124517731Y-89346247D01*
X125136779Y-89774819D02*
X125136779Y-88774819D01*
X125136779Y-88774819D02*
X125708207Y-89774819D01*
X125708207Y-89774819D02*
X125708207Y-88774819D01*
X126184398Y-89774819D02*
X126184398Y-88774819D01*
X126184398Y-88774819D02*
X126422493Y-88774819D01*
X126422493Y-88774819D02*
X126565350Y-88822438D01*
X126565350Y-88822438D02*
X126660588Y-88917676D01*
X126660588Y-88917676D02*
X126708207Y-89012914D01*
X126708207Y-89012914D02*
X126755826Y-89203390D01*
X126755826Y-89203390D02*
X126755826Y-89346247D01*
X126755826Y-89346247D02*
X126708207Y-89536723D01*
X126708207Y-89536723D02*
X126660588Y-89631961D01*
X126660588Y-89631961D02*
X126565350Y-89727200D01*
X126565350Y-89727200D02*
X126422493Y-89774819D01*
X126422493Y-89774819D02*
X126184398Y-89774819D01*
X127708207Y-89774819D02*
X127136779Y-89774819D01*
X127422493Y-89774819D02*
X127422493Y-88774819D01*
X127422493Y-88774819D02*
X127327255Y-88917676D01*
X127327255Y-88917676D02*
X127232017Y-89012914D01*
X127232017Y-89012914D02*
X127136779Y-89060533D01*
X128612969Y-88774819D02*
X128136779Y-88774819D01*
X128136779Y-88774819D02*
X128089160Y-89251009D01*
X128089160Y-89251009D02*
X128136779Y-89203390D01*
X128136779Y-89203390D02*
X128232017Y-89155771D01*
X128232017Y-89155771D02*
X128470112Y-89155771D01*
X128470112Y-89155771D02*
X128565350Y-89203390D01*
X128565350Y-89203390D02*
X128612969Y-89251009D01*
X128612969Y-89251009D02*
X128660588Y-89346247D01*
X128660588Y-89346247D02*
X128660588Y-89584342D01*
X128660588Y-89584342D02*
X128612969Y-89679580D01*
X128612969Y-89679580D02*
X128565350Y-89727200D01*
X128565350Y-89727200D02*
X128470112Y-89774819D01*
X128470112Y-89774819D02*
X128232017Y-89774819D01*
X128232017Y-89774819D02*
X128136779Y-89727200D01*
X128136779Y-89727200D02*
X128089160Y-89679580D01*
X140098809Y-80528628D02*
X140098809Y-81004819D01*
X139765476Y-80004819D02*
X140098809Y-80528628D01*
X140098809Y-80528628D02*
X140432142Y-80004819D01*
X141289285Y-81004819D02*
X140717857Y-81004819D01*
X141003571Y-81004819D02*
X141003571Y-80004819D01*
X141003571Y-80004819D02*
X140908333Y-80147676D01*
X140908333Y-80147676D02*
X140813095Y-80242914D01*
X140813095Y-80242914D02*
X140717857Y-80290533D01*
X136358333Y-108584580D02*
X136310714Y-108632200D01*
X136310714Y-108632200D02*
X136167857Y-108679819D01*
X136167857Y-108679819D02*
X136072619Y-108679819D01*
X136072619Y-108679819D02*
X135929762Y-108632200D01*
X135929762Y-108632200D02*
X135834524Y-108536961D01*
X135834524Y-108536961D02*
X135786905Y-108441723D01*
X135786905Y-108441723D02*
X135739286Y-108251247D01*
X135739286Y-108251247D02*
X135739286Y-108108390D01*
X135739286Y-108108390D02*
X135786905Y-107917914D01*
X135786905Y-107917914D02*
X135834524Y-107822676D01*
X135834524Y-107822676D02*
X135929762Y-107727438D01*
X135929762Y-107727438D02*
X136072619Y-107679819D01*
X136072619Y-107679819D02*
X136167857Y-107679819D01*
X136167857Y-107679819D02*
X136310714Y-107727438D01*
X136310714Y-107727438D02*
X136358333Y-107775057D01*
X136691667Y-107679819D02*
X137310714Y-107679819D01*
X137310714Y-107679819D02*
X136977381Y-108060771D01*
X136977381Y-108060771D02*
X137120238Y-108060771D01*
X137120238Y-108060771D02*
X137215476Y-108108390D01*
X137215476Y-108108390D02*
X137263095Y-108156009D01*
X137263095Y-108156009D02*
X137310714Y-108251247D01*
X137310714Y-108251247D02*
X137310714Y-108489342D01*
X137310714Y-108489342D02*
X137263095Y-108584580D01*
X137263095Y-108584580D02*
X137215476Y-108632200D01*
X137215476Y-108632200D02*
X137120238Y-108679819D01*
X137120238Y-108679819D02*
X136834524Y-108679819D01*
X136834524Y-108679819D02*
X136739286Y-108632200D01*
X136739286Y-108632200D02*
X136691667Y-108584580D01*
X137954819Y-106792856D02*
X137954819Y-106697618D01*
X137954819Y-106697618D02*
X138002438Y-106602380D01*
X138002438Y-106602380D02*
X138050057Y-106554761D01*
X138050057Y-106554761D02*
X138145295Y-106507142D01*
X138145295Y-106507142D02*
X138335771Y-106459523D01*
X138335771Y-106459523D02*
X138573866Y-106459523D01*
X138573866Y-106459523D02*
X138764342Y-106507142D01*
X138764342Y-106507142D02*
X138859580Y-106554761D01*
X138859580Y-106554761D02*
X138907200Y-106602380D01*
X138907200Y-106602380D02*
X138954819Y-106697618D01*
X138954819Y-106697618D02*
X138954819Y-106792856D01*
X138954819Y-106792856D02*
X138907200Y-106888094D01*
X138907200Y-106888094D02*
X138859580Y-106935713D01*
X138859580Y-106935713D02*
X138764342Y-106983332D01*
X138764342Y-106983332D02*
X138573866Y-107030951D01*
X138573866Y-107030951D02*
X138335771Y-107030951D01*
X138335771Y-107030951D02*
X138145295Y-106983332D01*
X138145295Y-106983332D02*
X138050057Y-106935713D01*
X138050057Y-106935713D02*
X138002438Y-106888094D01*
X138002438Y-106888094D02*
X137954819Y-106792856D01*
X138859580Y-106030951D02*
X138907200Y-105983332D01*
X138907200Y-105983332D02*
X138954819Y-106030951D01*
X138954819Y-106030951D02*
X138907200Y-106078570D01*
X138907200Y-106078570D02*
X138859580Y-106030951D01*
X138859580Y-106030951D02*
X138954819Y-106030951D01*
X138954819Y-105030952D02*
X138954819Y-105602380D01*
X138954819Y-105316666D02*
X137954819Y-105316666D01*
X137954819Y-105316666D02*
X138097676Y-105411904D01*
X138097676Y-105411904D02*
X138192914Y-105507142D01*
X138192914Y-105507142D02*
X138240533Y-105602380D01*
X138288152Y-104173809D02*
X138954819Y-104173809D01*
X138288152Y-104602380D02*
X138811961Y-104602380D01*
X138811961Y-104602380D02*
X138907200Y-104554761D01*
X138907200Y-104554761D02*
X138954819Y-104459523D01*
X138954819Y-104459523D02*
X138954819Y-104316666D01*
X138954819Y-104316666D02*
X138907200Y-104221428D01*
X138907200Y-104221428D02*
X138859580Y-104173809D01*
X138431009Y-103364285D02*
X138431009Y-103697618D01*
X138954819Y-103697618D02*
X137954819Y-103697618D01*
X137954819Y-103697618D02*
X137954819Y-103221428D01*
X139588095Y-56079819D02*
X139588095Y-56889342D01*
X139588095Y-56889342D02*
X139635714Y-56984580D01*
X139635714Y-56984580D02*
X139683333Y-57032200D01*
X139683333Y-57032200D02*
X139778571Y-57079819D01*
X139778571Y-57079819D02*
X139969047Y-57079819D01*
X139969047Y-57079819D02*
X140064285Y-57032200D01*
X140064285Y-57032200D02*
X140111904Y-56984580D01*
X140111904Y-56984580D02*
X140159523Y-56889342D01*
X140159523Y-56889342D02*
X140159523Y-56079819D01*
X141159523Y-57079819D02*
X140588095Y-57079819D01*
X140873809Y-57079819D02*
X140873809Y-56079819D01*
X140873809Y-56079819D02*
X140778571Y-56222676D01*
X140778571Y-56222676D02*
X140683333Y-56317914D01*
X140683333Y-56317914D02*
X140588095Y-56365533D01*
X144658333Y-82659580D02*
X144610714Y-82707200D01*
X144610714Y-82707200D02*
X144467857Y-82754819D01*
X144467857Y-82754819D02*
X144372619Y-82754819D01*
X144372619Y-82754819D02*
X144229762Y-82707200D01*
X144229762Y-82707200D02*
X144134524Y-82611961D01*
X144134524Y-82611961D02*
X144086905Y-82516723D01*
X144086905Y-82516723D02*
X144039286Y-82326247D01*
X144039286Y-82326247D02*
X144039286Y-82183390D01*
X144039286Y-82183390D02*
X144086905Y-81992914D01*
X144086905Y-81992914D02*
X144134524Y-81897676D01*
X144134524Y-81897676D02*
X144229762Y-81802438D01*
X144229762Y-81802438D02*
X144372619Y-81754819D01*
X144372619Y-81754819D02*
X144467857Y-81754819D01*
X144467857Y-81754819D02*
X144610714Y-81802438D01*
X144610714Y-81802438D02*
X144658333Y-81850057D01*
X145610714Y-82754819D02*
X145039286Y-82754819D01*
X145325000Y-82754819D02*
X145325000Y-81754819D01*
X145325000Y-81754819D02*
X145229762Y-81897676D01*
X145229762Y-81897676D02*
X145134524Y-81992914D01*
X145134524Y-81992914D02*
X145039286Y-82040533D01*
X143026190Y-85700057D02*
X143073809Y-85652438D01*
X143073809Y-85652438D02*
X143169047Y-85604819D01*
X143169047Y-85604819D02*
X143407142Y-85604819D01*
X143407142Y-85604819D02*
X143502380Y-85652438D01*
X143502380Y-85652438D02*
X143549999Y-85700057D01*
X143549999Y-85700057D02*
X143597618Y-85795295D01*
X143597618Y-85795295D02*
X143597618Y-85890533D01*
X143597618Y-85890533D02*
X143549999Y-86033390D01*
X143549999Y-86033390D02*
X142978571Y-86604819D01*
X142978571Y-86604819D02*
X143597618Y-86604819D01*
X143978571Y-85700057D02*
X144026190Y-85652438D01*
X144026190Y-85652438D02*
X144121428Y-85604819D01*
X144121428Y-85604819D02*
X144359523Y-85604819D01*
X144359523Y-85604819D02*
X144454761Y-85652438D01*
X144454761Y-85652438D02*
X144502380Y-85700057D01*
X144502380Y-85700057D02*
X144549999Y-85795295D01*
X144549999Y-85795295D02*
X144549999Y-85890533D01*
X144549999Y-85890533D02*
X144502380Y-86033390D01*
X144502380Y-86033390D02*
X143930952Y-86604819D01*
X143930952Y-86604819D02*
X144549999Y-86604819D01*
X145740476Y-85938152D02*
X145740476Y-86938152D01*
X145740476Y-85985771D02*
X145835714Y-85938152D01*
X145835714Y-85938152D02*
X146026190Y-85938152D01*
X146026190Y-85938152D02*
X146121428Y-85985771D01*
X146121428Y-85985771D02*
X146169047Y-86033390D01*
X146169047Y-86033390D02*
X146216666Y-86128628D01*
X146216666Y-86128628D02*
X146216666Y-86414342D01*
X146216666Y-86414342D02*
X146169047Y-86509580D01*
X146169047Y-86509580D02*
X146121428Y-86557200D01*
X146121428Y-86557200D02*
X146026190Y-86604819D01*
X146026190Y-86604819D02*
X145835714Y-86604819D01*
X145835714Y-86604819D02*
X145740476Y-86557200D01*
X146978571Y-86081009D02*
X146645238Y-86081009D01*
X146645238Y-86604819D02*
X146645238Y-85604819D01*
X146645238Y-85604819D02*
X147121428Y-85604819D01*
X145223810Y-95329819D02*
X145223810Y-94329819D01*
X146271428Y-95234580D02*
X146223809Y-95282200D01*
X146223809Y-95282200D02*
X146080952Y-95329819D01*
X146080952Y-95329819D02*
X145985714Y-95329819D01*
X145985714Y-95329819D02*
X145842857Y-95282200D01*
X145842857Y-95282200D02*
X145747619Y-95186961D01*
X145747619Y-95186961D02*
X145700000Y-95091723D01*
X145700000Y-95091723D02*
X145652381Y-94901247D01*
X145652381Y-94901247D02*
X145652381Y-94758390D01*
X145652381Y-94758390D02*
X145700000Y-94567914D01*
X145700000Y-94567914D02*
X145747619Y-94472676D01*
X145747619Y-94472676D02*
X145842857Y-94377438D01*
X145842857Y-94377438D02*
X145985714Y-94329819D01*
X145985714Y-94329819D02*
X146080952Y-94329819D01*
X146080952Y-94329819D02*
X146223809Y-94377438D01*
X146223809Y-94377438D02*
X146271428Y-94425057D01*
X146652381Y-95282200D02*
X146795238Y-95329819D01*
X146795238Y-95329819D02*
X147033333Y-95329819D01*
X147033333Y-95329819D02*
X147128571Y-95282200D01*
X147128571Y-95282200D02*
X147176190Y-95234580D01*
X147176190Y-95234580D02*
X147223809Y-95139342D01*
X147223809Y-95139342D02*
X147223809Y-95044104D01*
X147223809Y-95044104D02*
X147176190Y-94948866D01*
X147176190Y-94948866D02*
X147128571Y-94901247D01*
X147128571Y-94901247D02*
X147033333Y-94853628D01*
X147033333Y-94853628D02*
X146842857Y-94806009D01*
X146842857Y-94806009D02*
X146747619Y-94758390D01*
X146747619Y-94758390D02*
X146700000Y-94710771D01*
X146700000Y-94710771D02*
X146652381Y-94615533D01*
X146652381Y-94615533D02*
X146652381Y-94520295D01*
X146652381Y-94520295D02*
X146700000Y-94425057D01*
X146700000Y-94425057D02*
X146747619Y-94377438D01*
X146747619Y-94377438D02*
X146842857Y-94329819D01*
X146842857Y-94329819D02*
X147080952Y-94329819D01*
X147080952Y-94329819D02*
X147223809Y-94377438D01*
X147652381Y-95329819D02*
X147652381Y-94329819D01*
X147652381Y-94329819D02*
X148033333Y-94329819D01*
X148033333Y-94329819D02*
X148128571Y-94377438D01*
X148128571Y-94377438D02*
X148176190Y-94425057D01*
X148176190Y-94425057D02*
X148223809Y-94520295D01*
X148223809Y-94520295D02*
X148223809Y-94663152D01*
X148223809Y-94663152D02*
X148176190Y-94758390D01*
X148176190Y-94758390D02*
X148128571Y-94806009D01*
X148128571Y-94806009D02*
X148033333Y-94853628D01*
X148033333Y-94853628D02*
X147652381Y-94853628D01*
X135783333Y-82709580D02*
X135735714Y-82757200D01*
X135735714Y-82757200D02*
X135592857Y-82804819D01*
X135592857Y-82804819D02*
X135497619Y-82804819D01*
X135497619Y-82804819D02*
X135354762Y-82757200D01*
X135354762Y-82757200D02*
X135259524Y-82661961D01*
X135259524Y-82661961D02*
X135211905Y-82566723D01*
X135211905Y-82566723D02*
X135164286Y-82376247D01*
X135164286Y-82376247D02*
X135164286Y-82233390D01*
X135164286Y-82233390D02*
X135211905Y-82042914D01*
X135211905Y-82042914D02*
X135259524Y-81947676D01*
X135259524Y-81947676D02*
X135354762Y-81852438D01*
X135354762Y-81852438D02*
X135497619Y-81804819D01*
X135497619Y-81804819D02*
X135592857Y-81804819D01*
X135592857Y-81804819D02*
X135735714Y-81852438D01*
X135735714Y-81852438D02*
X135783333Y-81900057D01*
X136164286Y-81900057D02*
X136211905Y-81852438D01*
X136211905Y-81852438D02*
X136307143Y-81804819D01*
X136307143Y-81804819D02*
X136545238Y-81804819D01*
X136545238Y-81804819D02*
X136640476Y-81852438D01*
X136640476Y-81852438D02*
X136688095Y-81900057D01*
X136688095Y-81900057D02*
X136735714Y-81995295D01*
X136735714Y-81995295D02*
X136735714Y-82090533D01*
X136735714Y-82090533D02*
X136688095Y-82233390D01*
X136688095Y-82233390D02*
X136116667Y-82804819D01*
X136116667Y-82804819D02*
X136735714Y-82804819D01*
X133926190Y-85600057D02*
X133973809Y-85552438D01*
X133973809Y-85552438D02*
X134069047Y-85504819D01*
X134069047Y-85504819D02*
X134307142Y-85504819D01*
X134307142Y-85504819D02*
X134402380Y-85552438D01*
X134402380Y-85552438D02*
X134449999Y-85600057D01*
X134449999Y-85600057D02*
X134497618Y-85695295D01*
X134497618Y-85695295D02*
X134497618Y-85790533D01*
X134497618Y-85790533D02*
X134449999Y-85933390D01*
X134449999Y-85933390D02*
X133878571Y-86504819D01*
X133878571Y-86504819D02*
X134497618Y-86504819D01*
X134878571Y-85600057D02*
X134926190Y-85552438D01*
X134926190Y-85552438D02*
X135021428Y-85504819D01*
X135021428Y-85504819D02*
X135259523Y-85504819D01*
X135259523Y-85504819D02*
X135354761Y-85552438D01*
X135354761Y-85552438D02*
X135402380Y-85600057D01*
X135402380Y-85600057D02*
X135449999Y-85695295D01*
X135449999Y-85695295D02*
X135449999Y-85790533D01*
X135449999Y-85790533D02*
X135402380Y-85933390D01*
X135402380Y-85933390D02*
X134830952Y-86504819D01*
X134830952Y-86504819D02*
X135449999Y-86504819D01*
X136640476Y-85838152D02*
X136640476Y-86838152D01*
X136640476Y-85885771D02*
X136735714Y-85838152D01*
X136735714Y-85838152D02*
X136926190Y-85838152D01*
X136926190Y-85838152D02*
X137021428Y-85885771D01*
X137021428Y-85885771D02*
X137069047Y-85933390D01*
X137069047Y-85933390D02*
X137116666Y-86028628D01*
X137116666Y-86028628D02*
X137116666Y-86314342D01*
X137116666Y-86314342D02*
X137069047Y-86409580D01*
X137069047Y-86409580D02*
X137021428Y-86457200D01*
X137021428Y-86457200D02*
X136926190Y-86504819D01*
X136926190Y-86504819D02*
X136735714Y-86504819D01*
X136735714Y-86504819D02*
X136640476Y-86457200D01*
X137878571Y-85981009D02*
X137545238Y-85981009D01*
X137545238Y-86504819D02*
X137545238Y-85504819D01*
X137545238Y-85504819D02*
X138021428Y-85504819D01*
X132733333Y-108609580D02*
X132685714Y-108657200D01*
X132685714Y-108657200D02*
X132542857Y-108704819D01*
X132542857Y-108704819D02*
X132447619Y-108704819D01*
X132447619Y-108704819D02*
X132304762Y-108657200D01*
X132304762Y-108657200D02*
X132209524Y-108561961D01*
X132209524Y-108561961D02*
X132161905Y-108466723D01*
X132161905Y-108466723D02*
X132114286Y-108276247D01*
X132114286Y-108276247D02*
X132114286Y-108133390D01*
X132114286Y-108133390D02*
X132161905Y-107942914D01*
X132161905Y-107942914D02*
X132209524Y-107847676D01*
X132209524Y-107847676D02*
X132304762Y-107752438D01*
X132304762Y-107752438D02*
X132447619Y-107704819D01*
X132447619Y-107704819D02*
X132542857Y-107704819D01*
X132542857Y-107704819D02*
X132685714Y-107752438D01*
X132685714Y-107752438D02*
X132733333Y-107800057D01*
X133590476Y-108038152D02*
X133590476Y-108704819D01*
X133352381Y-107657200D02*
X133114286Y-108371485D01*
X133114286Y-108371485D02*
X133733333Y-108371485D01*
X131479819Y-105745238D02*
X131479819Y-106316666D01*
X131479819Y-106030952D02*
X130479819Y-106030952D01*
X130479819Y-106030952D02*
X130622676Y-106126190D01*
X130622676Y-106126190D02*
X130717914Y-106221428D01*
X130717914Y-106221428D02*
X130765533Y-106316666D01*
X130813152Y-104888095D02*
X131479819Y-104888095D01*
X130813152Y-105316666D02*
X131336961Y-105316666D01*
X131336961Y-105316666D02*
X131432200Y-105269047D01*
X131432200Y-105269047D02*
X131479819Y-105173809D01*
X131479819Y-105173809D02*
X131479819Y-105030952D01*
X131479819Y-105030952D02*
X131432200Y-104935714D01*
X131432200Y-104935714D02*
X131384580Y-104888095D01*
X130956009Y-104078571D02*
X130956009Y-104411904D01*
X131479819Y-104411904D02*
X130479819Y-104411904D01*
X130479819Y-104411904D02*
X130479819Y-103935714D01*
D13*
%TO.C,Y1*%
X134500000Y-79625000D02*
X147100000Y-79625000D01*
X147100000Y-74525000D02*
X134500000Y-74525000D01*
X147100000Y-79625000D02*
X147100000Y-74525000D01*
%TO.C,J4*%
X120570000Y-95060000D02*
X121900000Y-95060000D01*
X120570000Y-96390000D02*
X120570000Y-95060000D01*
X120570000Y-97660000D02*
X120570000Y-110420000D01*
X120570000Y-97660000D02*
X123230000Y-97660000D01*
X120570000Y-110420000D02*
X123230000Y-110420000D01*
X123230000Y-97660000D02*
X123230000Y-110420000D01*
%TO.C,C3*%
X135615000Y-104438748D02*
X135615000Y-105861252D01*
X137435000Y-104438748D02*
X137435000Y-105861252D01*
%TO.C,J9*%
X130115000Y-114320000D02*
X130115000Y-119520000D01*
X147955000Y-114320000D02*
X130115000Y-114320000D01*
X147955000Y-114320000D02*
X147955000Y-116920000D01*
X147955000Y-116920000D02*
X150555000Y-116920000D01*
X149225000Y-114320000D02*
X150555000Y-114320000D01*
X150555000Y-114320000D02*
X150555000Y-115650000D01*
X150555000Y-116920000D02*
X150555000Y-119520000D01*
X150555000Y-119520000D02*
X130115000Y-119520000D01*
%TO.C,J7*%
X156870000Y-63330000D02*
X156870000Y-50570000D01*
X159530000Y-50570000D02*
X156870000Y-50570000D01*
X159530000Y-63330000D02*
X156870000Y-63330000D01*
X159530000Y-63330000D02*
X159530000Y-50570000D01*
X159530000Y-64600000D02*
X159530000Y-65930000D01*
X159530000Y-65930000D02*
X158200000Y-65930000D01*
D10*
%TO.C,U1*%
X135175000Y-58900000D02*
X135175000Y-59515000D01*
X135175000Y-58900000D02*
X135850000Y-58900000D01*
X135175000Y-69250000D02*
X135175000Y-68575000D01*
X135175000Y-69250000D02*
X135850000Y-69250000D01*
X145525000Y-58900000D02*
X144850000Y-58900000D01*
X145525000Y-58900000D02*
X145525000Y-59575000D01*
X145525000Y-69250000D02*
X144850000Y-69250000D01*
X145525000Y-69250000D02*
X145525000Y-68575000D01*
D13*
X134490000Y-59535000D02*
X134150000Y-59065000D01*
X134830000Y-59065000D01*
X134490000Y-59535000D01*
G36*
X134490000Y-59535000D02*
G01*
X134150000Y-59065000D01*
X134830000Y-59065000D01*
X134490000Y-59535000D01*
G37*
%TO.C,J6*%
X156920000Y-85620000D02*
X156920000Y-67780000D01*
X159580000Y-67780000D02*
X156920000Y-67780000D01*
X159580000Y-85620000D02*
X156920000Y-85620000D01*
X159580000Y-85620000D02*
X159580000Y-67780000D01*
X159580000Y-86890000D02*
X159580000Y-88220000D01*
X159580000Y-88220000D02*
X158250000Y-88220000D01*
%TO.C,C1*%
X145811252Y-83390000D02*
X144388748Y-83390000D01*
X145811252Y-85210000D02*
X144388748Y-85210000D01*
%TO.C,J8*%
X130145000Y-40480000D02*
X150585000Y-40480000D01*
X130145000Y-43080000D02*
X130145000Y-40480000D01*
X130145000Y-45680000D02*
X130145000Y-44350000D01*
X131475000Y-45680000D02*
X130145000Y-45680000D01*
X132745000Y-43080000D02*
X130145000Y-43080000D01*
X132745000Y-45680000D02*
X132745000Y-43080000D01*
X132745000Y-45680000D02*
X150585000Y-45680000D01*
X150585000Y-45680000D02*
X150585000Y-40480000D01*
%TO.C,J1*%
X136455000Y-92305000D02*
X144195000Y-92305000D01*
X136455000Y-94905000D02*
X136455000Y-92305000D01*
X136455000Y-97505000D02*
X136455000Y-96175000D01*
X137785000Y-97505000D02*
X136455000Y-97505000D01*
X139055000Y-94905000D02*
X136455000Y-94905000D01*
X139055000Y-97505000D02*
X139055000Y-94905000D01*
X139055000Y-97505000D02*
X144195000Y-97505000D01*
X144195000Y-97505000D02*
X144195000Y-92305000D01*
%TO.C,J2*%
X120470000Y-50545000D02*
X121800000Y-50545000D01*
X120470000Y-51875000D02*
X120470000Y-50545000D01*
X120470000Y-53145000D02*
X120470000Y-70985000D01*
X120470000Y-53145000D02*
X123130000Y-53145000D01*
X120470000Y-70985000D02*
X123130000Y-70985000D01*
X123130000Y-53145000D02*
X123130000Y-70985000D01*
%TO.C,C2*%
X135238748Y-83290000D02*
X136661252Y-83290000D01*
X135238748Y-85110000D02*
X136661252Y-85110000D01*
%TO.C,J5*%
X156895000Y-107795000D02*
X156895000Y-89955000D01*
X159555000Y-89955000D02*
X156895000Y-89955000D01*
X159555000Y-107795000D02*
X156895000Y-107795000D01*
X159555000Y-107795000D02*
X159555000Y-89955000D01*
X159555000Y-109065000D02*
X159555000Y-110395000D01*
X159555000Y-110395000D02*
X158225000Y-110395000D01*
%TO.C,C4*%
X131990000Y-105861252D02*
X131990000Y-104438748D01*
X133810000Y-105861252D02*
X133810000Y-104438748D01*
%TO.C,J3*%
X120545000Y-72820000D02*
X121875000Y-72820000D01*
X120545000Y-74150000D02*
X120545000Y-72820000D01*
X120545000Y-75420000D02*
X120545000Y-93260000D01*
X120545000Y-75420000D02*
X123205000Y-75420000D01*
X120545000Y-93260000D02*
X123205000Y-93260000D01*
X123205000Y-75420000D02*
X123205000Y-93260000D01*
%TD*%
M02*
