%TF.GenerationSoftware,KiCad,Pcbnew,8.0.2*%
%TF.CreationDate,2024-07-23T13:49:49-06:00*%
%TF.ProjectId,32u4_breakout,33327534-5f62-4726-9561-6b6f75742e6b,rev?*%
%TF.SameCoordinates,Original*%
%TF.FileFunction,Copper,L2,Bot*%
%TF.FilePolarity,Positive*%
%FSLAX46Y46*%
G04 Gerber Fmt 4.6, Leading zero omitted, Abs format (unit mm)*
G04 Created by KiCad (PCBNEW 8.0.2) date 2024-07-23 13:49:49*
%MOMM*%
%LPD*%
G01*
G04 APERTURE LIST*
%TA.AperFunction,ComponentPad*%
%ADD10R,1.700000X1.700000*%
%TD*%
%TA.AperFunction,ComponentPad*%
%ADD11O,1.700000X1.700000*%
%TD*%
%TA.AperFunction,ViaPad*%
%ADD12C,0.600000*%
%TD*%
%TA.AperFunction,Conductor*%
%ADD13C,0.200000*%
%TD*%
G04 APERTURE END LIST*
D10*
%TO.P,J4,1,Pin_1*%
%TO.N,XTAL1*%
X121900000Y-96390000D03*
D11*
%TO.P,J4,2,Pin_2*%
%TO.N,Net-(J4-Pin_2)*%
X121900000Y-98930000D03*
%TO.P,J4,3,Pin_3*%
%TO.N,Net-(J4-Pin_3)*%
X121900000Y-101470000D03*
%TO.P,J4,4,Pin_4*%
%TO.N,Net-(J4-Pin_4)*%
X121900000Y-104010000D03*
%TO.P,J4,5,Pin_5*%
%TO.N,Net-(J4-Pin_5)*%
X121900000Y-106550000D03*
%TO.P,J4,6,Pin_6*%
%TO.N,Net-(J4-Pin_6)*%
X121900000Y-109090000D03*
%TD*%
D10*
%TO.P,J9,1,Pin_1*%
%TO.N,GND5*%
X149225000Y-115650000D03*
D11*
%TO.P,J9,2,Pin_2*%
%TO.N,GND*%
X149225000Y-118190000D03*
%TO.P,J9,3,Pin_3*%
%TO.N,GND15*%
X146685000Y-115650000D03*
%TO.P,J9,4,Pin_4*%
%TO.N,GND*%
X146685000Y-118190000D03*
%TO.P,J9,5,Pin_5*%
%TO.N,GND23*%
X144145000Y-115650000D03*
%TO.P,J9,6,Pin_6*%
%TO.N,GND*%
X144145000Y-118190000D03*
%TO.P,J9,7,Pin_7*%
%TO.N,GND35*%
X141605000Y-115650000D03*
%TO.P,J9,8,Pin_8*%
%TO.N,GND*%
X141605000Y-118190000D03*
%TO.P,J9,9,Pin_9*%
%TO.N,GND43*%
X139065000Y-115650000D03*
%TO.P,J9,10,Pin_10*%
%TO.N,GND*%
X139065000Y-118190000D03*
%TO.P,J9,11,Pin_11*%
%TO.N,Net-(J9-Pin_11)*%
X136525000Y-115650000D03*
%TO.P,J9,12,Pin_12*%
%TO.N,GND*%
X136525000Y-118190000D03*
%TO.P,J9,13,Pin_13*%
%TO.N,Net-(J9-Pin_13)*%
X133985000Y-115650000D03*
%TO.P,J9,14,Pin_14*%
%TO.N,GND*%
X133985000Y-118190000D03*
%TO.P,J9,15,Pin_15*%
%TO.N,unconnected-(J9-Pin_15-Pad15)*%
X131445000Y-115650000D03*
%TO.P,J9,16,Pin_16*%
%TO.N,GND*%
X131445000Y-118190000D03*
%TD*%
D10*
%TO.P,J7,1,Pin_1*%
%TO.N,Net-(J7-Pin_1)*%
X158200000Y-64600000D03*
D11*
%TO.P,J7,2,Pin_2*%
%TO.N,Net-(J7-Pin_2)*%
X158200000Y-62060000D03*
%TO.P,J7,3,Pin_3*%
%TO.N,Net-(J7-Pin_3)*%
X158200000Y-59520000D03*
%TO.P,J7,4,Pin_4*%
%TO.N,AREF*%
X158200000Y-56980000D03*
%TO.P,J7,5,Pin_5*%
%TO.N,GND43*%
X158200000Y-54440000D03*
%TO.P,J7,6,Pin_6*%
%TO.N,PWR44*%
X158200000Y-51900000D03*
%TD*%
D10*
%TO.P,J6,1,Pin_1*%
%TO.N,Net-(J6-Pin_1)*%
X158250000Y-86890000D03*
D11*
%TO.P,J6,2,Pin_2*%
%TO.N,IO13*%
X158250000Y-84350000D03*
%TO.P,J6,3,Pin_3*%
%TO.N,Net-(J6-Pin_3)*%
X158250000Y-81810000D03*
%TO.P,J6,4,Pin_4*%
%TO.N,PWR34*%
X158250000Y-79270000D03*
%TO.P,J6,5,Pin_5*%
%TO.N,GND35*%
X158250000Y-76730000D03*
%TO.P,J6,6,Pin_6*%
%TO.N,Net-(J6-Pin_6)*%
X158250000Y-74190000D03*
%TO.P,J6,7,Pin_7*%
%TO.N,Net-(J6-Pin_7)*%
X158250000Y-71650000D03*
%TO.P,J6,8,Pin_8*%
%TO.N,Net-(J6-Pin_8)*%
X158250000Y-69110000D03*
%TD*%
D10*
%TO.P,J8,1,Pin_1*%
%TO.N,PWR2*%
X131475000Y-44350000D03*
D11*
%TO.P,J8,2,Pin_2*%
%TO.N,5V*%
X131475000Y-41810000D03*
%TO.P,J8,3,Pin_3*%
%TO.N,PWR14*%
X134015000Y-44350000D03*
%TO.P,J8,4,Pin_4*%
%TO.N,5V*%
X134015000Y-41810000D03*
%TO.P,J8,5,Pin_5*%
%TO.N,PWR24*%
X136555000Y-44350000D03*
%TO.P,J8,6,Pin_6*%
%TO.N,5V*%
X136555000Y-41810000D03*
%TO.P,J8,7,Pin_7*%
%TO.N,PWR34*%
X139095000Y-44350000D03*
%TO.P,J8,8,Pin_8*%
%TO.N,5V*%
X139095000Y-41810000D03*
%TO.P,J8,9,Pin_9*%
%TO.N,PWR44*%
X141635000Y-44350000D03*
%TO.P,J8,10,Pin_10*%
%TO.N,5V*%
X141635000Y-41810000D03*
%TO.P,J8,11,Pin_11*%
%TO.N,VBUS*%
X144175000Y-44350000D03*
%TO.P,J8,12,Pin_12*%
%TO.N,5V*%
X144175000Y-41810000D03*
%TO.P,J8,13,Pin_13*%
%TO.N,unconnected-(J8-Pin_13-Pad13)*%
X146715000Y-44350000D03*
%TO.P,J8,14,Pin_14*%
%TO.N,5V*%
X146715000Y-41810000D03*
%TO.P,J8,15,Pin_15*%
%TO.N,unconnected-(J8-Pin_15-Pad15)*%
X149255000Y-44350000D03*
%TO.P,J8,16,Pin_16*%
%TO.N,5V*%
X149255000Y-41810000D03*
%TD*%
%TO.P,J1,6,Pin_6*%
%TO.N,GND*%
X142930000Y-86610000D03*
%TO.P,J1,5,Pin_5*%
%TO.N,RESET*%
X142930000Y-89150000D03*
%TO.P,J1,4,Pin_4*%
%TO.N,MOSI*%
X140390000Y-86610000D03*
%TO.P,J1,3,Pin_3*%
%TO.N,SCK*%
X140390000Y-89150000D03*
%TO.P,J1,2,Pin_2*%
%TO.N,5V*%
X137850000Y-86610000D03*
D10*
%TO.P,J1,1,Pin_1*%
%TO.N,MISO*%
X137850000Y-89150000D03*
%TD*%
%TO.P,J2,1,Pin_1*%
%TO.N,Net-(J2-Pin_1)*%
X121800000Y-51875000D03*
D11*
%TO.P,J2,2,Pin_2*%
%TO.N,PWR2*%
X121800000Y-54415000D03*
%TO.P,J2,3,Pin_3*%
%TO.N,Net-(J2-Pin_3)*%
X121800000Y-56955000D03*
%TO.P,J2,4,Pin_4*%
%TO.N,Net-(J2-Pin_4)*%
X121800000Y-59495000D03*
%TO.P,J2,5,Pin_5*%
%TO.N,GND5*%
X121800000Y-62035000D03*
%TO.P,J2,6,Pin_6*%
%TO.N,UCAP*%
X121800000Y-64575000D03*
%TO.P,J2,7,Pin_7*%
%TO.N,VBUS*%
X121800000Y-67115000D03*
%TO.P,J2,8,Pin_8*%
%TO.N,Net-(J2-Pin_8)*%
X121800000Y-69655000D03*
%TD*%
D10*
%TO.P,J5,1,Pin_1*%
%TO.N,GND23*%
X158225000Y-109065000D03*
D11*
%TO.P,J5,2,Pin_2*%
%TO.N,PWR24*%
X158225000Y-106525000D03*
%TO.P,J5,3,Pin_3*%
%TO.N,Net-(J5-Pin_3)*%
X158225000Y-103985000D03*
%TO.P,J5,4,Pin_4*%
%TO.N,Net-(J5-Pin_4)*%
X158225000Y-101445000D03*
%TO.P,J5,5,Pin_5*%
%TO.N,Net-(J5-Pin_5)*%
X158225000Y-98905000D03*
%TO.P,J5,6,Pin_6*%
%TO.N,Net-(J5-Pin_6)*%
X158225000Y-96365000D03*
%TO.P,J5,7,Pin_7*%
%TO.N,Net-(J5-Pin_7)*%
X158225000Y-93825000D03*
%TO.P,J5,8,Pin_8*%
%TO.N,Net-(J5-Pin_8)*%
X158225000Y-91285000D03*
%TD*%
D10*
%TO.P,J3,1,Pin_1*%
%TO.N,SCK*%
X121875000Y-74150000D03*
D11*
%TO.P,J3,2,Pin_2*%
%TO.N,MOSI*%
X121875000Y-76690000D03*
%TO.P,J3,3,Pin_3*%
%TO.N,MISO*%
X121875000Y-79230000D03*
%TO.P,J3,4,Pin_4*%
%TO.N,Net-(J3-Pin_4)*%
X121875000Y-81770000D03*
%TO.P,J3,5,Pin_5*%
%TO.N,RESET*%
X121875000Y-84310000D03*
%TO.P,J3,6,Pin_6*%
%TO.N,PWR14*%
X121875000Y-86850000D03*
%TO.P,J3,7,Pin_7*%
%TO.N,GND15*%
X121875000Y-89390000D03*
%TO.P,J3,8,Pin_8*%
%TO.N,XTAL2*%
X121875000Y-91930000D03*
%TD*%
D12*
%TO.N,GND43*%
X138422600Y-63915900D03*
X143984800Y-76795800D03*
%TO.N,Net-(J7-Pin_2)*%
X140581900Y-56989800D03*
%TO.N,IO13*%
X147083200Y-94192700D03*
%TO.N,Net-(J6-Pin_6)*%
X143482200Y-57273500D03*
%TO.N,Net-(J6-Pin_8)*%
X141864800Y-57296000D03*
%TO.N,PWR34*%
X145207400Y-54861200D03*
%TO.N,Net-(J6-Pin_7)*%
X143512300Y-58808400D03*
%TO.N,GND35*%
X144172000Y-59931400D03*
%TO.N,PWR24*%
X144562500Y-64382300D03*
%TO.N,Net-(J5-Pin_4)*%
X147941100Y-63689400D03*
%TO.N,Net-(J5-Pin_7)*%
X151831100Y-84110600D03*
X143778900Y-65190800D03*
%TO.N,Net-(J5-Pin_5)*%
X154074300Y-88142800D03*
%TO.N,Net-(J5-Pin_6)*%
X149425500Y-68327500D03*
X144779500Y-61923800D03*
%TO.N,Net-(J4-Pin_4)*%
X142195500Y-70625600D03*
%TO.N,Net-(J4-Pin_5)*%
X143378400Y-70280200D03*
X124598900Y-105861600D03*
%TO.N,Net-(J2-Pin_3)*%
X131081300Y-58248400D03*
%TO.N,Net-(J2-Pin_1)*%
X133199800Y-57125200D03*
%TO.N,Net-(J2-Pin_4)*%
X130875300Y-59076500D03*
%TO.N,GND5*%
X132503500Y-60100400D03*
%TO.N,SCK*%
X139015800Y-85253300D03*
%TO.N,UCAP*%
X132454700Y-61361600D03*
%TO.N,AREF*%
X138599300Y-57023300D03*
X138860300Y-65397900D03*
X137761800Y-83703900D03*
%TD*%
D13*
%TO.N,GND43*%
X143984800Y-69478100D02*
X143984800Y-76795800D01*
X138422600Y-63915900D02*
X143984800Y-69478100D01*
%TO.N,Net-(J7-Pin_2)*%
X158200000Y-62060000D02*
X157048300Y-62060000D01*
X140905400Y-56666300D02*
X140581900Y-56989800D01*
X151654600Y-56666300D02*
X140905400Y-56666300D01*
X157048300Y-62060000D02*
X151654600Y-56666300D01*
%TO.N,IO13*%
X156925900Y-84350000D02*
X147083200Y-94192700D01*
X158250000Y-84350000D02*
X156925900Y-84350000D01*
%TO.N,Net-(J6-Pin_6)*%
X148081700Y-57273500D02*
X143482200Y-57273500D01*
X159431900Y-68623700D02*
X148081700Y-57273500D01*
X159431900Y-72144300D02*
X159431900Y-68623700D01*
X158537900Y-73038300D02*
X159431900Y-72144300D01*
X158250000Y-73038300D02*
X158537900Y-73038300D01*
X158250000Y-74190000D02*
X158250000Y-73038300D01*
%TO.N,Net-(J6-Pin_8)*%
X158250000Y-69110000D02*
X157098300Y-69110000D01*
X142775400Y-58206600D02*
X141864800Y-57296000D01*
X146194900Y-58206600D02*
X142775400Y-58206600D01*
X157098300Y-69110000D02*
X146194900Y-58206600D01*
%TO.N,PWR34*%
X139095000Y-44350000D02*
X139095000Y-45501700D01*
X145207400Y-51614100D02*
X145207400Y-54861200D01*
X139095000Y-45501700D02*
X145207400Y-51614100D01*
%TO.N,Net-(J6-Pin_7)*%
X158250000Y-71650000D02*
X157098300Y-71650000D01*
X144256700Y-58808400D02*
X143512300Y-58808400D01*
X157098300Y-71650000D02*
X144256700Y-58808400D01*
%TO.N,GND35*%
X158250000Y-76730000D02*
X157199200Y-76730000D01*
X141605000Y-115650000D02*
X142756700Y-115650000D01*
X142756700Y-115918500D02*
X142756700Y-115650000D01*
X143649700Y-116811500D02*
X142756700Y-115918500D01*
X150268300Y-116811500D02*
X143649700Y-116811500D01*
X150376700Y-116703100D02*
X150268300Y-116811500D01*
X150376700Y-110681700D02*
X150376700Y-116703100D01*
X146481400Y-106786400D02*
X150376700Y-110681700D01*
X146481400Y-92003700D02*
X146481400Y-106786400D01*
X156977200Y-81507900D02*
X146481400Y-92003700D01*
X156977200Y-76730000D02*
X156977200Y-81507900D01*
X148823800Y-68576600D02*
X156977200Y-76730000D01*
X148823800Y-66924000D02*
X148823800Y-68576600D01*
X144172000Y-62272200D02*
X148823800Y-66924000D01*
X144172000Y-59931400D02*
X144172000Y-62272200D01*
X156977200Y-76730000D02*
X157199200Y-76730000D01*
%TO.N,PWR24*%
X136555000Y-56374800D02*
X144562500Y-64382300D01*
X136555000Y-44350000D02*
X136555000Y-56374800D01*
%TO.N,Net-(J5-Pin_4)*%
X158225000Y-101445000D02*
X158225000Y-100293300D01*
X149975200Y-65723500D02*
X147941100Y-63689400D01*
X149975200Y-67549400D02*
X149975200Y-65723500D01*
X157885800Y-75460000D02*
X149975200Y-67549400D01*
X158624100Y-75460000D02*
X157885800Y-75460000D01*
X159415700Y-76251600D02*
X158624100Y-75460000D01*
X159415700Y-99371100D02*
X159415700Y-76251600D01*
X158493500Y-100293300D02*
X159415700Y-99371100D01*
X158225000Y-100293300D02*
X158493500Y-100293300D01*
%TO.N,Net-(J5-Pin_7)*%
X151831100Y-73243000D02*
X143778900Y-65190800D01*
X151831100Y-84110600D02*
X151831100Y-73243000D01*
%TO.N,Net-(J5-Pin_5)*%
X154074300Y-93890500D02*
X154074300Y-88142800D01*
X157937100Y-97753300D02*
X154074300Y-93890500D01*
X158225000Y-97753300D02*
X157937100Y-97753300D01*
X158225000Y-98905000D02*
X158225000Y-97753300D01*
%TO.N,Net-(J5-Pin_6)*%
X149425500Y-66569800D02*
X144779500Y-61923800D01*
X149425500Y-68327500D02*
X149425500Y-66569800D01*
%TO.N,Net-(J4-Pin_4)*%
X121900000Y-104010000D02*
X123051700Y-104010000D01*
X129721600Y-104010000D02*
X123051700Y-104010000D01*
X144131300Y-89600300D02*
X129721600Y-104010000D01*
X144131300Y-85092400D02*
X144131300Y-89600300D01*
X142195500Y-83156600D02*
X144131300Y-85092400D01*
X142195500Y-70625600D02*
X142195500Y-83156600D01*
%TO.N,Net-(J4-Pin_5)*%
X128480500Y-105861600D02*
X124598900Y-105861600D01*
X144560100Y-89782000D02*
X128480500Y-105861600D01*
X144560100Y-82984600D02*
X144560100Y-89782000D01*
X143378400Y-81802900D02*
X144560100Y-82984600D01*
X143378400Y-70280200D02*
X143378400Y-81802900D01*
%TO.N,GND15*%
X145533300Y-115381500D02*
X145533300Y-115650000D01*
X143338600Y-113186800D02*
X145533300Y-115381500D01*
X131032600Y-113186800D02*
X143338600Y-113186800D01*
X123050200Y-105204400D02*
X131032600Y-113186800D01*
X121456100Y-105204400D02*
X123050200Y-105204400D01*
X120705800Y-104454100D02*
X121456100Y-105204400D01*
X120705800Y-91423000D02*
X120705800Y-104454100D01*
X121587100Y-90541700D02*
X120705800Y-91423000D01*
X121875000Y-90541700D02*
X121587100Y-90541700D01*
X121875000Y-89390000D02*
X121875000Y-90541700D01*
X146685000Y-115650000D02*
X145533300Y-115650000D01*
%TO.N,PWR2*%
X130323300Y-45501700D02*
X130323300Y-44350000D01*
X122561700Y-53263300D02*
X130323300Y-45501700D01*
X121800000Y-53263300D02*
X122561700Y-53263300D01*
X121800000Y-54415000D02*
X121800000Y-53263300D01*
X131475000Y-44350000D02*
X130323300Y-44350000D01*
%TO.N,Net-(J2-Pin_3)*%
X129787900Y-56955000D02*
X131081300Y-58248400D01*
X121800000Y-56955000D02*
X129787900Y-56955000D01*
%TO.N,Net-(J2-Pin_1)*%
X131685300Y-55610700D02*
X133199800Y-57125200D01*
X121315000Y-55610700D02*
X131685300Y-55610700D01*
X120554000Y-54849700D02*
X121315000Y-55610700D01*
X120554000Y-53121000D02*
X120554000Y-54849700D01*
X121800000Y-51875000D02*
X120554000Y-53121000D01*
%TO.N,Net-(J2-Pin_4)*%
X121800000Y-59495000D02*
X122951700Y-59495000D01*
X123370200Y-59076500D02*
X130875300Y-59076500D01*
X122951700Y-59495000D02*
X123370200Y-59076500D01*
%TO.N,GND5*%
X130568900Y-62035000D02*
X132503500Y-60100400D01*
X121800000Y-62035000D02*
X130568900Y-62035000D01*
X149225000Y-115650000D02*
X149225000Y-114498300D01*
X135461700Y-60100400D02*
X132503500Y-60100400D01*
X144990400Y-69629100D02*
X135461700Y-60100400D01*
X144990400Y-110263700D02*
X144990400Y-69629100D01*
X149225000Y-114498300D02*
X144990400Y-110263700D01*
%TO.N,SCK*%
X121875000Y-74150000D02*
X123026700Y-74150000D01*
X138068100Y-84305600D02*
X139015800Y-85253300D01*
X137512700Y-84305600D02*
X138068100Y-84305600D01*
X137160100Y-83953000D02*
X137512700Y-84305600D01*
X137160100Y-83877100D02*
X137160100Y-83953000D01*
X127433000Y-74150000D02*
X137160100Y-83877100D01*
X123026700Y-74150000D02*
X127433000Y-74150000D01*
%TO.N,MISO*%
X125806500Y-89150000D02*
X137850000Y-89150000D01*
X122261500Y-85605000D02*
X125806500Y-89150000D01*
X121472900Y-85605000D02*
X122261500Y-85605000D01*
X120674300Y-84806400D02*
X121472900Y-85605000D01*
X120674300Y-81294500D02*
X120674300Y-84806400D01*
X121587100Y-80381700D02*
X120674300Y-81294500D01*
X121875000Y-80381700D02*
X121587100Y-80381700D01*
X121875000Y-79230000D02*
X121875000Y-80381700D01*
%TO.N,5V*%
X149255000Y-41810000D02*
X146715000Y-41810000D01*
X146715000Y-41810000D02*
X144175000Y-41810000D01*
X144175000Y-41810000D02*
X141635000Y-41810000D01*
X141635000Y-41810000D02*
X139095000Y-41810000D01*
X139095000Y-41810000D02*
X136555000Y-41810000D01*
X136555000Y-41810000D02*
X135403300Y-41810000D01*
X134015000Y-42385800D02*
X134827500Y-42385800D01*
X134827500Y-42385800D02*
X135403300Y-41810000D01*
X137850000Y-86610000D02*
X136698300Y-86610000D01*
X134015000Y-41810000D02*
X134015000Y-42097900D01*
X134015000Y-42097900D02*
X134015000Y-42385800D01*
X132914600Y-42097900D02*
X132626700Y-41810000D01*
X134015000Y-42097900D02*
X132914600Y-42097900D01*
X131475000Y-41810000D02*
X132626700Y-41810000D01*
X135170600Y-42728900D02*
X134827500Y-42385800D01*
X135170600Y-56005500D02*
X135170600Y-42728900D01*
X130507800Y-60668300D02*
X135170600Y-56005500D01*
X121486000Y-60668300D02*
X130507800Y-60668300D01*
X120632900Y-61521400D02*
X121486000Y-60668300D01*
X120632900Y-77141500D02*
X120632900Y-61521400D01*
X121451400Y-77960000D02*
X120632900Y-77141500D01*
X128048300Y-77960000D02*
X121451400Y-77960000D01*
X136698300Y-86610000D02*
X128048300Y-77960000D01*
%TO.N,MOSI*%
X140390000Y-86610000D02*
X139238300Y-86610000D01*
X121875000Y-76690000D02*
X123026700Y-76690000D01*
X139238300Y-86326500D02*
X139238300Y-86610000D01*
X139238200Y-86326500D02*
X139238300Y-86326500D01*
X137641000Y-84729300D02*
X139238200Y-86326500D01*
X137368400Y-84729300D02*
X137641000Y-84729300D01*
X129329100Y-76690000D02*
X137368400Y-84729300D01*
X123026700Y-76690000D02*
X129329100Y-76690000D01*
%TO.N,RESET*%
X141778300Y-88881500D02*
X141778300Y-89150000D01*
X140776800Y-87880000D02*
X141778300Y-88881500D01*
X126596700Y-87880000D02*
X140776800Y-87880000D01*
X123026700Y-84310000D02*
X126596700Y-87880000D01*
X121875000Y-84310000D02*
X123026700Y-84310000D01*
X142930000Y-89150000D02*
X141778300Y-89150000D01*
%TO.N,UCAP*%
X121800000Y-64575000D02*
X122951700Y-64575000D01*
X129241300Y-64575000D02*
X132454700Y-61361600D01*
X122951700Y-64575000D02*
X129241300Y-64575000D01*
%TO.N,AREF*%
X158200000Y-56980000D02*
X157048300Y-56980000D01*
X137761800Y-66496400D02*
X137761800Y-83703900D01*
X138860300Y-65397900D02*
X137761800Y-66496400D01*
X139384300Y-56238300D02*
X138599300Y-57023300D01*
X156306600Y-56238300D02*
X139384300Y-56238300D01*
X157048300Y-56980000D02*
X156306600Y-56238300D01*
%TD*%
%TA.AperFunction,Conductor*%
%TO.N,GND*%
G36*
X123467095Y-106470530D02*
G01*
X130547739Y-113551174D01*
X130547749Y-113551185D01*
X130552079Y-113555515D01*
X130552080Y-113555516D01*
X130663884Y-113667320D01*
X130663886Y-113667321D01*
X130663890Y-113667324D01*
X130800809Y-113746373D01*
X130800816Y-113746377D01*
X130912619Y-113776334D01*
X130953542Y-113787300D01*
X130953543Y-113787300D01*
X143038503Y-113787300D01*
X143105542Y-113806985D01*
X143126184Y-113823619D01*
X143554291Y-114251726D01*
X143587776Y-114313049D01*
X143582792Y-114382741D01*
X143540920Y-114438674D01*
X143519016Y-114451789D01*
X143467168Y-114475966D01*
X143273597Y-114611505D01*
X143106508Y-114778594D01*
X142976574Y-114964160D01*
X142921997Y-115007784D01*
X142852498Y-115014977D01*
X142790144Y-114983455D01*
X142773429Y-114964164D01*
X142643495Y-114778599D01*
X142643493Y-114778596D01*
X142476402Y-114611506D01*
X142476395Y-114611501D01*
X142282834Y-114475967D01*
X142282830Y-114475965D01*
X142282828Y-114475964D01*
X142068663Y-114376097D01*
X142068659Y-114376096D01*
X142068655Y-114376094D01*
X141840413Y-114314938D01*
X141840403Y-114314936D01*
X141605001Y-114294341D01*
X141604999Y-114294341D01*
X141369596Y-114314936D01*
X141369586Y-114314938D01*
X141141344Y-114376094D01*
X141141335Y-114376098D01*
X140927171Y-114475964D01*
X140927169Y-114475965D01*
X140733597Y-114611505D01*
X140566505Y-114778597D01*
X140436575Y-114964158D01*
X140381998Y-115007783D01*
X140312500Y-115014977D01*
X140250145Y-114983454D01*
X140233425Y-114964158D01*
X140103494Y-114778597D01*
X139936402Y-114611506D01*
X139936395Y-114611501D01*
X139742834Y-114475967D01*
X139742830Y-114475965D01*
X139742828Y-114475964D01*
X139528663Y-114376097D01*
X139528659Y-114376096D01*
X139528655Y-114376094D01*
X139300413Y-114314938D01*
X139300403Y-114314936D01*
X139065001Y-114294341D01*
X139064999Y-114294341D01*
X138829596Y-114314936D01*
X138829586Y-114314938D01*
X138601344Y-114376094D01*
X138601335Y-114376098D01*
X138387171Y-114475964D01*
X138387169Y-114475965D01*
X138193597Y-114611505D01*
X138026505Y-114778597D01*
X137896575Y-114964158D01*
X137841998Y-115007783D01*
X137772500Y-115014977D01*
X137710145Y-114983454D01*
X137693425Y-114964158D01*
X137563494Y-114778597D01*
X137396402Y-114611506D01*
X137396395Y-114611501D01*
X137202834Y-114475967D01*
X137202830Y-114475965D01*
X137202828Y-114475964D01*
X136988663Y-114376097D01*
X136988659Y-114376096D01*
X136988655Y-114376094D01*
X136760413Y-114314938D01*
X136760403Y-114314936D01*
X136525001Y-114294341D01*
X136524999Y-114294341D01*
X136289596Y-114314936D01*
X136289586Y-114314938D01*
X136061344Y-114376094D01*
X136061335Y-114376098D01*
X135847171Y-114475964D01*
X135847169Y-114475965D01*
X135653597Y-114611505D01*
X135486505Y-114778597D01*
X135356575Y-114964158D01*
X135301998Y-115007783D01*
X135232500Y-115014977D01*
X135170145Y-114983454D01*
X135153425Y-114964158D01*
X135023494Y-114778597D01*
X134856402Y-114611506D01*
X134856395Y-114611501D01*
X134662834Y-114475967D01*
X134662830Y-114475965D01*
X134662828Y-114475964D01*
X134448663Y-114376097D01*
X134448659Y-114376096D01*
X134448655Y-114376094D01*
X134220413Y-114314938D01*
X134220403Y-114314936D01*
X133985001Y-114294341D01*
X133984999Y-114294341D01*
X133749596Y-114314936D01*
X133749586Y-114314938D01*
X133521344Y-114376094D01*
X133521335Y-114376098D01*
X133307171Y-114475964D01*
X133307169Y-114475965D01*
X133113597Y-114611505D01*
X132946505Y-114778597D01*
X132816575Y-114964158D01*
X132761998Y-115007783D01*
X132692500Y-115014977D01*
X132630145Y-114983454D01*
X132613425Y-114964158D01*
X132483494Y-114778597D01*
X132316402Y-114611506D01*
X132316395Y-114611501D01*
X132122834Y-114475967D01*
X132122830Y-114475965D01*
X132122828Y-114475964D01*
X131908663Y-114376097D01*
X131908659Y-114376096D01*
X131908655Y-114376094D01*
X131680413Y-114314938D01*
X131680403Y-114314936D01*
X131445001Y-114294341D01*
X131444999Y-114294341D01*
X131209596Y-114314936D01*
X131209586Y-114314938D01*
X130981344Y-114376094D01*
X130981335Y-114376098D01*
X130767171Y-114475964D01*
X130767169Y-114475965D01*
X130573597Y-114611505D01*
X130406505Y-114778597D01*
X130270965Y-114972169D01*
X130270964Y-114972171D01*
X130171098Y-115186335D01*
X130171094Y-115186344D01*
X130109938Y-115414586D01*
X130109936Y-115414596D01*
X130089341Y-115649999D01*
X130089341Y-115650000D01*
X130109936Y-115885403D01*
X130109938Y-115885413D01*
X130171094Y-116113655D01*
X130171096Y-116113659D01*
X130171097Y-116113663D01*
X130231250Y-116242661D01*
X130270965Y-116327830D01*
X130270967Y-116327834D01*
X130370696Y-116470261D01*
X130406501Y-116521396D01*
X130406506Y-116521402D01*
X130573597Y-116688493D01*
X130573603Y-116688498D01*
X130759594Y-116818730D01*
X130803219Y-116873307D01*
X130810413Y-116942805D01*
X130778890Y-117005160D01*
X130759595Y-117021880D01*
X130573922Y-117151890D01*
X130573920Y-117151891D01*
X130406891Y-117318920D01*
X130406886Y-117318926D01*
X130271400Y-117512420D01*
X130271399Y-117512422D01*
X130171570Y-117726507D01*
X130171567Y-117726513D01*
X130114364Y-117939999D01*
X130114364Y-117940000D01*
X131011988Y-117940000D01*
X130979075Y-117997007D01*
X130945000Y-118124174D01*
X130945000Y-118255826D01*
X130979075Y-118382993D01*
X131011988Y-118440000D01*
X130114364Y-118440000D01*
X130171567Y-118653486D01*
X130171570Y-118653492D01*
X130271399Y-118867578D01*
X130406894Y-119061082D01*
X130573917Y-119228105D01*
X130639354Y-119273925D01*
X130682979Y-119328502D01*
X130690171Y-119398001D01*
X130658649Y-119460355D01*
X130598419Y-119495769D01*
X130568230Y-119499500D01*
X120624500Y-119499500D01*
X120557461Y-119479815D01*
X120511706Y-119427011D01*
X120500500Y-119375500D01*
X120500500Y-116999998D01*
X121119709Y-116999998D01*
X121119709Y-117000001D01*
X121138848Y-117267594D01*
X121138849Y-117267601D01*
X121195872Y-117529734D01*
X121289627Y-117781102D01*
X121289629Y-117781106D01*
X121418195Y-118016556D01*
X121418200Y-118016564D01*
X121578964Y-118231321D01*
X121578980Y-118231339D01*
X121768660Y-118421019D01*
X121768678Y-118421035D01*
X121983435Y-118581799D01*
X121983443Y-118581804D01*
X122218893Y-118710370D01*
X122218897Y-118710372D01*
X122218899Y-118710373D01*
X122470261Y-118804126D01*
X122470264Y-118804126D01*
X122470265Y-118804127D01*
X122562315Y-118824151D01*
X122732407Y-118861152D01*
X122979385Y-118878816D01*
X122999999Y-118880291D01*
X123000000Y-118880291D01*
X123000001Y-118880291D01*
X123019140Y-118878922D01*
X123267593Y-118861152D01*
X123529739Y-118804126D01*
X123781101Y-118710373D01*
X124016562Y-118581801D01*
X124231329Y-118421029D01*
X124421029Y-118231329D01*
X124581801Y-118016562D01*
X124710373Y-117781101D01*
X124804126Y-117529739D01*
X124861152Y-117267593D01*
X124880291Y-117000000D01*
X124861152Y-116732407D01*
X124815250Y-116521396D01*
X124804127Y-116470265D01*
X124759315Y-116350120D01*
X124710373Y-116218899D01*
X124682744Y-116168301D01*
X124581804Y-115983443D01*
X124581799Y-115983435D01*
X124421035Y-115768678D01*
X124421019Y-115768660D01*
X124231339Y-115578980D01*
X124231321Y-115578964D01*
X124016564Y-115418200D01*
X124016556Y-115418195D01*
X123781106Y-115289629D01*
X123781102Y-115289627D01*
X123529734Y-115195872D01*
X123267601Y-115138849D01*
X123267594Y-115138848D01*
X123000001Y-115119709D01*
X122999999Y-115119709D01*
X122732405Y-115138848D01*
X122732398Y-115138849D01*
X122470265Y-115195872D01*
X122218897Y-115289627D01*
X122218893Y-115289629D01*
X121983443Y-115418195D01*
X121983435Y-115418200D01*
X121768678Y-115578964D01*
X121768660Y-115578980D01*
X121578980Y-115768660D01*
X121578964Y-115768678D01*
X121418200Y-115983435D01*
X121418195Y-115983443D01*
X121289629Y-116218893D01*
X121289627Y-116218897D01*
X121195872Y-116470265D01*
X121138849Y-116732398D01*
X121138848Y-116732405D01*
X121119709Y-116999998D01*
X120500500Y-116999998D01*
X120500500Y-109839110D01*
X120520185Y-109772071D01*
X120572989Y-109726316D01*
X120642147Y-109716372D01*
X120705703Y-109745397D01*
X120726075Y-109767987D01*
X120861500Y-109961395D01*
X120861505Y-109961401D01*
X121028599Y-110128495D01*
X121069777Y-110157328D01*
X121222165Y-110264032D01*
X121222167Y-110264033D01*
X121222170Y-110264035D01*
X121436337Y-110363903D01*
X121664592Y-110425063D01*
X121852918Y-110441539D01*
X121899999Y-110445659D01*
X121900000Y-110445659D01*
X121900001Y-110445659D01*
X121939234Y-110442226D01*
X122135408Y-110425063D01*
X122363663Y-110363903D01*
X122577830Y-110264035D01*
X122771401Y-110128495D01*
X122938495Y-109961401D01*
X123074035Y-109767830D01*
X123173903Y-109553663D01*
X123235063Y-109325408D01*
X123255659Y-109090000D01*
X123235063Y-108854592D01*
X123173903Y-108626337D01*
X123074035Y-108412171D01*
X123073925Y-108412013D01*
X122938494Y-108218597D01*
X122771402Y-108051506D01*
X122771396Y-108051501D01*
X122585842Y-107921575D01*
X122542217Y-107866998D01*
X122535023Y-107797500D01*
X122566546Y-107735145D01*
X122585842Y-107718425D01*
X122684504Y-107649341D01*
X122771401Y-107588495D01*
X122938495Y-107421401D01*
X123074035Y-107227830D01*
X123173903Y-107013663D01*
X123235063Y-106785408D01*
X123255659Y-106550000D01*
X123255658Y-106549998D01*
X123255886Y-106547403D01*
X123281339Y-106482335D01*
X123337929Y-106441356D01*
X123407691Y-106437478D01*
X123467095Y-106470530D01*
G37*
%TD.AperFunction*%
%TA.AperFunction,Conductor*%
G36*
X153393134Y-88834514D02*
G01*
X153449067Y-88876386D01*
X153473484Y-88941850D01*
X153473800Y-88950696D01*
X153473800Y-93803830D01*
X153473799Y-93803848D01*
X153473799Y-93969554D01*
X153473798Y-93969554D01*
X153514723Y-94122285D01*
X153543658Y-94172400D01*
X153543659Y-94172404D01*
X153543660Y-94172404D01*
X153583791Y-94241915D01*
X153593779Y-94259214D01*
X153593781Y-94259217D01*
X153712649Y-94378085D01*
X153712655Y-94378090D01*
X157189652Y-97855087D01*
X157223137Y-97916410D01*
X157218153Y-97986102D01*
X157189665Y-98030437D01*
X157186506Y-98033596D01*
X157050965Y-98227169D01*
X157050964Y-98227171D01*
X156951098Y-98441335D01*
X156951094Y-98441344D01*
X156889938Y-98669586D01*
X156889936Y-98669596D01*
X156869341Y-98904999D01*
X156869341Y-98905000D01*
X156889936Y-99140403D01*
X156889938Y-99140413D01*
X156951094Y-99368655D01*
X156951096Y-99368659D01*
X156951097Y-99368663D01*
X157050965Y-99582830D01*
X157050967Y-99582834D01*
X157186501Y-99776395D01*
X157186506Y-99776402D01*
X157353597Y-99943493D01*
X157353603Y-99943498D01*
X157539158Y-100073425D01*
X157582783Y-100128002D01*
X157589977Y-100197500D01*
X157558454Y-100259855D01*
X157539158Y-100276575D01*
X157353597Y-100406505D01*
X157186505Y-100573597D01*
X157050965Y-100767169D01*
X157050964Y-100767171D01*
X156951098Y-100981335D01*
X156951094Y-100981344D01*
X156889938Y-101209586D01*
X156889936Y-101209596D01*
X156869341Y-101444999D01*
X156869341Y-101445000D01*
X156889936Y-101680403D01*
X156889938Y-101680413D01*
X156951094Y-101908655D01*
X156951096Y-101908659D01*
X156951097Y-101908663D01*
X157050965Y-102122830D01*
X157050967Y-102122834D01*
X157145529Y-102257881D01*
X157186501Y-102316396D01*
X157186506Y-102316402D01*
X157353597Y-102483493D01*
X157353603Y-102483498D01*
X157539158Y-102613425D01*
X157582783Y-102668002D01*
X157589977Y-102737500D01*
X157558454Y-102799855D01*
X157539158Y-102816575D01*
X157353597Y-102946505D01*
X157186505Y-103113597D01*
X157050965Y-103307169D01*
X157050964Y-103307171D01*
X156951098Y-103521335D01*
X156951094Y-103521344D01*
X156889938Y-103749586D01*
X156889936Y-103749596D01*
X156869341Y-103984999D01*
X156869341Y-103985000D01*
X156889936Y-104220403D01*
X156889938Y-104220413D01*
X156951094Y-104448655D01*
X156951096Y-104448659D01*
X156951097Y-104448663D01*
X157035742Y-104630185D01*
X157050965Y-104662830D01*
X157050967Y-104662834D01*
X157145529Y-104797881D01*
X157186501Y-104856396D01*
X157186506Y-104856402D01*
X157353597Y-105023493D01*
X157353603Y-105023498D01*
X157539158Y-105153425D01*
X157582783Y-105208002D01*
X157589977Y-105277500D01*
X157558454Y-105339855D01*
X157539158Y-105356575D01*
X157353597Y-105486505D01*
X157186505Y-105653597D01*
X157050965Y-105847169D01*
X157050964Y-105847171D01*
X156951098Y-106061335D01*
X156951094Y-106061344D01*
X156889938Y-106289586D01*
X156889936Y-106289596D01*
X156869341Y-106524999D01*
X156869341Y-106525000D01*
X156889936Y-106760403D01*
X156889938Y-106760413D01*
X156951094Y-106988655D01*
X156951096Y-106988659D01*
X156951097Y-106988663D01*
X156967536Y-107023916D01*
X157050965Y-107202830D01*
X157050967Y-107202834D01*
X157186501Y-107396395D01*
X157186506Y-107396402D01*
X157308430Y-107518326D01*
X157341915Y-107579649D01*
X157336931Y-107649341D01*
X157295059Y-107705274D01*
X157264083Y-107722189D01*
X157132669Y-107771203D01*
X157132664Y-107771206D01*
X157017455Y-107857452D01*
X157017452Y-107857455D01*
X156931206Y-107972664D01*
X156931202Y-107972671D01*
X156880908Y-108107517D01*
X156874501Y-108167116D01*
X156874500Y-108167135D01*
X156874500Y-109962870D01*
X156874501Y-109962876D01*
X156880908Y-110022483D01*
X156931202Y-110157328D01*
X156931206Y-110157335D01*
X157017452Y-110272544D01*
X157017455Y-110272547D01*
X157132664Y-110358793D01*
X157132671Y-110358797D01*
X157267517Y-110409091D01*
X157267516Y-110409091D01*
X157274444Y-110409835D01*
X157327127Y-110415500D01*
X159122872Y-110415499D01*
X159182483Y-110409091D01*
X159207415Y-110399792D01*
X159325641Y-110355697D01*
X159326229Y-110357275D01*
X159384338Y-110344630D01*
X159449804Y-110369043D01*
X159491679Y-110424974D01*
X159499500Y-110468315D01*
X159499500Y-119375500D01*
X159479815Y-119442539D01*
X159427011Y-119488294D01*
X159375500Y-119499500D01*
X150101770Y-119499500D01*
X150034731Y-119479815D01*
X149988976Y-119427011D01*
X149979032Y-119357853D01*
X150008057Y-119294297D01*
X150030646Y-119273925D01*
X150096082Y-119228105D01*
X150263105Y-119061082D01*
X150398600Y-118867578D01*
X150498429Y-118653492D01*
X150498432Y-118653486D01*
X150555636Y-118440000D01*
X149658012Y-118440000D01*
X149690925Y-118382993D01*
X149725000Y-118255826D01*
X149725000Y-118124174D01*
X149690925Y-117997007D01*
X149658012Y-117940000D01*
X150555636Y-117940000D01*
X150555635Y-117939999D01*
X150498432Y-117726513D01*
X150498430Y-117726507D01*
X150413735Y-117544880D01*
X150403243Y-117475803D01*
X150431763Y-117412019D01*
X150490239Y-117373779D01*
X150493961Y-117372717D01*
X150500085Y-117371077D01*
X150550204Y-117342139D01*
X150637016Y-117292020D01*
X150748820Y-117180216D01*
X150857220Y-117071816D01*
X150898684Y-116999998D01*
X155119709Y-116999998D01*
X155119709Y-117000001D01*
X155138848Y-117267594D01*
X155138849Y-117267601D01*
X155195872Y-117529734D01*
X155289627Y-117781102D01*
X155289629Y-117781106D01*
X155418195Y-118016556D01*
X155418200Y-118016564D01*
X155578964Y-118231321D01*
X155578980Y-118231339D01*
X155768660Y-118421019D01*
X155768678Y-118421035D01*
X155983435Y-118581799D01*
X155983443Y-118581804D01*
X156218893Y-118710370D01*
X156218897Y-118710372D01*
X156218899Y-118710373D01*
X156470261Y-118804126D01*
X156470264Y-118804126D01*
X156470265Y-118804127D01*
X156562315Y-118824151D01*
X156732407Y-118861152D01*
X156979385Y-118878816D01*
X156999999Y-118880291D01*
X157000000Y-118880291D01*
X157000001Y-118880291D01*
X157019140Y-118878922D01*
X157267593Y-118861152D01*
X157529739Y-118804126D01*
X157781101Y-118710373D01*
X158016562Y-118581801D01*
X158231329Y-118421029D01*
X158421029Y-118231329D01*
X158581801Y-118016562D01*
X158710373Y-117781101D01*
X158804126Y-117529739D01*
X158861152Y-117267593D01*
X158880291Y-117000000D01*
X158861152Y-116732407D01*
X158815250Y-116521396D01*
X158804127Y-116470265D01*
X158759315Y-116350120D01*
X158710373Y-116218899D01*
X158682744Y-116168301D01*
X158581804Y-115983443D01*
X158581799Y-115983435D01*
X158421035Y-115768678D01*
X158421019Y-115768660D01*
X158231339Y-115578980D01*
X158231321Y-115578964D01*
X158016564Y-115418200D01*
X158016556Y-115418195D01*
X157781106Y-115289629D01*
X157781102Y-115289627D01*
X157529734Y-115195872D01*
X157267601Y-115138849D01*
X157267594Y-115138848D01*
X157000001Y-115119709D01*
X156999999Y-115119709D01*
X156732405Y-115138848D01*
X156732398Y-115138849D01*
X156470265Y-115195872D01*
X156218897Y-115289627D01*
X156218893Y-115289629D01*
X155983443Y-115418195D01*
X155983435Y-115418200D01*
X155768678Y-115578964D01*
X155768660Y-115578980D01*
X155578980Y-115768660D01*
X155578964Y-115768678D01*
X155418200Y-115983435D01*
X155418195Y-115983443D01*
X155289629Y-116218893D01*
X155289627Y-116218897D01*
X155195872Y-116470265D01*
X155138849Y-116732398D01*
X155138848Y-116732405D01*
X155119709Y-116999998D01*
X150898684Y-116999998D01*
X150936277Y-116934884D01*
X150948154Y-116890558D01*
X150977201Y-116782157D01*
X150977201Y-116624042D01*
X150977201Y-116616447D01*
X150977200Y-116616429D01*
X150977200Y-110602645D01*
X150977200Y-110602643D01*
X150936277Y-110449916D01*
X150936277Y-110449915D01*
X150936277Y-110449914D01*
X150907339Y-110399795D01*
X150907337Y-110399792D01*
X150857220Y-110312984D01*
X150745416Y-110201180D01*
X150745415Y-110201179D01*
X150741085Y-110196849D01*
X150741074Y-110196839D01*
X147118219Y-106573984D01*
X147084734Y-106512661D01*
X147081900Y-106486303D01*
X147081900Y-95109224D01*
X147101585Y-95042185D01*
X147154389Y-94996430D01*
X147192010Y-94986005D01*
X147262455Y-94978068D01*
X147432722Y-94918489D01*
X147585462Y-94822516D01*
X147713016Y-94694962D01*
X147808989Y-94542222D01*
X147868568Y-94371955D01*
X147878361Y-94285029D01*
X147905426Y-94220618D01*
X147913890Y-94211243D01*
X153262119Y-88863015D01*
X153323442Y-88829530D01*
X153393134Y-88834514D01*
G37*
%TD.AperFunction*%
%TA.AperFunction,Conductor*%
G36*
X133519075Y-117997007D02*
G01*
X133485000Y-118124174D01*
X133485000Y-118255826D01*
X133519075Y-118382993D01*
X133551988Y-118440000D01*
X131878012Y-118440000D01*
X131910925Y-118382993D01*
X131945000Y-118255826D01*
X131945000Y-118124174D01*
X131910925Y-117997007D01*
X131878012Y-117940000D01*
X133551988Y-117940000D01*
X133519075Y-117997007D01*
G37*
%TD.AperFunction*%
%TA.AperFunction,Conductor*%
G36*
X136059075Y-117997007D02*
G01*
X136025000Y-118124174D01*
X136025000Y-118255826D01*
X136059075Y-118382993D01*
X136091988Y-118440000D01*
X134418012Y-118440000D01*
X134450925Y-118382993D01*
X134485000Y-118255826D01*
X134485000Y-118124174D01*
X134450925Y-117997007D01*
X134418012Y-117940000D01*
X136091988Y-117940000D01*
X136059075Y-117997007D01*
G37*
%TD.AperFunction*%
%TA.AperFunction,Conductor*%
G36*
X138599075Y-117997007D02*
G01*
X138565000Y-118124174D01*
X138565000Y-118255826D01*
X138599075Y-118382993D01*
X138631988Y-118440000D01*
X136958012Y-118440000D01*
X136990925Y-118382993D01*
X137025000Y-118255826D01*
X137025000Y-118124174D01*
X136990925Y-117997007D01*
X136958012Y-117940000D01*
X138631988Y-117940000D01*
X138599075Y-117997007D01*
G37*
%TD.AperFunction*%
%TA.AperFunction,Conductor*%
G36*
X141139075Y-117997007D02*
G01*
X141105000Y-118124174D01*
X141105000Y-118255826D01*
X141139075Y-118382993D01*
X141171988Y-118440000D01*
X139498012Y-118440000D01*
X139530925Y-118382993D01*
X139565000Y-118255826D01*
X139565000Y-118124174D01*
X139530925Y-117997007D01*
X139498012Y-117940000D01*
X141171988Y-117940000D01*
X141139075Y-117997007D01*
G37*
%TD.AperFunction*%
%TA.AperFunction,Conductor*%
G36*
X143679075Y-117997007D02*
G01*
X143645000Y-118124174D01*
X143645000Y-118255826D01*
X143679075Y-118382993D01*
X143711988Y-118440000D01*
X142038012Y-118440000D01*
X142070925Y-118382993D01*
X142105000Y-118255826D01*
X142105000Y-118124174D01*
X142070925Y-117997007D01*
X142038012Y-117940000D01*
X143711988Y-117940000D01*
X143679075Y-117997007D01*
G37*
%TD.AperFunction*%
%TA.AperFunction,Conductor*%
G36*
X146219075Y-117997007D02*
G01*
X146185000Y-118124174D01*
X146185000Y-118255826D01*
X146219075Y-118382993D01*
X146251988Y-118440000D01*
X144578012Y-118440000D01*
X144610925Y-118382993D01*
X144645000Y-118255826D01*
X144645000Y-118124174D01*
X144610925Y-117997007D01*
X144578012Y-117940000D01*
X146251988Y-117940000D01*
X146219075Y-117997007D01*
G37*
%TD.AperFunction*%
%TA.AperFunction,Conductor*%
G36*
X148759075Y-117997007D02*
G01*
X148725000Y-118124174D01*
X148725000Y-118255826D01*
X148759075Y-118382993D01*
X148791988Y-118440000D01*
X147118012Y-118440000D01*
X147150925Y-118382993D01*
X147185000Y-118255826D01*
X147185000Y-118124174D01*
X147150925Y-117997007D01*
X147118012Y-117940000D01*
X148791988Y-117940000D01*
X148759075Y-117997007D01*
G37*
%TD.AperFunction*%
%TA.AperFunction,Conductor*%
G36*
X139567205Y-65925587D02*
G01*
X139611552Y-65954088D01*
X143031311Y-69373847D01*
X143064796Y-69435170D01*
X143059812Y-69504862D01*
X143017940Y-69560795D01*
X143009603Y-69566521D01*
X142876139Y-69650382D01*
X142748584Y-69777937D01*
X142701464Y-69852929D01*
X142649129Y-69899220D01*
X142580075Y-69909868D01*
X142551835Y-69901420D01*
X142551594Y-69902110D01*
X142374762Y-69840233D01*
X142374749Y-69840230D01*
X142195504Y-69820035D01*
X142195496Y-69820035D01*
X142016250Y-69840230D01*
X142016245Y-69840231D01*
X141845976Y-69899811D01*
X141693237Y-69995784D01*
X141565684Y-70123337D01*
X141469711Y-70276076D01*
X141410131Y-70446345D01*
X141410130Y-70446350D01*
X141389935Y-70625596D01*
X141389935Y-70625603D01*
X141410130Y-70804849D01*
X141410131Y-70804854D01*
X141469711Y-70975123D01*
X141565685Y-71127863D01*
X141567945Y-71130697D01*
X141568834Y-71132875D01*
X141569389Y-71133758D01*
X141569234Y-71133855D01*
X141594355Y-71195383D01*
X141595000Y-71208012D01*
X141595000Y-83069930D01*
X141594999Y-83069948D01*
X141594999Y-83235654D01*
X141594998Y-83235654D01*
X141604605Y-83271506D01*
X141635923Y-83388385D01*
X141656121Y-83423368D01*
X141664915Y-83438599D01*
X141714979Y-83525315D01*
X141833849Y-83644185D01*
X141833855Y-83644190D01*
X143247590Y-85057925D01*
X143281075Y-85119248D01*
X143276091Y-85188940D01*
X143234219Y-85244873D01*
X143216182Y-85251600D01*
X143180000Y-85279364D01*
X143180000Y-86176988D01*
X143122993Y-86144075D01*
X142995826Y-86110000D01*
X142864174Y-86110000D01*
X142737007Y-86144075D01*
X142680000Y-86176988D01*
X142680000Y-85279364D01*
X142679999Y-85279364D01*
X142466513Y-85336567D01*
X142466507Y-85336570D01*
X142252422Y-85436399D01*
X142252420Y-85436400D01*
X142058926Y-85571886D01*
X142058920Y-85571891D01*
X141891891Y-85738920D01*
X141891890Y-85738922D01*
X141761880Y-85924595D01*
X141707303Y-85968219D01*
X141637804Y-85975412D01*
X141575450Y-85943890D01*
X141558730Y-85924594D01*
X141428494Y-85738597D01*
X141261402Y-85571506D01*
X141261395Y-85571501D01*
X141067834Y-85435967D01*
X141067830Y-85435965D01*
X140853663Y-85336097D01*
X140853659Y-85336096D01*
X140853655Y-85336094D01*
X140625413Y-85274938D01*
X140625403Y-85274936D01*
X140390001Y-85254341D01*
X140389999Y-85254341D01*
X140154596Y-85274936D01*
X140154586Y-85274938D01*
X139972677Y-85323680D01*
X139902827Y-85322017D01*
X139844965Y-85282854D01*
X139817461Y-85218625D01*
X139817364Y-85217788D01*
X139801169Y-85074050D01*
X139801168Y-85074045D01*
X139741588Y-84903776D01*
X139645615Y-84751037D01*
X139518062Y-84623484D01*
X139365321Y-84527510D01*
X139195049Y-84467930D01*
X139108130Y-84458137D01*
X139043716Y-84431070D01*
X139034333Y-84422598D01*
X138584099Y-83972364D01*
X138550614Y-83911041D01*
X138548560Y-83870799D01*
X138553216Y-83829481D01*
X138567365Y-83703900D01*
X138560637Y-83644190D01*
X138547169Y-83524650D01*
X138547168Y-83524645D01*
X138517059Y-83438599D01*
X138487589Y-83354378D01*
X138391616Y-83201638D01*
X138391614Y-83201636D01*
X138391613Y-83201634D01*
X138389350Y-83198796D01*
X138388459Y-83196615D01*
X138387911Y-83195742D01*
X138388064Y-83195645D01*
X138362944Y-83134109D01*
X138362300Y-83121487D01*
X138362300Y-66796496D01*
X138381985Y-66729457D01*
X138398615Y-66708819D01*
X138878835Y-66228598D01*
X138940156Y-66195115D01*
X138952611Y-66193063D01*
X139039555Y-66183268D01*
X139209822Y-66123689D01*
X139362562Y-66027716D01*
X139436190Y-65954088D01*
X139497513Y-65920603D01*
X139567205Y-65925587D01*
G37*
%TD.AperFunction*%
%TD*%
M02*
