%TF.GenerationSoftware,KiCad,Pcbnew,8.0.2*%
%TF.CreationDate,2024-10-15T08:36:28-06:00*%
%TF.ProjectId,32u4_breakout,33327534-5f62-4726-9561-6b6f75742e6b,rev?*%
%TF.SameCoordinates,Original*%
%TF.FileFunction,Copper,L2,Bot*%
%TF.FilePolarity,Positive*%
%FSLAX46Y46*%
G04 Gerber Fmt 4.6, Leading zero omitted, Abs format (unit mm)*
G04 Created by KiCad (PCBNEW 8.0.2) date 2024-10-15 08:36:28*
%MOMM*%
%LPD*%
G01*
G04 APERTURE LIST*
%TA.AperFunction,ComponentPad*%
%ADD10R,1.700000X1.700000*%
%TD*%
%TA.AperFunction,ComponentPad*%
%ADD11O,1.700000X1.700000*%
%TD*%
%TA.AperFunction,ViaPad*%
%ADD12C,0.600000*%
%TD*%
%TA.AperFunction,Conductor*%
%ADD13C,0.200000*%
%TD*%
G04 APERTURE END LIST*
D10*
%TO.P,J4,1,Pin_1*%
%TO.N,XTAL1*%
X121900000Y-96390000D03*
D11*
%TO.P,J4,2,Pin_2*%
%TO.N,Net-(J4-Pin_2)*%
X121900000Y-98930000D03*
%TO.P,J4,3,Pin_3*%
%TO.N,Net-(J4-Pin_3)*%
X121900000Y-101470000D03*
%TO.P,J4,4,Pin_4*%
%TO.N,Net-(J4-Pin_4)*%
X121900000Y-104010000D03*
%TO.P,J4,5,Pin_5*%
%TO.N,Net-(J4-Pin_5)*%
X121900000Y-106550000D03*
%TO.P,J4,6,Pin_6*%
%TO.N,Net-(J4-Pin_6)*%
X121900000Y-109090000D03*
%TD*%
D10*
%TO.P,J9,1,Pin_1*%
%TO.N,GND5*%
X149225000Y-115650000D03*
D11*
%TO.P,J9,2,Pin_2*%
%TO.N,GND*%
X149225000Y-118190000D03*
%TO.P,J9,3,Pin_3*%
%TO.N,GND15*%
X146685000Y-115650000D03*
%TO.P,J9,4,Pin_4*%
%TO.N,GND*%
X146685000Y-118190000D03*
%TO.P,J9,5,Pin_5*%
%TO.N,GND23*%
X144145000Y-115650000D03*
%TO.P,J9,6,Pin_6*%
%TO.N,GND*%
X144145000Y-118190000D03*
%TO.P,J9,7,Pin_7*%
%TO.N,GND35*%
X141605000Y-115650000D03*
%TO.P,J9,8,Pin_8*%
%TO.N,GND*%
X141605000Y-118190000D03*
%TO.P,J9,9,Pin_9*%
%TO.N,GND43*%
X139065000Y-115650000D03*
%TO.P,J9,10,Pin_10*%
%TO.N,GND*%
X139065000Y-118190000D03*
%TO.P,J9,11,Pin_11*%
%TO.N,Net-(J9-Pin_11)*%
X136525000Y-115650000D03*
%TO.P,J9,12,Pin_12*%
%TO.N,GND*%
X136525000Y-118190000D03*
%TO.P,J9,13,Pin_13*%
%TO.N,Net-(J9-Pin_13)*%
X133985000Y-115650000D03*
%TO.P,J9,14,Pin_14*%
%TO.N,GND*%
X133985000Y-118190000D03*
%TO.P,J9,15,Pin_15*%
%TO.N,unconnected-(J9-Pin_15-Pad15)*%
X131445000Y-115650000D03*
%TO.P,J9,16,Pin_16*%
%TO.N,GND*%
X131445000Y-118190000D03*
%TD*%
D10*
%TO.P,J7,1,Pin_1*%
%TO.N,Net-(J7-Pin_1)*%
X158200000Y-64600000D03*
D11*
%TO.P,J7,2,Pin_2*%
%TO.N,Net-(J7-Pin_2)*%
X158200000Y-62060000D03*
%TO.P,J7,3,Pin_3*%
%TO.N,Net-(J7-Pin_3)*%
X158200000Y-59520000D03*
%TO.P,J7,4,Pin_4*%
%TO.N,AREF*%
X158200000Y-56980000D03*
%TO.P,J7,5,Pin_5*%
%TO.N,GND43*%
X158200000Y-54440000D03*
%TO.P,J7,6,Pin_6*%
%TO.N,PWR44*%
X158200000Y-51900000D03*
%TD*%
D10*
%TO.P,J6,1,Pin_1*%
%TO.N,Net-(J6-Pin_1)*%
X158250000Y-86890000D03*
D11*
%TO.P,J6,2,Pin_2*%
%TO.N,IO13*%
X158250000Y-84350000D03*
%TO.P,J6,3,Pin_3*%
%TO.N,Net-(J6-Pin_3)*%
X158250000Y-81810000D03*
%TO.P,J6,4,Pin_4*%
%TO.N,PWR34*%
X158250000Y-79270000D03*
%TO.P,J6,5,Pin_5*%
%TO.N,GND35*%
X158250000Y-76730000D03*
%TO.P,J6,6,Pin_6*%
%TO.N,Net-(J6-Pin_6)*%
X158250000Y-74190000D03*
%TO.P,J6,7,Pin_7*%
%TO.N,Net-(J6-Pin_7)*%
X158250000Y-71650000D03*
%TO.P,J6,8,Pin_8*%
%TO.N,Net-(J6-Pin_8)*%
X158250000Y-69110000D03*
%TD*%
D10*
%TO.P,J8,1,Pin_1*%
%TO.N,PWR2*%
X131475000Y-44350000D03*
D11*
%TO.P,J8,2,Pin_2*%
%TO.N,5V*%
X131475000Y-41810000D03*
%TO.P,J8,3,Pin_3*%
%TO.N,PWR14*%
X134015000Y-44350000D03*
%TO.P,J8,4,Pin_4*%
%TO.N,5V*%
X134015000Y-41810000D03*
%TO.P,J8,5,Pin_5*%
%TO.N,PWR24*%
X136555000Y-44350000D03*
%TO.P,J8,6,Pin_6*%
%TO.N,5V*%
X136555000Y-41810000D03*
%TO.P,J8,7,Pin_7*%
%TO.N,PWR34*%
X139095000Y-44350000D03*
%TO.P,J8,8,Pin_8*%
%TO.N,5V*%
X139095000Y-41810000D03*
%TO.P,J8,9,Pin_9*%
%TO.N,PWR44*%
X141635000Y-44350000D03*
%TO.P,J8,10,Pin_10*%
%TO.N,5V*%
X141635000Y-41810000D03*
%TO.P,J8,11,Pin_11*%
%TO.N,VBUS*%
X144175000Y-44350000D03*
%TO.P,J8,12,Pin_12*%
%TO.N,5V*%
X144175000Y-41810000D03*
%TO.P,J8,13,Pin_13*%
%TO.N,unconnected-(J8-Pin_13-Pad13)*%
X146715000Y-44350000D03*
%TO.P,J8,14,Pin_14*%
%TO.N,5V*%
X146715000Y-41810000D03*
%TO.P,J8,15,Pin_15*%
%TO.N,unconnected-(J8-Pin_15-Pad15)*%
X149255000Y-44350000D03*
%TO.P,J8,16,Pin_16*%
%TO.N,5V*%
X149255000Y-41810000D03*
%TD*%
D10*
%TO.P,J1,1,Pin_1*%
%TO.N,MISO*%
X137850000Y-89150000D03*
D11*
%TO.P,J1,2,Pin_2*%
%TO.N,5V*%
X137850000Y-86610000D03*
%TO.P,J1,3,Pin_3*%
%TO.N,SCK*%
X140390000Y-89150000D03*
%TO.P,J1,4,Pin_4*%
%TO.N,MOSI*%
X140390000Y-86610000D03*
%TO.P,J1,5,Pin_5*%
%TO.N,RESET*%
X142930000Y-89150000D03*
%TO.P,J1,6,Pin_6*%
%TO.N,GND*%
X142930000Y-86610000D03*
%TD*%
D10*
%TO.P,J2,1,Pin_1*%
%TO.N,Net-(J2-Pin_1)*%
X121800000Y-51875000D03*
D11*
%TO.P,J2,2,Pin_2*%
%TO.N,PWR2*%
X121800000Y-54415000D03*
%TO.P,J2,3,Pin_3*%
%TO.N,Net-(J2-Pin_3)*%
X121800000Y-56955000D03*
%TO.P,J2,4,Pin_4*%
%TO.N,Net-(J2-Pin_4)*%
X121800000Y-59495000D03*
%TO.P,J2,5,Pin_5*%
%TO.N,GND5*%
X121800000Y-62035000D03*
%TO.P,J2,6,Pin_6*%
%TO.N,UCAP*%
X121800000Y-64575000D03*
%TO.P,J2,7,Pin_7*%
%TO.N,VBUS*%
X121800000Y-67115000D03*
%TO.P,J2,8,Pin_8*%
%TO.N,Net-(J2-Pin_8)*%
X121800000Y-69655000D03*
%TD*%
D10*
%TO.P,J5,1,Pin_1*%
%TO.N,GND23*%
X158225000Y-109065000D03*
D11*
%TO.P,J5,2,Pin_2*%
%TO.N,PWR24*%
X158225000Y-106525000D03*
%TO.P,J5,3,Pin_3*%
%TO.N,Net-(J5-Pin_3)*%
X158225000Y-103985000D03*
%TO.P,J5,4,Pin_4*%
%TO.N,Net-(J5-Pin_4)*%
X158225000Y-101445000D03*
%TO.P,J5,5,Pin_5*%
%TO.N,Net-(J5-Pin_5)*%
X158225000Y-98905000D03*
%TO.P,J5,6,Pin_6*%
%TO.N,Net-(J5-Pin_6)*%
X158225000Y-96365000D03*
%TO.P,J5,7,Pin_7*%
%TO.N,Net-(J5-Pin_7)*%
X158225000Y-93825000D03*
%TO.P,J5,8,Pin_8*%
%TO.N,Net-(J5-Pin_8)*%
X158225000Y-91285000D03*
%TD*%
D10*
%TO.P,J3,1,Pin_1*%
%TO.N,SCK*%
X121875000Y-74150000D03*
D11*
%TO.P,J3,2,Pin_2*%
%TO.N,MOSI*%
X121875000Y-76690000D03*
%TO.P,J3,3,Pin_3*%
%TO.N,MISO*%
X121875000Y-79230000D03*
%TO.P,J3,4,Pin_4*%
%TO.N,Net-(J3-Pin_4)*%
X121875000Y-81770000D03*
%TO.P,J3,5,Pin_5*%
%TO.N,RESET*%
X121875000Y-84310000D03*
%TO.P,J3,6,Pin_6*%
%TO.N,PWR14*%
X121875000Y-86850000D03*
%TO.P,J3,7,Pin_7*%
%TO.N,GND15*%
X121875000Y-89390000D03*
%TO.P,J3,8,Pin_8*%
%TO.N,XTAL2*%
X121875000Y-91930000D03*
%TD*%
D12*
%TO.N,Net-(J7-Pin_1)*%
X140678400Y-57378200D03*
%TO.N,Net-(J7-Pin_3)*%
X138911700Y-56836200D03*
%TO.N,GND43*%
X137508700Y-54322100D03*
%TO.N,Net-(J7-Pin_2)*%
X139794000Y-56982400D03*
%TO.N,IO13*%
X145608100Y-93416400D03*
%TO.N,Net-(J6-Pin_6)*%
X143106000Y-59721600D03*
%TO.N,Net-(J6-Pin_8)*%
X141480200Y-57779900D03*
%TO.N,PWR34*%
X144375000Y-53478700D03*
%TO.N,Net-(J6-Pin_7)*%
X142282000Y-58181600D03*
%TO.N,GND35*%
X143774100Y-62300700D03*
%TO.N,Net-(J4-Pin_4)*%
X139151400Y-91757800D03*
%TO.N,Net-(J4-Pin_3)*%
X135761200Y-91281500D03*
%TO.N,Net-(J4-Pin_6)*%
X144347800Y-68582600D03*
%TO.N,Net-(J4-Pin_5)*%
X141735600Y-91338300D03*
%TO.N,Net-(J4-Pin_2)*%
X135159500Y-90630400D03*
%TO.N,Net-(J3-Pin_4)*%
X135068300Y-69277500D03*
%TO.N,PWR14*%
X136739800Y-58596500D03*
X132108700Y-81514400D03*
%TO.N,GND15*%
X132074000Y-85228600D03*
%TO.N,Net-(J2-Pin_3)*%
X133411300Y-58717500D03*
%TO.N,Net-(J2-Pin_1)*%
X132745000Y-56298900D03*
%TO.N,Net-(J2-Pin_4)*%
X133396700Y-59652900D03*
%TO.N,GND5*%
X133422700Y-60631100D03*
X144642100Y-85895800D03*
%TO.N,5V*%
X139681200Y-71713500D03*
%TO.N,RESET*%
X131712600Y-84212600D03*
%TO.N,UCAP*%
X132984600Y-61353000D03*
%TO.N,AREF*%
X137975000Y-56849000D03*
%TO.N,XTAL1*%
X145276400Y-89114700D03*
%TD*%
D13*
%TO.N,PWR44*%
X141635000Y-44350000D02*
X142786700Y-44350000D01*
X142786700Y-44637900D02*
X142786700Y-44350000D01*
X150048800Y-51900000D02*
X142786700Y-44637900D01*
X158200000Y-51900000D02*
X150048800Y-51900000D01*
%TO.N,Net-(J7-Pin_1)*%
X158200000Y-64600000D02*
X157048300Y-64600000D01*
X149626400Y-57178100D02*
X157048300Y-64600000D01*
X140878500Y-57178100D02*
X149626400Y-57178100D01*
X140678400Y-57378200D02*
X140878500Y-57178100D01*
%TO.N,Net-(J7-Pin_3)*%
X158200000Y-59520000D02*
X157048300Y-59520000D01*
X153901500Y-56373200D02*
X157048300Y-59520000D01*
X139374700Y-56373200D02*
X153901500Y-56373200D01*
X138911700Y-56836200D02*
X139374700Y-56373200D01*
%TO.N,GND43*%
X158200000Y-54440000D02*
X157048300Y-54440000D01*
X139065000Y-115650000D02*
X139065000Y-114498300D01*
X156930400Y-54322100D02*
X137508700Y-54322100D01*
X157048300Y-54440000D02*
X156930400Y-54322100D01*
X137347400Y-54483400D02*
X137508700Y-54322100D01*
X137347400Y-59948400D02*
X137347400Y-54483400D01*
X146308800Y-68909800D02*
X137347400Y-59948400D01*
X146308800Y-90602100D02*
X146308800Y-68909800D01*
X139065000Y-97845900D02*
X146308800Y-90602100D01*
X139065000Y-114498300D02*
X139065000Y-97845900D01*
%TO.N,Net-(J7-Pin_2)*%
X158200000Y-62060000D02*
X157048300Y-62060000D01*
X151764700Y-56776400D02*
X157048300Y-62060000D01*
X140000000Y-56776400D02*
X151764700Y-56776400D01*
X139794000Y-56982400D02*
X140000000Y-56776400D01*
%TO.N,IO13*%
X158250000Y-84350000D02*
X157098300Y-84350000D01*
X154674500Y-84350000D02*
X157098300Y-84350000D01*
X145608100Y-93416400D02*
X154674500Y-84350000D01*
%TO.N,Net-(J6-Pin_6)*%
X157098300Y-73713900D02*
X143106000Y-59721600D01*
X157098300Y-74190000D02*
X157098300Y-73713900D01*
X158250000Y-74190000D02*
X157098300Y-74190000D01*
%TO.N,Net-(J6-Pin_8)*%
X158250000Y-69110000D02*
X157098300Y-69110000D01*
X145568100Y-57579800D02*
X157098300Y-69110000D01*
X141680300Y-57579800D02*
X145568100Y-57579800D01*
X141480200Y-57779900D02*
X141680300Y-57579800D01*
%TO.N,PWR34*%
X139095000Y-48198700D02*
X144375000Y-53478700D01*
X139095000Y-44350000D02*
X139095000Y-48198700D01*
X144589800Y-53263900D02*
X144375000Y-53478700D01*
X158704700Y-53263900D02*
X144589800Y-53263900D01*
X159425400Y-53984600D02*
X158704700Y-53263900D01*
X159425400Y-77230800D02*
X159425400Y-53984600D01*
X158537900Y-78118300D02*
X159425400Y-77230800D01*
X158250000Y-78118300D02*
X158537900Y-78118300D01*
X158250000Y-79270000D02*
X158250000Y-78118300D01*
%TO.N,Net-(J6-Pin_7)*%
X158250000Y-71650000D02*
X157098300Y-71650000D01*
X143629900Y-58181600D02*
X142282000Y-58181600D01*
X157098300Y-71650000D02*
X143629900Y-58181600D01*
%TO.N,GND35*%
X158250000Y-76730000D02*
X157098300Y-76730000D01*
X141605000Y-115650000D02*
X141605000Y-114498300D01*
X155028100Y-73554700D02*
X143774100Y-62300700D01*
X155028100Y-76730000D02*
X155028100Y-73554700D01*
X157098300Y-76730000D02*
X155028100Y-76730000D01*
X155028100Y-82577500D02*
X155028100Y-76730000D01*
X141605000Y-96000600D02*
X155028100Y-82577500D01*
X141605000Y-114498300D02*
X141605000Y-96000600D01*
%TO.N,GND23*%
X145296700Y-115381500D02*
X145296700Y-115650000D01*
X151613200Y-109065000D02*
X145296700Y-115381500D01*
X158225000Y-109065000D02*
X151613200Y-109065000D01*
X144145000Y-115650000D02*
X145296700Y-115650000D01*
%TO.N,Net-(J4-Pin_4)*%
X121900000Y-104010000D02*
X123051700Y-104010000D01*
X126899200Y-104010000D02*
X139151400Y-91757800D01*
X123051700Y-104010000D02*
X126899200Y-104010000D01*
%TO.N,Net-(J4-Pin_3)*%
X121900000Y-101470000D02*
X123051700Y-101470000D01*
X125572700Y-101470000D02*
X135761200Y-91281500D01*
X123051700Y-101470000D02*
X125572700Y-101470000D01*
%TO.N,Net-(J4-Pin_6)*%
X145901800Y-70136600D02*
X144347800Y-68582600D01*
X145901800Y-89340200D02*
X145901800Y-70136600D01*
X126152000Y-109090000D02*
X145901800Y-89340200D01*
X121900000Y-109090000D02*
X126152000Y-109090000D01*
%TO.N,Net-(J4-Pin_5)*%
X121900000Y-106550000D02*
X123051700Y-106550000D01*
X126523900Y-106550000D02*
X141735600Y-91338300D01*
X123051700Y-106550000D02*
X126523900Y-106550000D01*
%TO.N,Net-(J4-Pin_2)*%
X121900000Y-98930000D02*
X123051700Y-98930000D01*
X131351300Y-90630400D02*
X135159500Y-90630400D01*
X123051700Y-98930000D02*
X131351300Y-90630400D01*
%TO.N,Net-(J3-Pin_4)*%
X121875000Y-81770000D02*
X121875000Y-80618300D01*
X124614300Y-69277500D02*
X135068300Y-69277500D01*
X120723300Y-73168500D02*
X124614300Y-69277500D01*
X120723300Y-79754600D02*
X120723300Y-73168500D01*
X121587000Y-80618300D02*
X120723300Y-79754600D01*
X121875000Y-80618300D02*
X121587000Y-80618300D01*
%TO.N,PWR14*%
X134015000Y-44350000D02*
X134015000Y-45501700D01*
X136739800Y-48226500D02*
X136739800Y-58596500D01*
X134015000Y-45501700D02*
X136739800Y-48226500D01*
X121875000Y-86850000D02*
X121875000Y-85698300D01*
X130654700Y-82968400D02*
X132108700Y-81514400D01*
X121532200Y-82968400D02*
X130654700Y-82968400D01*
X120718100Y-83782500D02*
X121532200Y-82968400D01*
X120718100Y-84829300D02*
X120718100Y-83782500D01*
X121587100Y-85698300D02*
X120718100Y-84829300D01*
X121875000Y-85698300D02*
X121587100Y-85698300D01*
%TO.N,GND15*%
X127912600Y-89390000D02*
X132074000Y-85228600D01*
X121875000Y-89390000D02*
X127912600Y-89390000D01*
%TO.N,PWR2*%
X130323300Y-45501700D02*
X130323300Y-44350000D01*
X122561700Y-53263300D02*
X130323300Y-45501700D01*
X121800000Y-53263300D02*
X122561700Y-53263300D01*
X121800000Y-54415000D02*
X121800000Y-53263300D01*
X131475000Y-44350000D02*
X130323300Y-44350000D01*
%TO.N,Net-(J2-Pin_3)*%
X131648800Y-56955000D02*
X133411300Y-58717500D01*
X121800000Y-56955000D02*
X131648800Y-56955000D01*
%TO.N,Net-(J2-Pin_1)*%
X132026700Y-55580600D02*
X132745000Y-56298900D01*
X121284900Y-55580600D02*
X132026700Y-55580600D01*
X120645400Y-54941100D02*
X121284900Y-55580600D01*
X120645400Y-53029600D02*
X120645400Y-54941100D01*
X121800000Y-51875000D02*
X120645400Y-53029600D01*
%TO.N,Net-(J2-Pin_4)*%
X133238800Y-59495000D02*
X133396700Y-59652900D01*
X121800000Y-59495000D02*
X133238800Y-59495000D01*
%TO.N,GND5*%
X121800000Y-62035000D02*
X122951700Y-62035000D01*
X124355600Y-60631100D02*
X133422700Y-60631100D01*
X122951700Y-62035000D02*
X124355600Y-60631100D01*
X137745600Y-78999300D02*
X144642100Y-85895800D01*
X137745600Y-64954000D02*
X137745600Y-78999300D01*
X133422700Y-60631100D02*
X137745600Y-64954000D01*
%TO.N,SCK*%
X141557500Y-90317500D02*
X140390000Y-89150000D01*
X143448400Y-90317500D02*
X141557500Y-90317500D01*
X144092800Y-89673100D02*
X143448400Y-90317500D01*
X144092800Y-88664000D02*
X144092800Y-89673100D01*
X143409000Y-87980200D02*
X144092800Y-88664000D01*
X142636300Y-87980200D02*
X143409000Y-87980200D01*
X141660000Y-87003900D02*
X142636300Y-87980200D01*
X141660000Y-86243800D02*
X141660000Y-87003900D01*
X129566200Y-74150000D02*
X141660000Y-86243800D01*
X121875000Y-74150000D02*
X129566200Y-74150000D01*
%TO.N,MISO*%
X137850000Y-89150000D02*
X137850000Y-87998300D01*
X121875000Y-79230000D02*
X123026700Y-79230000D01*
X137565800Y-87998300D02*
X137850000Y-87998300D01*
X133324500Y-83757000D02*
X137565800Y-87998300D01*
X133324500Y-81879100D02*
X133324500Y-83757000D01*
X130675400Y-79230000D02*
X133324500Y-81879100D01*
X123026700Y-79230000D02*
X130675400Y-79230000D01*
%TO.N,5V*%
X149255000Y-41810000D02*
X146715000Y-41810000D01*
X146715000Y-41810000D02*
X144175000Y-41810000D01*
X144175000Y-41810000D02*
X141635000Y-41810000D01*
X141635000Y-41810000D02*
X139095000Y-41810000D01*
X136555000Y-41810000D02*
X134015000Y-41810000D01*
X134015000Y-41810000D02*
X132853700Y-41810000D01*
X132853700Y-41810000D02*
X131475000Y-41810000D01*
X132853700Y-45088700D02*
X132853700Y-41810000D01*
X133614800Y-45849800D02*
X132853700Y-45088700D01*
X133614800Y-58047500D02*
X133614800Y-45849800D01*
X139681200Y-64113900D02*
X133614800Y-58047500D01*
X139681200Y-71713500D02*
X139681200Y-64113900D01*
%TO.N,MOSI*%
X139238300Y-86341500D02*
X139238300Y-86610000D01*
X129586800Y-76690000D02*
X139238300Y-86341500D01*
X121875000Y-76690000D02*
X129586800Y-76690000D01*
X140390000Y-86610000D02*
X139238300Y-86610000D01*
%TO.N,RESET*%
X142930000Y-89150000D02*
X141778300Y-89150000D01*
X121875000Y-84310000D02*
X123026700Y-84310000D01*
X131918100Y-84212600D02*
X131712600Y-84212600D01*
X132677200Y-84971700D02*
X131918100Y-84212600D01*
X132677200Y-86103900D02*
X132677200Y-84971700D01*
X136875000Y-90301700D02*
X132677200Y-86103900D01*
X138860700Y-90301700D02*
X136875000Y-90301700D01*
X139120000Y-90042400D02*
X138860700Y-90301700D01*
X139120000Y-88770600D02*
X139120000Y-90042400D01*
X139910600Y-87980000D02*
X139120000Y-88770600D01*
X140876800Y-87980000D02*
X139910600Y-87980000D01*
X141778300Y-88881500D02*
X140876800Y-87980000D01*
X141778300Y-89150000D02*
X141778300Y-88881500D01*
X123124100Y-84212600D02*
X123026700Y-84310000D01*
X131712600Y-84212600D02*
X123124100Y-84212600D01*
%TO.N,UCAP*%
X121800000Y-64575000D02*
X122951700Y-64575000D01*
X126173700Y-61353000D02*
X132984600Y-61353000D01*
X122951700Y-64575000D02*
X126173700Y-61353000D01*
%TO.N,AREF*%
X158200000Y-56980000D02*
X157048300Y-56980000D01*
X138860000Y-55964000D02*
X137975000Y-56849000D01*
X156032300Y-55964000D02*
X138860000Y-55964000D01*
X157048300Y-56980000D02*
X156032300Y-55964000D01*
%TO.N,XTAL1*%
X121900000Y-96390000D02*
X123051700Y-96390000D01*
X143654500Y-90736600D02*
X145276400Y-89114700D01*
X136610600Y-90736600D02*
X143654500Y-90736600D01*
X135855800Y-89981800D02*
X136610600Y-90736600D01*
X129459900Y-89981800D02*
X135855800Y-89981800D01*
X123051700Y-96390000D02*
X129459900Y-89981800D01*
%TO.N,GND*%
X141605000Y-118190000D02*
X144145000Y-118190000D01*
X144145000Y-118190000D02*
X146685000Y-118190000D01*
X136525000Y-118190000D02*
X139065000Y-118190000D01*
X136525000Y-118190000D02*
X133985000Y-118190000D01*
X133985000Y-118190000D02*
X131445000Y-118190000D01*
%TD*%
%TA.AperFunction,Conductor*%
%TO.N,GND*%
G36*
X138383833Y-97809915D02*
G01*
X138439766Y-97851787D01*
X138464183Y-97917251D01*
X138464499Y-97926097D01*
X138464499Y-97934946D01*
X138464500Y-97934959D01*
X138464500Y-114360908D01*
X138444815Y-114427947D01*
X138392914Y-114473286D01*
X138387173Y-114475963D01*
X138387169Y-114475965D01*
X138193597Y-114611505D01*
X138026505Y-114778597D01*
X137896575Y-114964158D01*
X137841998Y-115007783D01*
X137772500Y-115014977D01*
X137710145Y-114983454D01*
X137693425Y-114964158D01*
X137563494Y-114778597D01*
X137396402Y-114611506D01*
X137396395Y-114611501D01*
X137202834Y-114475967D01*
X137202830Y-114475965D01*
X137150982Y-114451788D01*
X136988663Y-114376097D01*
X136988659Y-114376096D01*
X136988655Y-114376094D01*
X136760413Y-114314938D01*
X136760403Y-114314936D01*
X136525001Y-114294341D01*
X136524999Y-114294341D01*
X136289596Y-114314936D01*
X136289586Y-114314938D01*
X136061344Y-114376094D01*
X136061335Y-114376098D01*
X135847171Y-114475964D01*
X135847169Y-114475965D01*
X135653597Y-114611505D01*
X135486505Y-114778597D01*
X135356575Y-114964158D01*
X135301998Y-115007783D01*
X135232500Y-115014977D01*
X135170145Y-114983454D01*
X135153425Y-114964158D01*
X135023494Y-114778597D01*
X134856402Y-114611506D01*
X134856395Y-114611501D01*
X134662834Y-114475967D01*
X134662830Y-114475965D01*
X134610982Y-114451788D01*
X134448663Y-114376097D01*
X134448659Y-114376096D01*
X134448655Y-114376094D01*
X134220413Y-114314938D01*
X134220403Y-114314936D01*
X133985001Y-114294341D01*
X133984999Y-114294341D01*
X133749596Y-114314936D01*
X133749586Y-114314938D01*
X133521344Y-114376094D01*
X133521335Y-114376098D01*
X133307171Y-114475964D01*
X133307169Y-114475965D01*
X133113597Y-114611505D01*
X132946505Y-114778597D01*
X132816575Y-114964158D01*
X132761998Y-115007783D01*
X132692500Y-115014977D01*
X132630145Y-114983454D01*
X132613425Y-114964158D01*
X132483494Y-114778597D01*
X132316402Y-114611506D01*
X132316395Y-114611501D01*
X132122834Y-114475967D01*
X132122830Y-114475965D01*
X132070982Y-114451788D01*
X131908663Y-114376097D01*
X131908659Y-114376096D01*
X131908655Y-114376094D01*
X131680413Y-114314938D01*
X131680403Y-114314936D01*
X131445001Y-114294341D01*
X131444999Y-114294341D01*
X131209596Y-114314936D01*
X131209586Y-114314938D01*
X130981344Y-114376094D01*
X130981335Y-114376098D01*
X130767171Y-114475964D01*
X130767169Y-114475965D01*
X130573597Y-114611505D01*
X130406505Y-114778597D01*
X130270965Y-114972169D01*
X130270964Y-114972171D01*
X130171098Y-115186335D01*
X130171094Y-115186344D01*
X130109938Y-115414586D01*
X130109936Y-115414596D01*
X130089341Y-115649999D01*
X130089341Y-115650000D01*
X130109936Y-115885403D01*
X130109938Y-115885413D01*
X130171094Y-116113655D01*
X130171096Y-116113659D01*
X130171097Y-116113663D01*
X130251004Y-116285023D01*
X130270965Y-116327830D01*
X130270967Y-116327834D01*
X130370696Y-116470261D01*
X130406501Y-116521396D01*
X130406506Y-116521402D01*
X130573597Y-116688493D01*
X130573603Y-116688498D01*
X130759594Y-116818730D01*
X130803219Y-116873307D01*
X130810413Y-116942805D01*
X130778890Y-117005160D01*
X130759595Y-117021880D01*
X130573922Y-117151890D01*
X130573920Y-117151891D01*
X130406891Y-117318920D01*
X130406886Y-117318926D01*
X130271400Y-117512420D01*
X130271399Y-117512422D01*
X130171570Y-117726507D01*
X130171567Y-117726513D01*
X130114364Y-117939999D01*
X130114364Y-117940000D01*
X131011988Y-117940000D01*
X130979075Y-117997007D01*
X130945000Y-118124174D01*
X130945000Y-118255826D01*
X130979075Y-118382993D01*
X131011988Y-118440000D01*
X130114364Y-118440000D01*
X130171567Y-118653486D01*
X130171570Y-118653492D01*
X130271399Y-118867578D01*
X130406894Y-119061082D01*
X130573917Y-119228105D01*
X130639354Y-119273925D01*
X130682979Y-119328502D01*
X130690171Y-119398001D01*
X130658649Y-119460355D01*
X130598419Y-119495769D01*
X130568230Y-119499500D01*
X120624500Y-119499500D01*
X120557461Y-119479815D01*
X120511706Y-119427011D01*
X120500500Y-119375500D01*
X120500500Y-116999998D01*
X121119709Y-116999998D01*
X121119709Y-117000001D01*
X121138848Y-117267594D01*
X121138849Y-117267601D01*
X121195872Y-117529734D01*
X121289627Y-117781102D01*
X121289629Y-117781106D01*
X121418195Y-118016556D01*
X121418200Y-118016564D01*
X121578964Y-118231321D01*
X121578980Y-118231339D01*
X121768660Y-118421019D01*
X121768678Y-118421035D01*
X121983435Y-118581799D01*
X121983443Y-118581804D01*
X122218893Y-118710370D01*
X122218897Y-118710372D01*
X122218899Y-118710373D01*
X122470261Y-118804126D01*
X122470264Y-118804126D01*
X122470265Y-118804127D01*
X122562315Y-118824151D01*
X122732407Y-118861152D01*
X122979385Y-118878816D01*
X122999999Y-118880291D01*
X123000000Y-118880291D01*
X123000001Y-118880291D01*
X123019140Y-118878922D01*
X123267593Y-118861152D01*
X123529739Y-118804126D01*
X123781101Y-118710373D01*
X124016562Y-118581801D01*
X124231329Y-118421029D01*
X124421029Y-118231329D01*
X124581801Y-118016562D01*
X124710373Y-117781101D01*
X124804126Y-117529739D01*
X124861152Y-117267593D01*
X124880291Y-117000000D01*
X124879790Y-116993002D01*
X124874848Y-116923903D01*
X124861152Y-116732407D01*
X124815250Y-116521396D01*
X124804127Y-116470265D01*
X124759315Y-116350120D01*
X124710373Y-116218899D01*
X124682744Y-116168301D01*
X124581804Y-115983443D01*
X124581799Y-115983435D01*
X124421035Y-115768678D01*
X124421019Y-115768660D01*
X124231339Y-115578980D01*
X124231321Y-115578964D01*
X124016564Y-115418200D01*
X124016556Y-115418195D01*
X123781106Y-115289629D01*
X123781102Y-115289627D01*
X123529734Y-115195872D01*
X123267601Y-115138849D01*
X123267594Y-115138848D01*
X123000001Y-115119709D01*
X122999999Y-115119709D01*
X122732405Y-115138848D01*
X122732398Y-115138849D01*
X122470265Y-115195872D01*
X122218897Y-115289627D01*
X122218893Y-115289629D01*
X121983443Y-115418195D01*
X121983435Y-115418200D01*
X121768678Y-115578964D01*
X121768660Y-115578980D01*
X121578980Y-115768660D01*
X121578964Y-115768678D01*
X121418200Y-115983435D01*
X121418195Y-115983443D01*
X121289629Y-116218893D01*
X121289627Y-116218897D01*
X121195872Y-116470265D01*
X121138849Y-116732398D01*
X121138848Y-116732405D01*
X121119709Y-116999998D01*
X120500500Y-116999998D01*
X120500500Y-109839110D01*
X120520185Y-109772071D01*
X120572989Y-109726316D01*
X120642147Y-109716372D01*
X120705703Y-109745397D01*
X120726075Y-109767987D01*
X120861500Y-109961395D01*
X120861505Y-109961401D01*
X121028599Y-110128495D01*
X121069777Y-110157328D01*
X121222165Y-110264032D01*
X121222167Y-110264033D01*
X121222170Y-110264035D01*
X121436337Y-110363903D01*
X121664592Y-110425063D01*
X121852918Y-110441539D01*
X121899999Y-110445659D01*
X121900000Y-110445659D01*
X121900001Y-110445659D01*
X121939234Y-110442226D01*
X122135408Y-110425063D01*
X122363663Y-110363903D01*
X122577830Y-110264035D01*
X122771401Y-110128495D01*
X122938495Y-109961401D01*
X123074035Y-109767830D01*
X123076707Y-109762097D01*
X123122878Y-109709658D01*
X123189091Y-109690500D01*
X126065331Y-109690500D01*
X126065347Y-109690501D01*
X126072943Y-109690501D01*
X126231054Y-109690501D01*
X126231057Y-109690501D01*
X126383785Y-109649577D01*
X126433904Y-109620639D01*
X126520716Y-109570520D01*
X126632520Y-109458716D01*
X126632520Y-109458714D01*
X126642728Y-109448507D01*
X126642730Y-109448504D01*
X138252818Y-97838416D01*
X138314141Y-97804931D01*
X138383833Y-97809915D01*
G37*
%TD.AperFunction*%
%TA.AperFunction,Conductor*%
G36*
X156817540Y-109685185D02*
G01*
X156863295Y-109737989D01*
X156874501Y-109789500D01*
X156874501Y-109962876D01*
X156880908Y-110022483D01*
X156931202Y-110157328D01*
X156931206Y-110157335D01*
X157017452Y-110272544D01*
X157017455Y-110272547D01*
X157132664Y-110358793D01*
X157132671Y-110358797D01*
X157267517Y-110409091D01*
X157267516Y-110409091D01*
X157274444Y-110409835D01*
X157327127Y-110415500D01*
X159122872Y-110415499D01*
X159182483Y-110409091D01*
X159325641Y-110355697D01*
X159326229Y-110357275D01*
X159384338Y-110344630D01*
X159449804Y-110369043D01*
X159491679Y-110424974D01*
X159499500Y-110468315D01*
X159499500Y-119375500D01*
X159479815Y-119442539D01*
X159427011Y-119488294D01*
X159375500Y-119499500D01*
X150101770Y-119499500D01*
X150034731Y-119479815D01*
X149988976Y-119427011D01*
X149979032Y-119357853D01*
X150008057Y-119294297D01*
X150030646Y-119273925D01*
X150096082Y-119228105D01*
X150263105Y-119061082D01*
X150398600Y-118867578D01*
X150498429Y-118653492D01*
X150498432Y-118653486D01*
X150555636Y-118440000D01*
X149658012Y-118440000D01*
X149690925Y-118382993D01*
X149725000Y-118255826D01*
X149725000Y-118124174D01*
X149690925Y-117997007D01*
X149658012Y-117940000D01*
X150555636Y-117940000D01*
X150555635Y-117939999D01*
X150498432Y-117726513D01*
X150498429Y-117726507D01*
X150398600Y-117512422D01*
X150398599Y-117512420D01*
X150263113Y-117318926D01*
X150263108Y-117318920D01*
X150141053Y-117196865D01*
X150107568Y-117135542D01*
X150112552Y-117065850D01*
X150154424Y-117009917D01*
X150172588Y-116999998D01*
X155119709Y-116999998D01*
X155119709Y-117000001D01*
X155138848Y-117267594D01*
X155138849Y-117267601D01*
X155195872Y-117529734D01*
X155289627Y-117781102D01*
X155289629Y-117781106D01*
X155418195Y-118016556D01*
X155418200Y-118016564D01*
X155578964Y-118231321D01*
X155578980Y-118231339D01*
X155768660Y-118421019D01*
X155768678Y-118421035D01*
X155983435Y-118581799D01*
X155983443Y-118581804D01*
X156218893Y-118710370D01*
X156218897Y-118710372D01*
X156218899Y-118710373D01*
X156470261Y-118804126D01*
X156470264Y-118804126D01*
X156470265Y-118804127D01*
X156562315Y-118824151D01*
X156732407Y-118861152D01*
X156979385Y-118878816D01*
X156999999Y-118880291D01*
X157000000Y-118880291D01*
X157000001Y-118880291D01*
X157019140Y-118878922D01*
X157267593Y-118861152D01*
X157529739Y-118804126D01*
X157781101Y-118710373D01*
X158016562Y-118581801D01*
X158231329Y-118421029D01*
X158421029Y-118231329D01*
X158581801Y-118016562D01*
X158710373Y-117781101D01*
X158804126Y-117529739D01*
X158861152Y-117267593D01*
X158880291Y-117000000D01*
X158879790Y-116993002D01*
X158874848Y-116923903D01*
X158861152Y-116732407D01*
X158815250Y-116521396D01*
X158804127Y-116470265D01*
X158759315Y-116350120D01*
X158710373Y-116218899D01*
X158682744Y-116168301D01*
X158581804Y-115983443D01*
X158581799Y-115983435D01*
X158421035Y-115768678D01*
X158421019Y-115768660D01*
X158231339Y-115578980D01*
X158231321Y-115578964D01*
X158016564Y-115418200D01*
X158016556Y-115418195D01*
X157781106Y-115289629D01*
X157781102Y-115289627D01*
X157529734Y-115195872D01*
X157267601Y-115138849D01*
X157267594Y-115138848D01*
X157000001Y-115119709D01*
X156999999Y-115119709D01*
X156732405Y-115138848D01*
X156732398Y-115138849D01*
X156470265Y-115195872D01*
X156218897Y-115289627D01*
X156218893Y-115289629D01*
X155983443Y-115418195D01*
X155983435Y-115418200D01*
X155768678Y-115578964D01*
X155768660Y-115578980D01*
X155578980Y-115768660D01*
X155578964Y-115768678D01*
X155418200Y-115983435D01*
X155418195Y-115983443D01*
X155289629Y-116218893D01*
X155289627Y-116218897D01*
X155195872Y-116470265D01*
X155138849Y-116732398D01*
X155138848Y-116732405D01*
X155119709Y-116999998D01*
X150172588Y-116999998D01*
X150185400Y-116993002D01*
X150317331Y-116943796D01*
X150432546Y-116857546D01*
X150518796Y-116742331D01*
X150569091Y-116607483D01*
X150575500Y-116547873D01*
X150575499Y-114752128D01*
X150569091Y-114692517D01*
X150567810Y-114689083D01*
X150518797Y-114557671D01*
X150518793Y-114557664D01*
X150432547Y-114442455D01*
X150432544Y-114442452D01*
X150317335Y-114356206D01*
X150317328Y-114356202D01*
X150182482Y-114305908D01*
X150182483Y-114305908D01*
X150122883Y-114299501D01*
X150122881Y-114299500D01*
X150122873Y-114299500D01*
X150122864Y-114299500D01*
X148327129Y-114299500D01*
X148327123Y-114299501D01*
X148267516Y-114305908D01*
X148132671Y-114356202D01*
X148132664Y-114356206D01*
X148017455Y-114442452D01*
X148017452Y-114442455D01*
X147931206Y-114557664D01*
X147931203Y-114557669D01*
X147882189Y-114689083D01*
X147840317Y-114745016D01*
X147774853Y-114769433D01*
X147706580Y-114754581D01*
X147678326Y-114733430D01*
X147556402Y-114611506D01*
X147556395Y-114611501D01*
X147362832Y-114475966D01*
X147362823Y-114475962D01*
X147310983Y-114451788D01*
X147258544Y-114405615D01*
X147239393Y-114338421D01*
X147259609Y-114271540D01*
X147275703Y-114251730D01*
X151825616Y-109701819D01*
X151886939Y-109668334D01*
X151913297Y-109665500D01*
X156750501Y-109665500D01*
X156817540Y-109685185D01*
G37*
%TD.AperFunction*%
%TA.AperFunction,Conductor*%
G36*
X133519075Y-117997007D02*
G01*
X133485000Y-118124174D01*
X133485000Y-118255826D01*
X133519075Y-118382993D01*
X133551988Y-118440000D01*
X131878012Y-118440000D01*
X131910925Y-118382993D01*
X131945000Y-118255826D01*
X131945000Y-118124174D01*
X131910925Y-117997007D01*
X131878012Y-117940000D01*
X133551988Y-117940000D01*
X133519075Y-117997007D01*
G37*
%TD.AperFunction*%
%TA.AperFunction,Conductor*%
G36*
X136059075Y-117997007D02*
G01*
X136025000Y-118124174D01*
X136025000Y-118255826D01*
X136059075Y-118382993D01*
X136091988Y-118440000D01*
X134418012Y-118440000D01*
X134450925Y-118382993D01*
X134485000Y-118255826D01*
X134485000Y-118124174D01*
X134450925Y-117997007D01*
X134418012Y-117940000D01*
X136091988Y-117940000D01*
X136059075Y-117997007D01*
G37*
%TD.AperFunction*%
%TA.AperFunction,Conductor*%
G36*
X138599075Y-117997007D02*
G01*
X138565000Y-118124174D01*
X138565000Y-118255826D01*
X138599075Y-118382993D01*
X138631988Y-118440000D01*
X136958012Y-118440000D01*
X136990925Y-118382993D01*
X137025000Y-118255826D01*
X137025000Y-118124174D01*
X136990925Y-117997007D01*
X136958012Y-117940000D01*
X138631988Y-117940000D01*
X138599075Y-117997007D01*
G37*
%TD.AperFunction*%
%TA.AperFunction,Conductor*%
G36*
X141139075Y-117997007D02*
G01*
X141105000Y-118124174D01*
X141105000Y-118255826D01*
X141139075Y-118382993D01*
X141171988Y-118440000D01*
X139498012Y-118440000D01*
X139530925Y-118382993D01*
X139565000Y-118255826D01*
X139565000Y-118124174D01*
X139530925Y-117997007D01*
X139498012Y-117940000D01*
X141171988Y-117940000D01*
X141139075Y-117997007D01*
G37*
%TD.AperFunction*%
%TA.AperFunction,Conductor*%
G36*
X143679075Y-117997007D02*
G01*
X143645000Y-118124174D01*
X143645000Y-118255826D01*
X143679075Y-118382993D01*
X143711988Y-118440000D01*
X142038012Y-118440000D01*
X142070925Y-118382993D01*
X142105000Y-118255826D01*
X142105000Y-118124174D01*
X142070925Y-117997007D01*
X142038012Y-117940000D01*
X143711988Y-117940000D01*
X143679075Y-117997007D01*
G37*
%TD.AperFunction*%
%TA.AperFunction,Conductor*%
G36*
X146219075Y-117997007D02*
G01*
X146185000Y-118124174D01*
X146185000Y-118255826D01*
X146219075Y-118382993D01*
X146251988Y-118440000D01*
X144578012Y-118440000D01*
X144610925Y-118382993D01*
X144645000Y-118255826D01*
X144645000Y-118124174D01*
X144610925Y-117997007D01*
X144578012Y-117940000D01*
X146251988Y-117940000D01*
X146219075Y-117997007D01*
G37*
%TD.AperFunction*%
%TA.AperFunction,Conductor*%
G36*
X148759075Y-117997007D02*
G01*
X148725000Y-118124174D01*
X148725000Y-118255826D01*
X148759075Y-118382993D01*
X148791988Y-118440000D01*
X147118012Y-118440000D01*
X147150925Y-118382993D01*
X147185000Y-118255826D01*
X147185000Y-118124174D01*
X147150925Y-117997007D01*
X147118012Y-117940000D01*
X148791988Y-117940000D01*
X148759075Y-117997007D01*
G37*
%TD.AperFunction*%
%TA.AperFunction,Conductor*%
G36*
X133749354Y-61822836D02*
G01*
X133793702Y-61851337D01*
X137108781Y-65166416D01*
X137142266Y-65227739D01*
X137145100Y-65254097D01*
X137145100Y-78912630D01*
X137145099Y-78912648D01*
X137145099Y-79078354D01*
X137145098Y-79078354D01*
X137145099Y-79078357D01*
X137186023Y-79231085D01*
X137208490Y-79269999D01*
X137208492Y-79270001D01*
X137265079Y-79368014D01*
X137265081Y-79368017D01*
X137383949Y-79486885D01*
X137383955Y-79486890D01*
X143143681Y-85246616D01*
X143177166Y-85307939D01*
X143180000Y-85334297D01*
X143180000Y-86176988D01*
X143122993Y-86144075D01*
X142995826Y-86110000D01*
X142864174Y-86110000D01*
X142737007Y-86144075D01*
X142680000Y-86176988D01*
X142680000Y-85279364D01*
X142679999Y-85279364D01*
X142466513Y-85336567D01*
X142466507Y-85336570D01*
X142252422Y-85436399D01*
X142252420Y-85436400D01*
X142058919Y-85571891D01*
X142035800Y-85595009D01*
X141974476Y-85628492D01*
X141904784Y-85623505D01*
X141860441Y-85595006D01*
X130053790Y-73788355D01*
X130053788Y-73788352D01*
X129934917Y-73669481D01*
X129934916Y-73669480D01*
X129848104Y-73619360D01*
X129848104Y-73619359D01*
X129848100Y-73619358D01*
X129797985Y-73590423D01*
X129645257Y-73549499D01*
X129487143Y-73549499D01*
X129479547Y-73549499D01*
X129479531Y-73549500D01*
X123349499Y-73549500D01*
X123282460Y-73529815D01*
X123236705Y-73477011D01*
X123225499Y-73425500D01*
X123225499Y-73252129D01*
X123225498Y-73252123D01*
X123224767Y-73245325D01*
X123219091Y-73192517D01*
X123216654Y-73185984D01*
X123168797Y-73057671D01*
X123168793Y-73057664D01*
X123082547Y-72942455D01*
X123082544Y-72942452D01*
X122967335Y-72856206D01*
X122967328Y-72856202D01*
X122832482Y-72805908D01*
X122832483Y-72805908D01*
X122772883Y-72799501D01*
X122772881Y-72799500D01*
X122772873Y-72799500D01*
X122772865Y-72799500D01*
X122240896Y-72799500D01*
X122173857Y-72779815D01*
X122128102Y-72727011D01*
X122118158Y-72657853D01*
X122147183Y-72594297D01*
X122153215Y-72587819D01*
X124826716Y-69914319D01*
X124888039Y-69880834D01*
X124914397Y-69878000D01*
X134485888Y-69878000D01*
X134552927Y-69897685D01*
X134563203Y-69905055D01*
X134566036Y-69907314D01*
X134566038Y-69907316D01*
X134718778Y-70003289D01*
X134889045Y-70062868D01*
X134889050Y-70062869D01*
X135068296Y-70083065D01*
X135068300Y-70083065D01*
X135068304Y-70083065D01*
X135247549Y-70062869D01*
X135247552Y-70062868D01*
X135247555Y-70062868D01*
X135417822Y-70003289D01*
X135570562Y-69907316D01*
X135698116Y-69779762D01*
X135794089Y-69627022D01*
X135853668Y-69456755D01*
X135857855Y-69419597D01*
X135873865Y-69277503D01*
X135873865Y-69277496D01*
X135853669Y-69098250D01*
X135853668Y-69098245D01*
X135811302Y-68977171D01*
X135794089Y-68927978D01*
X135762574Y-68877823D01*
X135709441Y-68793262D01*
X135698116Y-68775238D01*
X135570562Y-68647684D01*
X135520935Y-68616501D01*
X135417823Y-68551711D01*
X135247554Y-68492131D01*
X135247549Y-68492130D01*
X135068304Y-68471935D01*
X135068296Y-68471935D01*
X134889050Y-68492130D01*
X134889045Y-68492131D01*
X134718776Y-68551711D01*
X134566036Y-68647685D01*
X134563203Y-68649945D01*
X134561024Y-68650834D01*
X134560142Y-68651389D01*
X134560044Y-68651234D01*
X134498517Y-68676355D01*
X134485888Y-68677000D01*
X124700969Y-68677000D01*
X124700953Y-68676999D01*
X124693357Y-68676999D01*
X124535243Y-68676999D01*
X124427887Y-68705765D01*
X124382510Y-68717924D01*
X124382509Y-68717925D01*
X124347366Y-68738216D01*
X124347364Y-68738217D01*
X124245590Y-68796975D01*
X124245582Y-68796981D01*
X124133778Y-68908786D01*
X123362348Y-69680215D01*
X123301025Y-69713700D01*
X123231333Y-69708716D01*
X123175400Y-69666844D01*
X123151139Y-69603341D01*
X123135063Y-69419592D01*
X123073903Y-69191337D01*
X122974035Y-68977171D01*
X122942493Y-68932123D01*
X122838494Y-68783597D01*
X122671402Y-68616506D01*
X122671396Y-68616501D01*
X122485842Y-68486575D01*
X122442217Y-68431998D01*
X122435023Y-68362500D01*
X122466546Y-68300145D01*
X122485842Y-68283425D01*
X122530596Y-68252088D01*
X122671401Y-68153495D01*
X122838495Y-67986401D01*
X122974035Y-67792830D01*
X123073903Y-67578663D01*
X123135063Y-67350408D01*
X123155659Y-67115000D01*
X123135063Y-66879592D01*
X123073903Y-66651337D01*
X122974035Y-66437171D01*
X122838495Y-66243599D01*
X122838494Y-66243597D01*
X122671402Y-66076506D01*
X122671396Y-66076501D01*
X122485842Y-65946575D01*
X122442217Y-65891998D01*
X122435023Y-65822500D01*
X122466546Y-65760145D01*
X122485842Y-65743425D01*
X122558806Y-65692335D01*
X122671401Y-65613495D01*
X122838495Y-65446401D01*
X122974035Y-65252830D01*
X122982707Y-65234233D01*
X123028879Y-65181793D01*
X123062990Y-65166863D01*
X123183485Y-65134577D01*
X123233604Y-65105639D01*
X123320416Y-65055520D01*
X123432220Y-64943716D01*
X123432220Y-64943714D01*
X123442428Y-64933507D01*
X123442429Y-64933504D01*
X126386116Y-61989819D01*
X126447439Y-61956334D01*
X126473797Y-61953500D01*
X132402188Y-61953500D01*
X132469227Y-61973185D01*
X132479503Y-61980555D01*
X132482336Y-61982814D01*
X132482338Y-61982816D01*
X132635078Y-62078789D01*
X132756982Y-62121445D01*
X132805345Y-62138368D01*
X132805350Y-62138369D01*
X132984596Y-62158565D01*
X132984600Y-62158565D01*
X132984604Y-62158565D01*
X133163849Y-62138369D01*
X133163852Y-62138368D01*
X133163855Y-62138368D01*
X133334122Y-62078789D01*
X133486862Y-61982816D01*
X133614416Y-61855262D01*
X133614419Y-61855256D01*
X133618339Y-61851337D01*
X133679662Y-61817852D01*
X133749354Y-61822836D01*
G37*
%TD.AperFunction*%
%TD*%
M02*
