%TF.GenerationSoftware,KiCad,Pcbnew,8.0.2*%
%TF.CreationDate,2024-07-23T13:49:49-06:00*%
%TF.ProjectId,32u4_breakout,33327534-5f62-4726-9561-6b6f75742e6b,rev?*%
%TF.SameCoordinates,Original*%
%TF.FileFunction,Copper,L1,Top*%
%TF.FilePolarity,Positive*%
%FSLAX46Y46*%
G04 Gerber Fmt 4.6, Leading zero omitted, Abs format (unit mm)*
G04 Created by KiCad (PCBNEW 8.0.2) date 2024-07-23 13:49:49*
%MOMM*%
%LPD*%
G01*
G04 APERTURE LIST*
G04 Aperture macros list*
%AMRoundRect*
0 Rectangle with rounded corners*
0 $1 Rounding radius*
0 $2 $3 $4 $5 $6 $7 $8 $9 X,Y pos of 4 corners*
0 Add a 4 corners polygon primitive as box body*
4,1,4,$2,$3,$4,$5,$6,$7,$8,$9,$2,$3,0*
0 Add four circle primitives for the rounded corners*
1,1,$1+$1,$2,$3*
1,1,$1+$1,$4,$5*
1,1,$1+$1,$6,$7*
1,1,$1+$1,$8,$9*
0 Add four rect primitives between the rounded corners*
20,1,$1+$1,$2,$3,$4,$5,0*
20,1,$1+$1,$4,$5,$6,$7,0*
20,1,$1+$1,$6,$7,$8,$9,0*
20,1,$1+$1,$8,$9,$2,$3,0*%
G04 Aperture macros list end*
%TA.AperFunction,SMDPad,CuDef*%
%ADD10RoundRect,0.250000X-0.312500X-0.625000X0.312500X-0.625000X0.312500X0.625000X-0.312500X0.625000X0*%
%TD*%
%TA.AperFunction,SMDPad,CuDef*%
%ADD11RoundRect,0.250000X-0.375000X-0.625000X0.375000X-0.625000X0.375000X0.625000X-0.375000X0.625000X0*%
%TD*%
%TA.AperFunction,SMDPad,CuDef*%
%ADD12R,4.500000X2.000000*%
%TD*%
%TA.AperFunction,ComponentPad*%
%ADD13R,1.700000X1.700000*%
%TD*%
%TA.AperFunction,ComponentPad*%
%ADD14O,1.700000X1.700000*%
%TD*%
%TA.AperFunction,SMDPad,CuDef*%
%ADD15RoundRect,0.250000X-0.650000X0.325000X-0.650000X-0.325000X0.650000X-0.325000X0.650000X0.325000X0*%
%TD*%
%TA.AperFunction,SMDPad,CuDef*%
%ADD16R,1.500000X0.550000*%
%TD*%
%TA.AperFunction,SMDPad,CuDef*%
%ADD17R,0.550000X1.500000*%
%TD*%
%TA.AperFunction,SMDPad,CuDef*%
%ADD18RoundRect,0.250000X0.325000X0.650000X-0.325000X0.650000X-0.325000X-0.650000X0.325000X-0.650000X0*%
%TD*%
%TA.AperFunction,SMDPad,CuDef*%
%ADD19RoundRect,0.250000X-0.325000X-0.650000X0.325000X-0.650000X0.325000X0.650000X-0.325000X0.650000X0*%
%TD*%
%TA.AperFunction,SMDPad,CuDef*%
%ADD20RoundRect,0.250000X0.650000X-0.325000X0.650000X0.325000X-0.650000X0.325000X-0.650000X-0.325000X0*%
%TD*%
%TA.AperFunction,ViaPad*%
%ADD21C,0.600000*%
%TD*%
%TA.AperFunction,Conductor*%
%ADD22C,0.200000*%
%TD*%
G04 APERTURE END LIST*
D10*
%TO.P,R2,1*%
%TO.N,Net-(D2-K)*%
X142450000Y-98450000D03*
%TO.P,R2,2*%
%TO.N,GND*%
X145375000Y-98450000D03*
%TD*%
D11*
%TO.P,D2,1,K*%
%TO.N,Net-(D2-K)*%
X142525000Y-94850000D03*
%TO.P,D2,2,A*%
%TO.N,IO13*%
X145325000Y-94850000D03*
%TD*%
D12*
%TO.P,Y1,1,1*%
%TO.N,XTAL1*%
X144625000Y-73950000D03*
%TO.P,Y1,2,2*%
%TO.N,XTAL2*%
X136125000Y-73950000D03*
%TD*%
D13*
%TO.P,J4,1,Pin_1*%
%TO.N,XTAL1*%
X121900000Y-96390000D03*
D14*
%TO.P,J4,2,Pin_2*%
%TO.N,Net-(J4-Pin_2)*%
X121900000Y-98930000D03*
%TO.P,J4,3,Pin_3*%
%TO.N,Net-(J4-Pin_3)*%
X121900000Y-101470000D03*
%TO.P,J4,4,Pin_4*%
%TO.N,Net-(J4-Pin_4)*%
X121900000Y-104010000D03*
%TO.P,J4,5,Pin_5*%
%TO.N,Net-(J4-Pin_5)*%
X121900000Y-106550000D03*
%TO.P,J4,6,Pin_6*%
%TO.N,Net-(J4-Pin_6)*%
X121900000Y-109090000D03*
%TD*%
D10*
%TO.P,R1,1*%
%TO.N,Net-(D1-K)*%
X136037500Y-98475000D03*
%TO.P,R1,2*%
%TO.N,GND*%
X138962500Y-98475000D03*
%TD*%
D15*
%TO.P,C3,1*%
%TO.N,AREF*%
X136525000Y-103675000D03*
%TO.P,C3,2*%
%TO.N,Net-(J9-Pin_11)*%
X136525000Y-106625000D03*
%TD*%
D13*
%TO.P,J9,1,Pin_1*%
%TO.N,GND5*%
X149225000Y-115650000D03*
D14*
%TO.P,J9,2,Pin_2*%
%TO.N,GND*%
X149225000Y-118190000D03*
%TO.P,J9,3,Pin_3*%
%TO.N,GND15*%
X146685000Y-115650000D03*
%TO.P,J9,4,Pin_4*%
%TO.N,GND*%
X146685000Y-118190000D03*
%TO.P,J9,5,Pin_5*%
%TO.N,GND23*%
X144145000Y-115650000D03*
%TO.P,J9,6,Pin_6*%
%TO.N,GND*%
X144145000Y-118190000D03*
%TO.P,J9,7,Pin_7*%
%TO.N,GND35*%
X141605000Y-115650000D03*
%TO.P,J9,8,Pin_8*%
%TO.N,GND*%
X141605000Y-118190000D03*
%TO.P,J9,9,Pin_9*%
%TO.N,GND43*%
X139065000Y-115650000D03*
%TO.P,J9,10,Pin_10*%
%TO.N,GND*%
X139065000Y-118190000D03*
%TO.P,J9,11,Pin_11*%
%TO.N,Net-(J9-Pin_11)*%
X136525000Y-115650000D03*
%TO.P,J9,12,Pin_12*%
%TO.N,GND*%
X136525000Y-118190000D03*
%TO.P,J9,13,Pin_13*%
%TO.N,Net-(J9-Pin_13)*%
X133985000Y-115650000D03*
%TO.P,J9,14,Pin_14*%
%TO.N,GND*%
X133985000Y-118190000D03*
%TO.P,J9,15,Pin_15*%
%TO.N,unconnected-(J9-Pin_15-Pad15)*%
X131445000Y-115650000D03*
%TO.P,J9,16,Pin_16*%
%TO.N,GND*%
X131445000Y-118190000D03*
%TD*%
D11*
%TO.P,D1,1,K*%
%TO.N,Net-(D1-K)*%
X136100000Y-94875000D03*
%TO.P,D1,2,A*%
%TO.N,5V*%
X138900000Y-94875000D03*
%TD*%
D13*
%TO.P,J7,1,Pin_1*%
%TO.N,Net-(J7-Pin_1)*%
X158200000Y-64600000D03*
D14*
%TO.P,J7,2,Pin_2*%
%TO.N,Net-(J7-Pin_2)*%
X158200000Y-62060000D03*
%TO.P,J7,3,Pin_3*%
%TO.N,Net-(J7-Pin_3)*%
X158200000Y-59520000D03*
%TO.P,J7,4,Pin_4*%
%TO.N,AREF*%
X158200000Y-56980000D03*
%TO.P,J7,5,Pin_5*%
%TO.N,GND43*%
X158200000Y-54440000D03*
%TO.P,J7,6,Pin_6*%
%TO.N,PWR44*%
X158200000Y-51900000D03*
%TD*%
D16*
%TO.P,U1,1,PE6*%
%TO.N,Net-(J2-Pin_1)*%
X134675000Y-57275000D03*
%TO.P,U1,2,UVCC*%
%TO.N,PWR2*%
X134675000Y-58075000D03*
%TO.P,U1,3,D-*%
%TO.N,Net-(J2-Pin_3)*%
X134675000Y-58875000D03*
%TO.P,U1,4,D+*%
%TO.N,Net-(J2-Pin_4)*%
X134675000Y-59675000D03*
%TO.P,U1,5,UGND*%
%TO.N,GND5*%
X134675000Y-60475000D03*
%TO.P,U1,6,UCAP*%
%TO.N,UCAP*%
X134675000Y-61275000D03*
%TO.P,U1,7,VBUS*%
%TO.N,VBUS*%
X134675000Y-62075000D03*
%TO.P,U1,8,PB0*%
%TO.N,Net-(J2-Pin_8)*%
X134675000Y-62875000D03*
%TO.P,U1,9,PB1*%
%TO.N,SCK*%
X134675000Y-63675000D03*
%TO.P,U1,10,PB2*%
%TO.N,MOSI*%
X134675000Y-64475000D03*
%TO.P,U1,11,PB3*%
%TO.N,MISO*%
X134675000Y-65275000D03*
D17*
%TO.P,U1,12,PB7*%
%TO.N,Net-(J3-Pin_4)*%
X136375000Y-66975000D03*
%TO.P,U1,13,~{RESET}*%
%TO.N,RESET*%
X137175000Y-66975000D03*
%TO.P,U1,14,VCC*%
%TO.N,PWR14*%
X137975000Y-66975000D03*
%TO.P,U1,15,GND*%
%TO.N,GND15*%
X138775000Y-66975000D03*
%TO.P,U1,16,XTAL2*%
%TO.N,XTAL2*%
X139575000Y-66975000D03*
%TO.P,U1,17,XTAL1*%
%TO.N,XTAL1*%
X140375000Y-66975000D03*
%TO.P,U1,18,PD0*%
%TO.N,Net-(J4-Pin_2)*%
X141175000Y-66975000D03*
%TO.P,U1,19,PD1*%
%TO.N,Net-(J4-Pin_3)*%
X141975000Y-66975000D03*
%TO.P,U1,20,PD2*%
%TO.N,Net-(J4-Pin_4)*%
X142775000Y-66975000D03*
%TO.P,U1,21,PD3*%
%TO.N,Net-(J4-Pin_5)*%
X143575000Y-66975000D03*
%TO.P,U1,22,PD5*%
%TO.N,Net-(J4-Pin_6)*%
X144375000Y-66975000D03*
D16*
%TO.P,U1,23,GND*%
%TO.N,GND23*%
X146075000Y-65275000D03*
%TO.P,U1,24,AVCC*%
%TO.N,PWR24*%
X146075000Y-64475000D03*
%TO.P,U1,25,PD4*%
%TO.N,Net-(J5-Pin_3)*%
X146075000Y-63675000D03*
%TO.P,U1,26,PD6*%
%TO.N,Net-(J5-Pin_4)*%
X146075000Y-62875000D03*
%TO.P,U1,27,PD7*%
%TO.N,Net-(J5-Pin_5)*%
X146075000Y-62075000D03*
%TO.P,U1,28,PB4*%
%TO.N,Net-(J5-Pin_6)*%
X146075000Y-61275000D03*
%TO.P,U1,29,PB5*%
%TO.N,Net-(J5-Pin_7)*%
X146075000Y-60475000D03*
%TO.P,U1,30,PB6*%
%TO.N,Net-(J5-Pin_8)*%
X146075000Y-59675000D03*
%TO.P,U1,31,PC6*%
%TO.N,Net-(J6-Pin_1)*%
X146075000Y-58875000D03*
%TO.P,U1,32,PC7*%
%TO.N,IO13*%
X146075000Y-58075000D03*
%TO.P,U1,33,~{HWB}/PE2*%
%TO.N,Net-(J6-Pin_3)*%
X146075000Y-57275000D03*
D17*
%TO.P,U1,34,VCC*%
%TO.N,PWR34*%
X144375000Y-55575000D03*
%TO.P,U1,35,GND*%
%TO.N,GND35*%
X143575000Y-55575000D03*
%TO.P,U1,36,PF7*%
%TO.N,Net-(J6-Pin_6)*%
X142775000Y-55575000D03*
%TO.P,U1,37,PF6*%
%TO.N,Net-(J6-Pin_7)*%
X141975000Y-55575000D03*
%TO.P,U1,38,PF5*%
%TO.N,Net-(J6-Pin_8)*%
X141175000Y-55575000D03*
%TO.P,U1,39,PF4*%
%TO.N,Net-(J7-Pin_1)*%
X140375000Y-55575000D03*
%TO.P,U1,40,PF1*%
%TO.N,Net-(J7-Pin_2)*%
X139575000Y-55575000D03*
%TO.P,U1,41,PF0*%
%TO.N,Net-(J7-Pin_3)*%
X138775000Y-55575000D03*
%TO.P,U1,42,AREF*%
%TO.N,AREF*%
X137975000Y-55575000D03*
%TO.P,U1,43,GND*%
%TO.N,GND43*%
X137175000Y-55575000D03*
%TO.P,U1,44,AVCC*%
%TO.N,PWR44*%
X136375000Y-55575000D03*
%TD*%
D13*
%TO.P,J6,1,Pin_1*%
%TO.N,Net-(J6-Pin_1)*%
X158250000Y-86890000D03*
D14*
%TO.P,J6,2,Pin_2*%
%TO.N,IO13*%
X158250000Y-84350000D03*
%TO.P,J6,3,Pin_3*%
%TO.N,Net-(J6-Pin_3)*%
X158250000Y-81810000D03*
%TO.P,J6,4,Pin_4*%
%TO.N,PWR34*%
X158250000Y-79270000D03*
%TO.P,J6,5,Pin_5*%
%TO.N,GND35*%
X158250000Y-76730000D03*
%TO.P,J6,6,Pin_6*%
%TO.N,Net-(J6-Pin_6)*%
X158250000Y-74190000D03*
%TO.P,J6,7,Pin_7*%
%TO.N,Net-(J6-Pin_7)*%
X158250000Y-71650000D03*
%TO.P,J6,8,Pin_8*%
%TO.N,Net-(J6-Pin_8)*%
X158250000Y-69110000D03*
%TD*%
D18*
%TO.P,C1,1*%
%TO.N,XTAL1*%
X146525000Y-80050000D03*
%TO.P,C1,2*%
%TO.N,GND*%
X143575000Y-80050000D03*
%TD*%
D13*
%TO.P,J8,1,Pin_1*%
%TO.N,PWR2*%
X131475000Y-44350000D03*
D14*
%TO.P,J8,2,Pin_2*%
%TO.N,5V*%
X131475000Y-41810000D03*
%TO.P,J8,3,Pin_3*%
%TO.N,PWR14*%
X134015000Y-44350000D03*
%TO.P,J8,4,Pin_4*%
%TO.N,5V*%
X134015000Y-41810000D03*
%TO.P,J8,5,Pin_5*%
%TO.N,PWR24*%
X136555000Y-44350000D03*
%TO.P,J8,6,Pin_6*%
%TO.N,5V*%
X136555000Y-41810000D03*
%TO.P,J8,7,Pin_7*%
%TO.N,PWR34*%
X139095000Y-44350000D03*
%TO.P,J8,8,Pin_8*%
%TO.N,5V*%
X139095000Y-41810000D03*
%TO.P,J8,9,Pin_9*%
%TO.N,PWR44*%
X141635000Y-44350000D03*
%TO.P,J8,10,Pin_10*%
%TO.N,5V*%
X141635000Y-41810000D03*
%TO.P,J8,11,Pin_11*%
%TO.N,VBUS*%
X144175000Y-44350000D03*
%TO.P,J8,12,Pin_12*%
%TO.N,5V*%
X144175000Y-41810000D03*
%TO.P,J8,13,Pin_13*%
%TO.N,unconnected-(J8-Pin_13-Pad13)*%
X146715000Y-44350000D03*
%TO.P,J8,14,Pin_14*%
%TO.N,5V*%
X146715000Y-41810000D03*
%TO.P,J8,15,Pin_15*%
%TO.N,unconnected-(J8-Pin_15-Pad15)*%
X149255000Y-44350000D03*
%TO.P,J8,16,Pin_16*%
%TO.N,5V*%
X149255000Y-41810000D03*
%TD*%
%TO.P,J1,6,Pin_6*%
%TO.N,GND*%
X142930000Y-86610000D03*
%TO.P,J1,5,Pin_5*%
%TO.N,RESET*%
X142930000Y-89150000D03*
%TO.P,J1,4,Pin_4*%
%TO.N,MOSI*%
X140390000Y-86610000D03*
%TO.P,J1,3,Pin_3*%
%TO.N,SCK*%
X140390000Y-89150000D03*
%TO.P,J1,2,Pin_2*%
%TO.N,5V*%
X137850000Y-86610000D03*
D13*
%TO.P,J1,1,Pin_1*%
%TO.N,MISO*%
X137850000Y-89150000D03*
%TD*%
%TO.P,J2,1,Pin_1*%
%TO.N,Net-(J2-Pin_1)*%
X121800000Y-51875000D03*
D14*
%TO.P,J2,2,Pin_2*%
%TO.N,PWR2*%
X121800000Y-54415000D03*
%TO.P,J2,3,Pin_3*%
%TO.N,Net-(J2-Pin_3)*%
X121800000Y-56955000D03*
%TO.P,J2,4,Pin_4*%
%TO.N,Net-(J2-Pin_4)*%
X121800000Y-59495000D03*
%TO.P,J2,5,Pin_5*%
%TO.N,GND5*%
X121800000Y-62035000D03*
%TO.P,J2,6,Pin_6*%
%TO.N,UCAP*%
X121800000Y-64575000D03*
%TO.P,J2,7,Pin_7*%
%TO.N,VBUS*%
X121800000Y-67115000D03*
%TO.P,J2,8,Pin_8*%
%TO.N,Net-(J2-Pin_8)*%
X121800000Y-69655000D03*
%TD*%
D19*
%TO.P,C2,1*%
%TO.N,XTAL2*%
X134425000Y-79950000D03*
%TO.P,C2,2*%
%TO.N,GND*%
X137375000Y-79950000D03*
%TD*%
D13*
%TO.P,J5,1,Pin_1*%
%TO.N,GND23*%
X158225000Y-109065000D03*
D14*
%TO.P,J5,2,Pin_2*%
%TO.N,PWR24*%
X158225000Y-106525000D03*
%TO.P,J5,3,Pin_3*%
%TO.N,Net-(J5-Pin_3)*%
X158225000Y-103985000D03*
%TO.P,J5,4,Pin_4*%
%TO.N,Net-(J5-Pin_4)*%
X158225000Y-101445000D03*
%TO.P,J5,5,Pin_5*%
%TO.N,Net-(J5-Pin_5)*%
X158225000Y-98905000D03*
%TO.P,J5,6,Pin_6*%
%TO.N,Net-(J5-Pin_6)*%
X158225000Y-96365000D03*
%TO.P,J5,7,Pin_7*%
%TO.N,Net-(J5-Pin_7)*%
X158225000Y-93825000D03*
%TO.P,J5,8,Pin_8*%
%TO.N,Net-(J5-Pin_8)*%
X158225000Y-91285000D03*
%TD*%
D20*
%TO.P,C4,1*%
%TO.N,Net-(J9-Pin_13)*%
X132900000Y-106625000D03*
%TO.P,C4,2*%
%TO.N,UCAP*%
X132900000Y-103675000D03*
%TD*%
D13*
%TO.P,J3,1,Pin_1*%
%TO.N,SCK*%
X121875000Y-74150000D03*
D14*
%TO.P,J3,2,Pin_2*%
%TO.N,MOSI*%
X121875000Y-76690000D03*
%TO.P,J3,3,Pin_3*%
%TO.N,MISO*%
X121875000Y-79230000D03*
%TO.P,J3,4,Pin_4*%
%TO.N,Net-(J3-Pin_4)*%
X121875000Y-81770000D03*
%TO.P,J3,5,Pin_5*%
%TO.N,RESET*%
X121875000Y-84310000D03*
%TO.P,J3,6,Pin_6*%
%TO.N,PWR14*%
X121875000Y-86850000D03*
%TO.P,J3,7,Pin_7*%
%TO.N,GND15*%
X121875000Y-89390000D03*
%TO.P,J3,8,Pin_8*%
%TO.N,XTAL2*%
X121875000Y-91930000D03*
%TD*%
D21*
%TO.N,GND43*%
X138422600Y-63915900D03*
X143984800Y-76795800D03*
%TO.N,Net-(J7-Pin_2)*%
X140581900Y-56989800D03*
%TO.N,IO13*%
X147083200Y-94192700D03*
%TO.N,Net-(J6-Pin_6)*%
X143482200Y-57273500D03*
%TO.N,Net-(J6-Pin_8)*%
X141864800Y-57296000D03*
%TO.N,PWR34*%
X145207400Y-54861200D03*
%TO.N,Net-(J6-Pin_7)*%
X143512300Y-58808400D03*
%TO.N,GND35*%
X144172000Y-59931400D03*
%TO.N,PWR24*%
X144562500Y-64382300D03*
%TO.N,Net-(J5-Pin_4)*%
X147941100Y-63689400D03*
%TO.N,Net-(J5-Pin_7)*%
X151831100Y-84110600D03*
X143778900Y-65190800D03*
%TO.N,Net-(J5-Pin_5)*%
X154074300Y-88142800D03*
%TO.N,Net-(J5-Pin_6)*%
X149425500Y-68327500D03*
X144779500Y-61923800D03*
%TO.N,Net-(J4-Pin_4)*%
X142195500Y-70625600D03*
%TO.N,Net-(J4-Pin_5)*%
X143378400Y-70280200D03*
X124598900Y-105861600D03*
%TO.N,Net-(J2-Pin_3)*%
X131081300Y-58248400D03*
%TO.N,Net-(J2-Pin_1)*%
X133199800Y-57125200D03*
%TO.N,Net-(J2-Pin_4)*%
X130875300Y-59076500D03*
%TO.N,GND5*%
X132503500Y-60100400D03*
%TO.N,SCK*%
X139015800Y-85253300D03*
%TO.N,UCAP*%
X132454700Y-61361600D03*
%TO.N,AREF*%
X138599300Y-57023300D03*
X138860300Y-65397900D03*
X137761800Y-83703900D03*
%TD*%
D22*
%TO.N,Net-(D2-K)*%
X142450000Y-94925000D02*
X142450000Y-98450000D01*
X142525000Y-94850000D02*
X142450000Y-94925000D01*
%TO.N,Net-(D1-K)*%
X136037500Y-94937500D02*
X136037500Y-98475000D01*
X136100000Y-94875000D02*
X136037500Y-94937500D01*
%TO.N,PWR44*%
X141635000Y-44350000D02*
X141635000Y-45501700D01*
X136375000Y-55575000D02*
X136375000Y-54523300D01*
X158200000Y-51900000D02*
X157048300Y-51900000D01*
X141635000Y-47863900D02*
X141635000Y-45501700D01*
X136375000Y-53123900D02*
X141635000Y-47863900D01*
X136375000Y-54523300D02*
X136375000Y-53123900D01*
X153012200Y-47863900D02*
X157048300Y-51900000D01*
X141635000Y-47863900D02*
X153012200Y-47863900D01*
%TO.N,Net-(J7-Pin_1)*%
X140375000Y-55575000D02*
X140375000Y-54523300D01*
X158200000Y-64600000D02*
X157048300Y-64600000D01*
X146555600Y-54107300D02*
X157048300Y-64600000D01*
X140791000Y-54107300D02*
X146555600Y-54107300D01*
X140375000Y-54523300D02*
X140791000Y-54107300D01*
%TO.N,Net-(J7-Pin_3)*%
X138775000Y-55575000D02*
X138775000Y-54523300D01*
X158200000Y-59520000D02*
X157048300Y-59520000D01*
X151193900Y-53665600D02*
X157048300Y-59520000D01*
X139632700Y-53665600D02*
X151193900Y-53665600D01*
X138775000Y-54523300D02*
X139632700Y-53665600D01*
%TO.N,GND43*%
X139065000Y-115650000D02*
X139065000Y-114498300D01*
X137175000Y-56100800D02*
X137175000Y-56626700D01*
X137175000Y-56100800D02*
X137175000Y-55575000D01*
X155832200Y-53223900D02*
X157048300Y-54440000D01*
X138474400Y-53223900D02*
X155832200Y-53223900D01*
X137175000Y-54523300D02*
X138474400Y-53223900D01*
X137175000Y-55575000D02*
X137175000Y-54523300D01*
X158200000Y-54440000D02*
X157048300Y-54440000D01*
X144485800Y-77296800D02*
X143984800Y-76795800D01*
X144485800Y-89439500D02*
X144485800Y-77296800D01*
X143622000Y-90303300D02*
X144485800Y-89439500D01*
X143622000Y-109941300D02*
X143622000Y-90303300D01*
X139065000Y-114498300D02*
X143622000Y-109941300D01*
X138422600Y-57874300D02*
X138422600Y-63915900D01*
X137175000Y-56626700D02*
X138422600Y-57874300D01*
%TO.N,Net-(J7-Pin_2)*%
X139575000Y-55575000D02*
X139575000Y-56626700D01*
X140218800Y-56626700D02*
X140581900Y-56989800D01*
X139575000Y-56626700D02*
X140218800Y-56626700D01*
%TO.N,IO13*%
X158250000Y-84350000D02*
X158250000Y-83198300D01*
X146075000Y-58075000D02*
X147126700Y-58075000D01*
X145982300Y-94192700D02*
X147083200Y-94192700D01*
X145325000Y-94850000D02*
X145982300Y-94192700D01*
X151232300Y-62180600D02*
X147126700Y-58075000D01*
X151232300Y-76468500D02*
X151232300Y-62180600D01*
X157962100Y-83198300D02*
X151232300Y-76468500D01*
X158250000Y-83198300D02*
X157962100Y-83198300D01*
%TO.N,Net-(J6-Pin_6)*%
X142835400Y-56626700D02*
X142775000Y-56626700D01*
X143482200Y-57273500D02*
X142835400Y-56626700D01*
X142775000Y-55575000D02*
X142775000Y-56626700D01*
%TO.N,Net-(J6-Pin_8)*%
X141175000Y-55575000D02*
X141175000Y-56626700D01*
X141195500Y-56626700D02*
X141864800Y-57296000D01*
X141175000Y-56626700D02*
X141195500Y-56626700D01*
%TO.N,Net-(J6-Pin_1)*%
X158250000Y-86890000D02*
X158250000Y-85738300D01*
X146075000Y-58875000D02*
X147126700Y-58875000D01*
X150830600Y-62578900D02*
X147126700Y-58875000D01*
X150830600Y-78606800D02*
X150830600Y-62578900D01*
X157962100Y-85738300D02*
X150830600Y-78606800D01*
X158250000Y-85738300D02*
X157962100Y-85738300D01*
%TO.N,PWR34*%
X144869500Y-54523300D02*
X145207400Y-54861200D01*
X144375000Y-54523300D02*
X144869500Y-54523300D01*
X158518500Y-78118300D02*
X158250000Y-78118300D01*
X159412500Y-77224300D02*
X158518500Y-78118300D01*
X159412500Y-68638600D02*
X159412500Y-77224300D01*
X145635100Y-54861200D02*
X159412500Y-68638600D01*
X145207400Y-54861200D02*
X145635100Y-54861200D01*
X158250000Y-79270000D02*
X158250000Y-78118300D01*
X144375000Y-55575000D02*
X144375000Y-54523300D01*
%TO.N,Net-(J6-Pin_3)*%
X158250000Y-81810000D02*
X158250000Y-80658300D01*
X146075000Y-57275000D02*
X147126700Y-57275000D01*
X157962000Y-80658300D02*
X158250000Y-80658300D01*
X157098300Y-79794600D02*
X157962000Y-80658300D01*
X157098300Y-67246600D02*
X157098300Y-79794600D01*
X147126700Y-57275000D02*
X157098300Y-67246600D01*
%TO.N,Net-(J6-Pin_7)*%
X141975000Y-55575000D02*
X141975000Y-56626700D01*
X142880500Y-58176600D02*
X143512300Y-58808400D01*
X142880500Y-57458400D02*
X142880500Y-58176600D01*
X142048800Y-56626700D02*
X142880500Y-57458400D01*
X141975000Y-56626700D02*
X142048800Y-56626700D01*
%TO.N,GND35*%
X143701800Y-56626700D02*
X143575000Y-56626700D01*
X144172000Y-57096900D02*
X143701800Y-56626700D01*
X144172000Y-59931400D02*
X144172000Y-57096900D01*
X143575000Y-55575000D02*
X143575000Y-56626700D01*
%TO.N,GND23*%
X145296700Y-115918500D02*
X145296700Y-115650000D01*
X146218800Y-116840600D02*
X145296700Y-115918500D01*
X150161500Y-116840600D02*
X146218800Y-116840600D01*
X157073300Y-109928800D02*
X150161500Y-116840600D01*
X157073300Y-109065000D02*
X157073300Y-109928800D01*
X158225000Y-109065000D02*
X157073300Y-109065000D01*
X144145000Y-115650000D02*
X145296700Y-115650000D01*
X146075000Y-65275000D02*
X147126700Y-65275000D01*
X147684900Y-65833200D02*
X147126700Y-65275000D01*
X147684900Y-99676600D02*
X147684900Y-65833200D01*
X157073300Y-109065000D02*
X147684900Y-99676600D01*
%TO.N,PWR24*%
X146075000Y-64475000D02*
X147126700Y-64475000D01*
X158225000Y-106525000D02*
X158225000Y-105373300D01*
X146075000Y-64475000D02*
X145023300Y-64475000D01*
X157958600Y-105373300D02*
X158225000Y-105373300D01*
X148174200Y-95588900D02*
X157958600Y-105373300D01*
X148174200Y-65522500D02*
X148174200Y-95588900D01*
X147126700Y-64475000D02*
X148174200Y-65522500D01*
X144930600Y-64382300D02*
X144562500Y-64382300D01*
X145023300Y-64475000D02*
X144930600Y-64382300D01*
%TO.N,Net-(J5-Pin_8)*%
X158225000Y-91285000D02*
X158225000Y-90133300D01*
X146075000Y-59675000D02*
X147126700Y-59675000D01*
X150428900Y-62977200D02*
X147126700Y-59675000D01*
X150428900Y-81857500D02*
X150428900Y-62977200D01*
X158225000Y-89653600D02*
X150428900Y-81857500D01*
X158225000Y-90133300D02*
X158225000Y-89653600D01*
%TO.N,Net-(J5-Pin_3)*%
X158225000Y-103985000D02*
X158225000Y-102833300D01*
X146075000Y-63675000D02*
X147126700Y-63675000D01*
X157937100Y-102833300D02*
X158225000Y-102833300D01*
X148575900Y-93472100D02*
X157937100Y-102833300D01*
X148575900Y-65176600D02*
X148575900Y-93472100D01*
X147126700Y-63727400D02*
X148575900Y-65176600D01*
X147126700Y-63675000D02*
X147126700Y-63727400D01*
%TO.N,Net-(J5-Pin_4)*%
X146075000Y-62875000D02*
X147126700Y-62875000D01*
X147126700Y-62875000D02*
X147941100Y-63689400D01*
%TO.N,Net-(J5-Pin_7)*%
X157073300Y-89352800D02*
X151831100Y-84110600D01*
X157073300Y-91809600D02*
X157073300Y-89352800D01*
X157937000Y-92673300D02*
X157073300Y-91809600D01*
X158225000Y-92673300D02*
X157937000Y-92673300D01*
X158225000Y-93825000D02*
X158225000Y-92673300D01*
X143778900Y-61719400D02*
X143778900Y-65190800D01*
X145023300Y-60475000D02*
X143778900Y-61719400D01*
X146075000Y-60475000D02*
X145023300Y-60475000D01*
%TO.N,Net-(J5-Pin_5)*%
X147220000Y-62075000D02*
X146075000Y-62075000D01*
X150027200Y-64882200D02*
X147220000Y-62075000D01*
X150027200Y-84095700D02*
X150027200Y-64882200D01*
X154074300Y-88142800D02*
X150027200Y-84095700D01*
%TO.N,Net-(J5-Pin_6)*%
X149425500Y-86701700D02*
X149425500Y-68327500D01*
X157937100Y-95213300D02*
X149425500Y-86701700D01*
X158225000Y-95213300D02*
X157937100Y-95213300D01*
X144779500Y-61518800D02*
X145023300Y-61275000D01*
X144779500Y-61923800D02*
X144779500Y-61518800D01*
X146075000Y-61275000D02*
X145023300Y-61275000D01*
X158225000Y-96365000D02*
X158225000Y-95213300D01*
%TO.N,Net-(J4-Pin_4)*%
X142195500Y-68606200D02*
X142195500Y-70625600D01*
X142775000Y-68026700D02*
X142195500Y-68606200D01*
X142775000Y-66975000D02*
X142775000Y-68026700D01*
%TO.N,Net-(J4-Pin_3)*%
X141975000Y-66975000D02*
X141975000Y-68026700D01*
X121900000Y-101470000D02*
X121900000Y-100318300D01*
X122168500Y-100318300D02*
X121900000Y-100318300D01*
X123289800Y-99197000D02*
X122168500Y-100318300D01*
X123289800Y-97754200D02*
X123289800Y-99197000D01*
X137160100Y-83883900D02*
X123289800Y-97754200D01*
X137160100Y-83454800D02*
X137160100Y-83883900D01*
X141419000Y-79195900D02*
X137160100Y-83454800D01*
X141419000Y-68582700D02*
X141419000Y-79195900D01*
X141975000Y-68026700D02*
X141419000Y-68582700D01*
%TO.N,Net-(J4-Pin_6)*%
X121900000Y-109090000D02*
X123051700Y-109090000D01*
X144375000Y-70484000D02*
X144375000Y-66975000D01*
X142073300Y-72785700D02*
X144375000Y-70484000D01*
X142073300Y-84282100D02*
X142073300Y-72785700D01*
X141586300Y-84769100D02*
X142073300Y-84282100D01*
X141586300Y-97568000D02*
X141586300Y-84769100D01*
X140718800Y-98435500D02*
X141586300Y-97568000D01*
X140718800Y-101264400D02*
X140718800Y-98435500D01*
X136831700Y-105151500D02*
X140718800Y-101264400D01*
X126990200Y-105151500D02*
X136831700Y-105151500D01*
X123051700Y-109090000D02*
X126990200Y-105151500D01*
%TO.N,Net-(J4-Pin_5)*%
X143575000Y-70083600D02*
X143378400Y-70280200D01*
X143575000Y-66975000D02*
X143575000Y-70083600D01*
X123740100Y-105861600D02*
X123051700Y-106550000D01*
X124598900Y-105861600D02*
X123740100Y-105861600D01*
X121900000Y-106550000D02*
X123051700Y-106550000D01*
%TO.N,Net-(J4-Pin_2)*%
X122651500Y-97778300D02*
X121900000Y-97778300D01*
X136497300Y-83932500D02*
X122651500Y-97778300D01*
X136497300Y-79071200D02*
X136497300Y-83932500D01*
X140957800Y-74610700D02*
X136497300Y-79071200D01*
X140957800Y-68243900D02*
X140957800Y-74610700D01*
X141175000Y-68026700D02*
X140957800Y-68243900D01*
X141175000Y-66975000D02*
X141175000Y-68026700D01*
X121900000Y-98930000D02*
X121900000Y-97778300D01*
%TO.N,Net-(J3-Pin_4)*%
X123783400Y-80618300D02*
X136375000Y-68026700D01*
X121875000Y-80618300D02*
X123783400Y-80618300D01*
X121875000Y-81770000D02*
X121875000Y-80618300D01*
X136375000Y-66975000D02*
X136375000Y-68026700D01*
%TO.N,PWR14*%
X134015000Y-44350000D02*
X134015000Y-45501700D01*
X137975000Y-66975000D02*
X137975000Y-65923300D01*
X136535800Y-64484100D02*
X137975000Y-65923300D01*
X136535800Y-57435800D02*
X136535800Y-64484100D01*
X134015000Y-54915000D02*
X136535800Y-57435800D01*
X134015000Y-45501700D02*
X134015000Y-54915000D01*
X137975000Y-67742900D02*
X137975000Y-66975000D01*
X128642500Y-77075400D02*
X137975000Y-67742900D01*
X128642500Y-79218700D02*
X128642500Y-77075400D01*
X122162900Y-85698300D02*
X128642500Y-79218700D01*
X121875000Y-85698300D02*
X122162900Y-85698300D01*
X121875000Y-86850000D02*
X121875000Y-85698300D01*
%TO.N,GND15*%
X138775000Y-66975000D02*
X138775000Y-68026700D01*
X121875000Y-89390000D02*
X121875000Y-88238300D01*
X138316900Y-68026700D02*
X138775000Y-68026700D01*
X130161500Y-76182100D02*
X138316900Y-68026700D01*
X130161500Y-80204200D02*
X130161500Y-76182100D01*
X122127400Y-88238300D02*
X130161500Y-80204200D01*
X121875000Y-88238300D02*
X122127400Y-88238300D01*
%TO.N,PWR2*%
X133278200Y-58075000D02*
X133623300Y-58075000D01*
X131475000Y-56271800D02*
X133278200Y-58075000D01*
X131475000Y-44350000D02*
X131475000Y-56271800D01*
X134675000Y-58075000D02*
X133623300Y-58075000D01*
%TO.N,Net-(J2-Pin_8)*%
X129731700Y-62875000D02*
X134675000Y-62875000D01*
X122951700Y-69655000D02*
X129731700Y-62875000D01*
X121800000Y-69655000D02*
X122951700Y-69655000D01*
%TO.N,Net-(J2-Pin_3)*%
X133400000Y-58651700D02*
X133623300Y-58875000D01*
X131484600Y-58651700D02*
X133400000Y-58651700D01*
X131081300Y-58248400D02*
X131484600Y-58651700D01*
X134675000Y-58875000D02*
X133623300Y-58875000D01*
%TO.N,Net-(J2-Pin_1)*%
X134675000Y-57275000D02*
X133623300Y-57275000D01*
X133473500Y-57125200D02*
X133199800Y-57125200D01*
X133623300Y-57275000D02*
X133473500Y-57125200D01*
%TO.N,VBUS*%
X121800000Y-67115000D02*
X122951700Y-67115000D01*
X144175000Y-44350000D02*
X143023300Y-44350000D01*
X134675000Y-62075000D02*
X133623300Y-62075000D01*
X130260200Y-43373700D02*
X130260200Y-62075000D01*
X130474500Y-43159400D02*
X130260200Y-43373700D01*
X142101200Y-43159400D02*
X130474500Y-43159400D01*
X143023300Y-44081500D02*
X142101200Y-43159400D01*
X143023300Y-44350000D02*
X143023300Y-44081500D01*
X133623300Y-62075000D02*
X130260200Y-62075000D01*
X127991700Y-62075000D02*
X122951700Y-67115000D01*
X130260200Y-62075000D02*
X127991700Y-62075000D01*
%TO.N,Net-(J2-Pin_4)*%
X134675000Y-59675000D02*
X133623300Y-59675000D01*
X133024800Y-59076500D02*
X130875300Y-59076500D01*
X133623300Y-59675000D02*
X133024800Y-59076500D01*
%TO.N,GND5*%
X132878100Y-60475000D02*
X134675000Y-60475000D01*
X132503500Y-60100400D02*
X132878100Y-60475000D01*
%TO.N,SCK*%
X121875000Y-74150000D02*
X123026700Y-74150000D01*
X139015800Y-86916900D02*
X139015800Y-85253300D01*
X140097200Y-87998300D02*
X139015800Y-86916900D01*
X140390000Y-87998300D02*
X140097200Y-87998300D01*
X140390000Y-89150000D02*
X140390000Y-87998300D01*
X133501700Y-63675000D02*
X123026700Y-74150000D01*
X134675000Y-63675000D02*
X133501700Y-63675000D01*
%TO.N,MISO*%
X133623300Y-66617900D02*
X133623300Y-65275000D01*
X122162900Y-78078300D02*
X133623300Y-66617900D01*
X121875000Y-78078300D02*
X122162900Y-78078300D01*
X121875000Y-79230000D02*
X121875000Y-78078300D01*
X134675000Y-65275000D02*
X133623300Y-65275000D01*
%TO.N,5V*%
X139010000Y-94765000D02*
X138900000Y-94875000D01*
X139010000Y-88129900D02*
X139010000Y-94765000D01*
X138641800Y-87761700D02*
X139010000Y-88129900D01*
X137850000Y-87761700D02*
X138641800Y-87761700D01*
X137850000Y-86610000D02*
X137850000Y-87761700D01*
%TO.N,MOSI*%
X133623300Y-64555200D02*
X133623300Y-64475000D01*
X122640200Y-75538300D02*
X133623300Y-64555200D01*
X121875000Y-75538300D02*
X122640200Y-75538300D01*
X121875000Y-76690000D02*
X121875000Y-75538300D01*
X134675000Y-64475000D02*
X133623300Y-64475000D01*
%TO.N,RESET*%
X137175000Y-67903500D02*
X137175000Y-66975000D01*
X127406500Y-77672000D02*
X137175000Y-67903500D01*
X127406500Y-77948600D02*
X127406500Y-77672000D01*
X122196800Y-83158300D02*
X127406500Y-77948600D01*
X121875000Y-83158300D02*
X122196800Y-83158300D01*
X121875000Y-84310000D02*
X121875000Y-83158300D01*
%TO.N,UCAP*%
X133536700Y-61361600D02*
X133623300Y-61275000D01*
X132454700Y-61361600D02*
X133536700Y-61361600D01*
X134675000Y-61275000D02*
X133623300Y-61275000D01*
X121531500Y-65726700D02*
X121800000Y-65726700D01*
X120643200Y-66615000D02*
X121531500Y-65726700D01*
X120643200Y-101913100D02*
X120643200Y-66615000D01*
X121577900Y-102847800D02*
X120643200Y-101913100D01*
X132072800Y-102847800D02*
X121577900Y-102847800D01*
X132900000Y-103675000D02*
X132072800Y-102847800D01*
X121800000Y-64575000D02*
X121800000Y-65726700D01*
%TO.N,Net-(J9-Pin_13)*%
X133985000Y-107710000D02*
X133985000Y-115650000D01*
X132900000Y-106625000D02*
X133985000Y-107710000D01*
%TO.N,Net-(J9-Pin_11)*%
X136525000Y-115650000D02*
X136525000Y-106625000D01*
%TO.N,AREF*%
X138202700Y-56626700D02*
X138599300Y-57023300D01*
X137975000Y-56626700D02*
X138202700Y-56626700D01*
X137975000Y-55575000D02*
X137975000Y-56626700D01*
X139049900Y-65208300D02*
X138860300Y-65397900D01*
X139049900Y-57473900D02*
X139049900Y-65208300D01*
X138599300Y-57023300D02*
X139049900Y-57473900D01*
X137049000Y-103151000D02*
X136525000Y-103675000D01*
X137049000Y-92115900D02*
X137049000Y-103151000D01*
X136698300Y-91765200D02*
X137049000Y-92115900D01*
X136698300Y-86132900D02*
X136698300Y-91765200D01*
X137761800Y-85069400D02*
X136698300Y-86132900D01*
X137761800Y-83703900D02*
X137761800Y-85069400D01*
%TO.N,XTAL2*%
X136125000Y-73950000D02*
X136125000Y-72648300D01*
X121875000Y-91930000D02*
X123026700Y-91930000D01*
X139575000Y-69198300D02*
X136125000Y-72648300D01*
X139575000Y-66975000D02*
X139575000Y-69198300D01*
X136125000Y-73950000D02*
X136125000Y-75251700D01*
X123026700Y-91348300D02*
X134425000Y-79950000D01*
X123026700Y-91930000D02*
X123026700Y-91348300D01*
X134425000Y-76951700D02*
X136125000Y-75251700D01*
X134425000Y-79950000D02*
X134425000Y-76951700D01*
%TO.N,XTAL1*%
X121900000Y-96390000D02*
X121900000Y-95238300D01*
X140375000Y-66975000D02*
X140375000Y-68026700D01*
X140375000Y-66975000D02*
X140375000Y-65923300D01*
X144785800Y-65923300D02*
X140375000Y-65923300D01*
X144977900Y-66115400D02*
X144785800Y-65923300D01*
X144977900Y-72295400D02*
X144977900Y-66115400D01*
X144625000Y-72648300D02*
X144977900Y-72295400D01*
X144625000Y-73950000D02*
X144625000Y-72648300D01*
X146525000Y-77151700D02*
X144625000Y-75251700D01*
X146525000Y-80050000D02*
X146525000Y-77151700D01*
X144625000Y-73950000D02*
X144625000Y-75251700D01*
X140375000Y-74405700D02*
X140375000Y-68026700D01*
X135900000Y-78880700D02*
X140375000Y-74405700D01*
X135900000Y-81238300D02*
X135900000Y-78880700D01*
X121900000Y-95238300D02*
X135900000Y-81238300D01*
%TD*%
%TA.AperFunction,Conductor*%
%TO.N,GND*%
G36*
X131551093Y-105771685D02*
G01*
X131596848Y-105824489D01*
X131606792Y-105893647D01*
X131589594Y-105941093D01*
X131577836Y-105960155D01*
X131565187Y-105980663D01*
X131565186Y-105980666D01*
X131510001Y-106147203D01*
X131510001Y-106147204D01*
X131510000Y-106147204D01*
X131499500Y-106249983D01*
X131499500Y-107000001D01*
X131499501Y-107000019D01*
X131510000Y-107102796D01*
X131510001Y-107102799D01*
X131551433Y-107227830D01*
X131565186Y-107269334D01*
X131657288Y-107418656D01*
X131781344Y-107542712D01*
X131930666Y-107634814D01*
X132097203Y-107689999D01*
X132199991Y-107700500D01*
X133074901Y-107700499D01*
X133141940Y-107720183D01*
X133162582Y-107736818D01*
X133348181Y-107922416D01*
X133381666Y-107983739D01*
X133384500Y-108010097D01*
X133384500Y-114360908D01*
X133364815Y-114427947D01*
X133312914Y-114473286D01*
X133307173Y-114475963D01*
X133307169Y-114475965D01*
X133113597Y-114611505D01*
X132946505Y-114778597D01*
X132816575Y-114964158D01*
X132761998Y-115007783D01*
X132692500Y-115014977D01*
X132630145Y-114983454D01*
X132613425Y-114964158D01*
X132483494Y-114778597D01*
X132316402Y-114611506D01*
X132316395Y-114611501D01*
X132122834Y-114475967D01*
X132122830Y-114475965D01*
X132059996Y-114446665D01*
X131908663Y-114376097D01*
X131908659Y-114376096D01*
X131908655Y-114376094D01*
X131680413Y-114314938D01*
X131680403Y-114314936D01*
X131445001Y-114294341D01*
X131444999Y-114294341D01*
X131209596Y-114314936D01*
X131209586Y-114314938D01*
X130981344Y-114376094D01*
X130981335Y-114376098D01*
X130767171Y-114475964D01*
X130767169Y-114475965D01*
X130573597Y-114611505D01*
X130406505Y-114778597D01*
X130270965Y-114972169D01*
X130270964Y-114972171D01*
X130171098Y-115186335D01*
X130171094Y-115186344D01*
X130109938Y-115414586D01*
X130109936Y-115414596D01*
X130089341Y-115649999D01*
X130089341Y-115650000D01*
X130109936Y-115885403D01*
X130109938Y-115885413D01*
X130171094Y-116113655D01*
X130171096Y-116113659D01*
X130171097Y-116113663D01*
X130231250Y-116242661D01*
X130270965Y-116327830D01*
X130270967Y-116327834D01*
X130370696Y-116470261D01*
X130406501Y-116521396D01*
X130406506Y-116521402D01*
X130573597Y-116688493D01*
X130573603Y-116688498D01*
X130759594Y-116818730D01*
X130803219Y-116873307D01*
X130810413Y-116942805D01*
X130778890Y-117005160D01*
X130759595Y-117021880D01*
X130573922Y-117151890D01*
X130573920Y-117151891D01*
X130406891Y-117318920D01*
X130406886Y-117318926D01*
X130271400Y-117512420D01*
X130271399Y-117512422D01*
X130171570Y-117726507D01*
X130171567Y-117726513D01*
X130114364Y-117939999D01*
X130114364Y-117940000D01*
X131011988Y-117940000D01*
X130979075Y-117997007D01*
X130945000Y-118124174D01*
X130945000Y-118255826D01*
X130979075Y-118382993D01*
X131011988Y-118440000D01*
X130114364Y-118440000D01*
X130171567Y-118653486D01*
X130171570Y-118653492D01*
X130271399Y-118867578D01*
X130406894Y-119061082D01*
X130573917Y-119228105D01*
X130639354Y-119273925D01*
X130682979Y-119328502D01*
X130690171Y-119398001D01*
X130658649Y-119460355D01*
X130598419Y-119495769D01*
X130568230Y-119499500D01*
X120624500Y-119499500D01*
X120557461Y-119479815D01*
X120511706Y-119427011D01*
X120500500Y-119375500D01*
X120500500Y-116999998D01*
X121119709Y-116999998D01*
X121119709Y-117000001D01*
X121138848Y-117267594D01*
X121138849Y-117267601D01*
X121195872Y-117529734D01*
X121289627Y-117781102D01*
X121289629Y-117781106D01*
X121418195Y-118016556D01*
X121418200Y-118016564D01*
X121578964Y-118231321D01*
X121578980Y-118231339D01*
X121768660Y-118421019D01*
X121768678Y-118421035D01*
X121983435Y-118581799D01*
X121983443Y-118581804D01*
X122218893Y-118710370D01*
X122218897Y-118710372D01*
X122218899Y-118710373D01*
X122470261Y-118804126D01*
X122470264Y-118804126D01*
X122470265Y-118804127D01*
X122562315Y-118824151D01*
X122732407Y-118861152D01*
X122979385Y-118878816D01*
X122999999Y-118880291D01*
X123000000Y-118880291D01*
X123000001Y-118880291D01*
X123019140Y-118878922D01*
X123267593Y-118861152D01*
X123529739Y-118804126D01*
X123781101Y-118710373D01*
X124016562Y-118581801D01*
X124231329Y-118421029D01*
X124421029Y-118231329D01*
X124581801Y-118016562D01*
X124710373Y-117781101D01*
X124804126Y-117529739D01*
X124861152Y-117267593D01*
X124880291Y-117000000D01*
X124861152Y-116732407D01*
X124815250Y-116521396D01*
X124804127Y-116470265D01*
X124759315Y-116350120D01*
X124710373Y-116218899D01*
X124682744Y-116168301D01*
X124581804Y-115983443D01*
X124581799Y-115983435D01*
X124421035Y-115768678D01*
X124421019Y-115768660D01*
X124231339Y-115578980D01*
X124231321Y-115578964D01*
X124016564Y-115418200D01*
X124016556Y-115418195D01*
X123781106Y-115289629D01*
X123781102Y-115289627D01*
X123529734Y-115195872D01*
X123267601Y-115138849D01*
X123267594Y-115138848D01*
X123000001Y-115119709D01*
X122999999Y-115119709D01*
X122732405Y-115138848D01*
X122732398Y-115138849D01*
X122470265Y-115195872D01*
X122218897Y-115289627D01*
X122218893Y-115289629D01*
X121983443Y-115418195D01*
X121983435Y-115418200D01*
X121768678Y-115578964D01*
X121768660Y-115578980D01*
X121578980Y-115768660D01*
X121578964Y-115768678D01*
X121418200Y-115983435D01*
X121418195Y-115983443D01*
X121289629Y-116218893D01*
X121289627Y-116218897D01*
X121195872Y-116470265D01*
X121138849Y-116732398D01*
X121138848Y-116732405D01*
X121119709Y-116999998D01*
X120500500Y-116999998D01*
X120500500Y-109839110D01*
X120520185Y-109772071D01*
X120572989Y-109726316D01*
X120642147Y-109716372D01*
X120705703Y-109745397D01*
X120726075Y-109767987D01*
X120861500Y-109961395D01*
X120861505Y-109961401D01*
X121028599Y-110128495D01*
X121092279Y-110173084D01*
X121222165Y-110264032D01*
X121222167Y-110264033D01*
X121222170Y-110264035D01*
X121436337Y-110363903D01*
X121664592Y-110425063D01*
X121852918Y-110441539D01*
X121899999Y-110445659D01*
X121900000Y-110445659D01*
X121900001Y-110445659D01*
X121939234Y-110442226D01*
X122135408Y-110425063D01*
X122363663Y-110363903D01*
X122577830Y-110264035D01*
X122771401Y-110128495D01*
X122938495Y-109961401D01*
X123074035Y-109767830D01*
X123082707Y-109749233D01*
X123128879Y-109696793D01*
X123162990Y-109681863D01*
X123283485Y-109649577D01*
X123333604Y-109620639D01*
X123420416Y-109570520D01*
X123532220Y-109458716D01*
X123532220Y-109458714D01*
X123542428Y-109448507D01*
X123542429Y-109448504D01*
X127202616Y-105788319D01*
X127263939Y-105754834D01*
X127290297Y-105752000D01*
X131484054Y-105752000D01*
X131551093Y-105771685D01*
G37*
%TD.AperFunction*%
%TA.AperFunction,Conductor*%
G36*
X159449804Y-110369043D02*
G01*
X159491679Y-110424974D01*
X159499500Y-110468315D01*
X159499500Y-119375500D01*
X159479815Y-119442539D01*
X159427011Y-119488294D01*
X159375500Y-119499500D01*
X150101770Y-119499500D01*
X150034731Y-119479815D01*
X149988976Y-119427011D01*
X149979032Y-119357853D01*
X150008057Y-119294297D01*
X150030646Y-119273925D01*
X150096082Y-119228105D01*
X150263105Y-119061082D01*
X150398600Y-118867578D01*
X150498429Y-118653492D01*
X150498432Y-118653486D01*
X150555636Y-118440000D01*
X149658012Y-118440000D01*
X149690925Y-118382993D01*
X149725000Y-118255826D01*
X149725000Y-118124174D01*
X149690925Y-117997007D01*
X149658012Y-117940000D01*
X150555636Y-117940000D01*
X150555635Y-117939999D01*
X150498432Y-117726513D01*
X150498430Y-117726507D01*
X150404253Y-117524546D01*
X150393761Y-117455469D01*
X150422281Y-117391685D01*
X150454629Y-117364758D01*
X150530216Y-117321120D01*
X150642020Y-117209316D01*
X150642020Y-117209314D01*
X150652228Y-117199107D01*
X150652230Y-117199104D01*
X150851336Y-116999998D01*
X155119709Y-116999998D01*
X155119709Y-117000001D01*
X155138848Y-117267594D01*
X155138849Y-117267601D01*
X155195872Y-117529734D01*
X155289627Y-117781102D01*
X155289629Y-117781106D01*
X155418195Y-118016556D01*
X155418200Y-118016564D01*
X155578964Y-118231321D01*
X155578980Y-118231339D01*
X155768660Y-118421019D01*
X155768678Y-118421035D01*
X155983435Y-118581799D01*
X155983443Y-118581804D01*
X156218893Y-118710370D01*
X156218897Y-118710372D01*
X156218899Y-118710373D01*
X156470261Y-118804126D01*
X156470264Y-118804126D01*
X156470265Y-118804127D01*
X156562315Y-118824151D01*
X156732407Y-118861152D01*
X156979385Y-118878816D01*
X156999999Y-118880291D01*
X157000000Y-118880291D01*
X157000001Y-118880291D01*
X157019140Y-118878922D01*
X157267593Y-118861152D01*
X157529739Y-118804126D01*
X157781101Y-118710373D01*
X158016562Y-118581801D01*
X158231329Y-118421029D01*
X158421029Y-118231329D01*
X158581801Y-118016562D01*
X158710373Y-117781101D01*
X158804126Y-117529739D01*
X158861152Y-117267593D01*
X158880291Y-117000000D01*
X158861152Y-116732407D01*
X158815250Y-116521396D01*
X158804127Y-116470265D01*
X158759315Y-116350120D01*
X158710373Y-116218899D01*
X158682744Y-116168301D01*
X158581804Y-115983443D01*
X158581799Y-115983435D01*
X158421035Y-115768678D01*
X158421019Y-115768660D01*
X158231339Y-115578980D01*
X158231321Y-115578964D01*
X158016564Y-115418200D01*
X158016556Y-115418195D01*
X157781106Y-115289629D01*
X157781102Y-115289627D01*
X157529734Y-115195872D01*
X157267601Y-115138849D01*
X157267594Y-115138848D01*
X157000001Y-115119709D01*
X156999999Y-115119709D01*
X156732405Y-115138848D01*
X156732398Y-115138849D01*
X156470265Y-115195872D01*
X156218897Y-115289627D01*
X156218893Y-115289629D01*
X155983443Y-115418195D01*
X155983435Y-115418200D01*
X155768678Y-115578964D01*
X155768660Y-115578980D01*
X155578980Y-115768660D01*
X155578964Y-115768678D01*
X155418200Y-115983435D01*
X155418195Y-115983443D01*
X155289629Y-116218893D01*
X155289627Y-116218897D01*
X155195872Y-116470265D01*
X155138849Y-116732398D01*
X155138848Y-116732405D01*
X155119709Y-116999998D01*
X150851336Y-116999998D01*
X157399516Y-110451818D01*
X157460839Y-110418333D01*
X157487197Y-110415499D01*
X159122871Y-110415499D01*
X159122872Y-110415499D01*
X159182483Y-110409091D01*
X159325641Y-110355697D01*
X159326229Y-110357275D01*
X159384338Y-110344630D01*
X159449804Y-110369043D01*
G37*
%TD.AperFunction*%
%TA.AperFunction,Conductor*%
G36*
X133519075Y-117997007D02*
G01*
X133485000Y-118124174D01*
X133485000Y-118255826D01*
X133519075Y-118382993D01*
X133551988Y-118440000D01*
X131878012Y-118440000D01*
X131910925Y-118382993D01*
X131945000Y-118255826D01*
X131945000Y-118124174D01*
X131910925Y-117997007D01*
X131878012Y-117940000D01*
X133551988Y-117940000D01*
X133519075Y-117997007D01*
G37*
%TD.AperFunction*%
%TA.AperFunction,Conductor*%
G36*
X136059075Y-117997007D02*
G01*
X136025000Y-118124174D01*
X136025000Y-118255826D01*
X136059075Y-118382993D01*
X136091988Y-118440000D01*
X134418012Y-118440000D01*
X134450925Y-118382993D01*
X134485000Y-118255826D01*
X134485000Y-118124174D01*
X134450925Y-117997007D01*
X134418012Y-117940000D01*
X136091988Y-117940000D01*
X136059075Y-117997007D01*
G37*
%TD.AperFunction*%
%TA.AperFunction,Conductor*%
G36*
X138599075Y-117997007D02*
G01*
X138565000Y-118124174D01*
X138565000Y-118255826D01*
X138599075Y-118382993D01*
X138631988Y-118440000D01*
X136958012Y-118440000D01*
X136990925Y-118382993D01*
X137025000Y-118255826D01*
X137025000Y-118124174D01*
X136990925Y-117997007D01*
X136958012Y-117940000D01*
X138631988Y-117940000D01*
X138599075Y-117997007D01*
G37*
%TD.AperFunction*%
%TA.AperFunction,Conductor*%
G36*
X141139075Y-117997007D02*
G01*
X141105000Y-118124174D01*
X141105000Y-118255826D01*
X141139075Y-118382993D01*
X141171988Y-118440000D01*
X139498012Y-118440000D01*
X139530925Y-118382993D01*
X139565000Y-118255826D01*
X139565000Y-118124174D01*
X139530925Y-117997007D01*
X139498012Y-117940000D01*
X141171988Y-117940000D01*
X141139075Y-117997007D01*
G37*
%TD.AperFunction*%
%TA.AperFunction,Conductor*%
G36*
X143679075Y-117997007D02*
G01*
X143645000Y-118124174D01*
X143645000Y-118255826D01*
X143679075Y-118382993D01*
X143711988Y-118440000D01*
X142038012Y-118440000D01*
X142070925Y-118382993D01*
X142105000Y-118255826D01*
X142105000Y-118124174D01*
X142070925Y-117997007D01*
X142038012Y-117940000D01*
X143711988Y-117940000D01*
X143679075Y-117997007D01*
G37*
%TD.AperFunction*%
%TA.AperFunction,Conductor*%
G36*
X146219075Y-117997007D02*
G01*
X146185000Y-118124174D01*
X146185000Y-118255826D01*
X146219075Y-118382993D01*
X146251988Y-118440000D01*
X144578012Y-118440000D01*
X144610925Y-118382993D01*
X144645000Y-118255826D01*
X144645000Y-118124174D01*
X144610925Y-117997007D01*
X144578012Y-117940000D01*
X146251988Y-117940000D01*
X146219075Y-117997007D01*
G37*
%TD.AperFunction*%
%TA.AperFunction,Conductor*%
G36*
X148759075Y-117997007D02*
G01*
X148725000Y-118124174D01*
X148725000Y-118255826D01*
X148759075Y-118382993D01*
X148791988Y-118440000D01*
X147118012Y-118440000D01*
X147150925Y-118382993D01*
X147185000Y-118255826D01*
X147185000Y-118124174D01*
X147150925Y-117997007D01*
X147118012Y-117940000D01*
X148791988Y-117940000D01*
X148759075Y-117997007D01*
G37*
%TD.AperFunction*%
%TA.AperFunction,Conductor*%
G36*
X146640470Y-94859922D02*
G01*
X146733678Y-94918489D01*
X146866362Y-94964917D01*
X146903945Y-94978068D01*
X146903950Y-94978069D01*
X146974282Y-94985993D01*
X147038696Y-95013059D01*
X147078252Y-95070653D01*
X147084400Y-95109213D01*
X147084400Y-99589930D01*
X147084399Y-99589948D01*
X147084399Y-99755654D01*
X147084398Y-99755654D01*
X147125323Y-99908385D01*
X147145594Y-99943495D01*
X147145593Y-99943495D01*
X147145594Y-99943496D01*
X147204375Y-100045309D01*
X147204381Y-100045317D01*
X147323249Y-100164185D01*
X147323255Y-100164190D01*
X156436481Y-109277416D01*
X156469966Y-109338739D01*
X156472800Y-109365097D01*
X156472800Y-109628702D01*
X156453115Y-109695741D01*
X156436481Y-109716383D01*
X150787180Y-115365684D01*
X150725857Y-115399169D01*
X150656165Y-115394185D01*
X150600232Y-115352313D01*
X150575815Y-115286849D01*
X150575499Y-115278003D01*
X150575499Y-114752129D01*
X150575498Y-114752123D01*
X150569091Y-114692516D01*
X150518797Y-114557671D01*
X150518793Y-114557664D01*
X150432547Y-114442455D01*
X150432544Y-114442452D01*
X150317335Y-114356206D01*
X150317328Y-114356202D01*
X150182482Y-114305908D01*
X150182483Y-114305908D01*
X150122883Y-114299501D01*
X150122881Y-114299500D01*
X150122873Y-114299500D01*
X150122864Y-114299500D01*
X148327129Y-114299500D01*
X148327123Y-114299501D01*
X148267516Y-114305908D01*
X148132671Y-114356202D01*
X148132664Y-114356206D01*
X148017455Y-114442452D01*
X148017452Y-114442455D01*
X147931206Y-114557664D01*
X147931203Y-114557669D01*
X147882189Y-114689083D01*
X147840317Y-114745016D01*
X147774853Y-114769433D01*
X147706580Y-114754581D01*
X147678326Y-114733430D01*
X147556402Y-114611506D01*
X147556395Y-114611501D01*
X147362834Y-114475967D01*
X147362830Y-114475965D01*
X147299996Y-114446665D01*
X147148663Y-114376097D01*
X147148659Y-114376096D01*
X147148655Y-114376094D01*
X146920413Y-114314938D01*
X146920403Y-114314936D01*
X146685001Y-114294341D01*
X146684999Y-114294341D01*
X146449596Y-114314936D01*
X146449586Y-114314938D01*
X146221344Y-114376094D01*
X146221335Y-114376098D01*
X146007171Y-114475964D01*
X146007169Y-114475965D01*
X145813597Y-114611505D01*
X145646508Y-114778594D01*
X145516574Y-114964160D01*
X145461997Y-115007784D01*
X145392498Y-115014977D01*
X145330144Y-114983455D01*
X145313429Y-114964164D01*
X145183495Y-114778599D01*
X145183493Y-114778596D01*
X145016402Y-114611506D01*
X145016395Y-114611501D01*
X144822834Y-114475967D01*
X144822830Y-114475965D01*
X144759996Y-114446665D01*
X144608663Y-114376097D01*
X144608659Y-114376096D01*
X144608655Y-114376094D01*
X144380413Y-114314938D01*
X144380403Y-114314936D01*
X144145001Y-114294341D01*
X144144999Y-114294341D01*
X143909596Y-114314936D01*
X143909586Y-114314938D01*
X143681344Y-114376094D01*
X143681335Y-114376098D01*
X143467171Y-114475964D01*
X143467169Y-114475965D01*
X143273597Y-114611505D01*
X143106505Y-114778597D01*
X142976575Y-114964158D01*
X142921998Y-115007783D01*
X142852500Y-115014977D01*
X142790145Y-114983454D01*
X142773425Y-114964158D01*
X142643494Y-114778597D01*
X142476402Y-114611506D01*
X142476395Y-114611501D01*
X142282834Y-114475967D01*
X142282830Y-114475965D01*
X142219996Y-114446665D01*
X142068663Y-114376097D01*
X142068659Y-114376096D01*
X142068655Y-114376094D01*
X141840413Y-114314938D01*
X141840403Y-114314936D01*
X141605001Y-114294341D01*
X141604999Y-114294341D01*
X141369596Y-114314936D01*
X141369586Y-114314938D01*
X141141344Y-114376094D01*
X141141335Y-114376098D01*
X140927171Y-114475964D01*
X140927169Y-114475965D01*
X140733597Y-114611505D01*
X140566505Y-114778597D01*
X140436575Y-114964158D01*
X140381998Y-115007783D01*
X140312500Y-115014977D01*
X140250145Y-114983454D01*
X140233425Y-114964158D01*
X140103494Y-114778597D01*
X139956396Y-114631499D01*
X139922911Y-114570176D01*
X139927895Y-114500484D01*
X139956394Y-114456139D01*
X143990713Y-110421821D01*
X143990716Y-110421820D01*
X144102520Y-110310016D01*
X144152639Y-110223204D01*
X144181577Y-110173085D01*
X144222500Y-110020358D01*
X144222500Y-109862243D01*
X144222500Y-99579024D01*
X144242185Y-99511985D01*
X144294989Y-99466230D01*
X144364147Y-99456286D01*
X144427703Y-99485311D01*
X144452039Y-99513927D01*
X144470184Y-99543345D01*
X144594154Y-99667315D01*
X144743375Y-99759356D01*
X144743380Y-99759358D01*
X144909802Y-99814505D01*
X144909809Y-99814506D01*
X145012519Y-99824999D01*
X145124999Y-99824999D01*
X145625000Y-99824999D01*
X145737472Y-99824999D01*
X145737486Y-99824998D01*
X145840197Y-99814505D01*
X146006619Y-99759358D01*
X146006624Y-99759356D01*
X146155845Y-99667315D01*
X146279815Y-99543345D01*
X146371856Y-99394124D01*
X146371858Y-99394119D01*
X146427005Y-99227697D01*
X146427006Y-99227690D01*
X146437499Y-99124986D01*
X146437500Y-99124973D01*
X146437500Y-98700000D01*
X145625000Y-98700000D01*
X145625000Y-99824999D01*
X145124999Y-99824999D01*
X145125000Y-99824998D01*
X145125000Y-98200000D01*
X145625000Y-98200000D01*
X146437499Y-98200000D01*
X146437499Y-97775028D01*
X146437498Y-97775013D01*
X146427005Y-97672302D01*
X146371858Y-97505880D01*
X146371856Y-97505875D01*
X146279815Y-97356654D01*
X146155845Y-97232684D01*
X146006624Y-97140643D01*
X146006619Y-97140641D01*
X145840197Y-97085494D01*
X145840190Y-97085493D01*
X145737486Y-97075000D01*
X145625000Y-97075000D01*
X145625000Y-98200000D01*
X145125000Y-98200000D01*
X145125000Y-97075000D01*
X145012527Y-97075000D01*
X145012512Y-97075001D01*
X144909802Y-97085494D01*
X144743380Y-97140641D01*
X144743375Y-97140643D01*
X144594154Y-97232684D01*
X144470182Y-97356656D01*
X144452038Y-97386073D01*
X144400090Y-97432797D01*
X144331127Y-97444018D01*
X144267045Y-97416174D01*
X144228190Y-97358105D01*
X144222500Y-97320975D01*
X144222500Y-96108230D01*
X144242185Y-96041191D01*
X144294989Y-95995436D01*
X144364147Y-95985492D01*
X144427703Y-96014517D01*
X144434181Y-96020549D01*
X144481344Y-96067712D01*
X144630666Y-96159814D01*
X144797203Y-96214999D01*
X144899991Y-96225500D01*
X145750008Y-96225499D01*
X145750016Y-96225498D01*
X145750019Y-96225498D01*
X145806302Y-96219748D01*
X145852797Y-96214999D01*
X146019334Y-96159814D01*
X146168656Y-96067712D01*
X146292712Y-95943656D01*
X146384814Y-95794334D01*
X146439999Y-95627797D01*
X146450500Y-95525009D01*
X146450499Y-94964916D01*
X146470183Y-94897878D01*
X146522987Y-94852123D01*
X146592146Y-94842179D01*
X146640470Y-94859922D01*
G37*
%TD.AperFunction*%
%TA.AperFunction,Conductor*%
G36*
X139786901Y-90358882D02*
G01*
X139926337Y-90423903D01*
X139926342Y-90423904D01*
X139926344Y-90423905D01*
X139943486Y-90428498D01*
X140154592Y-90485063D01*
X140342918Y-90501539D01*
X140389999Y-90505659D01*
X140390000Y-90505659D01*
X140390001Y-90505659D01*
X140429234Y-90502226D01*
X140625408Y-90485063D01*
X140829707Y-90430322D01*
X140899557Y-90431985D01*
X140957419Y-90471148D01*
X140984923Y-90535376D01*
X140985800Y-90550097D01*
X140985800Y-97267902D01*
X140966115Y-97334941D01*
X140949481Y-97355583D01*
X140647564Y-97657500D01*
X140350086Y-97954978D01*
X140350084Y-97954980D01*
X140271467Y-98033597D01*
X140236680Y-98068384D01*
X140175357Y-98101868D01*
X140105665Y-98096884D01*
X140049732Y-98055012D01*
X140025315Y-97989548D01*
X140024999Y-97980702D01*
X140024999Y-97800028D01*
X140024998Y-97800012D01*
X140014505Y-97697302D01*
X139959358Y-97530880D01*
X139959356Y-97530875D01*
X139867315Y-97381654D01*
X139743345Y-97257684D01*
X139594124Y-97165643D01*
X139594119Y-97165641D01*
X139427697Y-97110494D01*
X139427690Y-97110493D01*
X139324986Y-97100000D01*
X139212500Y-97100000D01*
X139212500Y-99849999D01*
X139324972Y-99849999D01*
X139324986Y-99849998D01*
X139427697Y-99839505D01*
X139594119Y-99784358D01*
X139594124Y-99784356D01*
X139743345Y-99692315D01*
X139867317Y-99568343D01*
X139888761Y-99533577D01*
X139940708Y-99486852D01*
X140009671Y-99475629D01*
X140073753Y-99503472D01*
X140112610Y-99561540D01*
X140118300Y-99598673D01*
X140118300Y-100964302D01*
X140098615Y-101031341D01*
X140081981Y-101051983D01*
X138062466Y-103071497D01*
X138001143Y-103104982D01*
X137931451Y-103099998D01*
X137875518Y-103058126D01*
X137862398Y-103036211D01*
X137859816Y-103030674D01*
X137859814Y-103030666D01*
X137767712Y-102881344D01*
X137685819Y-102799451D01*
X137652334Y-102738128D01*
X137649500Y-102711770D01*
X137649500Y-99149986D01*
X137900001Y-99149986D01*
X137910494Y-99252697D01*
X137965641Y-99419119D01*
X137965643Y-99419124D01*
X138057684Y-99568345D01*
X138181654Y-99692315D01*
X138330875Y-99784356D01*
X138330880Y-99784358D01*
X138497302Y-99839505D01*
X138497309Y-99839506D01*
X138600019Y-99849999D01*
X138712499Y-99849999D01*
X138712500Y-99849998D01*
X138712500Y-98725000D01*
X137900001Y-98725000D01*
X137900001Y-99149986D01*
X137649500Y-99149986D01*
X137649500Y-97800013D01*
X137900000Y-97800013D01*
X137900000Y-98225000D01*
X138712500Y-98225000D01*
X138712500Y-97100000D01*
X138600027Y-97100000D01*
X138600012Y-97100001D01*
X138497302Y-97110494D01*
X138330880Y-97165641D01*
X138330875Y-97165643D01*
X138181654Y-97257684D01*
X138057684Y-97381654D01*
X137965643Y-97530875D01*
X137965641Y-97530880D01*
X137910494Y-97697302D01*
X137910493Y-97697309D01*
X137900000Y-97800013D01*
X137649500Y-97800013D01*
X137649500Y-95947421D01*
X137669185Y-95880382D01*
X137721989Y-95834627D01*
X137791147Y-95824683D01*
X137854703Y-95853708D01*
X137879039Y-95882325D01*
X137916868Y-95943657D01*
X137932288Y-95968656D01*
X138056344Y-96092712D01*
X138205666Y-96184814D01*
X138372203Y-96239999D01*
X138474991Y-96250500D01*
X139325008Y-96250499D01*
X139325016Y-96250498D01*
X139325019Y-96250498D01*
X139381302Y-96244748D01*
X139427797Y-96239999D01*
X139594334Y-96184814D01*
X139743656Y-96092712D01*
X139867712Y-95968656D01*
X139959814Y-95819334D01*
X140014999Y-95652797D01*
X140025500Y-95550009D01*
X140025499Y-94199992D01*
X140014999Y-94097203D01*
X139959814Y-93930666D01*
X139867712Y-93781344D01*
X139743656Y-93657288D01*
X139743655Y-93657287D01*
X139669402Y-93611487D01*
X139622678Y-93559539D01*
X139610500Y-93505949D01*
X139610500Y-90471266D01*
X139630185Y-90404227D01*
X139682989Y-90358472D01*
X139752147Y-90348528D01*
X139786901Y-90358882D01*
G37*
%TD.AperFunction*%
%TA.AperFunction,Conductor*%
G36*
X144041827Y-75470184D02*
G01*
X144082173Y-75512497D01*
X144133188Y-75600857D01*
X144144479Y-75620414D01*
X144144481Y-75620417D01*
X144263349Y-75739285D01*
X144263355Y-75739290D01*
X144349734Y-75825669D01*
X144383219Y-75886992D01*
X144378235Y-75956684D01*
X144336363Y-76012617D01*
X144270899Y-76037034D01*
X144221099Y-76030392D01*
X144164057Y-76010432D01*
X144164049Y-76010430D01*
X143984804Y-75990235D01*
X143984796Y-75990235D01*
X143805550Y-76010430D01*
X143805545Y-76010431D01*
X143635276Y-76070011D01*
X143482537Y-76165984D01*
X143354984Y-76293537D01*
X143259011Y-76446276D01*
X143199431Y-76616545D01*
X143199430Y-76616550D01*
X143179235Y-76795796D01*
X143179235Y-76795803D01*
X143199430Y-76975049D01*
X143199431Y-76975054D01*
X143259011Y-77145323D01*
X143325913Y-77251796D01*
X143354984Y-77298062D01*
X143482538Y-77425616D01*
X143635278Y-77521589D01*
X143802255Y-77580016D01*
X143859030Y-77620738D01*
X143884778Y-77685690D01*
X143885300Y-77697058D01*
X143885300Y-78538338D01*
X143865615Y-78605377D01*
X143848981Y-78626019D01*
X143825000Y-78650000D01*
X143825000Y-81449999D01*
X143848981Y-81473980D01*
X143882466Y-81535303D01*
X143885300Y-81561661D01*
X143885300Y-85392661D01*
X143865615Y-85459700D01*
X143812811Y-85505455D01*
X143743653Y-85515399D01*
X143690176Y-85494236D01*
X143607578Y-85436399D01*
X143393492Y-85336570D01*
X143393486Y-85336567D01*
X143180000Y-85279364D01*
X143180000Y-86176988D01*
X143122993Y-86144075D01*
X142995826Y-86110000D01*
X142864174Y-86110000D01*
X142737007Y-86144075D01*
X142680000Y-86176988D01*
X142680000Y-85279364D01*
X142679999Y-85279364D01*
X142466513Y-85336567D01*
X142466502Y-85336571D01*
X142363204Y-85384740D01*
X142294127Y-85395232D01*
X142230343Y-85366712D01*
X142192104Y-85308235D01*
X142186800Y-85272358D01*
X142186800Y-85069196D01*
X142206485Y-85002157D01*
X142223115Y-84981519D01*
X142431806Y-84772827D01*
X142431811Y-84772824D01*
X142442014Y-84762620D01*
X142442016Y-84762620D01*
X142553820Y-84650816D01*
X142619349Y-84537316D01*
X142632877Y-84513885D01*
X142673801Y-84361157D01*
X142673801Y-84203043D01*
X142673801Y-84195448D01*
X142673800Y-84195430D01*
X142673800Y-81447965D01*
X142693485Y-81380926D01*
X142746289Y-81335171D01*
X142815447Y-81325227D01*
X142862897Y-81342427D01*
X142930869Y-81384353D01*
X142930880Y-81384358D01*
X143097302Y-81439505D01*
X143097309Y-81439506D01*
X143200019Y-81449999D01*
X143324999Y-81449999D01*
X143325000Y-81449998D01*
X143325000Y-78650000D01*
X143200027Y-78650000D01*
X143200012Y-78650001D01*
X143097302Y-78660494D01*
X142930880Y-78715641D01*
X142930871Y-78715645D01*
X142862896Y-78757573D01*
X142795504Y-78776013D01*
X142728840Y-78755090D01*
X142684071Y-78701448D01*
X142673800Y-78652034D01*
X142673800Y-75574499D01*
X142693485Y-75507460D01*
X142746289Y-75461705D01*
X142797800Y-75450499D01*
X143974788Y-75450499D01*
X144041827Y-75470184D01*
G37*
%TD.AperFunction*%
%TA.AperFunction,Conductor*%
G36*
X140737834Y-75782414D02*
G01*
X140793767Y-75824286D01*
X140818184Y-75889750D01*
X140818500Y-75898596D01*
X140818500Y-78895803D01*
X140798815Y-78962842D01*
X140782181Y-78983484D01*
X137309481Y-82456184D01*
X137248158Y-82489669D01*
X137178466Y-82484685D01*
X137122533Y-82442813D01*
X137098116Y-82377349D01*
X137097800Y-82368503D01*
X137097800Y-81428561D01*
X137117485Y-81361522D01*
X137125000Y-81352196D01*
X137125000Y-81349999D01*
X137625000Y-81349999D01*
X137749972Y-81349999D01*
X137749986Y-81349998D01*
X137852697Y-81339505D01*
X138019119Y-81284358D01*
X138019124Y-81284356D01*
X138168345Y-81192315D01*
X138292315Y-81068345D01*
X138384356Y-80919124D01*
X138384358Y-80919119D01*
X138439505Y-80752697D01*
X138439506Y-80752690D01*
X138449999Y-80649986D01*
X138450000Y-80649973D01*
X138450000Y-80200000D01*
X137625000Y-80200000D01*
X137625000Y-81349999D01*
X137125000Y-81349999D01*
X137125000Y-79824000D01*
X137144685Y-79756961D01*
X137197489Y-79711206D01*
X137249000Y-79700000D01*
X138449999Y-79700000D01*
X138449999Y-79250028D01*
X138449998Y-79250013D01*
X138439505Y-79147302D01*
X138384358Y-78980880D01*
X138384356Y-78980875D01*
X138292315Y-78831654D01*
X138168345Y-78707684D01*
X138018363Y-78615174D01*
X137971638Y-78563226D01*
X137960417Y-78494263D01*
X137988260Y-78430181D01*
X137995757Y-78421977D01*
X140606821Y-75810913D01*
X140668142Y-75777430D01*
X140737834Y-75782414D01*
G37*
%TD.AperFunction*%
%TD*%
M02*
