M48
; DRILL file {KiCad 8.0.2} date 2024-07-19T13:16:25-0600
; FORMAT={-:-/ absolute / inch / decimal}
; #@! TF.CreationDate,2024-07-19T13:16:25-06:00
; #@! TF.GenerationSoftware,Kicad,Pcbnew,8.0.2
; #@! TF.FileFunction,Plated,1,2,PTH
FMAT,2
INCH
; #@! TA.AperFunction,Plated,PTH,ViaDrill
T1C0.0118
; #@! TA.AperFunction,Plated,PTH,ComponentDrill
T2C0.0394
%
G90
G05
T1
X5.2032Y-2.1787
X5.328Y-2.2972
X5.3996Y-2.3475
X5.4093Y-3.2016
X5.4338Y-2.6548
X5.4603Y-2.3483
X5.4725Y-3.3137
X5.4937Y-2.3489
X5.5244Y-2.2484
X5.5341Y-2.3669
X5.5571Y-2.9102
X5.5681Y-2.3888
X5.5952Y-2.4442
X5.6022Y-3.852
X5.6182Y-2.9225
X5.636Y-2.4773
X5.6474Y-2.9058
X5.66Y-2.5527
X5.6843Y-2.5939
T2
X4.7953Y-2.0423
X4.7953Y-2.1423
X4.7953Y-2.2423
X4.7953Y-2.3423
X4.7953Y-2.4423
X4.7953Y-2.5423
X4.7953Y-2.6423
X4.7953Y-2.7423
X4.7982Y-2.9193
X4.7982Y-3.0193
X4.7982Y-3.1193
X4.7982Y-3.2193
X4.7982Y-3.3193
X4.7982Y-3.4193
X4.7982Y-3.5193
X4.7982Y-3.6193
X4.7992Y-3.7949
X4.7992Y-3.8949
X4.7992Y-3.9949
X4.7992Y-4.0949
X4.7992Y-4.1949
X4.7992Y-4.2949
X5.175Y-4.5531
X5.175Y-4.6531
X5.1762Y-1.6461
X5.1762Y-1.7461
X5.275Y-4.5531
X5.275Y-4.6531
X5.2762Y-1.6461
X5.2762Y-1.7461
X5.375Y-4.5531
X5.375Y-4.6531
X5.3762Y-1.6461
X5.3762Y-1.7461
X5.4246Y-3.6864
X5.4246Y-3.7864
X5.475Y-4.5531
X5.475Y-4.6531
X5.4762Y-1.6461
X5.4762Y-1.7461
X5.5246Y-3.6864
X5.5246Y-3.7864
X5.575Y-4.5531
X5.575Y-4.6531
X5.5762Y-1.6461
X5.5762Y-1.7461
X5.6246Y-3.6864
X5.6246Y-3.7864
X5.675Y-4.5531
X5.675Y-4.6531
X5.6762Y-1.6461
X5.6762Y-1.7461
X5.775Y-4.5531
X5.775Y-4.6531
X5.7762Y-1.6461
X5.7762Y-1.7461
X5.875Y-4.5531
X5.875Y-4.6531
X5.8762Y-1.6461
X5.8762Y-1.7461
X6.2283Y-2.0433
X6.2283Y-2.1433
X6.2283Y-2.2433
X6.2283Y-2.3433
X6.2283Y-2.4433
X6.2283Y-2.5433
X6.2293Y-3.5939
X6.2293Y-3.6939
X6.2293Y-3.7939
X6.2293Y-3.8939
X6.2293Y-3.9939
X6.2293Y-4.0939
X6.2293Y-4.1939
X6.2293Y-4.2939
X6.2303Y-2.7209
X6.2303Y-2.8209
X6.2303Y-2.9209
X6.2303Y-3.0209
X6.2303Y-3.1209
X6.2303Y-3.2209
X6.2303Y-3.3209
X6.2303Y-3.4209
M30
