%TF.GenerationSoftware,KiCad,Pcbnew,8.0.2*%
%TF.CreationDate,2024-10-15T08:36:28-06:00*%
%TF.ProjectId,32u4_breakout,33327534-5f62-4726-9561-6b6f75742e6b,rev?*%
%TF.SameCoordinates,Original*%
%TF.FileFunction,Copper,L1,Top*%
%TF.FilePolarity,Positive*%
%FSLAX46Y46*%
G04 Gerber Fmt 4.6, Leading zero omitted, Abs format (unit mm)*
G04 Created by KiCad (PCBNEW 8.0.2) date 2024-10-15 08:36:28*
%MOMM*%
%LPD*%
G01*
G04 APERTURE LIST*
G04 Aperture macros list*
%AMRoundRect*
0 Rectangle with rounded corners*
0 $1 Rounding radius*
0 $2 $3 $4 $5 $6 $7 $8 $9 X,Y pos of 4 corners*
0 Add a 4 corners polygon primitive as box body*
4,1,4,$2,$3,$4,$5,$6,$7,$8,$9,$2,$3,0*
0 Add four circle primitives for the rounded corners*
1,1,$1+$1,$2,$3*
1,1,$1+$1,$4,$5*
1,1,$1+$1,$6,$7*
1,1,$1+$1,$8,$9*
0 Add four rect primitives between the rounded corners*
20,1,$1+$1,$2,$3,$4,$5,0*
20,1,$1+$1,$4,$5,$6,$7,0*
20,1,$1+$1,$6,$7,$8,$9,0*
20,1,$1+$1,$8,$9,$2,$3,0*%
G04 Aperture macros list end*
%TA.AperFunction,SMDPad,CuDef*%
%ADD10R,4.500000X2.000000*%
%TD*%
%TA.AperFunction,ComponentPad*%
%ADD11R,1.700000X1.700000*%
%TD*%
%TA.AperFunction,ComponentPad*%
%ADD12O,1.700000X1.700000*%
%TD*%
%TA.AperFunction,SMDPad,CuDef*%
%ADD13RoundRect,0.250000X-0.312500X-0.625000X0.312500X-0.625000X0.312500X0.625000X-0.312500X0.625000X0*%
%TD*%
%TA.AperFunction,SMDPad,CuDef*%
%ADD14RoundRect,0.250000X-0.650000X0.325000X-0.650000X-0.325000X0.650000X-0.325000X0.650000X0.325000X0*%
%TD*%
%TA.AperFunction,SMDPad,CuDef*%
%ADD15RoundRect,0.250000X-0.375000X-0.625000X0.375000X-0.625000X0.375000X0.625000X-0.375000X0.625000X0*%
%TD*%
%TA.AperFunction,SMDPad,CuDef*%
%ADD16R,1.500000X0.550000*%
%TD*%
%TA.AperFunction,SMDPad,CuDef*%
%ADD17R,0.550000X1.500000*%
%TD*%
%TA.AperFunction,SMDPad,CuDef*%
%ADD18RoundRect,0.250000X0.325000X0.650000X-0.325000X0.650000X-0.325000X-0.650000X0.325000X-0.650000X0*%
%TD*%
%TA.AperFunction,SMDPad,CuDef*%
%ADD19RoundRect,0.250000X-0.325000X-0.650000X0.325000X-0.650000X0.325000X0.650000X-0.325000X0.650000X0*%
%TD*%
%TA.AperFunction,SMDPad,CuDef*%
%ADD20RoundRect,0.250000X0.650000X-0.325000X0.650000X0.325000X-0.650000X0.325000X-0.650000X-0.325000X0*%
%TD*%
%TA.AperFunction,ViaPad*%
%ADD21C,0.600000*%
%TD*%
%TA.AperFunction,Conductor*%
%ADD22C,0.200000*%
%TD*%
G04 APERTURE END LIST*
D10*
%TO.P,Y1,1,1*%
%TO.N,XTAL1*%
X144625000Y-73950000D03*
%TO.P,Y1,2,2*%
%TO.N,XTAL2*%
X136125000Y-73950000D03*
%TD*%
D11*
%TO.P,J4,1,Pin_1*%
%TO.N,XTAL1*%
X121900000Y-96390000D03*
D12*
%TO.P,J4,2,Pin_2*%
%TO.N,Net-(J4-Pin_2)*%
X121900000Y-98930000D03*
%TO.P,J4,3,Pin_3*%
%TO.N,Net-(J4-Pin_3)*%
X121900000Y-101470000D03*
%TO.P,J4,4,Pin_4*%
%TO.N,Net-(J4-Pin_4)*%
X121900000Y-104010000D03*
%TO.P,J4,5,Pin_5*%
%TO.N,Net-(J4-Pin_5)*%
X121900000Y-106550000D03*
%TO.P,J4,6,Pin_6*%
%TO.N,Net-(J4-Pin_6)*%
X121900000Y-109090000D03*
%TD*%
D13*
%TO.P,R1,1*%
%TO.N,Net-(D1-K)*%
X136037500Y-98475000D03*
%TO.P,R1,2*%
%TO.N,GND*%
X138962500Y-98475000D03*
%TD*%
D14*
%TO.P,C3,1*%
%TO.N,AREF*%
X136525000Y-103675000D03*
%TO.P,C3,2*%
%TO.N,Net-(J9-Pin_11)*%
X136525000Y-106625000D03*
%TD*%
D11*
%TO.P,J9,1,Pin_1*%
%TO.N,GND5*%
X149225000Y-115650000D03*
D12*
%TO.P,J9,2,Pin_2*%
%TO.N,GND*%
X149225000Y-118190000D03*
%TO.P,J9,3,Pin_3*%
%TO.N,GND15*%
X146685000Y-115650000D03*
%TO.P,J9,4,Pin_4*%
%TO.N,GND*%
X146685000Y-118190000D03*
%TO.P,J9,5,Pin_5*%
%TO.N,GND23*%
X144145000Y-115650000D03*
%TO.P,J9,6,Pin_6*%
%TO.N,GND*%
X144145000Y-118190000D03*
%TO.P,J9,7,Pin_7*%
%TO.N,GND35*%
X141605000Y-115650000D03*
%TO.P,J9,8,Pin_8*%
%TO.N,GND*%
X141605000Y-118190000D03*
%TO.P,J9,9,Pin_9*%
%TO.N,GND43*%
X139065000Y-115650000D03*
%TO.P,J9,10,Pin_10*%
%TO.N,GND*%
X139065000Y-118190000D03*
%TO.P,J9,11,Pin_11*%
%TO.N,Net-(J9-Pin_11)*%
X136525000Y-115650000D03*
%TO.P,J9,12,Pin_12*%
%TO.N,GND*%
X136525000Y-118190000D03*
%TO.P,J9,13,Pin_13*%
%TO.N,Net-(J9-Pin_13)*%
X133985000Y-115650000D03*
%TO.P,J9,14,Pin_14*%
%TO.N,GND*%
X133985000Y-118190000D03*
%TO.P,J9,15,Pin_15*%
%TO.N,unconnected-(J9-Pin_15-Pad15)*%
X131445000Y-115650000D03*
%TO.P,J9,16,Pin_16*%
%TO.N,GND*%
X131445000Y-118190000D03*
%TD*%
D15*
%TO.P,D1,1,K*%
%TO.N,Net-(D1-K)*%
X136100000Y-94875000D03*
%TO.P,D1,2,A*%
%TO.N,5V*%
X138900000Y-94875000D03*
%TD*%
D11*
%TO.P,J7,1,Pin_1*%
%TO.N,Net-(J7-Pin_1)*%
X158200000Y-64600000D03*
D12*
%TO.P,J7,2,Pin_2*%
%TO.N,Net-(J7-Pin_2)*%
X158200000Y-62060000D03*
%TO.P,J7,3,Pin_3*%
%TO.N,Net-(J7-Pin_3)*%
X158200000Y-59520000D03*
%TO.P,J7,4,Pin_4*%
%TO.N,AREF*%
X158200000Y-56980000D03*
%TO.P,J7,5,Pin_5*%
%TO.N,GND43*%
X158200000Y-54440000D03*
%TO.P,J7,6,Pin_6*%
%TO.N,PWR44*%
X158200000Y-51900000D03*
%TD*%
D16*
%TO.P,U1,1,PE6*%
%TO.N,Net-(J2-Pin_1)*%
X134675000Y-57275000D03*
%TO.P,U1,2,UVCC*%
%TO.N,PWR2*%
X134675000Y-58075000D03*
%TO.P,U1,3,D-*%
%TO.N,Net-(J2-Pin_3)*%
X134675000Y-58875000D03*
%TO.P,U1,4,D+*%
%TO.N,Net-(J2-Pin_4)*%
X134675000Y-59675000D03*
%TO.P,U1,5,UGND*%
%TO.N,GND5*%
X134675000Y-60475000D03*
%TO.P,U1,6,UCAP*%
%TO.N,UCAP*%
X134675000Y-61275000D03*
%TO.P,U1,7,VBUS*%
%TO.N,VBUS*%
X134675000Y-62075000D03*
%TO.P,U1,8,PB0*%
%TO.N,Net-(J2-Pin_8)*%
X134675000Y-62875000D03*
%TO.P,U1,9,PB1*%
%TO.N,SCK*%
X134675000Y-63675000D03*
%TO.P,U1,10,PB2*%
%TO.N,MOSI*%
X134675000Y-64475000D03*
%TO.P,U1,11,PB3*%
%TO.N,MISO*%
X134675000Y-65275000D03*
D17*
%TO.P,U1,12,PB7*%
%TO.N,Net-(J3-Pin_4)*%
X136375000Y-66975000D03*
%TO.P,U1,13,~{RESET}*%
%TO.N,RESET*%
X137175000Y-66975000D03*
%TO.P,U1,14,VCC*%
%TO.N,PWR14*%
X137975000Y-66975000D03*
%TO.P,U1,15,GND*%
%TO.N,GND15*%
X138775000Y-66975000D03*
%TO.P,U1,16,XTAL2*%
%TO.N,XTAL2*%
X139575000Y-66975000D03*
%TO.P,U1,17,XTAL1*%
%TO.N,XTAL1*%
X140375000Y-66975000D03*
%TO.P,U1,18,PD0*%
%TO.N,Net-(J4-Pin_2)*%
X141175000Y-66975000D03*
%TO.P,U1,19,PD1*%
%TO.N,Net-(J4-Pin_3)*%
X141975000Y-66975000D03*
%TO.P,U1,20,PD2*%
%TO.N,Net-(J4-Pin_4)*%
X142775000Y-66975000D03*
%TO.P,U1,21,PD3*%
%TO.N,Net-(J4-Pin_5)*%
X143575000Y-66975000D03*
%TO.P,U1,22,PD5*%
%TO.N,Net-(J4-Pin_6)*%
X144375000Y-66975000D03*
D16*
%TO.P,U1,23,GND*%
%TO.N,GND23*%
X146075000Y-65275000D03*
%TO.P,U1,24,AVCC*%
%TO.N,PWR24*%
X146075000Y-64475000D03*
%TO.P,U1,25,PD4*%
%TO.N,Net-(J5-Pin_3)*%
X146075000Y-63675000D03*
%TO.P,U1,26,PD6*%
%TO.N,Net-(J5-Pin_4)*%
X146075000Y-62875000D03*
%TO.P,U1,27,PD7*%
%TO.N,Net-(J5-Pin_5)*%
X146075000Y-62075000D03*
%TO.P,U1,28,PB4*%
%TO.N,Net-(J5-Pin_6)*%
X146075000Y-61275000D03*
%TO.P,U1,29,PB5*%
%TO.N,Net-(J5-Pin_7)*%
X146075000Y-60475000D03*
%TO.P,U1,30,PB6*%
%TO.N,Net-(J5-Pin_8)*%
X146075000Y-59675000D03*
%TO.P,U1,31,PC6*%
%TO.N,Net-(J6-Pin_1)*%
X146075000Y-58875000D03*
%TO.P,U1,32,PC7*%
%TO.N,IO13*%
X146075000Y-58075000D03*
%TO.P,U1,33,~{HWB}/PE2*%
%TO.N,Net-(J6-Pin_3)*%
X146075000Y-57275000D03*
D17*
%TO.P,U1,34,VCC*%
%TO.N,PWR34*%
X144375000Y-55575000D03*
%TO.P,U1,35,GND*%
%TO.N,GND35*%
X143575000Y-55575000D03*
%TO.P,U1,36,PF7*%
%TO.N,Net-(J6-Pin_6)*%
X142775000Y-55575000D03*
%TO.P,U1,37,PF6*%
%TO.N,Net-(J6-Pin_7)*%
X141975000Y-55575000D03*
%TO.P,U1,38,PF5*%
%TO.N,Net-(J6-Pin_8)*%
X141175000Y-55575000D03*
%TO.P,U1,39,PF4*%
%TO.N,Net-(J7-Pin_1)*%
X140375000Y-55575000D03*
%TO.P,U1,40,PF1*%
%TO.N,Net-(J7-Pin_2)*%
X139575000Y-55575000D03*
%TO.P,U1,41,PF0*%
%TO.N,Net-(J7-Pin_3)*%
X138775000Y-55575000D03*
%TO.P,U1,42,AREF*%
%TO.N,AREF*%
X137975000Y-55575000D03*
%TO.P,U1,43,GND*%
%TO.N,GND43*%
X137175000Y-55575000D03*
%TO.P,U1,44,AVCC*%
%TO.N,PWR44*%
X136375000Y-55575000D03*
%TD*%
D11*
%TO.P,J6,1,Pin_1*%
%TO.N,Net-(J6-Pin_1)*%
X158250000Y-86890000D03*
D12*
%TO.P,J6,2,Pin_2*%
%TO.N,IO13*%
X158250000Y-84350000D03*
%TO.P,J6,3,Pin_3*%
%TO.N,Net-(J6-Pin_3)*%
X158250000Y-81810000D03*
%TO.P,J6,4,Pin_4*%
%TO.N,PWR34*%
X158250000Y-79270000D03*
%TO.P,J6,5,Pin_5*%
%TO.N,GND35*%
X158250000Y-76730000D03*
%TO.P,J6,6,Pin_6*%
%TO.N,Net-(J6-Pin_6)*%
X158250000Y-74190000D03*
%TO.P,J6,7,Pin_7*%
%TO.N,Net-(J6-Pin_7)*%
X158250000Y-71650000D03*
%TO.P,J6,8,Pin_8*%
%TO.N,Net-(J6-Pin_8)*%
X158250000Y-69110000D03*
%TD*%
D18*
%TO.P,C1,1*%
%TO.N,XTAL1*%
X146525000Y-80050000D03*
%TO.P,C1,2*%
%TO.N,GND*%
X143575000Y-80050000D03*
%TD*%
D11*
%TO.P,J8,1,Pin_1*%
%TO.N,PWR2*%
X131475000Y-44350000D03*
D12*
%TO.P,J8,2,Pin_2*%
%TO.N,5V*%
X131475000Y-41810000D03*
%TO.P,J8,3,Pin_3*%
%TO.N,PWR14*%
X134015000Y-44350000D03*
%TO.P,J8,4,Pin_4*%
%TO.N,5V*%
X134015000Y-41810000D03*
%TO.P,J8,5,Pin_5*%
%TO.N,PWR24*%
X136555000Y-44350000D03*
%TO.P,J8,6,Pin_6*%
%TO.N,5V*%
X136555000Y-41810000D03*
%TO.P,J8,7,Pin_7*%
%TO.N,PWR34*%
X139095000Y-44350000D03*
%TO.P,J8,8,Pin_8*%
%TO.N,5V*%
X139095000Y-41810000D03*
%TO.P,J8,9,Pin_9*%
%TO.N,PWR44*%
X141635000Y-44350000D03*
%TO.P,J8,10,Pin_10*%
%TO.N,5V*%
X141635000Y-41810000D03*
%TO.P,J8,11,Pin_11*%
%TO.N,VBUS*%
X144175000Y-44350000D03*
%TO.P,J8,12,Pin_12*%
%TO.N,5V*%
X144175000Y-41810000D03*
%TO.P,J8,13,Pin_13*%
%TO.N,unconnected-(J8-Pin_13-Pad13)*%
X146715000Y-44350000D03*
%TO.P,J8,14,Pin_14*%
%TO.N,5V*%
X146715000Y-41810000D03*
%TO.P,J8,15,Pin_15*%
%TO.N,unconnected-(J8-Pin_15-Pad15)*%
X149255000Y-44350000D03*
%TO.P,J8,16,Pin_16*%
%TO.N,5V*%
X149255000Y-41810000D03*
%TD*%
D11*
%TO.P,J1,1,Pin_1*%
%TO.N,MISO*%
X137850000Y-89150000D03*
D12*
%TO.P,J1,2,Pin_2*%
%TO.N,5V*%
X137850000Y-86610000D03*
%TO.P,J1,3,Pin_3*%
%TO.N,SCK*%
X140390000Y-89150000D03*
%TO.P,J1,4,Pin_4*%
%TO.N,MOSI*%
X140390000Y-86610000D03*
%TO.P,J1,5,Pin_5*%
%TO.N,RESET*%
X142930000Y-89150000D03*
%TO.P,J1,6,Pin_6*%
%TO.N,GND*%
X142930000Y-86610000D03*
%TD*%
D11*
%TO.P,J2,1,Pin_1*%
%TO.N,Net-(J2-Pin_1)*%
X121800000Y-51875000D03*
D12*
%TO.P,J2,2,Pin_2*%
%TO.N,PWR2*%
X121800000Y-54415000D03*
%TO.P,J2,3,Pin_3*%
%TO.N,Net-(J2-Pin_3)*%
X121800000Y-56955000D03*
%TO.P,J2,4,Pin_4*%
%TO.N,Net-(J2-Pin_4)*%
X121800000Y-59495000D03*
%TO.P,J2,5,Pin_5*%
%TO.N,GND5*%
X121800000Y-62035000D03*
%TO.P,J2,6,Pin_6*%
%TO.N,UCAP*%
X121800000Y-64575000D03*
%TO.P,J2,7,Pin_7*%
%TO.N,VBUS*%
X121800000Y-67115000D03*
%TO.P,J2,8,Pin_8*%
%TO.N,Net-(J2-Pin_8)*%
X121800000Y-69655000D03*
%TD*%
D19*
%TO.P,C2,1*%
%TO.N,XTAL2*%
X134425000Y-79950000D03*
%TO.P,C2,2*%
%TO.N,GND*%
X137375000Y-79950000D03*
%TD*%
D15*
%TO.P,D2,1,K*%
%TO.N,Net-(D2-K)*%
X142525000Y-94850000D03*
%TO.P,D2,2,A*%
%TO.N,IO13*%
X145325000Y-94850000D03*
%TD*%
D11*
%TO.P,J5,1,Pin_1*%
%TO.N,GND23*%
X158225000Y-109065000D03*
D12*
%TO.P,J5,2,Pin_2*%
%TO.N,PWR24*%
X158225000Y-106525000D03*
%TO.P,J5,3,Pin_3*%
%TO.N,Net-(J5-Pin_3)*%
X158225000Y-103985000D03*
%TO.P,J5,4,Pin_4*%
%TO.N,Net-(J5-Pin_4)*%
X158225000Y-101445000D03*
%TO.P,J5,5,Pin_5*%
%TO.N,Net-(J5-Pin_5)*%
X158225000Y-98905000D03*
%TO.P,J5,6,Pin_6*%
%TO.N,Net-(J5-Pin_6)*%
X158225000Y-96365000D03*
%TO.P,J5,7,Pin_7*%
%TO.N,Net-(J5-Pin_7)*%
X158225000Y-93825000D03*
%TO.P,J5,8,Pin_8*%
%TO.N,Net-(J5-Pin_8)*%
X158225000Y-91285000D03*
%TD*%
D20*
%TO.P,C4,1*%
%TO.N,Net-(J9-Pin_13)*%
X132900000Y-106625000D03*
%TO.P,C4,2*%
%TO.N,UCAP*%
X132900000Y-103675000D03*
%TD*%
D13*
%TO.P,R2,1*%
%TO.N,Net-(D2-K)*%
X142450000Y-98450000D03*
%TO.P,R2,2*%
%TO.N,GND*%
X145375000Y-98450000D03*
%TD*%
D11*
%TO.P,J3,1,Pin_1*%
%TO.N,SCK*%
X121875000Y-74150000D03*
D12*
%TO.P,J3,2,Pin_2*%
%TO.N,MOSI*%
X121875000Y-76690000D03*
%TO.P,J3,3,Pin_3*%
%TO.N,MISO*%
X121875000Y-79230000D03*
%TO.P,J3,4,Pin_4*%
%TO.N,Net-(J3-Pin_4)*%
X121875000Y-81770000D03*
%TO.P,J3,5,Pin_5*%
%TO.N,RESET*%
X121875000Y-84310000D03*
%TO.P,J3,6,Pin_6*%
%TO.N,PWR14*%
X121875000Y-86850000D03*
%TO.P,J3,7,Pin_7*%
%TO.N,GND15*%
X121875000Y-89390000D03*
%TO.P,J3,8,Pin_8*%
%TO.N,XTAL2*%
X121875000Y-91930000D03*
%TD*%
D21*
%TO.N,Net-(J7-Pin_1)*%
X140678400Y-57378200D03*
%TO.N,Net-(J7-Pin_3)*%
X138911700Y-56836200D03*
%TO.N,GND43*%
X137508700Y-54322100D03*
%TO.N,Net-(J7-Pin_2)*%
X139794000Y-56982400D03*
%TO.N,IO13*%
X145608100Y-93416400D03*
%TO.N,Net-(J6-Pin_6)*%
X143106000Y-59721600D03*
%TO.N,Net-(J6-Pin_8)*%
X141480200Y-57779900D03*
%TO.N,PWR34*%
X144375000Y-53478700D03*
%TO.N,Net-(J6-Pin_7)*%
X142282000Y-58181600D03*
%TO.N,GND35*%
X143774100Y-62300700D03*
%TO.N,Net-(J4-Pin_4)*%
X139151400Y-91757800D03*
%TO.N,Net-(J4-Pin_3)*%
X135761200Y-91281500D03*
%TO.N,Net-(J4-Pin_6)*%
X144347800Y-68582600D03*
%TO.N,Net-(J4-Pin_5)*%
X141735600Y-91338300D03*
%TO.N,Net-(J4-Pin_2)*%
X135159500Y-90630400D03*
%TO.N,Net-(J3-Pin_4)*%
X135068300Y-69277500D03*
%TO.N,PWR14*%
X136739800Y-58596500D03*
X132108700Y-81514400D03*
%TO.N,GND15*%
X132074000Y-85228600D03*
%TO.N,Net-(J2-Pin_3)*%
X133411300Y-58717500D03*
%TO.N,Net-(J2-Pin_1)*%
X132745000Y-56298900D03*
%TO.N,Net-(J2-Pin_4)*%
X133396700Y-59652900D03*
%TO.N,GND5*%
X133422700Y-60631100D03*
X144642100Y-85895800D03*
%TO.N,5V*%
X139681200Y-71713500D03*
%TO.N,RESET*%
X131712600Y-84212600D03*
%TO.N,UCAP*%
X132984600Y-61353000D03*
%TO.N,AREF*%
X137975000Y-56849000D03*
%TO.N,XTAL1*%
X145276400Y-89114700D03*
%TD*%
D22*
%TO.N,Net-(D2-K)*%
X142450000Y-94925000D02*
X142450000Y-98450000D01*
X142525000Y-94850000D02*
X142450000Y-94925000D01*
%TO.N,Net-(D1-K)*%
X136037500Y-94937500D02*
X136037500Y-98475000D01*
X136100000Y-94875000D02*
X136037500Y-94937500D01*
%TO.N,PWR44*%
X136375000Y-50761700D02*
X136375000Y-55575000D01*
X141635000Y-45501700D02*
X136375000Y-50761700D01*
X141635000Y-44350000D02*
X141635000Y-45501700D01*
%TO.N,Net-(J7-Pin_1)*%
X140375000Y-55575000D02*
X140375000Y-56626700D01*
X140678400Y-56930100D02*
X140678400Y-57378200D01*
X140375000Y-56626700D02*
X140678400Y-56930100D01*
%TO.N,Net-(J7-Pin_3)*%
X138775000Y-56699500D02*
X138911700Y-56836200D01*
X138775000Y-55575000D02*
X138775000Y-56699500D01*
%TO.N,GND43*%
X137307500Y-54523300D02*
X137508700Y-54322100D01*
X137175000Y-54523300D02*
X137307500Y-54523300D01*
X137175000Y-55575000D02*
X137175000Y-54523300D01*
%TO.N,Net-(J7-Pin_2)*%
X139575000Y-55575000D02*
X139575000Y-56626700D01*
X139575000Y-56763400D02*
X139794000Y-56982400D01*
X139575000Y-56626700D02*
X139575000Y-56763400D01*
%TO.N,IO13*%
X158250000Y-84350000D02*
X158250000Y-83198300D01*
X146075000Y-58075000D02*
X147126700Y-58075000D01*
X157962100Y-83198300D02*
X158250000Y-83198300D01*
X156607200Y-81843400D02*
X157962100Y-83198300D01*
X156607200Y-67555500D02*
X156607200Y-81843400D01*
X147126700Y-58075000D02*
X156607200Y-67555500D01*
X145325000Y-93699500D02*
X145608100Y-93416400D01*
X145325000Y-94850000D02*
X145325000Y-93699500D01*
%TO.N,Net-(J6-Pin_6)*%
X142775000Y-56860800D02*
X142775000Y-55575000D01*
X143106000Y-57191800D02*
X142775000Y-56860800D01*
X143106000Y-59721600D02*
X143106000Y-57191800D01*
%TO.N,Net-(J6-Pin_8)*%
X141175000Y-55575000D02*
X141175000Y-56626700D01*
X141480200Y-56931900D02*
X141480200Y-57779900D01*
X141175000Y-56626700D02*
X141480200Y-56931900D01*
%TO.N,Net-(J6-Pin_1)*%
X158250000Y-86890000D02*
X158250000Y-85738300D01*
X146075000Y-58875000D02*
X147126700Y-58875000D01*
X156205500Y-67953800D02*
X147126700Y-58875000D01*
X156205500Y-83939000D02*
X156205500Y-67953800D01*
X158004800Y-85738300D02*
X156205500Y-83939000D01*
X158250000Y-85738300D02*
X158004800Y-85738300D01*
%TO.N,PWR34*%
X144375000Y-53478700D02*
X144375000Y-55575000D01*
%TO.N,Net-(J6-Pin_3)*%
X157098300Y-67246600D02*
X147126700Y-57275000D01*
X157098300Y-79794600D02*
X157098300Y-67246600D01*
X157962000Y-80658300D02*
X157098300Y-79794600D01*
X158250000Y-80658300D02*
X157962000Y-80658300D01*
X158250000Y-81810000D02*
X158250000Y-80658300D01*
X146075000Y-57275000D02*
X147126700Y-57275000D01*
%TO.N,Net-(J6-Pin_7)*%
X141975000Y-55575000D02*
X141975000Y-56626700D01*
X142282000Y-56933700D02*
X142282000Y-58181600D01*
X141975000Y-56626700D02*
X142282000Y-56933700D01*
%TO.N,GND35*%
X143774100Y-56825800D02*
X143575000Y-56626700D01*
X143774100Y-62300700D02*
X143774100Y-56825800D01*
X143575000Y-55575000D02*
X143575000Y-56626700D01*
%TO.N,GND23*%
X147839800Y-65988100D02*
X147126700Y-65275000D01*
X147839800Y-97816000D02*
X147839800Y-65988100D01*
X157937100Y-107913300D02*
X147839800Y-97816000D01*
X158225000Y-107913300D02*
X157937100Y-107913300D01*
X158225000Y-109065000D02*
X158225000Y-107913300D01*
X146075000Y-65275000D02*
X147126700Y-65275000D01*
%TO.N,PWR24*%
X146075000Y-64475000D02*
X147126700Y-64475000D01*
X158225000Y-106525000D02*
X158225000Y-105373300D01*
X145023300Y-50115800D02*
X145023300Y-64475000D01*
X142808300Y-47900800D02*
X145023300Y-50115800D01*
X142808300Y-43835000D02*
X142808300Y-47900800D01*
X142113200Y-43139900D02*
X142808300Y-43835000D01*
X138628900Y-43139900D02*
X142113200Y-43139900D01*
X137706700Y-44062100D02*
X138628900Y-43139900D01*
X137706700Y-44350000D02*
X137706700Y-44062100D01*
X136555000Y-44350000D02*
X137706700Y-44350000D01*
X146075000Y-64475000D02*
X145023300Y-64475000D01*
X148241500Y-65589800D02*
X147126700Y-64475000D01*
X148241500Y-95658300D02*
X148241500Y-65589800D01*
X157956500Y-105373300D02*
X148241500Y-95658300D01*
X158225000Y-105373300D02*
X157956500Y-105373300D01*
%TO.N,Net-(J5-Pin_8)*%
X155803800Y-68352100D02*
X147126700Y-59675000D01*
X155803800Y-87712100D02*
X155803800Y-68352100D01*
X158225000Y-90133300D02*
X155803800Y-87712100D01*
X158225000Y-91285000D02*
X158225000Y-90133300D01*
X146075000Y-59675000D02*
X147126700Y-59675000D01*
%TO.N,Net-(J5-Pin_3)*%
X158225000Y-103985000D02*
X158225000Y-102833300D01*
X146075000Y-63675000D02*
X147126700Y-63675000D01*
X148643200Y-65191500D02*
X147126700Y-63675000D01*
X148643200Y-93539400D02*
X148643200Y-65191500D01*
X157937100Y-102833300D02*
X148643200Y-93539400D01*
X158225000Y-102833300D02*
X157937100Y-102833300D01*
%TO.N,Net-(J5-Pin_4)*%
X158225000Y-101445000D02*
X158225000Y-100293300D01*
X146075000Y-62875000D02*
X147126700Y-62875000D01*
X149445100Y-65193400D02*
X147126700Y-62875000D01*
X149445100Y-91801300D02*
X149445100Y-65193400D01*
X157937100Y-100293300D02*
X149445100Y-91801300D01*
X158225000Y-100293300D02*
X157937100Y-100293300D01*
%TO.N,Net-(J5-Pin_7)*%
X158225000Y-93825000D02*
X158225000Y-92673300D01*
X146075000Y-60475000D02*
X147126700Y-60475000D01*
X150650200Y-63998500D02*
X147126700Y-60475000D01*
X150650200Y-85383600D02*
X150650200Y-63998500D01*
X157939900Y-92673300D02*
X150650200Y-85383600D01*
X158225000Y-92673300D02*
X157939900Y-92673300D01*
%TO.N,Net-(J5-Pin_5)*%
X158225000Y-98905000D02*
X158225000Y-97753300D01*
X146075000Y-62075000D02*
X147126700Y-62075000D01*
X149846800Y-64795100D02*
X147126700Y-62075000D01*
X149846800Y-89663000D02*
X149846800Y-64795100D01*
X157937100Y-97753300D02*
X149846800Y-89663000D01*
X158225000Y-97753300D02*
X157937100Y-97753300D01*
%TO.N,Net-(J5-Pin_6)*%
X158225000Y-96365000D02*
X158225000Y-95213300D01*
X146075000Y-61275000D02*
X147126700Y-61275000D01*
X150248500Y-64396800D02*
X147126700Y-61275000D01*
X150248500Y-87524700D02*
X150248500Y-64396800D01*
X157937100Y-95213300D02*
X150248500Y-87524700D01*
X158225000Y-95213300D02*
X157937100Y-95213300D01*
%TO.N,Net-(J4-Pin_4)*%
X139151400Y-82786200D02*
X139151400Y-91757800D01*
X140911800Y-81025800D02*
X139151400Y-82786200D01*
X140911800Y-72119400D02*
X140911800Y-81025800D01*
X142775000Y-70256200D02*
X140911800Y-72119400D01*
X142775000Y-66975000D02*
X142775000Y-70256200D01*
%TO.N,Net-(J4-Pin_3)*%
X141975000Y-66975000D02*
X141975000Y-68026700D01*
X135761200Y-84125200D02*
X135761200Y-91281500D01*
X139079500Y-80806900D02*
X135761200Y-84125200D01*
X139079500Y-71442900D02*
X139079500Y-80806900D01*
X141975000Y-68547400D02*
X139079500Y-71442900D01*
X141975000Y-68026700D02*
X141975000Y-68547400D01*
%TO.N,Net-(J4-Pin_6)*%
X144375000Y-68555400D02*
X144347800Y-68582600D01*
X144375000Y-66975000D02*
X144375000Y-68555400D01*
%TO.N,Net-(J4-Pin_5)*%
X141735600Y-72023300D02*
X141735600Y-91338300D01*
X143575000Y-70183900D02*
X141735600Y-72023300D01*
X143575000Y-66975000D02*
X143575000Y-70183900D01*
%TO.N,Net-(J4-Pin_2)*%
X141175000Y-66975000D02*
X141175000Y-68026700D01*
X135159500Y-83922000D02*
X135159500Y-90630400D01*
X138677800Y-80403700D02*
X135159500Y-83922000D01*
X138677800Y-71253100D02*
X138677800Y-80403700D01*
X141175000Y-68755900D02*
X138677800Y-71253100D01*
X141175000Y-68026700D02*
X141175000Y-68755900D01*
%TO.N,Net-(J3-Pin_4)*%
X136375000Y-66975000D02*
X136375000Y-68026700D01*
X135124200Y-69277500D02*
X136375000Y-68026700D01*
X135068300Y-69277500D02*
X135124200Y-69277500D01*
%TO.N,PWR14*%
X137975000Y-59831700D02*
X137975000Y-66975000D01*
X136739800Y-58596500D02*
X137975000Y-59831700D01*
X137975000Y-66975000D02*
X137975000Y-68026700D01*
X132108700Y-73683000D02*
X132108700Y-81514400D01*
X137765000Y-68026700D02*
X132108700Y-73683000D01*
X137975000Y-68026700D02*
X137765000Y-68026700D01*
%TO.N,GND15*%
X145533300Y-115918500D02*
X145533300Y-115650000D01*
X144531800Y-116920000D02*
X145533300Y-115918500D01*
X143726600Y-116920000D02*
X144531800Y-116920000D01*
X142875000Y-117771600D02*
X143726600Y-116920000D01*
X142875000Y-118602900D02*
X142875000Y-117771600D01*
X142116300Y-119361600D02*
X142875000Y-118602900D01*
X138600600Y-119361600D02*
X142116300Y-119361600D01*
X137795000Y-118556000D02*
X138600600Y-119361600D01*
X137795000Y-117771700D02*
X137795000Y-118556000D01*
X136943300Y-116920000D02*
X137795000Y-117771700D01*
X133613600Y-116920000D02*
X136943300Y-116920000D01*
X132715000Y-116021400D02*
X133613600Y-116920000D01*
X132715000Y-115020000D02*
X132715000Y-116021400D01*
X123444200Y-105749200D02*
X132715000Y-115020000D01*
X123444200Y-95283700D02*
X123444200Y-105749200D01*
X120716600Y-92556100D02*
X123444200Y-95283700D01*
X120716600Y-91412200D02*
X120716600Y-92556100D01*
X121587100Y-90541700D02*
X120716600Y-91412200D01*
X121875000Y-90541700D02*
X121587100Y-90541700D01*
X121875000Y-89390000D02*
X121875000Y-90541700D01*
X146685000Y-115650000D02*
X145533300Y-115650000D01*
X138775000Y-66975000D02*
X138775000Y-68026700D01*
X136082400Y-70719300D02*
X138775000Y-68026700D01*
X135661600Y-70719300D02*
X136082400Y-70719300D01*
X133020200Y-73360700D02*
X135661600Y-70719300D01*
X133020200Y-84282400D02*
X133020200Y-73360700D01*
X132074000Y-85228600D02*
X133020200Y-84282400D01*
%TO.N,PWR2*%
X131475000Y-55926700D02*
X133623300Y-58075000D01*
X131475000Y-44350000D02*
X131475000Y-55926700D01*
X134675000Y-58075000D02*
X133623300Y-58075000D01*
%TO.N,Net-(J2-Pin_8)*%
X129731700Y-62875000D02*
X134675000Y-62875000D01*
X122951700Y-69655000D02*
X129731700Y-62875000D01*
X121800000Y-69655000D02*
X122951700Y-69655000D01*
%TO.N,Net-(J2-Pin_3)*%
X134675000Y-58875000D02*
X133623300Y-58875000D01*
X133465800Y-58717500D02*
X133623300Y-58875000D01*
X133411300Y-58717500D02*
X133465800Y-58717500D01*
%TO.N,Net-(J2-Pin_1)*%
X134675000Y-57275000D02*
X133623300Y-57275000D01*
X132745000Y-56396700D02*
X133623300Y-57275000D01*
X132745000Y-56298900D02*
X132745000Y-56396700D01*
%TO.N,VBUS*%
X121800000Y-67115000D02*
X122951700Y-67115000D01*
X144175000Y-44350000D02*
X144175000Y-43198300D01*
X143906500Y-43198300D02*
X144175000Y-43198300D01*
X142905000Y-42196800D02*
X143906500Y-43198300D01*
X142905000Y-41397000D02*
X142905000Y-42196800D01*
X142146300Y-40638300D02*
X142905000Y-41397000D01*
X136090700Y-40638300D02*
X142146300Y-40638300D01*
X135285000Y-41444000D02*
X136090700Y-40638300D01*
X135285000Y-42228300D02*
X135285000Y-41444000D01*
X134433300Y-43080000D02*
X135285000Y-42228300D01*
X130615800Y-43080000D02*
X134433300Y-43080000D01*
X130276400Y-43419400D02*
X130615800Y-43080000D01*
X130276400Y-62075000D02*
X130276400Y-43419400D01*
X127991700Y-62075000D02*
X130276400Y-62075000D01*
X122951700Y-67115000D02*
X127991700Y-62075000D01*
X130276400Y-62075000D02*
X134675000Y-62075000D01*
%TO.N,Net-(J2-Pin_4)*%
X134675000Y-59675000D02*
X133623300Y-59675000D01*
X133601200Y-59652900D02*
X133623300Y-59675000D01*
X133396700Y-59652900D02*
X133601200Y-59652900D01*
%TO.N,GND5*%
X149225000Y-115650000D02*
X149225000Y-114498300D01*
X146334000Y-111607300D02*
X149225000Y-114498300D01*
X146334000Y-91023100D02*
X146334000Y-111607300D01*
X144642100Y-89331200D02*
X146334000Y-91023100D01*
X144642100Y-85895800D02*
X144642100Y-89331200D01*
X133578800Y-60475000D02*
X133422700Y-60631100D01*
X134675000Y-60475000D02*
X133578800Y-60475000D01*
%TO.N,SCK*%
X121875000Y-74150000D02*
X123026700Y-74150000D01*
X133501700Y-63675000D02*
X123026700Y-74150000D01*
X134675000Y-63675000D02*
X133501700Y-63675000D01*
%TO.N,MISO*%
X133623300Y-66606800D02*
X133623300Y-65275000D01*
X122151800Y-78078300D02*
X133623300Y-66606800D01*
X121875000Y-78078300D02*
X122151800Y-78078300D01*
X121875000Y-79230000D02*
X121875000Y-78078300D01*
X134675000Y-65275000D02*
X133623300Y-65275000D01*
%TO.N,5V*%
X136555000Y-41810000D02*
X136555000Y-42374900D01*
X137378400Y-42374900D02*
X137943300Y-41810000D01*
X136555000Y-42374900D02*
X137378400Y-42374900D01*
X139095000Y-41810000D02*
X137943300Y-41810000D01*
X137850000Y-83262200D02*
X137850000Y-86610000D01*
X139681200Y-81431000D02*
X137850000Y-83262200D01*
X139681200Y-71713500D02*
X139681200Y-81431000D01*
X138900000Y-93298500D02*
X138900000Y-94875000D01*
X136693700Y-91092200D02*
X138900000Y-93298500D01*
X136693700Y-88126200D02*
X136693700Y-91092200D01*
X137058200Y-87761700D02*
X136693700Y-88126200D01*
X137850000Y-87761700D02*
X137058200Y-87761700D01*
X137850000Y-86610000D02*
X137850000Y-87761700D01*
%TO.N,MOSI*%
X133623300Y-64555200D02*
X133623300Y-64475000D01*
X122640200Y-75538300D02*
X133623300Y-64555200D01*
X121875000Y-75538300D02*
X122640200Y-75538300D01*
X121875000Y-76690000D02*
X121875000Y-75538300D01*
X134675000Y-64475000D02*
X133623300Y-64475000D01*
%TO.N,RESET*%
X137175000Y-66975000D02*
X137175000Y-68026700D01*
X131507000Y-84007000D02*
X131712600Y-84212600D01*
X131507000Y-73694700D02*
X131507000Y-84007000D01*
X137175000Y-68026700D02*
X131507000Y-73694700D01*
%TO.N,UCAP*%
X121531500Y-65726700D02*
X121800000Y-65726700D01*
X120646500Y-66611700D02*
X121531500Y-65726700D01*
X120646500Y-84731200D02*
X120646500Y-66611700D01*
X121495300Y-85580000D02*
X120646500Y-84731200D01*
X122257900Y-85580000D02*
X121495300Y-85580000D01*
X126251900Y-89574000D02*
X122257900Y-85580000D01*
X126251900Y-97026900D02*
X126251900Y-89574000D01*
X132900000Y-103675000D02*
X126251900Y-97026900D01*
X121800000Y-64575000D02*
X121800000Y-65726700D01*
X134675000Y-61275000D02*
X133623300Y-61275000D01*
X133545300Y-61353000D02*
X133623300Y-61275000D01*
X132984600Y-61353000D02*
X133545300Y-61353000D01*
%TO.N,Net-(J9-Pin_13)*%
X133985000Y-107710000D02*
X133985000Y-115650000D01*
X132900000Y-106625000D02*
X133985000Y-107710000D01*
%TO.N,Net-(J9-Pin_11)*%
X136525000Y-115650000D02*
X136525000Y-106625000D01*
%TO.N,AREF*%
X137975000Y-55575000D02*
X137975000Y-56849000D01*
X131105300Y-98255300D02*
X136525000Y-103675000D01*
X131105300Y-70527300D02*
X131105300Y-98255300D01*
X135799800Y-65832800D02*
X131105300Y-70527300D01*
X135799800Y-58684200D02*
X135799800Y-65832800D01*
X137635000Y-56849000D02*
X135799800Y-58684200D01*
X137975000Y-56849000D02*
X137635000Y-56849000D01*
%TO.N,XTAL2*%
X136125000Y-73950000D02*
X136125000Y-72648300D01*
X139575000Y-69198300D02*
X139575000Y-66975000D01*
X136125000Y-72648300D02*
X139575000Y-69198300D01*
X121875000Y-91930000D02*
X121875000Y-93081700D01*
X136125000Y-73950000D02*
X136125000Y-75251700D01*
X134425000Y-76951700D02*
X136125000Y-75251700D01*
X134425000Y-79950000D02*
X134425000Y-76951700D01*
X125709600Y-96916300D02*
X121875000Y-93081700D01*
X125709600Y-98263300D02*
X125709600Y-96916300D01*
X132034500Y-104588200D02*
X125709600Y-98263300D01*
X137430800Y-104588200D02*
X132034500Y-104588200D01*
X137767900Y-104251100D02*
X137430800Y-104588200D01*
X137767900Y-100612700D02*
X137767900Y-104251100D01*
X137027700Y-99872500D02*
X137767900Y-100612700D01*
X137027700Y-93998000D02*
X137027700Y-99872500D01*
X134077900Y-91048200D02*
X137027700Y-93998000D01*
X134077900Y-80297100D02*
X134077900Y-91048200D01*
X134425000Y-79950000D02*
X134077900Y-80297100D01*
%TO.N,XTAL1*%
X144957500Y-72315800D02*
X144625000Y-72648300D01*
X144957500Y-66050500D02*
X144957500Y-72315800D01*
X144830300Y-65923300D02*
X144957500Y-66050500D01*
X140375000Y-65923300D02*
X144830300Y-65923300D01*
X140375000Y-66975000D02*
X140375000Y-65923300D01*
X144625000Y-73950000D02*
X144625000Y-72648300D01*
X144625000Y-73950000D02*
X144625000Y-75251700D01*
X146525000Y-80050000D02*
X146340200Y-80050000D01*
X146340200Y-76966900D02*
X146340200Y-80050000D01*
X144625000Y-75251700D02*
X146340200Y-76966900D01*
X146340200Y-88050900D02*
X145276400Y-89114700D01*
X146340200Y-80050000D02*
X146340200Y-88050900D01*
%TO.N,GND*%
X139065000Y-118190000D02*
X139065000Y-117038300D01*
X141605000Y-118190000D02*
X140453300Y-118190000D01*
X146685000Y-118190000D02*
X149225000Y-118190000D01*
X142930000Y-80695000D02*
X142930000Y-86610000D01*
X143575000Y-80050000D02*
X142930000Y-80695000D01*
X142930000Y-86610000D02*
X142930000Y-87761700D01*
X145375000Y-98450000D02*
X144161100Y-98450000D01*
X143198500Y-87761700D02*
X142930000Y-87761700D01*
X144161100Y-88724300D02*
X143198500Y-87761700D01*
X144161100Y-98450000D02*
X144161100Y-88724300D01*
X140453300Y-118158100D02*
X139333500Y-117038300D01*
X140453300Y-118190000D02*
X140453300Y-118158100D01*
X139333500Y-117038300D02*
X139065000Y-117038300D01*
X140223500Y-116148300D02*
X139333500Y-117038300D01*
X140223500Y-99674400D02*
X140223500Y-116148300D01*
X140161900Y-99674400D02*
X140223500Y-99674400D01*
X138962500Y-98475000D02*
X140161900Y-99674400D01*
X144161100Y-98526700D02*
X144161100Y-98450000D01*
X143013400Y-99674400D02*
X144161100Y-98526700D01*
X140223500Y-99674400D02*
X143013400Y-99674400D01*
X137559300Y-97071800D02*
X138962500Y-98475000D01*
X137559300Y-93931300D02*
X137559300Y-97071800D01*
X134557200Y-90929200D02*
X137559300Y-93931300D01*
X134557200Y-82767800D02*
X134557200Y-90929200D01*
X137375000Y-79950000D02*
X134557200Y-82767800D01*
%TD*%
%TA.AperFunction,Conductor*%
%TO.N,GND*%
G36*
X123454962Y-106609197D02*
G01*
X131020149Y-114174384D01*
X131053634Y-114235707D01*
X131048650Y-114305399D01*
X131006778Y-114361332D01*
X130984873Y-114374447D01*
X130767171Y-114475964D01*
X130767169Y-114475965D01*
X130573597Y-114611505D01*
X130406505Y-114778597D01*
X130270965Y-114972169D01*
X130270964Y-114972171D01*
X130171098Y-115186335D01*
X130171094Y-115186344D01*
X130109938Y-115414586D01*
X130109936Y-115414596D01*
X130089341Y-115649999D01*
X130089341Y-115650000D01*
X130109936Y-115885403D01*
X130109938Y-115885413D01*
X130171094Y-116113655D01*
X130171096Y-116113659D01*
X130171097Y-116113663D01*
X130231250Y-116242661D01*
X130270965Y-116327830D01*
X130270967Y-116327834D01*
X130370696Y-116470261D01*
X130406504Y-116521400D01*
X130406506Y-116521402D01*
X130573597Y-116688493D01*
X130573603Y-116688498D01*
X130759594Y-116818730D01*
X130803219Y-116873307D01*
X130810413Y-116942805D01*
X130778890Y-117005160D01*
X130759595Y-117021880D01*
X130573922Y-117151890D01*
X130573920Y-117151891D01*
X130406891Y-117318920D01*
X130406886Y-117318926D01*
X130271400Y-117512420D01*
X130271399Y-117512422D01*
X130171570Y-117726507D01*
X130171567Y-117726513D01*
X130114364Y-117939999D01*
X130114364Y-117940000D01*
X131011988Y-117940000D01*
X130979075Y-117997007D01*
X130945000Y-118124174D01*
X130945000Y-118255826D01*
X130979075Y-118382993D01*
X131011988Y-118440000D01*
X130114364Y-118440000D01*
X130171567Y-118653486D01*
X130171570Y-118653492D01*
X130271399Y-118867578D01*
X130406894Y-119061082D01*
X130573917Y-119228105D01*
X130639354Y-119273925D01*
X130682979Y-119328502D01*
X130690171Y-119398001D01*
X130658649Y-119460355D01*
X130598419Y-119495769D01*
X130568230Y-119499500D01*
X120624500Y-119499500D01*
X120557461Y-119479815D01*
X120511706Y-119427011D01*
X120500500Y-119375500D01*
X120500500Y-116999998D01*
X121119709Y-116999998D01*
X121119709Y-117000001D01*
X121138848Y-117267594D01*
X121138849Y-117267601D01*
X121195872Y-117529734D01*
X121289627Y-117781102D01*
X121289629Y-117781106D01*
X121418195Y-118016556D01*
X121418200Y-118016564D01*
X121578964Y-118231321D01*
X121578980Y-118231339D01*
X121768660Y-118421019D01*
X121768678Y-118421035D01*
X121983435Y-118581799D01*
X121983443Y-118581804D01*
X122218893Y-118710370D01*
X122218897Y-118710372D01*
X122218899Y-118710373D01*
X122470261Y-118804126D01*
X122470264Y-118804126D01*
X122470265Y-118804127D01*
X122562315Y-118824151D01*
X122732407Y-118861152D01*
X122979385Y-118878816D01*
X122999999Y-118880291D01*
X123000000Y-118880291D01*
X123000001Y-118880291D01*
X123019140Y-118878922D01*
X123267593Y-118861152D01*
X123529739Y-118804126D01*
X123781101Y-118710373D01*
X124016562Y-118581801D01*
X124231329Y-118421029D01*
X124421029Y-118231329D01*
X124581801Y-118016562D01*
X124710373Y-117781101D01*
X124804126Y-117529739D01*
X124861152Y-117267593D01*
X124880291Y-117000000D01*
X124879790Y-116993002D01*
X124874848Y-116923903D01*
X124861152Y-116732407D01*
X124815250Y-116521396D01*
X124804127Y-116470265D01*
X124759315Y-116350120D01*
X124710373Y-116218899D01*
X124682744Y-116168301D01*
X124581804Y-115983443D01*
X124581799Y-115983435D01*
X124421035Y-115768678D01*
X124421019Y-115768660D01*
X124231339Y-115578980D01*
X124231321Y-115578964D01*
X124016564Y-115418200D01*
X124016556Y-115418195D01*
X123781106Y-115289629D01*
X123781102Y-115289627D01*
X123529734Y-115195872D01*
X123267601Y-115138849D01*
X123267594Y-115138848D01*
X123000001Y-115119709D01*
X122999999Y-115119709D01*
X122732405Y-115138848D01*
X122732398Y-115138849D01*
X122470265Y-115195872D01*
X122218897Y-115289627D01*
X122218893Y-115289629D01*
X121983443Y-115418195D01*
X121983435Y-115418200D01*
X121768678Y-115578964D01*
X121768660Y-115578980D01*
X121578980Y-115768660D01*
X121578964Y-115768678D01*
X121418200Y-115983435D01*
X121418195Y-115983443D01*
X121289629Y-116218893D01*
X121289627Y-116218897D01*
X121195872Y-116470265D01*
X121138849Y-116732398D01*
X121138848Y-116732405D01*
X121119709Y-116999998D01*
X120500500Y-116999998D01*
X120500500Y-109839110D01*
X120520185Y-109772071D01*
X120572989Y-109726316D01*
X120642147Y-109716372D01*
X120705703Y-109745397D01*
X120726075Y-109767987D01*
X120861500Y-109961395D01*
X120861505Y-109961401D01*
X121028599Y-110128495D01*
X121069777Y-110157328D01*
X121222165Y-110264032D01*
X121222167Y-110264033D01*
X121222170Y-110264035D01*
X121436337Y-110363903D01*
X121664592Y-110425063D01*
X121852918Y-110441539D01*
X121899999Y-110445659D01*
X121900000Y-110445659D01*
X121900001Y-110445659D01*
X121939234Y-110442226D01*
X122135408Y-110425063D01*
X122363663Y-110363903D01*
X122577830Y-110264035D01*
X122771401Y-110128495D01*
X122938495Y-109961401D01*
X123074035Y-109767830D01*
X123173903Y-109553663D01*
X123235063Y-109325408D01*
X123255659Y-109090000D01*
X123235063Y-108854592D01*
X123173903Y-108626337D01*
X123074035Y-108412171D01*
X123073925Y-108412013D01*
X122938494Y-108218597D01*
X122771402Y-108051506D01*
X122771396Y-108051501D01*
X122585842Y-107921575D01*
X122542217Y-107866998D01*
X122535023Y-107797500D01*
X122566546Y-107735145D01*
X122585842Y-107718425D01*
X122626440Y-107689998D01*
X122771401Y-107588495D01*
X122938495Y-107421401D01*
X123074035Y-107227830D01*
X123173903Y-107013663D01*
X123235063Y-106785408D01*
X123243754Y-106686068D01*
X123269205Y-106621003D01*
X123325795Y-106580024D01*
X123395557Y-106576145D01*
X123454962Y-106609197D01*
G37*
%TD.AperFunction*%
%TA.AperFunction,Conductor*%
G36*
X147206165Y-81448972D02*
G01*
X147237358Y-81511492D01*
X147239300Y-81533349D01*
X147239300Y-97729330D01*
X147239299Y-97729348D01*
X147239299Y-97895054D01*
X147239298Y-97895054D01*
X147249824Y-97934335D01*
X147280223Y-98047785D01*
X147286467Y-98058599D01*
X147286468Y-98058600D01*
X147286469Y-98058603D01*
X147359277Y-98184712D01*
X147359281Y-98184717D01*
X147478149Y-98303585D01*
X147478155Y-98303590D01*
X156947712Y-107773148D01*
X156981197Y-107834471D01*
X156976213Y-107904163D01*
X156959298Y-107935140D01*
X156931204Y-107972668D01*
X156931202Y-107972671D01*
X156880908Y-108107517D01*
X156874501Y-108167116D01*
X156874500Y-108167135D01*
X156874500Y-109962870D01*
X156874501Y-109962876D01*
X156880908Y-110022483D01*
X156931202Y-110157328D01*
X156931206Y-110157335D01*
X157017452Y-110272544D01*
X157017455Y-110272547D01*
X157132664Y-110358793D01*
X157132671Y-110358797D01*
X157267517Y-110409091D01*
X157267516Y-110409091D01*
X157274444Y-110409835D01*
X157327127Y-110415500D01*
X159122872Y-110415499D01*
X159182483Y-110409091D01*
X159325641Y-110355697D01*
X159326229Y-110357275D01*
X159384338Y-110344630D01*
X159449804Y-110369043D01*
X159491679Y-110424974D01*
X159499500Y-110468315D01*
X159499500Y-119375500D01*
X159479815Y-119442539D01*
X159427011Y-119488294D01*
X159375500Y-119499500D01*
X150101770Y-119499500D01*
X150034731Y-119479815D01*
X149988976Y-119427011D01*
X149979032Y-119357853D01*
X150008057Y-119294297D01*
X150030646Y-119273925D01*
X150096082Y-119228105D01*
X150263105Y-119061082D01*
X150398600Y-118867578D01*
X150498429Y-118653492D01*
X150498432Y-118653486D01*
X150555636Y-118440000D01*
X149658012Y-118440000D01*
X149690925Y-118382993D01*
X149725000Y-118255826D01*
X149725000Y-118124174D01*
X149690925Y-117997007D01*
X149658012Y-117940000D01*
X150555636Y-117940000D01*
X150555635Y-117939999D01*
X150498432Y-117726513D01*
X150498429Y-117726507D01*
X150398600Y-117512422D01*
X150398599Y-117512420D01*
X150263113Y-117318926D01*
X150263108Y-117318920D01*
X150141053Y-117196865D01*
X150107568Y-117135542D01*
X150112552Y-117065850D01*
X150154424Y-117009917D01*
X150172588Y-116999998D01*
X155119709Y-116999998D01*
X155119709Y-117000001D01*
X155138848Y-117267594D01*
X155138849Y-117267601D01*
X155195872Y-117529734D01*
X155289627Y-117781102D01*
X155289629Y-117781106D01*
X155418195Y-118016556D01*
X155418200Y-118016564D01*
X155578964Y-118231321D01*
X155578980Y-118231339D01*
X155768660Y-118421019D01*
X155768678Y-118421035D01*
X155983435Y-118581799D01*
X155983443Y-118581804D01*
X156218893Y-118710370D01*
X156218897Y-118710372D01*
X156218899Y-118710373D01*
X156470261Y-118804126D01*
X156470264Y-118804126D01*
X156470265Y-118804127D01*
X156562315Y-118824151D01*
X156732407Y-118861152D01*
X156979385Y-118878816D01*
X156999999Y-118880291D01*
X157000000Y-118880291D01*
X157000001Y-118880291D01*
X157019140Y-118878922D01*
X157267593Y-118861152D01*
X157529739Y-118804126D01*
X157781101Y-118710373D01*
X158016562Y-118581801D01*
X158231329Y-118421029D01*
X158421029Y-118231329D01*
X158581801Y-118016562D01*
X158710373Y-117781101D01*
X158804126Y-117529739D01*
X158861152Y-117267593D01*
X158880291Y-117000000D01*
X158879790Y-116993002D01*
X158874848Y-116923903D01*
X158861152Y-116732407D01*
X158815250Y-116521396D01*
X158804127Y-116470265D01*
X158759315Y-116350120D01*
X158710373Y-116218899D01*
X158682744Y-116168301D01*
X158581804Y-115983443D01*
X158581799Y-115983435D01*
X158421035Y-115768678D01*
X158421019Y-115768660D01*
X158231339Y-115578980D01*
X158231321Y-115578964D01*
X158016564Y-115418200D01*
X158016556Y-115418195D01*
X157781106Y-115289629D01*
X157781102Y-115289627D01*
X157529734Y-115195872D01*
X157267601Y-115138849D01*
X157267594Y-115138848D01*
X157000001Y-115119709D01*
X156999999Y-115119709D01*
X156732405Y-115138848D01*
X156732398Y-115138849D01*
X156470265Y-115195872D01*
X156218897Y-115289627D01*
X156218893Y-115289629D01*
X155983443Y-115418195D01*
X155983435Y-115418200D01*
X155768678Y-115578964D01*
X155768660Y-115578980D01*
X155578980Y-115768660D01*
X155578964Y-115768678D01*
X155418200Y-115983435D01*
X155418195Y-115983443D01*
X155289629Y-116218893D01*
X155289627Y-116218897D01*
X155195872Y-116470265D01*
X155138849Y-116732398D01*
X155138848Y-116732405D01*
X155119709Y-116999998D01*
X150172588Y-116999998D01*
X150185400Y-116993002D01*
X150317331Y-116943796D01*
X150432546Y-116857546D01*
X150518796Y-116742331D01*
X150569091Y-116607483D01*
X150575500Y-116547873D01*
X150575499Y-114752128D01*
X150569091Y-114692517D01*
X150567810Y-114689083D01*
X150518797Y-114557671D01*
X150518793Y-114557664D01*
X150432547Y-114442455D01*
X150432544Y-114442452D01*
X150317335Y-114356206D01*
X150317328Y-114356202D01*
X150182482Y-114305908D01*
X150182483Y-114305908D01*
X150122883Y-114299501D01*
X150122881Y-114299500D01*
X150122873Y-114299500D01*
X150122865Y-114299500D01*
X149875212Y-114299500D01*
X149808173Y-114279815D01*
X149767825Y-114237499D01*
X149705524Y-114129590D01*
X149705521Y-114129586D01*
X149705520Y-114129584D01*
X149593716Y-114017780D01*
X149593715Y-114017779D01*
X149589385Y-114013449D01*
X149589374Y-114013439D01*
X146970819Y-111394884D01*
X146937334Y-111333561D01*
X146934500Y-111307203D01*
X146934500Y-91112159D01*
X146934501Y-91112146D01*
X146934501Y-90944045D01*
X146934501Y-90944043D01*
X146893577Y-90791315D01*
X146860371Y-90733801D01*
X146814520Y-90654384D01*
X146702716Y-90542580D01*
X146702715Y-90542579D01*
X146698385Y-90538249D01*
X146698374Y-90538239D01*
X145926315Y-89766180D01*
X145892830Y-89704857D01*
X145897814Y-89635165D01*
X145909003Y-89612526D01*
X145982884Y-89494945D01*
X146002189Y-89464222D01*
X146061768Y-89293955D01*
X146071561Y-89207029D01*
X146098626Y-89142618D01*
X146107090Y-89133243D01*
X146698706Y-88541628D01*
X146698711Y-88541624D01*
X146708914Y-88531420D01*
X146708916Y-88531420D01*
X146820720Y-88419616D01*
X146899777Y-88282684D01*
X146929734Y-88170881D01*
X146940700Y-88129958D01*
X146940700Y-87971843D01*
X146940700Y-81550117D01*
X146960385Y-81483078D01*
X147013189Y-81437323D01*
X147025694Y-81432412D01*
X147046765Y-81425429D01*
X147076295Y-81415643D01*
X147146123Y-81413241D01*
X147206165Y-81448972D01*
G37*
%TD.AperFunction*%
%TA.AperFunction,Conductor*%
G36*
X133519075Y-117997007D02*
G01*
X133485000Y-118124174D01*
X133485000Y-118255826D01*
X133519075Y-118382993D01*
X133551988Y-118440000D01*
X131878012Y-118440000D01*
X131910925Y-118382993D01*
X131945000Y-118255826D01*
X131945000Y-118124174D01*
X131910925Y-117997007D01*
X131878012Y-117940000D01*
X133551988Y-117940000D01*
X133519075Y-117997007D01*
G37*
%TD.AperFunction*%
%TA.AperFunction,Conductor*%
G36*
X136059075Y-117997007D02*
G01*
X136025000Y-118124174D01*
X136025000Y-118255826D01*
X136059075Y-118382993D01*
X136091988Y-118440000D01*
X134418012Y-118440000D01*
X134450925Y-118382993D01*
X134485000Y-118255826D01*
X134485000Y-118124174D01*
X134450925Y-117997007D01*
X134418012Y-117940000D01*
X136091988Y-117940000D01*
X136059075Y-117997007D01*
G37*
%TD.AperFunction*%
%TA.AperFunction,Conductor*%
G36*
X137129742Y-117959685D02*
G01*
X137150384Y-117976319D01*
X137158181Y-117984116D01*
X137191666Y-118045439D01*
X137194500Y-118071797D01*
X137194500Y-118316000D01*
X137174815Y-118383039D01*
X137122011Y-118428794D01*
X137070500Y-118440000D01*
X136958012Y-118440000D01*
X136990925Y-118382993D01*
X137025000Y-118255826D01*
X137025000Y-118124174D01*
X136990925Y-117997007D01*
X136958012Y-117940000D01*
X137062703Y-117940000D01*
X137129742Y-117959685D01*
G37*
%TD.AperFunction*%
%TA.AperFunction,Conductor*%
G36*
X138599075Y-117997007D02*
G01*
X138565000Y-118124174D01*
X138565000Y-118255826D01*
X138599075Y-118382993D01*
X138631988Y-118440000D01*
X138579597Y-118440000D01*
X138512558Y-118420315D01*
X138491916Y-118403681D01*
X138431819Y-118343584D01*
X138398334Y-118282261D01*
X138395500Y-118255903D01*
X138395500Y-118064000D01*
X138415185Y-117996961D01*
X138467989Y-117951206D01*
X138519500Y-117940000D01*
X138631988Y-117940000D01*
X138599075Y-117997007D01*
G37*
%TD.AperFunction*%
%TA.AperFunction,Conductor*%
G36*
X141139075Y-117997007D02*
G01*
X141105000Y-118124174D01*
X141105000Y-118255826D01*
X141139075Y-118382993D01*
X141171988Y-118440000D01*
X139498012Y-118440000D01*
X139530925Y-118382993D01*
X139565000Y-118255826D01*
X139565000Y-118124174D01*
X139530925Y-117997007D01*
X139498012Y-117940000D01*
X141171988Y-117940000D01*
X141139075Y-117997007D01*
G37*
%TD.AperFunction*%
%TA.AperFunction,Conductor*%
G36*
X142217539Y-117959685D02*
G01*
X142263294Y-118012489D01*
X142274500Y-118064000D01*
X142274500Y-118302803D01*
X142254815Y-118369842D01*
X142238181Y-118390484D01*
X142224984Y-118403681D01*
X142163661Y-118437166D01*
X142137303Y-118440000D01*
X142038012Y-118440000D01*
X142070925Y-118382993D01*
X142105000Y-118255826D01*
X142105000Y-118124174D01*
X142070925Y-117997007D01*
X142038012Y-117940000D01*
X142150500Y-117940000D01*
X142217539Y-117959685D01*
G37*
%TD.AperFunction*%
%TA.AperFunction,Conductor*%
G36*
X143679075Y-117997007D02*
G01*
X143645000Y-118124174D01*
X143645000Y-118255826D01*
X143679075Y-118382993D01*
X143711988Y-118440000D01*
X143599500Y-118440000D01*
X143532461Y-118420315D01*
X143486706Y-118367511D01*
X143475500Y-118316000D01*
X143475500Y-118071697D01*
X143495185Y-118004658D01*
X143511819Y-117984016D01*
X143519516Y-117976319D01*
X143580839Y-117942834D01*
X143607197Y-117940000D01*
X143711988Y-117940000D01*
X143679075Y-117997007D01*
G37*
%TD.AperFunction*%
%TA.AperFunction,Conductor*%
G36*
X146219075Y-117997007D02*
G01*
X146185000Y-118124174D01*
X146185000Y-118255826D01*
X146219075Y-118382993D01*
X146251988Y-118440000D01*
X144578012Y-118440000D01*
X144610925Y-118382993D01*
X144645000Y-118255826D01*
X144645000Y-118124174D01*
X144610925Y-117997007D01*
X144578012Y-117940000D01*
X146251988Y-117940000D01*
X146219075Y-117997007D01*
G37*
%TD.AperFunction*%
%TA.AperFunction,Conductor*%
G36*
X148759075Y-117997007D02*
G01*
X148725000Y-118124174D01*
X148725000Y-118255826D01*
X148759075Y-118382993D01*
X148791988Y-118440000D01*
X147118012Y-118440000D01*
X147150925Y-118382993D01*
X147185000Y-118255826D01*
X147185000Y-118124174D01*
X147150925Y-117997007D01*
X147118012Y-117940000D01*
X148791988Y-117940000D01*
X148759075Y-117997007D01*
G37*
%TD.AperFunction*%
%TA.AperFunction,Conductor*%
G36*
X144282082Y-89820505D02*
G01*
X144284908Y-89823243D01*
X145697181Y-91235516D01*
X145730666Y-91296839D01*
X145733500Y-91323197D01*
X145733500Y-92486835D01*
X145713815Y-92553874D01*
X145661011Y-92599629D01*
X145614972Y-92609644D01*
X145615019Y-92610055D01*
X145611008Y-92610506D01*
X145609500Y-92610835D01*
X145608096Y-92610835D01*
X145428850Y-92631030D01*
X145428845Y-92631031D01*
X145258576Y-92690611D01*
X145105837Y-92786584D01*
X144978284Y-92914137D01*
X144882310Y-93066878D01*
X144822730Y-93237150D01*
X144807245Y-93374581D01*
X144791414Y-93422694D01*
X144769158Y-93461245D01*
X144718592Y-93509462D01*
X144700774Y-93516954D01*
X144630666Y-93540186D01*
X144481342Y-93632289D01*
X144357289Y-93756342D01*
X144265187Y-93905663D01*
X144265186Y-93905666D01*
X144210001Y-94072203D01*
X144210001Y-94072204D01*
X144210000Y-94072204D01*
X144199500Y-94174983D01*
X144199500Y-95525001D01*
X144199501Y-95525018D01*
X144210000Y-95627796D01*
X144210001Y-95627799D01*
X144265185Y-95794331D01*
X144265187Y-95794336D01*
X144298159Y-95847792D01*
X144357288Y-95943656D01*
X144481344Y-96067712D01*
X144630666Y-96159814D01*
X144797203Y-96214999D01*
X144899991Y-96225500D01*
X145609500Y-96225499D01*
X145676539Y-96245183D01*
X145722294Y-96297987D01*
X145733500Y-96349499D01*
X145733500Y-96951000D01*
X145713815Y-97018039D01*
X145661011Y-97063794D01*
X145629309Y-97070690D01*
X145625000Y-97075000D01*
X145625000Y-99824999D01*
X145631443Y-99831442D01*
X145676539Y-99844684D01*
X145722294Y-99897488D01*
X145733500Y-99948999D01*
X145733500Y-111520630D01*
X145733499Y-111520648D01*
X145733499Y-111686354D01*
X145733498Y-111686354D01*
X145774423Y-111839085D01*
X145803358Y-111889200D01*
X145803359Y-111889204D01*
X145803360Y-111889204D01*
X145853479Y-111976014D01*
X145853481Y-111976017D01*
X145972349Y-112094885D01*
X145972355Y-112094890D01*
X148089240Y-114211775D01*
X148122725Y-114273098D01*
X148117741Y-114342790D01*
X148075871Y-114398722D01*
X148017452Y-114442455D01*
X147931206Y-114557664D01*
X147931203Y-114557669D01*
X147882189Y-114689083D01*
X147840317Y-114745016D01*
X147774853Y-114769433D01*
X147706580Y-114754581D01*
X147678326Y-114733430D01*
X147556402Y-114611506D01*
X147556395Y-114611501D01*
X147362834Y-114475967D01*
X147362830Y-114475965D01*
X147357085Y-114473286D01*
X147148663Y-114376097D01*
X147148659Y-114376096D01*
X147148655Y-114376094D01*
X146920413Y-114314938D01*
X146920403Y-114314936D01*
X146685001Y-114294341D01*
X146684999Y-114294341D01*
X146449596Y-114314936D01*
X146449586Y-114314938D01*
X146221344Y-114376094D01*
X146221335Y-114376098D01*
X146007171Y-114475964D01*
X146007169Y-114475965D01*
X145813597Y-114611505D01*
X145646506Y-114778596D01*
X145516575Y-114964159D01*
X145461998Y-115007784D01*
X145392500Y-115014978D01*
X145330145Y-114983455D01*
X145313425Y-114964159D01*
X145183494Y-114778597D01*
X145016402Y-114611506D01*
X145016395Y-114611501D01*
X144822834Y-114475967D01*
X144822830Y-114475965D01*
X144817085Y-114473286D01*
X144608663Y-114376097D01*
X144608659Y-114376096D01*
X144608655Y-114376094D01*
X144380413Y-114314938D01*
X144380403Y-114314936D01*
X144145001Y-114294341D01*
X144144999Y-114294341D01*
X143909596Y-114314936D01*
X143909586Y-114314938D01*
X143681344Y-114376094D01*
X143681335Y-114376098D01*
X143467171Y-114475964D01*
X143467169Y-114475965D01*
X143273597Y-114611505D01*
X143106505Y-114778597D01*
X142976575Y-114964158D01*
X142921998Y-115007783D01*
X142852500Y-115014977D01*
X142790145Y-114983454D01*
X142773425Y-114964158D01*
X142643494Y-114778597D01*
X142476402Y-114611506D01*
X142476395Y-114611501D01*
X142282834Y-114475967D01*
X142282830Y-114475965D01*
X142277085Y-114473286D01*
X142068663Y-114376097D01*
X142068659Y-114376096D01*
X142068655Y-114376094D01*
X141840413Y-114314938D01*
X141840403Y-114314936D01*
X141605001Y-114294341D01*
X141604999Y-114294341D01*
X141369596Y-114314936D01*
X141369586Y-114314938D01*
X141141344Y-114376094D01*
X141141335Y-114376098D01*
X140927171Y-114475964D01*
X140927169Y-114475965D01*
X140733597Y-114611505D01*
X140566505Y-114778597D01*
X140436575Y-114964158D01*
X140381998Y-115007783D01*
X140312500Y-115014977D01*
X140250145Y-114983454D01*
X140233425Y-114964158D01*
X140103494Y-114778597D01*
X139936402Y-114611506D01*
X139936395Y-114611501D01*
X139742834Y-114475967D01*
X139742830Y-114475965D01*
X139737085Y-114473286D01*
X139528663Y-114376097D01*
X139528659Y-114376096D01*
X139528655Y-114376094D01*
X139300413Y-114314938D01*
X139300403Y-114314936D01*
X139065001Y-114294341D01*
X139064999Y-114294341D01*
X138829596Y-114314936D01*
X138829586Y-114314938D01*
X138601344Y-114376094D01*
X138601335Y-114376098D01*
X138387171Y-114475964D01*
X138387169Y-114475965D01*
X138193597Y-114611505D01*
X138026505Y-114778597D01*
X137896575Y-114964158D01*
X137841998Y-115007783D01*
X137772500Y-115014977D01*
X137710145Y-114983454D01*
X137693425Y-114964158D01*
X137563494Y-114778597D01*
X137396402Y-114611506D01*
X137396395Y-114611501D01*
X137202831Y-114475965D01*
X137202826Y-114475962D01*
X137197091Y-114473288D01*
X137144653Y-114427113D01*
X137125500Y-114360908D01*
X137125500Y-107822642D01*
X137145185Y-107755603D01*
X137197989Y-107709848D01*
X137236897Y-107699284D01*
X137327797Y-107689999D01*
X137494334Y-107634814D01*
X137643656Y-107542712D01*
X137767712Y-107418656D01*
X137859814Y-107269334D01*
X137914999Y-107102797D01*
X137925500Y-107000009D01*
X137925499Y-106249992D01*
X137914999Y-106147203D01*
X137859814Y-105980666D01*
X137767712Y-105831344D01*
X137643656Y-105707288D01*
X137494334Y-105615186D01*
X137327797Y-105560001D01*
X137327795Y-105560000D01*
X137225010Y-105549500D01*
X135824998Y-105549500D01*
X135824981Y-105549501D01*
X135722203Y-105560000D01*
X135722200Y-105560001D01*
X135555668Y-105615185D01*
X135555663Y-105615187D01*
X135406342Y-105707289D01*
X135282289Y-105831342D01*
X135190187Y-105980663D01*
X135190185Y-105980668D01*
X135163454Y-106061337D01*
X135135001Y-106147203D01*
X135135001Y-106147204D01*
X135135000Y-106147204D01*
X135124500Y-106249983D01*
X135124500Y-107000001D01*
X135124501Y-107000019D01*
X135135000Y-107102796D01*
X135135001Y-107102799D01*
X135168999Y-107205397D01*
X135190186Y-107269334D01*
X135282288Y-107418656D01*
X135406344Y-107542712D01*
X135555666Y-107634814D01*
X135722203Y-107689999D01*
X135813103Y-107699285D01*
X135877794Y-107725681D01*
X135917945Y-107782861D01*
X135924500Y-107822643D01*
X135924500Y-114360908D01*
X135904815Y-114427947D01*
X135852914Y-114473286D01*
X135847173Y-114475963D01*
X135847169Y-114475965D01*
X135653597Y-114611505D01*
X135486505Y-114778597D01*
X135356575Y-114964158D01*
X135301998Y-115007783D01*
X135232500Y-115014977D01*
X135170145Y-114983454D01*
X135153425Y-114964158D01*
X135023494Y-114778597D01*
X134856402Y-114611506D01*
X134856395Y-114611501D01*
X134662831Y-114475965D01*
X134662826Y-114475962D01*
X134657091Y-114473288D01*
X134604653Y-114427113D01*
X134585500Y-114360908D01*
X134585500Y-107799060D01*
X134585501Y-107799047D01*
X134585501Y-107630944D01*
X134585501Y-107630943D01*
X134544577Y-107478216D01*
X134511775Y-107421401D01*
X134465524Y-107341290D01*
X134465518Y-107341282D01*
X134325828Y-107201592D01*
X134292343Y-107140269D01*
X134290151Y-107101308D01*
X134300499Y-107000016D01*
X134300500Y-107000009D01*
X134300499Y-106249992D01*
X134289999Y-106147203D01*
X134234814Y-105980666D01*
X134142712Y-105831344D01*
X134018656Y-105707288D01*
X133869334Y-105615186D01*
X133702797Y-105560001D01*
X133702795Y-105560000D01*
X133600010Y-105549500D01*
X132199998Y-105549500D01*
X132199981Y-105549501D01*
X132097203Y-105560000D01*
X132097200Y-105560001D01*
X131930668Y-105615185D01*
X131930663Y-105615187D01*
X131781342Y-105707289D01*
X131657289Y-105831342D01*
X131565187Y-105980663D01*
X131565185Y-105980668D01*
X131538454Y-106061337D01*
X131510001Y-106147203D01*
X131510001Y-106147204D01*
X131510000Y-106147204D01*
X131499500Y-106249983D01*
X131499500Y-107000001D01*
X131499501Y-107000019D01*
X131510000Y-107102796D01*
X131510001Y-107102799D01*
X131543999Y-107205397D01*
X131565186Y-107269334D01*
X131657288Y-107418656D01*
X131781344Y-107542712D01*
X131930666Y-107634814D01*
X132097203Y-107689999D01*
X132199991Y-107700500D01*
X133074901Y-107700499D01*
X133141940Y-107720183D01*
X133162582Y-107736818D01*
X133348181Y-107922416D01*
X133381666Y-107983739D01*
X133384500Y-108010097D01*
X133384500Y-114360908D01*
X133364815Y-114427947D01*
X133312914Y-114473286D01*
X133307175Y-114475962D01*
X133223614Y-114534471D01*
X133157408Y-114556798D01*
X133089640Y-114539786D01*
X133064811Y-114520576D01*
X124081019Y-105536784D01*
X124047534Y-105475461D01*
X124044700Y-105449103D01*
X124044700Y-96399997D01*
X124064385Y-96332958D01*
X124117189Y-96287203D01*
X124186347Y-96277259D01*
X124249903Y-96306284D01*
X124256381Y-96312316D01*
X125072781Y-97128716D01*
X125106266Y-97190039D01*
X125109100Y-97216397D01*
X125109100Y-98176630D01*
X125109099Y-98176648D01*
X125109099Y-98342354D01*
X125109098Y-98342354D01*
X125150023Y-98495085D01*
X125169637Y-98529057D01*
X125169636Y-98529057D01*
X125169637Y-98529058D01*
X125229075Y-98632009D01*
X125229081Y-98632017D01*
X125347949Y-98750885D01*
X125347955Y-98750890D01*
X131549639Y-104952574D01*
X131549649Y-104952585D01*
X131553979Y-104956915D01*
X131553980Y-104956916D01*
X131665784Y-105068720D01*
X131665786Y-105068721D01*
X131665790Y-105068724D01*
X131802709Y-105147773D01*
X131802716Y-105147777D01*
X131914519Y-105177734D01*
X131955442Y-105188700D01*
X131955443Y-105188700D01*
X137344131Y-105188700D01*
X137344147Y-105188701D01*
X137351743Y-105188701D01*
X137509854Y-105188701D01*
X137509857Y-105188701D01*
X137662585Y-105147777D01*
X137712704Y-105118839D01*
X137799516Y-105068720D01*
X137911320Y-104956916D01*
X137911320Y-104956914D01*
X137921528Y-104946707D01*
X137921530Y-104946704D01*
X138126406Y-104741828D01*
X138126411Y-104741824D01*
X138136614Y-104731620D01*
X138136616Y-104731620D01*
X138248420Y-104619816D01*
X138327477Y-104482884D01*
X138361364Y-104356415D01*
X138368400Y-104330158D01*
X138368400Y-104172043D01*
X138368400Y-100701759D01*
X138368401Y-100701746D01*
X138368401Y-100533645D01*
X138368401Y-100533643D01*
X138327477Y-100380915D01*
X138278431Y-100295965D01*
X138248420Y-100243984D01*
X138136616Y-100132180D01*
X138136615Y-100132179D01*
X138132285Y-100127849D01*
X138132274Y-100127839D01*
X137664519Y-99660084D01*
X137631034Y-99598761D01*
X137628200Y-99572403D01*
X137628200Y-99149986D01*
X137900001Y-99149986D01*
X137910494Y-99252697D01*
X137965641Y-99419119D01*
X137965643Y-99419124D01*
X138057684Y-99568345D01*
X138181654Y-99692315D01*
X138330875Y-99784356D01*
X138330880Y-99784358D01*
X138497302Y-99839505D01*
X138497309Y-99839506D01*
X138600019Y-99849999D01*
X138712499Y-99849999D01*
X139212500Y-99849999D01*
X139324972Y-99849999D01*
X139324986Y-99849998D01*
X139427697Y-99839505D01*
X139594119Y-99784358D01*
X139594124Y-99784356D01*
X139743345Y-99692315D01*
X139867315Y-99568345D01*
X139959356Y-99419124D01*
X139959358Y-99419119D01*
X140014505Y-99252697D01*
X140014506Y-99252690D01*
X140024999Y-99149986D01*
X140025000Y-99149973D01*
X140025000Y-98725000D01*
X139212500Y-98725000D01*
X139212500Y-99849999D01*
X138712499Y-99849999D01*
X138712500Y-99849998D01*
X138712500Y-98725000D01*
X137900001Y-98725000D01*
X137900001Y-99149986D01*
X137628200Y-99149986D01*
X137628200Y-97800013D01*
X137900000Y-97800013D01*
X137900000Y-98225000D01*
X138712500Y-98225000D01*
X139212500Y-98225000D01*
X140024999Y-98225000D01*
X140024999Y-97800028D01*
X140024998Y-97800013D01*
X140022441Y-97774983D01*
X141387000Y-97774983D01*
X141387000Y-99125001D01*
X141387001Y-99125018D01*
X141397500Y-99227796D01*
X141397501Y-99227799D01*
X141452685Y-99394331D01*
X141452687Y-99394336D01*
X141468104Y-99419331D01*
X141544788Y-99543656D01*
X141668844Y-99667712D01*
X141818166Y-99759814D01*
X141984703Y-99814999D01*
X142087491Y-99825500D01*
X142812508Y-99825499D01*
X142812516Y-99825498D01*
X142812519Y-99825498D01*
X142868802Y-99819748D01*
X142915297Y-99814999D01*
X143081834Y-99759814D01*
X143231156Y-99667712D01*
X143355212Y-99543656D01*
X143447314Y-99394334D01*
X143502499Y-99227797D01*
X143513000Y-99125009D01*
X143513000Y-99124986D01*
X144312501Y-99124986D01*
X144322994Y-99227697D01*
X144378141Y-99394119D01*
X144378143Y-99394124D01*
X144470184Y-99543345D01*
X144594154Y-99667315D01*
X144743375Y-99759356D01*
X144743380Y-99759358D01*
X144909802Y-99814505D01*
X144909809Y-99814506D01*
X145012519Y-99824999D01*
X145124999Y-99824999D01*
X145125000Y-99824998D01*
X145125000Y-98700000D01*
X144312501Y-98700000D01*
X144312501Y-99124986D01*
X143513000Y-99124986D01*
X143512999Y-97775026D01*
X144312500Y-97775026D01*
X144312500Y-98200000D01*
X145125000Y-98200000D01*
X145125000Y-97075000D01*
X145012527Y-97075000D01*
X145012512Y-97075001D01*
X144909802Y-97085494D01*
X144743380Y-97140641D01*
X144743375Y-97140643D01*
X144594154Y-97232684D01*
X144470184Y-97356654D01*
X144378143Y-97505875D01*
X144378141Y-97505880D01*
X144322994Y-97672302D01*
X144322993Y-97672309D01*
X144312502Y-97774996D01*
X144312500Y-97775026D01*
X143512999Y-97775026D01*
X143512999Y-97774992D01*
X143502499Y-97672203D01*
X143447314Y-97505666D01*
X143355212Y-97356344D01*
X143231156Y-97232288D01*
X143109402Y-97157190D01*
X143062679Y-97105243D01*
X143050500Y-97051652D01*
X143050500Y-96305300D01*
X143070185Y-96238261D01*
X143122989Y-96192506D01*
X143135482Y-96187599D01*
X143219334Y-96159814D01*
X143368656Y-96067712D01*
X143492712Y-95943656D01*
X143584814Y-95794334D01*
X143639999Y-95627797D01*
X143650500Y-95525009D01*
X143650499Y-94174992D01*
X143639999Y-94072203D01*
X143584814Y-93905666D01*
X143492712Y-93756344D01*
X143368656Y-93632288D01*
X143259864Y-93565185D01*
X143219336Y-93540187D01*
X143219331Y-93540185D01*
X143210815Y-93537363D01*
X143052797Y-93485001D01*
X143052795Y-93485000D01*
X142950010Y-93474500D01*
X142099998Y-93474500D01*
X142099980Y-93474501D01*
X141997203Y-93485000D01*
X141997200Y-93485001D01*
X141830668Y-93540185D01*
X141830663Y-93540187D01*
X141681342Y-93632289D01*
X141557289Y-93756342D01*
X141465187Y-93905663D01*
X141465186Y-93905666D01*
X141410001Y-94072203D01*
X141410001Y-94072204D01*
X141410000Y-94072204D01*
X141399500Y-94174983D01*
X141399500Y-95525001D01*
X141399501Y-95525018D01*
X141410000Y-95627796D01*
X141410001Y-95627799D01*
X141465185Y-95794331D01*
X141465187Y-95794336D01*
X141498159Y-95847792D01*
X141557288Y-95943656D01*
X141681344Y-96067712D01*
X141790597Y-96135099D01*
X141837321Y-96187047D01*
X141849500Y-96240638D01*
X141849500Y-97051652D01*
X141829815Y-97118691D01*
X141790598Y-97157189D01*
X141713335Y-97204845D01*
X141668842Y-97232289D01*
X141544789Y-97356342D01*
X141452687Y-97505663D01*
X141452685Y-97505668D01*
X141440560Y-97542260D01*
X141397501Y-97672203D01*
X141397501Y-97672204D01*
X141397500Y-97672204D01*
X141387000Y-97774983D01*
X140022441Y-97774983D01*
X140014505Y-97697302D01*
X139959358Y-97530880D01*
X139959356Y-97530875D01*
X139867315Y-97381654D01*
X139743345Y-97257684D01*
X139594124Y-97165643D01*
X139594119Y-97165641D01*
X139427697Y-97110494D01*
X139427690Y-97110493D01*
X139324986Y-97100000D01*
X139212500Y-97100000D01*
X139212500Y-98225000D01*
X138712500Y-98225000D01*
X138712500Y-97100000D01*
X138600027Y-97100000D01*
X138600012Y-97100001D01*
X138497302Y-97110494D01*
X138330880Y-97165641D01*
X138330875Y-97165643D01*
X138181654Y-97257684D01*
X138057684Y-97381654D01*
X137965643Y-97530875D01*
X137965641Y-97530880D01*
X137910494Y-97697302D01*
X137910493Y-97697309D01*
X137900000Y-97800013D01*
X137628200Y-97800013D01*
X137628200Y-95912888D01*
X137647885Y-95845849D01*
X137700689Y-95800094D01*
X137769847Y-95790150D01*
X137833403Y-95819175D01*
X137857739Y-95847792D01*
X137916868Y-95943657D01*
X137932288Y-95968656D01*
X138056344Y-96092712D01*
X138205666Y-96184814D01*
X138372203Y-96239999D01*
X138474991Y-96250500D01*
X139325008Y-96250499D01*
X139325016Y-96250498D01*
X139325019Y-96250498D01*
X139381302Y-96244748D01*
X139427797Y-96239999D01*
X139594334Y-96184814D01*
X139743656Y-96092712D01*
X139867712Y-95968656D01*
X139959814Y-95819334D01*
X140014999Y-95652797D01*
X140025500Y-95550009D01*
X140025499Y-94199992D01*
X140014999Y-94097203D01*
X139959814Y-93930666D01*
X139867712Y-93781344D01*
X139743656Y-93657288D01*
X139594334Y-93565186D01*
X139594333Y-93565185D01*
X139594332Y-93565185D01*
X139585493Y-93562256D01*
X139528049Y-93522482D01*
X139501228Y-93457965D01*
X139500500Y-93444551D01*
X139500500Y-93219445D01*
X139500500Y-93219443D01*
X139459577Y-93066716D01*
X139416929Y-92992846D01*
X139380524Y-92929790D01*
X139380521Y-92929786D01*
X139380520Y-92929784D01*
X139268716Y-92817980D01*
X139268715Y-92817979D01*
X139264385Y-92813649D01*
X139264374Y-92813639D01*
X139210075Y-92759340D01*
X139176590Y-92698017D01*
X139181574Y-92628325D01*
X139223446Y-92572392D01*
X139283870Y-92548439D01*
X139330655Y-92543168D01*
X139500922Y-92483589D01*
X139653662Y-92387616D01*
X139781216Y-92260062D01*
X139877189Y-92107322D01*
X139936768Y-91937055D01*
X139954040Y-91783762D01*
X139956965Y-91757803D01*
X139956965Y-91757796D01*
X139936769Y-91578550D01*
X139936768Y-91578545D01*
X139919333Y-91528720D01*
X139877189Y-91408278D01*
X139781216Y-91255538D01*
X139781214Y-91255536D01*
X139781213Y-91255534D01*
X139778950Y-91252696D01*
X139778059Y-91250515D01*
X139777511Y-91249642D01*
X139777664Y-91249545D01*
X139752544Y-91188009D01*
X139751900Y-91175387D01*
X139751900Y-90537202D01*
X139771585Y-90470163D01*
X139824389Y-90424408D01*
X139893547Y-90414464D01*
X139921036Y-90422656D01*
X139921256Y-90422053D01*
X139926331Y-90423900D01*
X139926337Y-90423903D01*
X139926342Y-90423904D01*
X139926344Y-90423905D01*
X139943486Y-90428498D01*
X140154592Y-90485063D01*
X140342918Y-90501539D01*
X140389999Y-90505659D01*
X140390000Y-90505659D01*
X140390001Y-90505659D01*
X140429234Y-90502226D01*
X140625408Y-90485063D01*
X140853663Y-90423903D01*
X140958697Y-90374924D01*
X141027772Y-90364433D01*
X141091556Y-90392952D01*
X141129796Y-90451429D01*
X141135100Y-90487307D01*
X141135100Y-90755887D01*
X141115415Y-90822926D01*
X141108050Y-90833196D01*
X141105786Y-90836034D01*
X141009811Y-90988776D01*
X140950231Y-91159045D01*
X140950230Y-91159050D01*
X140930035Y-91338296D01*
X140930035Y-91338303D01*
X140950230Y-91517549D01*
X140950231Y-91517554D01*
X141009811Y-91687823D01*
X141053781Y-91757800D01*
X141105784Y-91840562D01*
X141233338Y-91968116D01*
X141386078Y-92064089D01*
X141411030Y-92072820D01*
X141556345Y-92123668D01*
X141556350Y-92123669D01*
X141735596Y-92143865D01*
X141735600Y-92143865D01*
X141735604Y-92143865D01*
X141914849Y-92123669D01*
X141914852Y-92123668D01*
X141914855Y-92123668D01*
X142085122Y-92064089D01*
X142237862Y-91968116D01*
X142365416Y-91840562D01*
X142461389Y-91687822D01*
X142520968Y-91517555D01*
X142532307Y-91416917D01*
X142541165Y-91338303D01*
X142541165Y-91338296D01*
X142520969Y-91159050D01*
X142520968Y-91159045D01*
X142461388Y-90988776D01*
X142400266Y-90891501D01*
X142365416Y-90836038D01*
X142365414Y-90836036D01*
X142365413Y-90836034D01*
X142363150Y-90833196D01*
X142362259Y-90831015D01*
X142361711Y-90830142D01*
X142361864Y-90830045D01*
X142336744Y-90768509D01*
X142336100Y-90755887D01*
X142336100Y-90550606D01*
X142355785Y-90483567D01*
X142408589Y-90437812D01*
X142477747Y-90427868D01*
X142492192Y-90430830D01*
X142694592Y-90485063D01*
X142882918Y-90501539D01*
X142929999Y-90505659D01*
X142930000Y-90505659D01*
X142930001Y-90505659D01*
X142969234Y-90502226D01*
X143165408Y-90485063D01*
X143393663Y-90423903D01*
X143607830Y-90324035D01*
X143801401Y-90188495D01*
X143968495Y-90021401D01*
X144095653Y-89839799D01*
X144150229Y-89796176D01*
X144219727Y-89788982D01*
X144282082Y-89820505D01*
G37*
%TD.AperFunction*%
%TA.AperFunction,Conductor*%
G36*
X136506854Y-91770436D02*
G01*
X136551202Y-91798937D01*
X138163914Y-93411649D01*
X138197399Y-93472972D01*
X138192415Y-93542664D01*
X138150543Y-93598597D01*
X138141337Y-93604863D01*
X138096876Y-93632288D01*
X138056342Y-93657289D01*
X137932289Y-93781342D01*
X137845502Y-93922047D01*
X137793554Y-93968771D01*
X137724591Y-93979994D01*
X137660509Y-93952150D01*
X137621653Y-93894081D01*
X137620188Y-93889043D01*
X137590584Y-93778557D01*
X137590584Y-93778556D01*
X137587277Y-93766216D01*
X137587277Y-93766215D01*
X137558339Y-93716095D01*
X137508220Y-93629284D01*
X137396416Y-93517480D01*
X137396415Y-93517479D01*
X137392085Y-93513149D01*
X137392074Y-93513139D01*
X136082770Y-92203835D01*
X136049285Y-92142512D01*
X136054269Y-92072820D01*
X136096141Y-92016887D01*
X136105114Y-92011453D01*
X136104826Y-92010994D01*
X136181478Y-91962830D01*
X136263462Y-91911316D01*
X136375843Y-91798934D01*
X136437162Y-91765452D01*
X136506854Y-91770436D01*
G37*
%TD.AperFunction*%
%TA.AperFunction,Conductor*%
G36*
X144041827Y-75470184D02*
G01*
X144082173Y-75512497D01*
X144133188Y-75600857D01*
X144144479Y-75620414D01*
X144144481Y-75620417D01*
X144263349Y-75739285D01*
X144263355Y-75739290D01*
X145703381Y-77179316D01*
X145736866Y-77240639D01*
X145739700Y-77266997D01*
X145739700Y-78747570D01*
X145720015Y-78814609D01*
X145703381Y-78835251D01*
X145607289Y-78931342D01*
X145515187Y-79080663D01*
X145515185Y-79080668D01*
X145515115Y-79080880D01*
X145460001Y-79247203D01*
X145460001Y-79247204D01*
X145460000Y-79247204D01*
X145449500Y-79349983D01*
X145449500Y-80750001D01*
X145449501Y-80750018D01*
X145460000Y-80852796D01*
X145460001Y-80852799D01*
X145499825Y-80972979D01*
X145515186Y-81019334D01*
X145607096Y-81168345D01*
X145607289Y-81168657D01*
X145703381Y-81264749D01*
X145736866Y-81326072D01*
X145739700Y-81352430D01*
X145739700Y-87750803D01*
X145720015Y-87817842D01*
X145703381Y-87838484D01*
X145454281Y-88087584D01*
X145392958Y-88121069D01*
X145323266Y-88116085D01*
X145267333Y-88074213D01*
X145242916Y-88008749D01*
X145242600Y-87999903D01*
X145242600Y-86478212D01*
X145262285Y-86411173D01*
X145269655Y-86400897D01*
X145271910Y-86398067D01*
X145271916Y-86398062D01*
X145367889Y-86245322D01*
X145427468Y-86075055D01*
X145429663Y-86055576D01*
X145447665Y-85895803D01*
X145447665Y-85895796D01*
X145427469Y-85716550D01*
X145427468Y-85716545D01*
X145410047Y-85666758D01*
X145367889Y-85546278D01*
X145344927Y-85509735D01*
X145308724Y-85452118D01*
X145271916Y-85393538D01*
X145144362Y-85265984D01*
X145078551Y-85224632D01*
X144991623Y-85170011D01*
X144821354Y-85110431D01*
X144821349Y-85110430D01*
X144642104Y-85090235D01*
X144642096Y-85090235D01*
X144462850Y-85110430D01*
X144462845Y-85110431D01*
X144292576Y-85170011D01*
X144139837Y-85265984D01*
X144012284Y-85393537D01*
X144012282Y-85393540D01*
X143939271Y-85509735D01*
X143886936Y-85556026D01*
X143817883Y-85566673D01*
X143763154Y-85545336D01*
X143607585Y-85436404D01*
X143607579Y-85436400D01*
X143393492Y-85336570D01*
X143393486Y-85336567D01*
X143180000Y-85279364D01*
X143180000Y-86176988D01*
X143122993Y-86144075D01*
X142995826Y-86110000D01*
X142864174Y-86110000D01*
X142737007Y-86144075D01*
X142680000Y-86176988D01*
X142680000Y-85279364D01*
X142679999Y-85279363D01*
X142492193Y-85329686D01*
X142422343Y-85328023D01*
X142364481Y-85288860D01*
X142336977Y-85224632D01*
X142336100Y-85209911D01*
X142336100Y-81084213D01*
X142355785Y-81017174D01*
X142408589Y-80971419D01*
X142477747Y-80961475D01*
X142541303Y-80990500D01*
X142565639Y-81019116D01*
X142657684Y-81168345D01*
X142781654Y-81292315D01*
X142930875Y-81384356D01*
X142930880Y-81384358D01*
X143097302Y-81439505D01*
X143097309Y-81439506D01*
X143200019Y-81449999D01*
X143324999Y-81449999D01*
X143825000Y-81449999D01*
X143949972Y-81449999D01*
X143949986Y-81449998D01*
X144052697Y-81439505D01*
X144219119Y-81384358D01*
X144219124Y-81384356D01*
X144368345Y-81292315D01*
X144492315Y-81168345D01*
X144584356Y-81019124D01*
X144584360Y-81019116D01*
X144639505Y-80852697D01*
X144639506Y-80852690D01*
X144649999Y-80749986D01*
X144650000Y-80749973D01*
X144650000Y-80300000D01*
X143825000Y-80300000D01*
X143825000Y-81449999D01*
X143324999Y-81449999D01*
X143325000Y-81449998D01*
X143325000Y-79800000D01*
X143825000Y-79800000D01*
X144649999Y-79800000D01*
X144649999Y-79350028D01*
X144649998Y-79350013D01*
X144639505Y-79247302D01*
X144584358Y-79080880D01*
X144584356Y-79080875D01*
X144492315Y-78931654D01*
X144368345Y-78807684D01*
X144219124Y-78715643D01*
X144219119Y-78715641D01*
X144052697Y-78660494D01*
X144052690Y-78660493D01*
X143949986Y-78650000D01*
X143825000Y-78650000D01*
X143825000Y-79800000D01*
X143325000Y-79800000D01*
X143325000Y-78650000D01*
X143200027Y-78650000D01*
X143200012Y-78650001D01*
X143097302Y-78660494D01*
X142930880Y-78715641D01*
X142930875Y-78715643D01*
X142781654Y-78807684D01*
X142657684Y-78931654D01*
X142565639Y-79080883D01*
X142513691Y-79127608D01*
X142444728Y-79138829D01*
X142380646Y-79110986D01*
X142341790Y-79052917D01*
X142336100Y-79015786D01*
X142336100Y-75574499D01*
X142355785Y-75507460D01*
X142408589Y-75461705D01*
X142460100Y-75450499D01*
X143974788Y-75450499D01*
X144041827Y-75470184D01*
G37*
%TD.AperFunction*%
%TA.AperFunction,Conductor*%
G36*
X138020339Y-75470184D02*
G01*
X138066094Y-75522988D01*
X138077300Y-75574499D01*
X138077300Y-78463200D01*
X138057615Y-78530239D01*
X138004811Y-78575994D01*
X137935653Y-78585938D01*
X137914297Y-78580906D01*
X137852701Y-78560495D01*
X137852690Y-78560493D01*
X137749986Y-78550000D01*
X137625000Y-78550000D01*
X137625000Y-80076000D01*
X137605315Y-80143039D01*
X137552511Y-80188794D01*
X137501000Y-80200000D01*
X136300001Y-80200000D01*
X136300001Y-80649986D01*
X136310494Y-80752697D01*
X136365641Y-80919119D01*
X136365643Y-80919124D01*
X136457684Y-81068345D01*
X136581654Y-81192315D01*
X136731634Y-81284824D01*
X136778358Y-81336772D01*
X136789581Y-81405735D01*
X136761737Y-81469817D01*
X136754218Y-81478044D01*
X134890081Y-83342182D01*
X134828758Y-83375667D01*
X134759066Y-83370683D01*
X134703133Y-83328811D01*
X134678716Y-83263347D01*
X134678400Y-83254501D01*
X134678400Y-81474499D01*
X134698085Y-81407460D01*
X134750889Y-81361705D01*
X134796911Y-81351692D01*
X134796859Y-81350659D01*
X134799998Y-81350499D01*
X134800008Y-81350499D01*
X134902797Y-81339999D01*
X135069334Y-81284814D01*
X135218656Y-81192712D01*
X135342712Y-81068656D01*
X135434814Y-80919334D01*
X135489999Y-80752797D01*
X135500500Y-80650009D01*
X135500499Y-79250013D01*
X136300000Y-79250013D01*
X136300000Y-79700000D01*
X137125000Y-79700000D01*
X137125000Y-78550000D01*
X137000027Y-78550000D01*
X137000012Y-78550001D01*
X136897302Y-78560494D01*
X136730880Y-78615641D01*
X136730875Y-78615643D01*
X136581654Y-78707684D01*
X136457684Y-78831654D01*
X136365643Y-78980875D01*
X136365641Y-78980880D01*
X136310494Y-79147302D01*
X136310493Y-79147309D01*
X136300000Y-79250013D01*
X135500499Y-79250013D01*
X135500499Y-79249992D01*
X135489999Y-79147203D01*
X135434814Y-78980666D01*
X135342712Y-78831344D01*
X135218656Y-78707288D01*
X135084402Y-78624480D01*
X135037679Y-78572533D01*
X135025500Y-78518942D01*
X135025500Y-77251796D01*
X135045185Y-77184757D01*
X135061814Y-77164120D01*
X136483506Y-75742427D01*
X136483511Y-75742424D01*
X136493714Y-75732220D01*
X136493716Y-75732220D01*
X136605520Y-75620416D01*
X136667825Y-75512498D01*
X136718391Y-75464284D01*
X136775212Y-75450499D01*
X137953300Y-75450499D01*
X138020339Y-75470184D01*
G37*
%TD.AperFunction*%
%TD*%
M02*
